<svg width="301" height="510" viewBox="0 0 301 510" fill="none" xmlns="http://www.w3.org/2000/svg">
<path opacity="0.5" d="M150.5 510C233.619 510 301 495.673 301 478C301 460.327 233.619 446 150.5 446C67.3811 446 0 460.327 0 478C0 495.673 67.3811 510 150.5 510Z" fill="url(#paint0_radial)"/>
<path d="M61.3078 154.571C61.3078 154.571 58.6732 150.002 56.3712 148.343C54.0947 146.685 50.4371 147.016 47.5979 143.903C44.7587 140.789 40.3337 143.852 40.2569 137.956C40.1802 132.061 42.7892 133.643 39.771 130.836C36.7783 128.029 41.5103 125.17 41.5103 125.17C41.5103 125.17 37.5712 121.495 39.0548 118.331C40.5639 115.192 46.012 115.268 56.6526 119.428C56.6526 119.428 62.5611 116.34 64.0958 118.331C65.6305 120.296 64.1981 137.931 64.1981 137.931L70.209 148.854L61.3078 154.571Z" fill="#FBC0A4"/>
<path d="M70.2344 144.566L66.9604 139.335C66.9604 139.335 56.7547 145.026 53.9411 152.912L59.0567 156.383L70.2344 144.566Z" fill="#F8E8D8"/>
<path d="M52.6867 121.904C52.4309 121.011 51.7659 120.322 51.1264 119.684C50.1545 118.714 49.2081 117.718 48.2361 116.749C44.9621 116.008 42.6089 115.983 41.0486 116.595C44.4505 119.326 48.0059 121.878 51.7147 124.201C52.5844 123.894 52.9425 122.797 52.6867 121.904Z" fill="#F69D7D"/>
<path d="M56.7031 119.454C51.255 124.201 47.4438 130.351 48.8762 131.831C50.3086 133.311 56.7031 128.667 56.7031 128.667L55.9869 133.975C55.9869 133.975 49.4645 137.497 47.2903 132.444C45.0906 127.416 56.7031 119.454 56.7031 119.454Z" fill="#F69D7D"/>
<path d="M53.7368 122.108C53.8135 122.031 53.8647 122.006 53.9414 121.98L11.3793 75.6343L9.00055 78.4161L52.8927 123.052C53.1485 122.72 53.4299 122.414 53.7368 122.108Z" fill="url(#paint1_linear)"/>
<path d="M127.223 121.572C125.228 125.911 106.172 171.976 106.172 171.976C106.172 171.976 100.801 166.055 101.235 171.976L71.0788 141.096C71.0788 141.096 57.1898 145.791 56.0644 158.041C56.0644 158.041 93.5364 209.441 107.118 210.844C120.726 212.248 133.055 174.069 133.055 174.069L127.223 121.572Z" fill="#3E3533"/>
<path d="M127.223 121.572C125.228 125.911 106.172 171.976 106.172 171.976C106.172 171.976 100.801 166.055 101.235 171.976L71.0788 141.096C71.0788 141.096 57.1898 145.791 56.0644 158.041C56.0644 158.041 93.5364 209.441 107.118 210.844C120.726 212.248 133.055 174.069 133.055 174.069L127.223 121.572Z" fill="url(#paint2_linear)"/>
<path d="M204.879 64.5328C204.879 64.5328 201.195 64.3286 199.61 62.3891C198.024 60.4495 203.216 44.601 203.216 44.601C203.216 44.601 198.279 40.3645 198.228 34.3926C198.177 28.4207 202.116 25.3582 208.255 25.741C214.419 26.1238 223.295 34.2905 223.295 34.2905L218.793 36.6129C218.793 36.6129 217.335 50.139 215.417 53.6098C213.447 57.0807 204.879 64.5328 204.879 64.5328Z" fill="#3E3533"/>
<path d="M216.721 38.1695C214.905 46.6169 208.945 67.442 208.945 67.442L203.625 61.3935L206.285 35.3367L216.721 38.1695Z" fill="#3E3533"/>
<path d="M194.468 461.409L192.089 448.75L177.637 450.843L178.405 462.736C178.405 462.736 181.116 468.07 188.713 468.197C196.309 468.3 194.468 461.409 194.468 461.409Z" fill="#302624"/>
<path d="M129.909 453.344L130.395 463.655L127.632 470.341L115.687 466.564L113.078 458.933L112.208 447.066L129.909 453.344Z" fill="#302624"/>
<path d="M85.4792 470.826C89.188 468.989 100.954 465.441 109.165 458.934C110.06 458.219 111.236 457.938 112.387 458.168L113.027 458.296C113.027 458.296 114.101 463.808 120.163 465.773C124.256 467.075 130.369 463.655 130.369 463.655L131.469 478.253H84.3537C83.3818 477.768 83.1004 476.747 83.1004 476.747C83.1004 476.747 80.7728 473.2 85.4792 470.826Z" fill="#302624"/>
<path d="M127.608 221.359C127.608 221.359 120.344 313.923 119.628 322.345C118.911 330.767 110.01 456.075 110.01 456.075C121.162 460.414 133.184 457.07 133.184 457.07L152.675 330.742L165.515 263.366L169.838 262.167C169.838 262.167 171.295 344.191 171.347 343.757C171.372 343.349 173.188 453.88 173.188 453.88C183.982 459.316 198.997 453.446 198.997 453.446C198.997 453.446 203.677 346.207 204.982 339.929C206.286 333.651 206.645 213.371 206.645 213.371L127.608 221.359Z" fill="#3E3533"/>
<path d="M125.406 246.471C141.316 251.958 177.304 260.176 206.617 248.181C206.668 240.678 206.54 230.699 206.566 225.442L126.736 232.358C126.378 236.978 125.918 240.066 125.406 246.471Z" fill="#302624"/>
<path d="M130.24 212.988C130.854 210.717 131.34 209.288 131.34 209.288L201.833 212.172C201.833 212.172 202.089 213.601 202.473 216.051C202.115 216.536 201.833 216.893 201.833 216.893C170.372 229.73 147.607 229.73 130.24 212.988Z" fill="#330E00"/>
<path d="M217.359 153.167L205.005 198.467L211.297 240.78C211.297 240.78 155.486 261.937 120.469 239.147L127.657 144.592L217.359 153.167Z" fill="#3E3533"/>
<path d="M138.936 113.406C136.148 114.58 117.118 119.76 127.656 144.567L130.879 211.457C130.879 211.457 127.298 221.768 129.549 223.962C146.916 240.781 169.732 240.781 201.219 227.944C201.219 227.944 202.881 225.825 203.086 224.983C204.237 220.441 200.4 207.757 200.4 207.757L217.998 153.167C217.998 153.167 235.34 129.611 223.855 121.062C205.771 107.612 168.53 100.977 138.936 113.406Z" fill="#3E3533"/>
<path d="M120.446 239.147L124.615 184.277C132.724 193.796 139.195 204.694 143.569 216.408C162.164 206.786 178.432 192.724 190.633 175.727C186.054 187.977 181.45 200.202 176.872 212.452C188.765 198.518 207.54 160.9 219.434 146.965L204.982 198.492L211.274 240.806C211.274 240.78 155.488 261.937 120.446 239.147Z" fill="url(#paint3_linear)"/>
<path d="M156.944 105.315C156.944 105.315 149.987 105.009 148.734 105.8C147.48 106.566 144.309 115.677 143.669 117.106C143.03 118.535 152.11 127.008 152.11 127.008C152.11 127.008 144.615 139.284 144.922 140.253C145.229 141.249 158.504 194.868 158.504 194.868C158.504 194.868 190.758 146.965 191.398 144.566C192.063 142.193 188.303 129.866 188.303 129.866C188.303 129.866 197.844 122.848 198.406 121.317C198.995 119.786 200.197 110.011 198.406 108.761C197.306 107.995 190.886 106.566 190.886 106.566L156.944 105.315Z" fill="#302624"/>
<path d="M190.912 108.888C190.912 108.888 181.039 134.307 172.342 156.689C165.513 174.298 157.942 155.872 157.942 155.872L155.819 105.417C156.279 105.392 157.277 105.264 157.737 105.239L190.912 108.888Z" fill="#F8E8D8"/>
<path d="M158.299 121.521C156.33 121.062 156.227 114.886 156.227 114.886L155.844 105.545C155.869 105.494 155.895 105.443 155.895 105.392C156.381 105.341 157.302 105.239 157.762 105.213L188.303 108.582C188.2 108.939 189.428 111.491 189.198 112.206C187.433 117.412 181.729 124.89 180.578 125.069C179.222 125.273 175.82 121.368 175.36 120.092C174.669 120.73 173.467 122.619 172.751 123.257C172.367 132.342 172.7 144.286 172.853 155.336C167.559 168.965 162.622 181.674 160.499 187.161C160.115 187.671 159.732 188.156 159.348 188.616L158.197 161.615C161.65 148.624 165.078 135.609 168.531 122.619C167.431 121.113 166.024 120.015 164.924 118.51C163.134 120.296 160.857 121.521 158.299 121.521Z" fill="url(#paint4_linear)"/>
<path d="M165.385 110.368C168.352 112.078 174.465 112.971 177.79 113.048C182.727 113.175 180.757 110.292 182.394 109.858L198.432 72.9034L169.426 85.9446L169.349 87.1697L165.385 110.368Z" fill="#FBC0A4"/>
<path d="M173.34 98.8838C176.511 98.501 179.351 97.6077 182.241 96.2806C184.978 95.0301 187.638 93.6009 190.144 91.9676L198.406 72.9034L169.401 85.9447L169.324 87.1697L167.226 99.4197C169.273 99.2411 171.319 99.1135 173.34 98.8838Z" fill="#F69D7D"/>
<path d="M157.968 155.872L168.301 121.087L163.774 116.034L171.447 111.338L177.305 116.749L171.831 121.572C171.831 121.572 173.135 137.701 172.343 156.689C165.513 174.298 159.4 190.019 159.4 190.019L157.968 155.872Z" fill="url(#paint5_linear)"/>
<path d="M186.462 100.492C186.462 100.492 174.798 111.645 171.805 111.16C168.813 110.675 167.253 99.4456 167.253 99.4456C167.253 99.4456 156.586 102.508 155.307 103.988C154.003 105.469 157.2 120.015 158.582 120.73C161.523 122.21 170.424 112.308 172.036 113.584C173.647 114.835 178.226 123.308 179.735 123.129C181.244 122.95 193.266 111.134 192.575 106.796C191.884 102.457 186.462 100.492 186.462 100.492Z" fill="#F8E8D8"/>
<path d="M208.894 53.2271C208.894 53.2271 218.921 50.9557 217.539 62.874C216.158 74.8178 207.487 75.0475 204.929 75.5579C204.929 75.5579 200.172 96.8168 173.877 94.7752C147.583 92.7335 151.906 72.4443 152.085 58.9693C152.289 45.4942 150.78 22.117 167.969 20.4071C185.311 18.6972 210.403 19.8201 208.894 53.2271Z" fill="#FBC0A4"/>
<path d="M170.271 77.6503C170.475 76.8847 170.757 76.1701 171.089 75.5321C171.089 75.5321 176.947 74.9706 177.049 75.2003C177.739 76.5785 177.765 78.2628 177.509 79.8196C177.279 81.1467 176.87 82.5248 175.923 83.5202C175.003 84.5155 173.468 85.0259 172.215 84.4644C169.913 83.3926 169.58 80.33 170.271 77.6503Z" fill="#CB4453"/>
<path d="M177.612 77.2679C176.257 77.4721 175.003 78.0846 173.904 78.9013C172.522 79.9476 171.371 81.3258 170.578 82.8826C170.936 83.5461 171.474 84.1076 172.215 84.4393C173.443 85.0008 174.978 84.4904 175.924 83.4951C176.845 82.4997 177.28 81.1471 177.51 79.7945C177.638 78.9778 177.689 78.1101 177.612 77.2679Z" fill="#DD5664"/>
<path d="M177.049 75.2005C176.921 74.9708 176.793 74.7411 176.64 74.5115C174.593 71.7552 172.394 73.0568 171.089 75.5323C173.084 75.4302 175.054 75.3026 177.049 75.2005Z" fill="#F8E8D8"/>
<path d="M170.782 72.0615C170.808 71.8063 169.938 71.5766 169.478 70.4537C169.248 69.8922 169.145 69.2542 169.324 68.463C169.478 67.6719 169.861 66.8042 170.322 65.8088C172.164 61.8276 173.289 58.4333 172.829 58.2291C172.368 58.025 170.527 61.0875 168.685 65.0687C168.224 66.0641 167.79 67.1359 167.687 68.2333C167.636 68.7948 167.662 69.3052 167.79 69.8156C167.918 70.3261 168.148 70.7344 168.404 71.0917C168.915 71.7807 169.58 72.138 170.041 72.2146C170.527 72.2912 170.782 72.1636 170.782 72.0615Z" fill="#F69D7D"/>
<path d="M191.218 51.8487C191.116 51.619 190.323 51.7466 189.121 51.7976C187.919 51.8487 186.282 51.7976 184.542 51.2362C182.88 50.7002 181.473 49.7815 180.552 49.0414C180.066 48.6586 179.682 48.3523 179.427 48.1226C179.145 47.8929 178.941 47.7909 178.838 47.8674C178.736 47.944 178.736 48.1737 178.864 48.531C178.992 48.9138 179.248 49.3987 179.657 49.9346C180.475 51.032 181.959 52.3081 184.056 52.9716C186.051 53.6096 188.072 53.482 189.351 53.0737C190.656 52.6398 191.321 52.0784 191.218 51.8487Z" fill="#3E3533"/>
<path d="M170.832 49.4242C170.909 49.3476 170.883 49.1179 170.704 48.7862C170.525 48.4544 170.244 47.995 169.732 47.4846C169.246 46.9742 168.505 46.4893 167.635 46.132C167.2 45.9533 166.74 45.8002 166.254 45.6981C166.024 45.6471 165.768 45.596 165.512 45.545C165.256 45.4939 165.026 45.4684 164.796 45.4429C162.622 45.1877 160.729 45.7236 159.527 46.3872C158.913 46.719 158.478 47.0507 158.197 47.3315C157.941 47.6122 157.839 47.8164 157.89 47.9184C157.966 48.0205 158.197 48.0205 158.555 47.9184C158.887 47.8419 159.373 47.7143 159.987 47.5611C161.164 47.2549 162.826 46.9997 164.566 47.2294C164.796 47.2549 165.052 47.2804 165.282 47.3315C165.486 47.357 165.717 47.3825 165.921 47.4335C166.356 47.5101 166.74 47.6122 167.123 47.7143C167.865 47.9184 168.479 48.1992 168.991 48.5054C169.937 49.1179 170.628 49.6283 170.832 49.4242Z" fill="#3E3533"/>
<path d="M183.393 72.9293C183.214 76.8085 186.232 80.1007 190.12 80.2793C194.008 80.458 197.308 77.4465 197.487 73.5673C197.666 69.6881 194.647 66.3959 190.76 66.2173C186.872 66.0386 183.572 69.0501 183.393 72.9293Z" fill="url(#paint6_radial)"/>
<path d="M151.495 71.4744C151.316 75.3536 154.334 78.6458 158.222 78.8245C162.109 79.0031 165.409 75.9917 165.588 72.1125C165.767 68.2333 162.749 64.9411 158.861 64.7624C154.973 64.5838 151.674 67.5953 151.495 71.4744Z" fill="url(#paint7_radial)"/>
<path d="M180.938 59.2754C180.861 61.215 182.344 62.8738 184.314 62.9504C186.258 63.027 187.92 61.5468 187.997 59.5816C188.074 57.6421 186.59 55.9832 184.621 55.9066C182.677 55.8045 181.014 57.3103 180.938 59.2754Z" fill="#3E3533"/>
<path d="M160.832 58.3568C160.755 60.2964 162.239 61.9552 164.208 62.0318C166.152 62.1084 167.815 60.6282 167.892 58.663C167.968 56.7235 166.485 55.0646 164.515 54.988C162.571 54.9115 160.909 56.4172 160.832 58.3568Z" fill="#3E3533"/>
<path d="M214.085 58.5607C215.006 61.7253 213.701 65.043 212.422 68.08C212.039 68.9733 211.629 69.9431 210.811 70.479C209.992 71.0405 208.688 70.9384 208.253 70.0707C207.844 69.2285 208.458 68.2587 208.918 67.442C209.404 66.6253 209.66 65.4003 208.867 64.8899C208.483 64.6602 208.023 64.6602 207.614 64.4561C206.769 63.9967 206.769 62.7972 207 61.8784C207.307 60.5769 207.793 59.3519 208.432 58.1779C209.071 57.0295 210.043 55.881 211.348 55.9065C212.729 55.9321 213.701 57.2592 214.085 58.5607Z" fill="url(#paint8_linear)"/>
<path d="M181.551 463.451C187.255 458.091 192.294 462.608 192.294 462.608L194.468 461.383C197.614 466.079 203.625 471.694 204.392 474.45C205.824 479.682 203.267 485.756 194.851 485.756C186.641 485.756 178.712 480.754 177.816 476.67C177.279 474.22 178.149 467.636 178.43 462.736L181.551 463.451Z" fill="#302624"/>
<path d="M152.648 330.742L153.031 328.726C148.785 343.553 142.851 363.587 141.777 363.638C140.089 363.715 123.233 361.035 122.491 358.815C122.158 357.819 120.752 342.737 119.294 326.301C117.554 349.474 109.983 456.075 109.983 456.075C121.135 460.414 133.157 457.07 133.157 457.07L152.648 330.742Z" fill="url(#paint9_linear)"/>
<path d="M198.97 453.472C198.97 453.472 198.97 453.37 198.97 453.242C198.97 453.217 198.97 453.166 198.97 453.14C198.97 453.038 198.97 452.885 198.995 452.732C199.021 452.272 199.046 451.583 199.072 450.716C199.072 450.511 199.098 450.307 199.098 450.078C199.123 449.669 199.123 449.261 199.149 448.802C199.149 448.623 199.174 448.444 199.174 448.266C199.225 447.245 199.277 446.096 199.328 444.82C199.328 444.616 199.353 444.412 199.353 444.182C199.379 443.468 199.43 442.702 199.456 441.911C199.456 441.885 199.456 441.885 199.456 441.86C199.481 441.018 199.532 440.15 199.584 439.231C199.584 439.078 199.609 438.95 199.609 438.797C199.711 436.552 199.814 434.127 199.942 431.524C199.942 431.269 199.967 431.013 199.967 430.758C200.172 426.318 200.402 421.418 200.632 416.288C200.632 416.211 200.632 416.109 200.632 416.033C200.735 414.119 200.811 412.153 200.914 410.163C200.914 410.086 200.914 410.035 200.914 409.959C201.681 393.549 202.576 375.556 203.344 361.903C203.344 361.877 203.344 361.877 203.344 361.852C203.548 358.432 203.727 355.293 203.906 352.511C200.479 354.987 194.647 358.917 192.294 358.84C188.841 358.738 177.203 349.27 176.512 345.059C175.975 341.69 172.01 310.121 170.424 297.59C170.834 319.717 171.269 344.013 171.294 343.783C171.294 343.757 171.294 343.91 171.294 344.217C171.294 344.268 171.294 344.344 171.294 344.421C171.32 345.671 171.371 348.708 171.448 352.996C171.448 353.251 171.448 353.506 171.473 353.762C171.499 355.318 171.524 357.054 171.55 358.891C171.55 359.504 171.575 360.142 171.575 360.78C171.627 363.357 171.678 366.139 171.703 369.1C171.703 369.457 171.703 369.84 171.729 370.223C172.266 402.813 173.11 453.88 173.11 453.88C175.131 454.901 177.305 455.514 179.505 455.871C180.246 455.973 180.963 456.075 181.704 456.126C182.446 456.177 183.162 456.203 183.879 456.203C184.595 456.203 185.311 456.177 186.027 456.152C186.743 456.101 187.434 456.049 188.099 455.973C188.764 455.896 189.429 455.82 190.068 455.718C191.015 455.565 191.936 455.386 192.78 455.207C193.342 455.08 193.88 454.952 194.391 454.825C197.179 454.161 198.97 453.472 198.97 453.472Z" fill="url(#paint10_linear)"/>
<path d="M208.893 53.2272C208.893 53.2272 204.775 56.2642 203.649 62.9507H200.631V51.3897C200.631 51.3897 191.474 48.8631 194.927 35.4391C198.406 21.9896 212.064 35.337 212.064 35.337L208.893 53.2272Z" fill="#3E3533"/>
<path d="M182.727 32.0191C182.727 32.0191 192.498 39.0629 204.776 33.5249C217.053 27.9868 216.977 19.7946 216.977 19.7946C216.977 19.7946 206.234 19.3607 198.97 11.2961C191.68 3.23149 170.45 -4.96073 154.438 6.14088C138.426 17.217 143.465 33.4738 153.057 36.2301C162.649 38.9863 168.071 32.3254 170.501 33.8056C172.931 35.2603 176.742 36.8426 182.727 32.0191Z" fill="#3E3533"/>
<path d="M148.502 11.5513C149.474 10.3518 150.651 9.15235 152.032 8.00391C170.576 19.9987 192.881 26.1748 214.98 25.4347C214.571 26.0727 214.085 26.7108 213.497 27.3998C215.364 28.3186 217.205 29.5181 218.766 30.6665C209.685 32.8613 200.196 33.4228 190.937 32.1722C175.053 30.0285 159.961 22.6529 148.502 11.5513Z" fill="url(#paint11_linear)"/>
<path d="M160.781 222.431L249 229.321L244.652 286.463L155.895 278.245L160.781 222.431Z" fill="#E79355"/>
<path d="M209.633 226.259C207.638 233.915 208.329 242.184 208.047 250.198C207.715 259.615 205.259 270.027 197.33 275.157C189.964 279.904 180.167 278.5 171.957 275.387C166.636 273.371 161.546 270.716 156.814 267.526L155.868 278.271L220.555 284.268C220.172 279.751 221.348 275.157 222.525 270.742C226.234 256.731 229.917 242.746 233.626 228.786C233.677 228.581 233.728 228.352 233.805 228.122L209.633 226.259Z" fill="#B07347"/>
<path d="M220.787 261.07C220.787 261.07 219.713 266.888 219.611 269.338C219.508 271.763 219.534 274.519 218.587 278.271C217.641 282.022 221.171 281.257 216.669 285.289C212.167 289.321 212.065 286.769 211.425 290.393C210.812 294.017 205.005 292.358 205.005 292.358C205.005 292.358 204.136 294.477 200.964 295.753C197.792 297.029 197.562 295.574 195.362 286.642C195.362 286.642 189.172 284.421 189.914 282.201C190.656 279.981 206.387 271.431 206.387 271.431L210.94 259.589L220.787 261.07Z" fill="#FFBD9B"/>
<path d="M223.473 266.174L221.912 274.06C221.912 274.06 205.875 271.839 201.399 269.006L203.445 259.232L223.473 266.174Z" fill="#F8E8D8"/>
<path d="M237.49 190.019C237.49 190.019 236.952 135.353 225.826 123.078L206.591 147.884L210.121 198.339C209.737 208.241 199.89 263.213 199.89 263.213C199.89 263.213 212.5 268.828 225.851 269.645C225.877 269.645 238.155 206.302 237.49 190.019Z" fill="#3E3533"/>
<defs>
<radialGradient id="paint0_radial" cx="0" cy="0" r="1" gradientUnits="userSpaceOnUse" gradientTransform="translate(150.491 477.994) scale(161.098 24.1546)">
<stop stop-color="#C5C5C5"/>
<stop offset="0.2973" stop-color="#C4C4C4" stop-opacity="0.7027"/>
<stop offset="0.4964" stop-color="#CDCDCD" stop-opacity="0.5036"/>
<stop offset="0.6667" stop-color="#DADADA" stop-opacity="0.3333"/>
<stop offset="0.8209" stop-color="#F3F3F3" stop-opacity="0.1791"/>
<stop offset="0.9628" stop-color="white" stop-opacity="0.0372"/>
<stop offset="1" stop-color="#F9FBFC" stop-opacity="0"/>
</radialGradient>
<linearGradient id="paint1_linear" x1="8.99339" y1="99.3519" x2="53.9478" y2="99.3519" gradientUnits="userSpaceOnUse">
<stop stop-color="#5C251C"/>
<stop offset="0.185" stop-color="#61271E"/>
<stop offset="1" stop-color="#722F27"/>
</linearGradient>
<linearGradient id="paint2_linear" x1="117.941" y1="168.336" x2="101.785" y2="154.525" gradientUnits="userSpaceOnUse">
<stop stop-color="#302624" stop-opacity="0.5"/>
<stop offset="0.9947" stop-color="#302624" stop-opacity="0"/>
</linearGradient>
<linearGradient id="paint3_linear" x1="172.26" y1="163.061" x2="166.578" y2="228.965" gradientUnits="userSpaceOnUse">
<stop stop-color="#302624" stop-opacity="0.5"/>
<stop offset="0.9947" stop-color="#302624" stop-opacity="0"/>
</linearGradient>
<linearGradient id="paint4_linear" x1="168.427" y1="120.08" x2="143.049" y2="189.556" gradientUnits="userSpaceOnUse">
<stop stop-color="#CFD4D8"/>
<stop offset="1" stop-color="#CFD4D8" stop-opacity="0"/>
</linearGradient>
<linearGradient id="paint5_linear" x1="177.305" y1="190.019" x2="157.968" y2="190.019" gradientUnits="userSpaceOnUse">
<stop stop-color="#FD8B8B"/>
<stop offset="1" stop-color="#FF9838"/>
</linearGradient>
<radialGradient id="paint6_radial" cx="0" cy="0" r="1" gradientUnits="userSpaceOnUse" gradientTransform="translate(190.438 73.2427) rotate(2.60194) scale(7.05007 7.03437)">
<stop stop-color="#F69D7D" stop-opacity="0.7"/>
<stop offset="1" stop-color="#F69D7D" stop-opacity="0"/>
</radialGradient>
<radialGradient id="paint7_radial" cx="0" cy="0" r="1" gradientUnits="userSpaceOnUse" gradientTransform="translate(158.548 71.7942) rotate(2.60194) scale(7.05007 7.03437)">
<stop stop-color="#F69D7D" stop-opacity="0.7"/>
<stop offset="1" stop-color="#F69D7D" stop-opacity="0"/>
</radialGradient>
<linearGradient id="paint8_linear" x1="207.792" y1="64.8746" x2="213.057" y2="61.9202" gradientUnits="userSpaceOnUse">
<stop stop-color="#F69D7D"/>
<stop offset="1" stop-color="#F69D7D" stop-opacity="0.6"/>
</linearGradient>
<linearGradient id="paint9_linear" x1="132.875" y1="323.856" x2="130.042" y2="467.707" gradientUnits="userSpaceOnUse">
<stop stop-color="#302624" stop-opacity="0.5"/>
<stop offset="0.9947" stop-color="#302624" stop-opacity="0"/>
</linearGradient>
<linearGradient id="paint10_linear" x1="187.184" y1="324.926" x2="184.351" y2="468.777" gradientUnits="userSpaceOnUse">
<stop stop-color="#302624" stop-opacity="0.5"/>
<stop offset="0.9947" stop-color="#302624" stop-opacity="0"/>
</linearGradient>
<linearGradient id="paint11_linear" x1="180.345" y1="37.1879" x2="184.713" y2="15.6541" gradientUnits="userSpaceOnUse">
<stop stop-color="#F8E8D8" stop-opacity="0.2"/>
<stop offset="1" stop-color="#F8E8D8" stop-opacity="0"/>
</linearGradient>
</defs>
</svg>
