<svg width="557" height="357" viewBox="0 0 557 357" fill="none" xmlns="http://www.w3.org/2000/svg">
<path d="M0.699219 271.4L354.699 282.8V357L16.2992 336.5L0.699219 271.4Z" fill="#2D2D2D"/>
<path d="M354.699 282.8V357L554.199 273.4L556.799 205.1L354.699 282.8Z" fill="#141414"/>
<path d="M0.699219 271.4L269.299 186.8L556.799 205.1L354.699 282.8L0.699219 271.4Z" fill="#5F5D5D"/>
<path d="M84.0996 274.1L106.5 341.9L169.5 345.8L154.7 276.4L84.0996 274.1Z" fill="#EBB02A"/>
<path d="M450.4 246L448.9 317.6L494.6 298.4L498.3 227.6L450.4 246Z" fill="#EBB02A"/>
<path d="M323.698 219.8L396.598 194.9L337.098 191.1L258.498 217L183.698 213.8L134.398 229.3L208.998 233.3L84.8984 274.1L154.698 276.4L273.998 236.8L449.998 246.1L498.898 227.3L323.698 219.8Z" fill="#F2BB4E"/>
<path d="M373.499 56.1C373.499 56.1 387.699 68.5 392.999 77C398.299 85.5 403.299 99.2 403.299 99.2L298.199 210.4C298.199 210.4 381.999 203.8 427.199 151.5C472.399 99.2 467.799 81.8 467.799 81.8C467.799 81.8 445.399 57.7 421.099 53.2C396.899 48.6 373.499 56.1 373.499 56.1Z" fill="#E89A24"/>
<path d="M170.099 77C170.099 77 158.599 90.7 154.799 104C150.999 117.3 149.899 129.1 149.899 129.1L267.099 207L277.999 226C277.999 226 181.899 221.4 132.899 181.2C83.8988 141 79.2988 131 79.2988 131C79.2988 131 103.999 94.5 126.799 85C149.599 75.5 170.099 77 170.099 77Z" fill="#E89A24"/>
<path d="M298.2 210.4L341.7 76C343.9 69.3 348.9 64 355.4 61.4C368.4 56.2 392.2 49.9 419.2 57.9C460.2 70.1 467.8 81.7 467.8 81.7C467.8 81.7 444 44.2 430.3 33.6C416.6 23 396.5 8.29999 369.5 2.99999C354.7 0.0999923 334 -0.200008 318.4 0.0999925C305.8 0.399992 295.3 10.1 294.2 22.6L276.1 217.6L298.2 210.4Z" fill="#EBB02A"/>
<path d="M237.999 26.7L298.199 210.3L277.999 226L199.199 88.7C194.799 81 186.499 76.4 177.599 76.6C166.699 76.9 151.099 78.6 135.899 84.6C108.199 95.6 79.2988 130.9 79.2988 130.9C79.2988 130.9 90.2988 86.8 110.099 61.8C132.399 33.5 159.899 22.7 181.499 16.2C190.799 13.4 201.499 11.3 210.499 9.89997C222.599 7.99997 234.199 15.1 237.999 26.7Z" fill="#F2BB4E"/>
</svg>
