<svg width="47" height="47" viewBox="0 0 47 47" fill="none" xmlns="http://www.w3.org/2000/svg">
<path fill-rule="evenodd" clip-rule="evenodd" d="M23.5 0C36.4787 0 47 10.5213 47 23.5C47 36.4787 36.4787 47 23.5 47C10.5213 47 0 36.4787 0 23.5C0 10.5213 10.5213 0 23.5 0Z" fill="#27AE60"/>
<path fill-rule="evenodd" clip-rule="evenodd" d="M34.8901 30.3598C34.8448 30.2268 34.7392 30.0216 34.6637 29.9037C34.1882 29.1817 31.6335 27.1712 30.3579 26.5137C29.6296 26.1375 29.09 26.0121 28.69 26.1298C28.2598 26.2515 28.0333 26.4529 27.3126 27.3536C27.022 27.7147 26.7239 28.0529 26.6446 28.1061C26.4484 28.2429 26.0635 28.3532 25.7918 28.3532C25.1616 28.3493 24.0181 27.9389 23.1389 27.3992C22.4558 26.9812 21.5804 26.2325 20.9086 25.4914C20.1161 24.6211 19.5766 23.8534 19.1501 22.9869C18.5991 21.8733 18.4595 21.193 18.6897 20.6951C18.7463 20.5697 18.8218 20.4367 18.8557 20.3949C18.8897 20.3569 19.2444 20.0642 19.6369 19.745C20.4067 19.1293 20.5312 18.9887 20.6746 18.5669C20.8558 18.031 20.8067 17.4837 20.5275 16.9326C20.3124 16.5146 19.7501 15.6025 19.3426 15.0134C18.8029 14.2381 17.4595 12.5811 17.1915 12.3568C16.7085 11.9616 16.0897 11.8931 15.4066 12.1592C14.6858 12.4405 13.3348 13.535 12.7574 14.2989C12.2367 14.9906 12.0367 15.4808 12.0065 16.1269C11.9801 16.659 12.0254 16.8794 12.3046 17.5597C14.4896 22.8956 17.75 27.156 22.2294 30.5385C24.5691 32.3057 26.9956 33.6511 29.5126 34.5708C30.9806 35.1067 31.6183 35.1333 32.3693 34.6925C32.6863 34.5024 33.4712 33.6929 33.9089 33.1038C34.6335 32.1233 34.9014 31.671 34.9769 31.31C35.0297 31.0629 34.9882 30.6335 34.8901 30.3598Z" fill="white"/>
</svg>
