<svg width="484" height="957" viewBox="0 0 484 957" fill="none" xmlns="http://www.w3.org/2000/svg">
<path d="M9.22139 319.011C9.96521 304.754 18.7051 267.749 13.0645 260.187C7.42378 252.624 -2.36992 243.079 3.95259 233.595C5.13031 231.859 6.24606 229.876 6.18407 227.83C6.0601 225.289 4.32452 223.243 2.89885 221.198C1.47319 219.09 0.357456 216.363 1.59716 214.193C2.89886 211.962 6.12211 211.528 7.8577 209.607C9.40734 207.933 9.5313 205.392 9.34534 203.098C9.15938 200.805 8.84947 198.449 9.65528 196.28C13.9323 185.432 32.5899 201.301 36.6189 204.772C40.524 208.119 44.2431 211.714 47.9003 215.433C48.892 216.425 52.4252 219.028 52.6731 220.454L55.6484 236.942L32.9618 303.205L9.22139 319.011Z" fill="#FBC0A4"/>
<path d="M49.3319 235.267L76.6055 149.107L26.8932 137.702L13.6283 232.478L49.3319 235.267Z" fill="#302624"/>
<path d="M39.1685 226.776C38.5487 229.069 36.1932 230.433 33.8998 229.751C31.6063 229.131 30.2427 226.776 30.9245 224.482C31.5443 222.189 33.8998 220.825 36.1932 221.507C38.4247 222.127 39.7884 224.482 39.1685 226.776Z" fill="#3E3533"/>
<path d="M63.1593 152.394L61.0518 156.361L41.6503 152.146L41.0925 148.055L31.4227 146.072L23.9225 218.099L51.0102 219.958L69.1719 153.882L63.1593 152.394Z" fill="#F8E8D8"/>
<path d="M45.245 148.426L59.9355 151.339L59.2537 153.695L44.8731 149.727L45.245 148.426Z" fill="#3E3533"/>
<path d="M47.538 257.273C47.538 257.273 70.5966 238.181 69.1709 230.991C67.7452 223.801 36.0707 212.519 34.4591 221.445C32.8475 230.371 49.3355 235.206 49.3355 235.206C49.3355 235.206 27.5787 243.326 26.8349 267.686C26.6489 272.955 37.4963 291.241 36.3806 298.679C32.4755 325.705 47.538 257.273 47.538 257.273Z" fill="#FBC0A4"/>
<path d="M187.926 267.004C167.409 263.285 157.181 267.5 150.301 271.157C140.011 276.612 59.9259 376.533 59.9259 376.533L56.9506 270.414C56.9506 270.414 27.4456 260.31 6.1226 272.583C6.1226 272.583 -3.11325 386.512 1.10176 427.113C3.8911 454.138 16.7841 466.163 35.0698 470.131C61.8475 475.895 143.73 390.727 143.73 390.727L187.926 267.004Z" fill="#3E3533"/>
<path d="M187.926 267.004C167.409 263.285 157.181 267.5 150.301 271.157C140.011 276.612 59.9259 376.533 59.9259 376.533L56.9506 270.414C56.9506 270.414 27.4456 260.31 6.1226 272.583C6.1226 272.583 -3.11325 386.512 1.10176 427.113C3.8911 454.138 16.7841 466.163 35.0698 470.131C61.8475 475.895 143.73 390.727 143.73 390.727L187.926 267.004Z" fill="url(#paint0_linear)"/>
<path d="M324.542 154.936C324.542 154.936 315.617 154.44 311.773 149.729C307.93 145.018 320.513 106.525 320.513 106.525C320.513 106.525 308.55 96.2359 308.426 81.7313C308.24 67.2887 317.848 59.7885 332.724 60.7183C347.663 61.6481 369.172 81.4834 369.172 81.4834L358.262 87.1241C358.262 87.1241 354.729 119.976 350.08 128.406C345.369 136.836 324.542 154.936 324.542 154.936Z" fill="#3E3533"/>
<path d="M353.242 90.9053C348.841 111.422 334.399 162.003 334.399 162.003L321.506 147.312L327.952 84.0249L353.242 90.9053Z" fill="#3E3533"/>
<path d="M137.285 535.835C137.285 535.835 119.682 760.656 117.946 781.111C116.21 801.566 94.6395 1105.91 94.6395 1105.91C121.665 1116.45 150.798 1108.33 150.798 1108.33L198.031 801.504L229.148 637.863L239.623 634.95C239.623 634.95 243.156 834.171 243.28 833.117C243.342 832.125 247.743 1100.58 247.743 1100.58C273.901 1113.79 310.287 1099.53 310.287 1099.53C310.287 1099.53 321.63 839.068 324.791 823.819C327.953 808.571 328.82 516.434 328.82 516.434L137.285 535.835Z" fill="#3E3533"/>
<path d="M131.954 596.829C170.509 610.156 257.722 630.116 328.758 600.982C328.882 582.759 328.572 558.522 328.634 545.753L135.177 562.551C134.309 573.771 133.194 581.271 131.954 596.829Z" fill="#302624"/>
<path d="M143.678 515.504C145.166 509.987 146.406 506.516 146.406 506.516L317.237 513.52C317.237 513.52 317.857 516.991 318.787 522.942C317.919 524.119 317.237 524.987 317.237 524.987C240.995 556.166 185.766 556.166 143.678 515.504Z" fill="#330E00"/>
<path d="M354.789 370.213L324.85 480.237L340.099 583.009C340.099 583.009 204.846 634.395 119.988 579.042L137.406 349.386L354.789 370.213Z" fill="#3E3533"/>
<path d="M158.603 273.637C140.503 281.261 115.027 296.571 137.404 349.321L145.214 511.784C145.214 511.784 136.536 536.827 141.991 542.157C184.079 583.006 239.37 583.006 315.674 551.827C315.674 551.827 319.703 546.682 320.199 544.637C322.988 533.603 313.69 502.797 313.69 502.797L356.336 370.21C356.336 370.21 398.362 312.997 370.531 292.232C326.707 259.566 230.32 243.45 158.603 273.637Z" fill="#3E3533"/>
<path d="M119.992 579.04L130.095 445.771C149.745 468.892 165.427 495.359 176.026 523.811C221.09 500.442 260.512 466.288 290.079 425.006C278.984 454.759 267.827 484.45 256.731 514.203C285.555 480.359 331.052 388.992 359.875 355.148L324.853 480.297L340.102 583.069C340.102 583.007 204.85 634.393 119.992 579.04Z" fill="url(#paint1_linear)"/>
<path d="M208.443 253.989C208.443 253.989 191.645 253.245 188.546 255.167C185.508 257.026 177.822 279.155 176.272 282.626C174.723 286.097 196.728 306.676 196.728 306.676C196.728 306.676 178.566 336.491 179.31 338.847C180.054 341.264 212.286 471.496 212.286 471.496C212.286 471.496 290.326 355.149 291.937 349.322C293.549 343.558 284.437 313.619 284.437 313.619C284.437 313.619 307.557 296.573 308.921 292.854C310.347 289.135 313.26 265.394 308.921 262.357C306.256 260.497 290.697 257.026 290.697 257.026L208.443 253.989Z" fill="#302624"/>
<path d="M290.76 262.665C290.76 262.665 266.833 324.402 245.758 378.763C229.208 421.533 210.923 376.78 210.923 376.78L205.778 254.235C206.894 254.173 209.311 253.863 210.427 253.801L290.76 262.665Z" fill="#F8E8D8"/>
<path d="M211.733 293.349C206.961 292.233 206.713 277.233 206.713 277.233L205.783 254.546C205.845 254.422 205.907 254.298 205.907 254.174C207.085 254.05 209.316 253.802 210.432 253.74L284.442 261.922C284.194 262.79 287.17 268.989 286.612 270.724C282.335 283.369 268.512 301.531 265.723 301.965C262.438 302.461 254.193 292.977 253.078 289.878C251.404 291.427 248.491 296.014 246.755 297.564C245.825 319.631 246.631 348.64 247.003 375.48C234.172 408.58 222.209 439.448 217.064 452.775C216.134 454.015 215.205 455.193 214.275 456.309L211.486 390.728C219.854 359.177 228.16 327.565 236.528 296.014C233.862 292.357 230.453 289.692 227.788 286.035C223.387 290.374 217.87 293.349 211.733 293.349Z" fill="url(#paint2_linear)"/>
<path d="M228.845 266.26C236.035 270.413 250.849 272.583 258.907 272.769C270.871 273.079 266.098 266.074 270.065 265.02L308.93 175.266L238.638 206.94L238.452 209.915L228.845 266.26Z" fill="#FBC0A4"/>
<path d="M248.184 238.367C255.87 237.437 262.751 235.267 269.755 232.044C276.387 229.007 282.834 225.536 288.908 221.569L308.93 175.266L238.638 206.94L238.452 209.915L233.369 239.668C238.328 239.235 243.225 238.925 248.184 238.367Z" fill="#F69D7D"/>
<path d="M210.858 376.781L235.9 292.295L224.928 280.022L243.524 268.616L257.719 281.757L244.454 293.472C244.454 293.472 247.615 332.647 245.694 378.764C229.143 421.534 214.329 459.717 214.329 459.717L210.858 376.781Z" fill="#F84511"/>
<path d="M279.919 242.272C279.919 242.272 251.653 269.359 244.401 268.182C237.149 267.004 233.368 239.73 233.368 239.73C233.368 239.73 207.52 247.169 204.421 250.764C201.259 254.359 209.008 289.691 212.355 291.426C219.483 295.021 241.054 270.971 244.959 274.07C248.864 277.108 259.96 297.687 263.617 297.253C267.274 296.819 296.407 268.12 294.733 257.582C293.06 247.045 279.919 242.272 279.919 242.272Z" fill="#F8E8D8"/>
<path d="M334.271 127.475C334.271 127.475 358.57 121.958 355.222 150.905C351.875 179.914 330.862 180.472 324.664 181.712C324.664 181.712 313.134 233.346 249.413 228.387C185.692 223.428 196.168 174.15 196.602 141.421C197.098 108.693 193.441 51.9145 235.095 47.7615C277.183 43.6085 337.929 46.3358 334.271 127.475Z" fill="#FBC0A4"/>
<path d="M231.188 182.581C230.94 183.076 232.552 184.564 235.775 185.866C237.387 186.548 239.37 187.044 241.664 187.415C243.957 187.725 246.499 187.787 249.164 187.415C251.83 187.044 254.247 186.362 256.416 185.556C258.524 184.688 260.384 183.634 261.747 182.581C264.599 180.473 265.652 178.676 265.342 178.242C264.97 177.746 263.049 178.737 260.198 179.915C258.772 180.535 257.036 181.155 255.053 181.775C253.069 182.333 250.9 182.829 248.606 183.138C246.313 183.386 244.081 183.448 242.036 183.448C239.99 183.386 238.193 183.2 236.643 182.953C233.482 182.457 231.498 182.023 231.188 182.581Z" fill="#F6876E"/>
<path d="M241.918 173.219C241.98 172.599 239.873 172.041 238.757 169.314C238.199 167.95 237.951 166.401 238.385 164.479C238.757 162.558 239.687 160.45 240.803 158.033C245.266 148.363 247.993 140.119 246.877 139.623C245.761 139.127 241.298 146.565 236.836 156.235C235.72 158.653 234.666 161.256 234.418 163.921C234.294 165.285 234.356 166.525 234.666 167.764C234.976 169.004 235.534 169.996 236.154 170.864C237.393 172.537 239.005 173.405 240.121 173.591C241.298 173.777 241.918 173.467 241.918 173.219Z" fill="#F69D7D"/>
<path d="M260.445 121.463C260.817 121.959 262.614 121.277 265.466 120.533C268.317 119.79 272.16 119.046 276.561 119.48C280.776 119.914 284.557 121.339 287.161 122.641C288.462 123.323 289.578 123.819 290.322 124.252C291.128 124.624 291.685 124.81 291.871 124.562C292.057 124.376 291.933 123.819 291.499 123.013C291.004 122.207 290.136 121.153 288.896 120.099C286.355 117.93 282.202 115.698 276.933 115.203C271.85 114.707 267.139 116.132 264.35 117.744C261.375 119.294 260.135 120.967 260.445 121.463Z" fill="#3E3533"/>
<path d="M235.853 120.346C236.286 119.974 235.357 118.053 232.815 115.883C230.336 113.714 225.997 111.482 220.914 110.986C215.645 110.49 211.058 111.916 208.207 113.528C206.781 114.334 205.728 115.201 205.046 115.883C204.426 116.565 204.178 117.061 204.364 117.309C204.55 117.557 205.108 117.495 205.976 117.309C206.781 117.061 207.959 116.751 209.385 116.379C212.174 115.635 216.203 114.891 220.418 115.325C224.819 115.759 228.476 117.185 231.142 118.487C233.807 119.726 235.419 120.78 235.853 120.346Z" fill="#3E3533"/>
<path d="M272.48 175.328C272.046 184.75 279.36 192.746 288.782 193.18C298.204 193.614 306.2 186.299 306.634 176.877C307.068 167.456 299.754 159.46 290.332 159.026C280.91 158.592 272.914 165.906 272.48 175.328Z" fill="url(#paint3_radial)"/>
<path d="M195.246 171.796C194.812 181.217 202.126 189.214 211.548 189.647C220.97 190.081 228.966 182.767 229.4 173.345C229.834 163.923 222.519 155.927 213.097 155.493C203.614 155.06 195.68 162.374 195.246 171.796Z" fill="url(#paint4_radial)"/>
<path d="M266.526 142.168C266.34 146.878 269.935 150.908 274.708 151.094C279.419 151.279 283.448 147.684 283.634 142.911C283.82 138.201 280.225 134.171 275.452 133.986C270.741 133.738 266.712 137.395 266.526 142.168Z" fill="#3E3533"/>
<path d="M217.811 139.935C217.625 144.646 221.22 148.675 225.993 148.861C230.704 149.047 234.733 145.452 234.919 140.679C235.105 135.968 231.51 131.939 226.737 131.753C222.026 131.567 217.997 135.224 217.811 139.935Z" fill="#3E3533"/>
<path d="M346.923 140.43C349.155 148.117 345.994 156.175 342.894 163.551C341.964 165.72 340.973 168.076 338.989 169.378C337.006 170.741 333.844 170.493 332.791 168.386C331.799 166.34 333.287 163.985 334.402 162.001C335.58 160.018 336.2 157.042 334.278 155.803C333.41 155.245 332.233 155.245 331.241 154.749C329.195 153.633 329.195 150.72 329.753 148.489C330.497 145.327 331.675 142.352 333.225 139.501C334.774 136.711 337.13 133.922 340.291 133.984C343.576 134.046 345.994 137.269 346.923 140.43Z" fill="url(#paint5_linear)"/>
<path d="M197.965 801.505L198.895 796.608C188.605 832.622 174.224 881.28 171.621 881.404C167.53 881.59 126.682 875.082 124.884 869.689C124.078 867.272 120.669 830.638 117.136 790.72C112.921 847.002 94.5731 1105.92 94.5731 1105.92C121.599 1116.45 150.732 1108.33 150.732 1108.33L197.965 801.505Z" fill="url(#paint6_linear)"/>
<path d="M310.226 1099.59C310.226 1099.59 310.226 1099.34 310.226 1099.03C310.226 1098.97 310.226 1098.85 310.226 1098.79C310.226 1098.54 310.226 1098.17 310.288 1097.8C310.35 1096.68 310.412 1095.01 310.474 1092.9C310.474 1092.4 310.536 1091.91 310.536 1091.35C310.598 1090.36 310.598 1089.37 310.66 1088.25C310.66 1087.82 310.722 1087.38 310.722 1086.95C310.846 1084.47 310.97 1081.68 311.094 1078.58C311.094 1078.08 311.156 1077.59 311.156 1077.03C311.218 1075.29 311.342 1073.43 311.404 1071.51C311.404 1071.45 311.404 1071.45 311.404 1071.39C311.466 1069.34 311.59 1067.24 311.714 1065C311.714 1064.63 311.776 1064.32 311.776 1063.95C312.024 1058.5 312.272 1052.61 312.582 1046.29C312.582 1045.67 312.644 1045.05 312.644 1044.43C313.14 1033.64 313.697 1021.74 314.255 1009.28C314.255 1009.09 314.255 1008.85 314.255 1008.66C314.503 1004.01 314.689 999.238 314.937 994.403C314.937 994.217 314.937 994.094 314.937 993.908C316.797 954.051 318.966 910.351 320.826 877.189C320.826 877.127 320.826 877.127 320.826 877.065C321.322 868.759 321.756 861.135 322.189 854.378C313.883 860.391 299.751 869.937 294.048 869.751C285.68 869.503 257.477 846.506 255.803 836.279C254.501 828.097 244.894 751.421 241.051 720.986C242.042 774.727 243.096 833.737 243.158 833.179C243.158 833.117 243.158 833.489 243.158 834.233C243.158 834.357 243.158 834.543 243.158 834.729C243.22 837.766 243.344 845.143 243.53 855.556C243.53 856.176 243.53 856.796 243.592 857.416C243.654 861.197 243.716 865.412 243.778 869.875C243.778 871.362 243.84 872.912 243.84 874.462C243.964 880.722 244.088 887.479 244.212 894.669C244.212 895.537 244.212 896.467 244.274 897.396C245.576 976.552 247.621 1100.58 247.621 1100.58C252.518 1103.06 257.787 1104.55 263.117 1105.42C264.915 1105.67 266.651 1105.92 268.448 1106.04C270.246 1106.16 271.981 1106.23 273.717 1106.23C275.452 1106.23 277.188 1106.16 278.924 1106.1C280.597 1105.98 282.333 1105.85 283.944 1105.67C285.556 1105.48 287.168 1105.3 288.717 1105.05C291.011 1104.68 293.242 1104.24 295.288 1103.81C296.651 1103.5 297.953 1103.19 299.193 1102.88C305.949 1101.27 310.226 1099.59 310.226 1099.59Z" fill="url(#paint7_linear)"/>
<path d="M334.279 127.475C334.279 127.475 324.3 134.851 321.572 151.091H314.258V123.012C314.258 123.012 292.067 116.875 300.497 84.2709C308.927 51.6046 342.027 84.023 342.027 84.023L334.279 127.475Z" fill="#3E3533"/>
<path d="M375.492 558.151C371.649 550.092 367.496 542.158 362.909 534.472C360.058 536.642 357.33 538.687 354.913 540.485C346.297 546.931 340.408 551.332 339.293 551.952C333.9 554.989 312.081 554.06 310.903 568.502C310.903 568.502 304.643 575.63 299.374 582.449C294.105 589.267 313.569 590.073 313.755 598.379C313.879 606.685 327.949 602.78 329.995 611.272C332.04 619.764 332.412 619.02 339.479 619.268C346.545 619.516 353.611 614.185 354.727 602.222C354.727 602.222 369.356 601.788 372.641 588.833C372.765 588.399 372.827 588.028 372.889 587.594C374.438 577.304 364.459 566.519 375.492 558.151Z" fill="#FBC0A4"/>
<path d="M388.518 554.803L380.026 563.729C380.026 563.729 362.422 553.997 353.248 534.472L362.67 522.633L388.518 554.803Z" fill="#F8E8D8"/>
<path d="M390.808 561.93C371.716 550.401 354.794 522.88 354.794 522.88L406.118 444.716L349.401 371.945L370.476 292.294C404.63 320.559 481.244 424.323 483.538 452.03C484.344 461.948 390.808 561.93 390.808 561.93Z" fill="#3E3533"/>
<path d="M270.871 75.9662C270.871 75.9662 294.549 93.0741 324.302 79.6233C354.055 66.1725 353.869 46.2752 353.869 46.2752C353.869 46.2752 327.835 45.2214 310.231 25.634C292.628 6.04663 241.118 -13.8507 202.315 13.113C163.512 40.0146 175.723 79.4993 198.968 86.1938C222.212 92.8882 235.353 76.71 241.242 80.3051C247.13 83.8383 256.428 87.6814 270.871 75.9662Z" fill="#3E3533"/>
<path d="M187.931 26.2551C190.287 23.3418 193.138 20.4285 196.485 17.6392C241.425 46.7723 295.476 61.7728 349.031 59.9752C348.039 61.5248 346.862 63.0745 345.436 64.7481C349.961 66.9795 354.424 69.8929 358.205 72.6822C336.2 78.0129 313.204 79.3766 290.765 76.3393C252.334 71.1326 215.701 53.2188 187.931 26.2551Z" fill="url(#paint8_linear)"/>
<defs>
<linearGradient id="paint0_linear" x1="125.727" y1="395.808" x2="101.208" y2="363.626" gradientUnits="userSpaceOnUse">
<stop stop-color="#302624" stop-opacity="0.5"/>
<stop offset="0.9947" stop-color="#302624" stop-opacity="0"/>
</linearGradient>
<linearGradient id="paint1_linear" x1="245.51" y1="394.241" x2="231.677" y2="554.305" gradientUnits="userSpaceOnUse">
<stop stop-color="#302624" stop-opacity="0.5"/>
<stop offset="0.9947" stop-color="#302624" stop-opacity="0"/>
</linearGradient>
<linearGradient id="paint2_linear" x1="236.231" y1="289.849" x2="174.486" y2="458.503" gradientUnits="userSpaceOnUse">
<stop stop-color="#CFD4D8"/>
<stop offset="1" stop-color="#CFD4D8" stop-opacity="0"/>
</linearGradient>
<radialGradient id="paint3_radial" cx="0" cy="0" r="1" gradientUnits="userSpaceOnUse" gradientTransform="translate(289.57 176.089) rotate(2.60777) scale(17.085)">
<stop stop-color="#F69D7D" stop-opacity="0.7"/>
<stop offset="1" stop-color="#F69D7D" stop-opacity="0"/>
</radialGradient>
<radialGradient id="paint4_radial" cx="0" cy="0" r="1" gradientUnits="userSpaceOnUse" gradientTransform="translate(212.292 172.573) rotate(2.60777) scale(17.0844)">
<stop stop-color="#F69D7D" stop-opacity="0.7"/>
<stop offset="1" stop-color="#F69D7D" stop-opacity="0"/>
</radialGradient>
<linearGradient id="paint5_linear" x1="331.629" y1="155.766" x2="344.399" y2="148.615" gradientUnits="userSpaceOnUse">
<stop stop-color="#F69D7D"/>
<stop offset="1" stop-color="#F69D7D" stop-opacity="0.6"/>
</linearGradient>
<linearGradient id="paint6_linear" x1="150.064" y1="784.782" x2="143.168" y2="1134.17" gradientUnits="userSpaceOnUse">
<stop stop-color="#302624" stop-opacity="0.5"/>
<stop offset="0.9947" stop-color="#302624" stop-opacity="0"/>
</linearGradient>
<linearGradient id="paint7_linear" x1="281.681" y1="787.38" x2="274.785" y2="1136.76" gradientUnits="userSpaceOnUse">
<stop stop-color="#302624" stop-opacity="0.5"/>
<stop offset="0.9947" stop-color="#302624" stop-opacity="0"/>
</linearGradient>
<linearGradient id="paint8_linear" x1="265.114" y1="88.5213" x2="275.745" y2="36.2286" gradientUnits="userSpaceOnUse">
<stop stop-color="#F8E8D8" stop-opacity="0.2"/>
<stop offset="1" stop-color="#F8E8D8" stop-opacity="0"/>
</linearGradient>
</defs>
</svg>
