<svg width="72" height="73" viewBox="0 0 72 73" fill="none" xmlns="http://www.w3.org/2000/svg">
<path d="M67.0781 13.2709C67.0788 10.9148 66.3912 8.60978 65.0998 6.63909C63.8084 4.6684 61.9695 3.11783 59.809 2.17789C57.6485 1.23794 55.2605 0.949558 52.9384 1.34816C50.6162 1.74676 48.4611 2.81499 46.7377 4.42161C45.0143 6.02823 43.7978 8.10326 43.2375 10.3918C42.6773 12.6803 42.7977 15.0827 43.584 17.3037C44.3703 19.5247 45.7883 21.4677 47.6637 22.8939C49.5391 24.3201 51.7903 25.1675 54.1406 25.3319V35.5217C53.0714 33.7129 51.5495 32.2138 49.7248 31.1719C47.9002 30.13 45.8356 29.5814 43.7344 29.58C43.5106 29.58 43.296 29.6689 43.1378 29.8271C42.9795 29.9854 42.8906 30.2 42.8906 30.4238C42.8948 33.4836 44.0573 36.4285 46.1444 38.666C48.2315 40.9036 51.0884 42.268 54.1406 42.4847V50.9905C53.0714 49.1816 51.5495 47.6825 49.7248 46.6407C47.9002 45.5988 45.8356 45.0502 43.7344 45.0488C43.5106 45.0488 43.296 45.1377 43.1378 45.2959C42.9795 45.4541 42.8906 45.6687 42.8906 45.8925C42.8948 48.9524 44.0573 51.8972 46.1444 54.1348C48.2315 56.3723 51.0884 57.7367 54.1406 57.9535V70.5978C54.1406 70.8216 54.2295 71.0362 54.3878 71.1944C54.546 71.3527 54.7606 71.4415 54.9844 71.4415C55.2082 71.4415 55.4228 71.3527 55.581 71.1944C55.7392 71.0362 55.8281 70.8216 55.8281 70.5978V57.9532C58.8803 57.7364 61.7372 56.3721 63.8243 54.1345C65.9115 51.8969 67.074 48.9521 67.0781 45.8922C67.0781 45.6685 66.9892 45.4538 66.831 45.2956C66.6728 45.1374 66.4582 45.0485 66.2344 45.0485C64.1332 45.0499 62.0686 45.5986 60.2439 46.6405C58.4192 47.6824 56.8973 49.1816 55.8281 50.9905V42.4845C58.8803 42.2677 61.7372 40.9033 63.8243 38.6657C65.9115 36.4282 67.074 33.4833 67.0781 30.4235C67.0781 30.1997 66.9892 29.9851 66.831 29.8269C66.6728 29.6686 66.4582 29.5797 66.2344 29.5797C64.1332 29.5812 62.0686 30.1298 60.2439 31.1717C58.4192 32.2136 56.8973 33.7128 55.8281 35.5217V25.3319C58.8803 25.1151 61.7372 23.7507 63.8243 21.5131C65.9115 19.2756 67.074 16.3307 67.0781 13.2709ZM54.9844 22.3824C54.7606 22.3824 54.546 22.2935 54.3878 22.1353C54.2295 21.977 54.1406 21.7624 54.1406 21.5386V20.3813C53.2318 20.187 52.417 19.687 51.8321 18.9647C51.2471 18.2424 50.9275 17.3414 50.9264 16.412C50.9264 16.1882 51.0153 15.9736 51.1735 15.8154C51.3317 15.6572 51.5463 15.5683 51.7701 15.5683C51.9939 15.5683 52.2085 15.6572 52.3667 15.8154C52.525 15.9736 52.6139 16.1882 52.6139 16.412C52.6147 17.0364 52.8616 17.6353 53.301 18.0788C53.7404 18.5223 54.337 18.7748 54.9613 18.7814C54.969 18.7814 54.9765 18.7803 54.9844 18.7803C54.9923 18.7803 54.9997 18.7811 55.0074 18.7814C55.636 18.7784 56.2376 18.5257 56.6799 18.0791C57.1222 17.6325 57.3689 17.0285 57.3659 16.3999C57.3628 15.7714 57.1102 15.1698 56.6636 14.7275C56.2169 14.2852 55.6129 14.0384 54.9844 14.0415C53.9816 14.0415 53.0144 13.6701 52.2692 12.9991C51.524 12.3281 51.0536 11.405 50.9488 10.4077C50.844 9.41042 51.1121 8.40965 51.7015 7.59837C52.2909 6.78709 53.1598 6.22276 54.1406 6.01421V5.00312C54.1406 4.77934 54.2295 4.56473 54.3878 4.40649C54.546 4.24826 54.7606 4.15937 54.9844 4.15937C55.2082 4.15937 55.4228 4.24826 55.581 4.40649C55.7392 4.56473 55.8281 4.77934 55.8281 5.00312V6.01421C56.7371 6.20858 57.552 6.70867 58.1369 7.43111C58.7218 8.15354 59.0414 9.05466 59.0424 9.9842C59.0424 10.208 58.9535 10.4226 58.7953 10.5808C58.637 10.739 58.4224 10.8279 58.1986 10.8279C57.9749 10.8279 57.7603 10.739 57.602 10.5808C57.4438 10.4226 57.3549 10.208 57.3549 9.9842C57.355 9.51532 57.2161 9.05694 56.9557 8.66702C56.6953 8.27709 56.3252 7.97315 55.892 7.79362C55.4589 7.6141 54.9822 7.56705 54.5223 7.65844C54.0625 7.74983 53.64 7.97554 53.3084 8.30703C52.9768 8.63853 52.751 9.06091 52.6595 9.52077C52.5679 9.98062 52.6148 10.4573 52.7942 10.8905C52.9736 11.3237 53.2775 11.6939 53.6673 11.9545C54.0572 12.215 54.5155 12.354 54.9844 12.354C55.9871 12.3541 56.9544 12.7254 57.6996 13.3964C58.4448 14.0674 58.9151 14.9905 59.0199 15.9878C59.1248 16.9851 58.8566 17.9859 58.2672 18.7971C57.6779 19.6084 56.809 20.1728 55.8281 20.3813V21.5386C55.8281 21.7624 55.7392 21.977 55.581 22.1353C55.4228 22.2935 55.2082 22.3824 54.9844 22.3824Z" fill="url(#paint0_linear)"/>
<path d="M15.532 45.4899C12.368 45.4899 9.38025 44.9919 7.11956 44.0875C6.33829 43.7876 5.59949 43.3869 4.92188 42.8958V44.6461C4.92188 46.4105 9.46294 48.3839 15.5357 48.3839C18.4902 48.3839 21.2591 47.9289 23.3248 47.1024C25.0933 46.3951 26.1562 45.4766 26.1562 44.6461V42.8958C25.4795 43.3923 24.7376 43.7933 23.9515 44.0875C21.6908 44.9919 18.6962 45.4899 15.532 45.4899Z" fill="url(#paint1_linear)"/>
<path d="M26.1562 38.3142C25.4795 38.8107 24.7376 39.2118 23.9515 39.506C21.6908 40.4104 18.6962 40.9083 15.532 40.9083C12.3678 40.9083 9.38011 40.4104 7.11956 39.506C6.33829 39.206 5.59949 38.8054 4.92188 38.3142V40.0646C4.92188 41.829 9.46294 43.8024 15.5357 43.8024C18.4902 43.8024 21.2591 43.3473 23.3248 42.5209C25.0933 41.8135 26.1562 40.8951 26.1562 40.0646V38.3142Z" fill="url(#paint2_linear)"/>
<path d="M26.1562 33.7327C25.4795 34.2292 24.7376 34.6302 23.9515 34.9245C21.6908 35.8288 18.6962 36.3268 15.532 36.3268C12.3678 36.3268 9.38011 35.8288 7.11956 34.9245C6.33829 34.6245 5.59949 34.2238 4.92188 33.7327V35.483C4.92188 37.2475 9.46294 39.2208 15.5357 39.2208C18.4902 39.2208 21.2591 38.7658 23.3248 37.9393C25.0933 37.2318 26.1562 36.3137 26.1562 35.483V33.7327Z" fill="url(#paint3_linear)"/>
<path d="M23.3177 33.3578C25.0864 32.6503 26.142 31.7322 26.142 30.9015C26.142 29.1371 21.6046 27.1638 15.532 27.1638C12.5774 27.1638 9.81225 27.6189 7.74633 28.4453C5.97769 29.1527 4.92188 30.071 4.92188 30.9015C4.92188 32.6659 9.45942 34.6393 15.532 34.6393C18.4867 34.6393 21.2518 34.1842 23.3177 33.3578Z" fill="url(#paint4_linear)"/>
<path d="M4.92188 56.6326V58.3904C4.92188 60.1548 9.45239 62.1281 15.525 62.1281C16.919 62.1345 18.3112 62.0262 19.6875 61.8045V58.93C18.3099 59.138 16.9183 59.2399 15.525 59.2347C10.8924 59.2347 7.02113 58.2159 4.92188 56.6326Z" fill="url(#paint5_linear)"/>
<path d="M31.9987 49.1443C29.044 49.1443 26.2789 49.5995 24.213 50.4259C22.4443 51.1333 21.3887 52.0514 21.3887 52.8822C21.3887 54.6465 25.9261 56.6199 31.9987 56.6199C34.9534 56.6199 37.7185 56.1647 39.7844 55.3382C41.553 54.6309 42.6089 53.7128 42.6089 52.8822C42.6089 51.1178 38.0713 49.1443 31.9987 49.1443Z" fill="url(#paint6_linear)"/>
<path d="M31.9956 58.3075C28.8315 58.3075 25.8404 57.8095 23.5797 56.9052C22.7936 56.6109 22.0518 56.2099 21.375 55.7134V57.4637C21.375 59.2282 25.9194 61.2015 31.9922 61.2015C34.9467 61.2015 37.719 60.7463 39.7849 59.9199C41.5536 59.2126 42.6094 58.2944 42.6094 57.4637V55.7134C41.9311 56.2045 41.1917 56.6052 40.4099 56.9052C38.1492 57.8095 35.1598 58.3075 31.9956 58.3075Z" fill="url(#paint7_linear)"/>
<path d="M4.92188 52.051V53.8088C4.92188 55.5733 9.45239 57.5467 15.525 57.5467C16.9191 57.5527 18.3112 57.4441 19.6875 57.222V54.3484C18.3099 54.5565 16.9183 54.6584 15.525 54.6532C10.8924 54.6532 7.02113 53.6342 4.92188 52.051Z" fill="url(#paint8_linear)"/>
<path d="M31.9956 62.889C28.8315 62.889 25.8404 62.3911 23.5797 61.4867C22.7936 61.1925 22.0518 60.7914 21.375 60.2949V62.0453C21.375 63.8097 25.9194 65.7831 31.9922 65.7831C34.9467 65.7831 37.719 65.3279 39.7849 64.5016C41.5536 63.7941 42.6094 62.8759 42.6094 62.0453V60.2949C41.9311 60.7861 41.1917 61.1867 40.4099 61.4867C38.1493 62.3911 35.1598 62.889 31.9956 62.889Z" fill="url(#paint9_linear)"/>
<path d="M26.1562 48.0783V47.4773C25.4795 47.9738 24.7376 48.3749 23.9515 48.6692C21.6908 49.5734 18.6962 50.0714 15.532 50.0714C12.3678 50.0714 9.37969 49.5734 7.11956 48.6699C6.33827 48.3696 5.59948 47.9687 4.92188 47.4773V49.2277C4.92188 50.9921 9.46111 52.9655 15.5339 52.9655C16.9347 52.9694 18.3336 52.8603 19.7169 52.6391C19.8502 51.1449 21.2165 49.8098 23.5939 48.8589C24.4236 48.5245 25.281 48.2633 26.1562 48.0783Z" fill="url(#paint10_linear)"/>
<path d="M31.9956 67.4703C28.8315 67.4703 25.8404 66.9724 23.5797 66.068C22.7936 65.7738 22.0518 65.3727 21.375 64.8762V66.6266C21.375 68.391 25.9194 70.3644 31.9922 70.3644C34.9467 70.3644 37.7189 69.9093 39.7849 69.0829C41.5536 68.3754 42.6094 67.4574 42.6094 66.6266V64.8762C41.9311 65.3674 41.1917 65.768 40.4099 66.068C38.1493 66.9724 35.1598 67.4703 31.9956 67.4703Z" fill="url(#paint11_linear)"/>
<defs>
<linearGradient id="paint0_linear" x1="42.8906" y1="71.4416" x2="67.0781" y2="71.4416" gradientUnits="userSpaceOnUse">
<stop stop-color="#FD8B8B"/>
<stop offset="1" stop-color="#FF9838"/>
</linearGradient>
<linearGradient id="paint1_linear" x1="4.92188" y1="48.3839" x2="26.1562" y2="48.3839" gradientUnits="userSpaceOnUse">
<stop stop-color="#FD8B8B"/>
<stop offset="1" stop-color="#FF9838"/>
</linearGradient>
<linearGradient id="paint2_linear" x1="4.92188" y1="43.8024" x2="26.1562" y2="43.8024" gradientUnits="userSpaceOnUse">
<stop stop-color="#FD8B8B"/>
<stop offset="1" stop-color="#FF9838"/>
</linearGradient>
<linearGradient id="paint3_linear" x1="4.92188" y1="39.2208" x2="26.1562" y2="39.2208" gradientUnits="userSpaceOnUse">
<stop stop-color="#FD8B8B"/>
<stop offset="1" stop-color="#FF9838"/>
</linearGradient>
<linearGradient id="paint4_linear" x1="4.92188" y1="34.6393" x2="26.142" y2="34.6393" gradientUnits="userSpaceOnUse">
<stop stop-color="#FD8B8B"/>
<stop offset="1" stop-color="#FF9838"/>
</linearGradient>
<linearGradient id="paint5_linear" x1="4.92188" y1="62.1283" x2="19.6875" y2="62.1283" gradientUnits="userSpaceOnUse">
<stop stop-color="#FD8B8B"/>
<stop offset="1" stop-color="#FF9838"/>
</linearGradient>
<linearGradient id="paint6_linear" x1="21.3887" y1="56.6199" x2="42.6089" y2="56.6199" gradientUnits="userSpaceOnUse">
<stop stop-color="#FD8B8B"/>
<stop offset="1" stop-color="#FF9838"/>
</linearGradient>
<linearGradient id="paint7_linear" x1="21.375" y1="61.2016" x2="42.6094" y2="61.2016" gradientUnits="userSpaceOnUse">
<stop stop-color="#FD8B8B"/>
<stop offset="1" stop-color="#FF9838"/>
</linearGradient>
<linearGradient id="paint8_linear" x1="4.92188" y1="57.5469" x2="19.6875" y2="57.5469" gradientUnits="userSpaceOnUse">
<stop stop-color="#FD8B8B"/>
<stop offset="1" stop-color="#FF9838"/>
</linearGradient>
<linearGradient id="paint9_linear" x1="21.375" y1="65.7831" x2="42.6094" y2="65.7831" gradientUnits="userSpaceOnUse">
<stop stop-color="#FD8B8B"/>
<stop offset="1" stop-color="#FF9838"/>
</linearGradient>
<linearGradient id="paint10_linear" x1="4.92188" y1="52.9656" x2="26.1562" y2="52.9656" gradientUnits="userSpaceOnUse">
<stop stop-color="#FD8B8B"/>
<stop offset="1" stop-color="#FF9838"/>
</linearGradient>
<linearGradient id="paint11_linear" x1="21.375" y1="70.3644" x2="42.6094" y2="70.3644" gradientUnits="userSpaceOnUse">
<stop stop-color="#FD8B8B"/>
<stop offset="1" stop-color="#FF9838"/>
</linearGradient>
</defs>
</svg>
