<svg width="65" height="66" viewBox="0 0 65 66" fill="none" xmlns="http://www.w3.org/2000/svg">
<path d="M32.5 65.3091C50.4206 65.3091 65 50.7297 65 32.8091C65 14.8885 50.4206 0.309082 32.5 0.309082C14.5794 0.309082 0 14.8885 0 32.8091C0 50.7297 14.5794 65.3091 32.5 65.3091ZM32.5 33.869C30.3301 33.8691 28.2408 33.0473 26.6524 31.569C25.064 30.0907 24.0945 28.0657 23.939 25.9014C23.7835 23.7371 24.4535 21.5943 25.8141 19.9041C27.1748 18.2139 29.1252 17.1017 31.2727 16.7915V13.8889C31.2727 13.5634 31.402 13.2512 31.6322 13.0211C31.8624 12.7909 32.1745 12.6616 32.5 12.6616C32.8255 12.6616 33.1376 12.7909 33.3678 13.0211C33.598 13.2512 33.7273 13.5634 33.7273 13.8889V16.7934C35.7687 17.0908 37.635 18.1125 38.9855 19.6719C40.3361 21.2313 41.0807 23.2245 41.0834 25.2874C41.0834 25.6129 40.9541 25.9251 40.724 26.1552C40.4938 26.3854 40.1817 26.5147 39.8562 26.5147C39.5307 26.5147 39.2185 26.3854 38.9884 26.1552C38.7582 25.9251 38.6289 25.6129 38.6289 25.2874C38.6293 24.0752 38.2701 22.89 37.5969 21.8819C36.9237 20.8737 35.9666 20.0879 34.8467 19.6237C33.7268 19.1596 32.4945 19.0379 31.3054 19.2742C30.1164 19.5105 29.0242 20.0941 28.1668 20.9511C27.3095 21.8082 26.7256 22.9003 26.489 24.0892C26.2523 25.2782 26.3736 26.5106 26.8374 27.6306C27.3013 28.7506 28.0868 29.7079 29.0948 30.3815C30.1027 31.055 31.2877 31.4145 32.5 31.4145C34.6699 31.4144 36.7592 32.2362 38.3476 33.7145C39.936 35.1928 40.9055 37.2178 41.061 39.3821C41.2165 41.5464 40.5466 43.6893 39.1859 45.3795C37.8252 47.0697 35.8748 48.1818 33.7273 48.492V51.7303C33.7273 52.0558 33.598 52.368 33.3678 52.5981C33.1376 52.8283 32.8255 52.9576 32.5 52.9576C32.1745 52.9576 31.8624 52.8283 31.6322 52.5981C31.402 52.368 31.2727 52.0558 31.2727 51.7303V48.492C29.2313 48.1946 27.365 47.1729 26.0145 45.6135C24.6639 44.054 23.9193 42.0609 23.9166 39.9979C23.9166 39.6725 24.0459 39.3603 24.276 39.1301C24.5062 38.9 24.8183 38.7707 25.1438 38.7707C25.4693 38.7707 25.7815 38.9 26.0116 39.1301C26.2418 39.3603 26.3711 39.6725 26.3711 39.9979C26.3731 41.6106 27.0099 43.1576 28.1439 44.3043C29.2779 45.4509 30.8177 46.1049 32.4302 46.1248C32.4536 46.1236 32.4765 46.1213 32.5 46.1213C32.5235 46.1213 32.5464 46.1236 32.5697 46.1248C34.1887 46.1061 35.7344 45.4475 36.8694 44.2928C38.0043 43.1381 38.6362 41.5813 38.6269 39.9622C38.6177 38.3432 37.9682 36.7936 36.8202 35.652C35.6722 34.5103 34.119 33.8693 32.5 33.869Z" fill="url(#paint0_linear)"/>
<defs>
<linearGradient id="paint0_linear" x1="0" y1="65.3091" x2="65" y2="65.3091" gradientUnits="userSpaceOnUse">
<stop stop-color="#FD8B8B"/>
<stop offset="1" stop-color="#FF9838"/>
</linearGradient>
</defs>
</svg>
