<svg width="63" height="67" viewBox="0 0 63 67" fill="none" xmlns="http://www.w3.org/2000/svg">
<path d="M44.633 40.7664C44.6258 40.7704 44.6187 40.7745 44.6115 40.7782L42.8262 41.749C43.6928 41.9497 44.5104 42.3223 45.2306 42.8446L49.0618 40.7804C48.3907 40.3867 47.6273 40.178 46.8493 40.1756C46.0713 40.1731 45.3065 40.377 44.633 40.7664Z" fill="url(#paint0_linear)"/>
<path d="M47.6117 46.013L48.0297 45.7926L55.6546 41.679C54.8085 40.8906 53.5047 40.4751 52.4674 40.9944L46.5918 44.1603C47.028 44.7197 47.3723 45.3451 47.6117 46.013Z" fill="url(#paint1_linear)"/>
<path d="M8.38362 63.682C8.9191 63.682 9.35318 63.248 9.35318 62.7125C9.35318 62.177 8.9191 61.7429 8.38362 61.7429C7.84815 61.7429 7.41406 62.177 7.41406 62.7125C7.41406 63.248 7.84815 63.682 8.38362 63.682Z" fill="url(#paint2_linear)"/>
<path d="M58.4826 42.204L48.8805 47.3844L47.989 47.8545C47.9969 47.9876 48.0022 48.1212 48.0022 48.2562C48.0022 48.4955 47.9072 48.7249 47.738 48.8941C47.5688 49.0632 47.3394 49.1583 47.1001 49.1583C47.0866 49.1583 47.0729 49.1583 47.0594 49.1572L40.4303 48.8565C38.4906 48.7692 36.5469 48.8589 34.6235 49.1246C34.3864 49.1574 34.146 49.0947 33.9551 48.9502C33.8606 48.8787 33.7811 48.7892 33.7212 48.687C33.6613 48.5847 33.6221 48.4716 33.6058 48.3542C33.5896 48.2368 33.5966 48.1174 33.6266 48.0027C33.6565 47.888 33.7087 47.7804 33.7802 47.6859C33.9247 47.495 34.1391 47.3694 34.3762 47.3366C36.4085 47.0555 38.4623 46.9602 40.512 47.052L46.1056 47.2868C45.8855 46.1781 45.2891 45.1795 44.4173 44.4601C43.5455 43.7406 42.4519 43.3445 41.3216 43.3388H33.5499C32.0225 43.3439 30.5136 43.0052 29.1349 42.3477L28.3335 41.9729C26.35 41.0087 24.1389 40.6106 21.9436 40.8223C19.7484 41.0341 17.6542 41.8475 15.8915 43.173L13.9847 44.8718C13.0704 45.6857 11.991 46.2922 10.8203 46.6498L14.6177 59.1057L19.9434 55.7391C19.9571 55.7305 19.9711 55.7222 19.9852 55.7144C21.1431 55.0646 22.505 54.8799 23.7941 55.198L35.4469 57.3437C38.2249 57.8402 41.0888 57.4426 43.6265 56.208L63.0007 42.9061C62.428 42.3111 61.6761 41.9202 60.86 41.7934C60.044 41.6665 59.2088 41.8108 58.4826 42.204Z" fill="url(#paint3_linear)"/>
<path d="M14.9193 66.1908L7.67049 42.4366H0L2.89936 66.1908H14.9193ZM8.38357 59.9387C8.93215 59.9387 9.46841 60.1013 9.92454 60.4061C10.3807 60.7109 10.7362 61.1441 10.9461 61.6509C11.156 62.1577 11.211 62.7154 11.104 63.2535C10.9969 63.7915 10.7328 64.2857 10.3449 64.6736C9.95695 65.0615 9.46273 65.3257 8.92469 65.4327C8.38665 65.5397 7.82895 65.4848 7.32213 65.2749C6.81531 65.0649 6.38212 64.7094 6.07734 64.2533C5.77257 63.7972 5.60989 63.2609 5.60989 62.7123C5.61069 61.977 5.90317 61.2719 6.42316 60.7519C6.94316 60.2319 7.64819 59.9395 8.38357 59.9387Z" fill="url(#paint4_linear)"/>
<path d="M33.0227 5.01408C31.1734 4.82708 29.3052 5.00675 27.5254 5.54282C25.7455 6.07889 24.0889 6.96081 22.6504 8.13809C21.2119 9.31536 20.0198 10.7648 19.1424 12.4035C18.2649 14.0422 17.7194 15.8379 17.537 17.6878C17.3546 19.5376 17.5389 21.4053 18.0794 23.1838C18.6198 24.9623 19.5059 26.6167 20.6867 28.0523C21.8676 29.4879 23.32 30.6764 24.9609 31.5497C26.6017 32.4231 28.3988 32.9642 30.2491 33.142C30.7181 33.1883 31.184 33.2113 31.6465 33.2109C35.2745 33.2096 38.763 31.8132 41.3897 29.3106C44.0165 26.8081 45.5802 23.3913 45.757 19.7676C45.9339 16.1439 44.7104 12.5911 42.3398 9.84464C39.9693 7.09822 36.6334 5.36865 33.0227 5.01408ZM36.4079 15.9139C36.3965 16.0321 36.362 16.1468 36.3062 16.2515C36.2505 16.3563 36.1746 16.449 36.083 16.5243C35.9914 16.5997 35.8857 16.6563 35.7722 16.6908C35.6587 16.7253 35.5395 16.737 35.4214 16.7254C35.3033 16.7138 35.1887 16.6789 35.0841 16.6229C34.9795 16.5669 34.887 16.4908 34.8118 16.399C34.7367 16.3071 34.6804 16.2014 34.6462 16.0878C34.612 15.9741 34.6005 15.8549 34.6125 15.7368C34.6636 15.2183 34.5598 14.6963 34.3142 14.2368C34.0686 13.7773 33.6923 13.401 33.2328 13.1553C32.7734 12.9097 32.2514 12.8058 31.7329 12.8568C31.2144 12.9079 30.7226 13.1115 30.3198 13.442C29.9171 13.7725 29.6213 14.215 29.4701 14.7136C29.3188 15.2121 29.3187 15.7443 29.4699 16.2429C29.6211 16.7415 29.9167 17.1841 30.3195 17.5147C30.7222 17.8452 31.2139 18.049 31.7324 18.1001C32.826 18.2073 33.8409 18.7165 34.5806 19.529C35.3204 20.3415 35.7324 21.3996 35.7368 22.4984C35.7413 23.5973 35.3379 24.6587 34.6047 25.4772C33.8716 26.2957 32.8608 26.813 31.7681 26.9291L31.6409 28.2189C31.619 28.4416 31.5151 28.6482 31.3494 28.7985C31.1837 28.9489 30.9681 29.0323 30.7443 29.0326C30.7142 29.0326 30.6842 29.0311 30.6541 29.0281C30.416 29.0046 30.197 28.8875 30.0453 28.7025C29.8935 28.5175 29.8215 28.2799 29.8449 28.0418L29.9718 26.7538C28.9985 26.4481 28.16 25.8169 27.5969 24.9662C27.0338 24.1155 26.7804 23.097 26.8791 22.0816C26.8902 21.9633 26.9246 21.8484 26.9802 21.7434C27.0359 21.6384 27.1117 21.5454 27.2034 21.4698C27.295 21.3942 27.4008 21.3375 27.5144 21.3029C27.6281 21.2682 27.7475 21.2564 27.8657 21.2681C27.984 21.2797 28.0988 21.3146 28.2035 21.3708C28.3082 21.4269 28.4008 21.5032 28.476 21.5952C28.5511 21.6873 28.6073 21.7933 28.6414 21.9071C28.6755 22.0209 28.6868 22.1404 28.6745 22.2586C28.6073 22.9493 28.8151 23.6386 29.2528 24.1771C29.6905 24.7156 30.3229 25.0598 31.0128 25.1351C31.0212 25.1351 31.0295 25.1351 31.0379 25.1361C31.0463 25.1372 31.0552 25.139 31.0638 25.14C31.7593 25.2051 32.4521 24.9913 32.9899 24.5455C33.5277 24.0998 33.8664 23.4587 33.9315 22.7632C33.9966 22.0677 33.7827 21.3749 33.337 20.8371C32.8912 20.2993 32.2501 19.9606 31.5546 19.8955C30.4614 19.7874 29.4471 19.2777 28.7078 18.4651C27.9686 17.6524 27.5569 16.5945 27.5525 15.4959C27.548 14.3973 27.9511 13.3361 28.6838 12.5175C29.4165 11.6989 30.4267 11.1811 31.519 11.0642L31.6303 9.93661C31.6543 9.69899 31.7716 9.4806 31.9565 9.32935C32.1413 9.1781 32.3786 9.10632 32.6163 9.12977C32.854 9.15322 33.0727 9.26997 33.2244 9.45442C33.3761 9.63887 33.4485 9.87597 33.4257 10.1137L33.3144 11.2413C34.288 11.5469 35.1268 12.1781 35.6901 13.0289C36.2534 13.8798 36.5068 14.8985 36.4079 15.9141V15.9139Z" fill="url(#paint5_linear)"/>
<path d="M53.7497 10.4827C53.5105 10.4827 53.281 10.5777 53.1119 10.7469C52.9427 10.916 52.8477 11.1455 52.8477 11.3847V12.8882C52.8477 13.1274 52.9427 13.3568 53.1119 13.526C53.281 13.6952 53.5105 13.7902 53.7497 13.7902C53.989 13.7902 54.2184 13.6952 54.3876 13.526C54.5567 13.3568 54.6518 13.1274 54.6518 12.8882V11.3847C54.6518 11.1455 54.5567 10.916 54.3876 10.7469C54.2184 10.5777 53.989 10.4827 53.7497 10.4827Z" fill="url(#paint6_linear)"/>
<path d="M53.7497 14.9929C53.5105 14.9929 53.281 15.088 53.1119 15.2571C52.9427 15.4263 52.8477 15.6557 52.8477 15.895V17.3984C52.8477 17.6376 52.9427 17.8671 53.1119 18.0363C53.281 18.2054 53.5105 18.3005 53.7497 18.3005C53.989 18.3005 54.2184 18.2054 54.3876 18.0363C54.5567 17.8671 54.6518 17.6376 54.6518 17.3984V15.895C54.6518 15.6557 54.5567 15.4263 54.3876 15.2571C54.2184 15.088 53.989 14.9929 53.7497 14.9929Z" fill="url(#paint7_linear)"/>
<path d="M50.781 13.4205C50.5417 13.4205 50.3123 13.5156 50.1431 13.6847C49.9739 13.8539 49.8789 14.0833 49.8789 14.3226C49.8789 14.5618 49.9739 14.7913 50.1431 14.9604C50.3123 15.1296 50.5417 15.2246 50.781 15.2246H52.2844C52.5236 15.2246 52.7531 15.1296 52.9222 14.9604C53.0914 14.7913 53.1865 14.5618 53.1865 14.3226C53.1865 14.0833 53.0914 13.8539 52.9222 13.6847C52.7531 13.5156 52.5236 13.4205 52.2844 13.4205H50.781Z" fill="url(#paint8_linear)"/>
<path d="M55.2907 15.2246H56.7942C57.0334 15.2246 57.2628 15.1296 57.432 14.9604C57.6012 14.7913 57.6962 14.5618 57.6962 14.3226C57.6962 14.0833 57.6012 13.8539 57.432 13.6847C57.2628 13.5156 57.0334 13.4205 56.7942 13.4205H55.2907C55.0515 13.4205 54.822 13.5156 54.6529 13.6847C54.4837 13.8539 54.3887 14.0833 54.3887 14.3226C54.3887 14.5618 54.4837 14.7913 54.6529 14.9604C54.822 15.1296 55.0515 15.2246 55.2907 15.2246Z" fill="url(#paint9_linear)"/>
<path d="M14.2107 0.309082C13.9714 0.309082 13.742 0.40412 13.5728 0.573289C13.4036 0.742457 13.3086 0.971899 13.3086 1.21114V2.71457C13.3086 2.95381 13.4036 3.18325 13.5728 3.35242C13.742 3.52159 13.9714 3.61663 14.2107 3.61663C14.4499 3.61663 14.6793 3.52159 14.8485 3.35242C15.0177 3.18325 15.1127 2.95381 15.1127 2.71457V1.21114C15.1127 0.971899 15.0177 0.742457 14.8485 0.573289C14.6793 0.40412 14.4499 0.309082 14.2107 0.309082Z" fill="url(#paint10_linear)"/>
<path d="M14.2107 4.81934C13.9714 4.81934 13.742 4.91437 13.5728 5.08354C13.4036 5.25271 13.3086 5.48215 13.3086 5.72139V7.22482C13.3086 7.46406 13.4036 7.6935 13.5728 7.86267C13.742 8.03184 13.9714 8.12688 14.2107 8.12688C14.4499 8.12688 14.6793 8.03184 14.8485 7.86267C15.0177 7.6935 15.1127 7.46406 15.1127 7.22482V5.72139C15.1127 5.48215 15.0177 5.25271 14.8485 5.08354C14.6793 4.91437 14.4499 4.81934 14.2107 4.81934Z" fill="url(#paint11_linear)"/>
<path d="M11.2204 3.34753C10.9812 3.34753 10.7517 3.44257 10.5826 3.61174C10.4134 3.78091 10.3184 4.01035 10.3184 4.24959C10.3184 4.48883 10.4134 4.71827 10.5826 4.88744C10.7517 5.05661 10.9812 5.15165 11.2204 5.15165H12.7238C12.9631 5.15165 13.1925 5.05661 13.3617 4.88744C13.5309 4.71827 13.6259 4.48883 13.6259 4.24959C13.6259 4.01035 13.5309 3.78091 13.3617 3.61174C13.1925 3.44257 12.9631 3.34753 12.7238 3.34753H11.2204Z" fill="url(#paint12_linear)"/>
<path d="M17.2336 3.34753H15.7302C15.4909 3.34753 15.2615 3.44257 15.0923 3.61174C14.9232 3.78091 14.8281 4.01035 14.8281 4.24959C14.8281 4.48883 14.9232 4.71827 15.0923 4.88744C15.2615 5.05661 15.4909 5.15165 15.7302 5.15165H17.2336C17.4729 5.15165 17.7023 5.05661 17.8715 4.88744C18.0406 4.71827 18.1357 4.48883 18.1357 4.24959C18.1357 4.01035 18.0406 3.78091 17.8715 3.61174C17.7023 3.44257 17.4729 3.34753 17.2336 3.34753Z" fill="url(#paint13_linear)"/>
<defs>
<linearGradient id="paint0_linear" x1="42.8262" y1="42.8446" x2="49.0618" y2="42.8446" gradientUnits="userSpaceOnUse">
<stop stop-color="#FD8B8B"/>
<stop offset="1" stop-color="#FF9838"/>
</linearGradient>
<linearGradient id="paint1_linear" x1="46.5918" y1="46.013" x2="55.6546" y2="46.013" gradientUnits="userSpaceOnUse">
<stop stop-color="#FD8B8B"/>
<stop offset="1" stop-color="#FF9838"/>
</linearGradient>
<linearGradient id="paint2_linear" x1="7.41406" y1="63.682" x2="9.35318" y2="63.682" gradientUnits="userSpaceOnUse">
<stop stop-color="#FD8B8B"/>
<stop offset="1" stop-color="#FF9838"/>
</linearGradient>
<linearGradient id="paint3_linear" x1="10.8203" y1="59.1057" x2="63.0007" y2="59.1057" gradientUnits="userSpaceOnUse">
<stop stop-color="#FD8B8B"/>
<stop offset="1" stop-color="#FF9838"/>
</linearGradient>
<linearGradient id="paint4_linear" x1="0" y1="66.1908" x2="14.9193" y2="66.1908" gradientUnits="userSpaceOnUse">
<stop stop-color="#FD8B8B"/>
<stop offset="1" stop-color="#FF9838"/>
</linearGradient>
<linearGradient id="paint5_linear" x1="17.4688" y1="33.2109" x2="45.7738" y2="33.2109" gradientUnits="userSpaceOnUse">
<stop stop-color="#FD8B8B"/>
<stop offset="1" stop-color="#FF9838"/>
</linearGradient>
<linearGradient id="paint6_linear" x1="52.8477" y1="13.7902" x2="54.6518" y2="13.7902" gradientUnits="userSpaceOnUse">
<stop stop-color="#FD8B8B"/>
<stop offset="1" stop-color="#FF9838"/>
</linearGradient>
<linearGradient id="paint7_linear" x1="52.8477" y1="18.3005" x2="54.6518" y2="18.3005" gradientUnits="userSpaceOnUse">
<stop stop-color="#FD8B8B"/>
<stop offset="1" stop-color="#FF9838"/>
</linearGradient>
<linearGradient id="paint8_linear" x1="49.8789" y1="15.2246" x2="53.1865" y2="15.2246" gradientUnits="userSpaceOnUse">
<stop stop-color="#FD8B8B"/>
<stop offset="1" stop-color="#FF9838"/>
</linearGradient>
<linearGradient id="paint9_linear" x1="54.3887" y1="15.2246" x2="57.6962" y2="15.2246" gradientUnits="userSpaceOnUse">
<stop stop-color="#FD8B8B"/>
<stop offset="1" stop-color="#FF9838"/>
</linearGradient>
<linearGradient id="paint10_linear" x1="13.3086" y1="3.61663" x2="15.1127" y2="3.61663" gradientUnits="userSpaceOnUse">
<stop stop-color="#FD8B8B"/>
<stop offset="1" stop-color="#FF9838"/>
</linearGradient>
<linearGradient id="paint11_linear" x1="13.3086" y1="8.12688" x2="15.1127" y2="8.12688" gradientUnits="userSpaceOnUse">
<stop stop-color="#FD8B8B"/>
<stop offset="1" stop-color="#FF9838"/>
</linearGradient>
<linearGradient id="paint12_linear" x1="10.3184" y1="5.15165" x2="13.6259" y2="5.15165" gradientUnits="userSpaceOnUse">
<stop stop-color="#FD8B8B"/>
<stop offset="1" stop-color="#FF9838"/>
</linearGradient>
<linearGradient id="paint13_linear" x1="14.8281" y1="5.15165" x2="18.1357" y2="5.15165" gradientUnits="userSpaceOnUse">
<stop stop-color="#FD8B8B"/>
<stop offset="1" stop-color="#FF9838"/>
</linearGradient>
</defs>
</svg>
