<svg width="63" height="64" viewBox="0 0 63 64" fill="none" xmlns="http://www.w3.org/2000/svg">
<g clip-path="url(#clip0)">
<path d="M35.7845 42.1584C35.5492 41.9008 35.2516 41.708 34.9439 41.5475C34.2742 41.1982 33.5417 40.9864 32.8145 40.7952V46.4307C33.9949 46.2973 35.3501 45.8689 35.9699 44.7669C36.2658 44.2405 36.3247 43.5937 36.2042 43.0077C36.1388 42.6901 36.0037 42.3987 35.7845 42.1584Z" fill="#FFA08B"/>
<path d="M35.9629 44.7771C35.9651 44.7733 35.9664 44.7709 35.9688 44.7668C35.9668 44.7702 35.9648 44.7736 35.9629 44.7771Z" fill="black"/>
<path d="M27.2772 33.1494C27.0742 33.4457 26.9469 33.7824 26.9117 34.1403C26.8766 34.4989 26.8963 34.8978 27.0326 35.2353C27.1623 35.557 27.434 35.7945 27.7145 35.9857C28.0292 36.1998 28.3753 36.367 28.7279 36.5087C29.0236 36.6278 29.3563 36.7416 29.7149 36.8516V31.7521C28.8089 31.9454 27.8191 32.3581 27.2772 33.1494Z" fill="#FFA08B"/>
<path d="M35.9924 44.7252C35.9849 44.7386 35.9767 44.7527 35.9688 44.7675C35.9781 44.7503 35.9855 44.7376 35.9924 44.7252Z" fill="black"/>
<path d="M36.0234 44.673C36.0258 44.6687 36.0261 44.6684 36.0234 44.673V44.673Z" fill="black"/>
<path d="M34.7994 14.0169C39.5919 9.99091 42.7942 0.920999 40.8235 0.524303C38.205 -0.00299501 32.5187 2.30914 29.7703 2.71651C25.8721 3.18718 21.6264 -1.51062 19.2433 1.10793C17.3056 3.23699 20.6325 10.9797 25.8374 14.3528C10.3087 21.9849 -11.5179 60.2987 26.5598 63.0787C79.2467 66.9254 52.8645 21.4542 34.7994 14.0169ZM39.3242 44.233C39.1622 45.7266 38.3705 47.0774 37.1873 47.9944C35.9379 48.9628 34.3708 49.4131 32.8138 49.5393V51.1897C32.8138 51.6313 32.621 52.0584 32.2904 52.3507C31.836 52.7527 31.1683 52.8519 30.6169 52.5978C30.0724 52.3473 29.7147 51.7889 29.7147 51.1897V49.3859C29.4477 49.3352 29.1826 49.2748 28.9207 49.2029C27.4655 48.8031 26.1158 48.0238 25.1298 46.8708C24.6387 46.296 24.2383 45.6439 23.9614 44.9399C23.889 44.7559 23.8246 44.5686 23.7681 44.3791C23.7169 44.2076 23.6642 44.0333 23.6459 43.8545C23.6152 43.5546 23.6747 43.2486 23.8145 42.9815C24.1018 42.432 24.7072 42.1 25.3254 42.1552C25.9338 42.2091 26.467 42.6313 26.6585 43.2113C26.7175 43.3899 26.7575 43.573 26.8238 43.7497C26.8895 43.9252 26.9688 44.0958 27.062 44.2583C27.2461 44.5782 27.4768 44.8732 27.7425 45.1292C28.2901 45.6568 28.9875 45.9997 29.7147 46.2037V40.0721C28.2929 39.704 26.8253 39.2286 25.6512 38.3157C25.0806 37.8719 24.5965 37.3204 24.2794 36.6677C23.9448 35.9788 23.8062 35.2114 23.8005 34.4491C23.7948 33.6751 23.9418 32.908 24.2647 32.2028C24.5671 31.5425 25.0025 30.9497 25.5363 30.4583C26.6778 29.4077 28.194 28.8217 29.7148 28.6064V28.4715V26.8932C29.7148 26.4517 29.9077 26.0245 30.2383 25.7322C30.6928 25.3303 31.3602 25.231 31.9118 25.485C32.4561 25.7357 32.814 26.294 32.814 26.8932V28.4715V28.5971C33.0166 28.6226 33.2187 28.6531 33.4197 28.6896C34.9131 28.9598 36.3737 29.5765 37.4658 30.6532C37.9832 31.1632 38.4067 31.7708 38.7045 32.4335C38.7877 32.6183 38.8605 32.8075 38.9235 33.0003C38.9822 33.1802 39.0412 33.3653 39.0692 33.553C39.114 33.8526 39.0683 34.1621 38.9401 34.4362C38.6774 34.9978 38.0883 35.3553 37.4685 35.3288C36.8595 35.3022 36.3077 34.9057 36.0897 34.3364C36.0248 34.1672 35.9923 33.9879 35.926 33.8191C35.8592 33.6482 35.7726 33.4851 35.6728 33.3311C35.4789 33.0316 35.2277 32.7749 34.9408 32.5633C34.3197 32.1047 33.5663 31.8657 32.8135 31.7321V37.5998C33.7082 37.8141 34.6036 38.0477 35.4607 38.3857C36.7562 38.8965 37.9838 39.6798 38.6909 40.915C38.5812 40.7226 38.4745 40.535 38.6946 40.9214C38.9107 41.3009 38.8076 41.12 38.699 40.9298C39.2616 41.9213 39.4465 43.1068 39.3242 44.233Z" fill="url(#paint0_linear)"/>
<path d="M35.9473 44.8068C35.9382 44.8232 35.9302 44.8377 35.9238 44.8487C35.9293 44.8392 35.9374 44.8249 35.9473 44.8068Z" fill="black"/>
</g>
<defs>
<linearGradient id="paint0_linear" x1="5.37109" y1="63.3092" x2="57.6271" y2="63.3092" gradientUnits="userSpaceOnUse">
<stop stop-color="#FD8B8B"/>
<stop offset="1" stop-color="#FF9838"/>
</linearGradient>
<clipPath id="clip0">
<rect width="63" height="63" fill="white" transform="translate(0 0.309082)"/>
</clipPath>
</defs>
</svg>
