<svg width="71" height="72" viewBox="0 0 71 72" fill="none" xmlns="http://www.w3.org/2000/svg">
<path d="M62.0213 27.7068C61.9456 27.5914 61.8424 27.4966 61.7209 27.431C61.5994 27.3654 61.4635 27.3311 61.3255 27.3311C61.1874 27.3311 61.0516 27.3654 60.9301 27.431C60.8086 27.4966 60.7054 27.5914 60.6297 27.7068L53.1736 39.0756C53.0912 39.203 53.0444 39.3502 53.0381 39.5018C53.0317 39.6535 53.0659 39.804 53.1373 39.938C53.208 40.0713 53.3133 40.1832 53.442 40.2619C53.5708 40.3406 53.7184 40.3832 53.8693 40.3853H60.2299C59.3588 46.7301 56.1843 52.5327 51.3111 56.688C46.7097 60.6335 40.9291 62.8918 35.4519 62.8918C31.8797 62.8918 28.1447 61.9261 24.6507 60.1045C21.0223 58.2093 17.8753 55.5095 15.4504 52.2116C15.3872 52.12 15.3064 52.0421 15.2126 51.9824C15.1188 51.9226 15.014 51.8823 14.9044 51.8638C14.7947 51.8452 14.6825 51.8489 14.5743 51.8744C14.4661 51.9 14.3641 51.947 14.2743 52.0127C14.1846 52.0783 14.1089 52.1613 14.0518 52.2567C13.9947 52.3521 13.9572 52.458 13.9417 52.5681C13.9262 52.6782 13.9329 52.7903 13.9615 52.8977C13.99 53.0052 14.0398 53.1059 14.1079 53.1938C16.6839 56.697 20.0269 59.5647 23.8814 61.5775C27.6117 63.5226 31.6129 64.5506 35.4519 64.5506C41.3205 64.5506 47.4958 62.1524 52.3943 57.9522C57.6219 53.469 61.0099 47.2133 61.908 40.3853H68.7817C68.9326 40.3832 69.0802 40.3406 69.209 40.2619C69.3377 40.1832 69.443 40.0713 69.5137 39.938C69.5851 39.804 69.6193 39.6535 69.6129 39.5018C69.6066 39.3502 69.5598 39.203 69.4774 39.0756L62.0213 27.7068Z" fill="url(#paint0_linear)"/>
<path d="M9.67443 44.2858C9.81234 44.2859 9.94812 44.2518 10.0696 44.1864C10.191 44.1211 10.2943 44.0266 10.3701 43.9114L17.8263 32.5364C17.9081 32.4098 17.9546 32.2636 17.9609 32.113C17.9672 31.9624 17.9331 31.8129 17.8621 31.6799C17.7911 31.5469 17.6858 31.4353 17.5572 31.3567C17.4286 31.2781 17.2813 31.2354 17.1305 31.2329H10.7699C11.6411 24.8882 14.8156 19.0855 19.6888 14.9302C24.2902 10.9847 30.0707 8.72715 35.548 8.72715C39.1202 8.72715 42.8551 9.69286 46.3491 11.5145C49.9775 13.4096 53.1245 16.1094 55.5494 19.4074C55.6126 19.4989 55.6935 19.5768 55.7873 19.6366C55.881 19.6963 55.9858 19.7366 56.0955 19.7552C56.2051 19.7737 56.3174 19.7701 56.4256 19.7445C56.5338 19.7189 56.6358 19.6719 56.7255 19.6063C56.8153 19.5406 56.8909 19.4576 56.9481 19.3622C57.0052 19.2668 57.0426 19.161 57.0581 19.0509C57.0736 18.9408 57.0669 18.8287 57.0384 18.7212C57.0098 18.6137 56.96 18.5131 56.8919 18.4252C54.316 14.9219 50.9729 12.0543 47.1185 10.0415C43.3882 8.09633 39.387 7.06836 35.548 7.06836C29.6794 7.06836 23.504 9.46655 18.6056 13.6668C13.3781 18.1498 9.99015 24.4052 9.09187 31.2329H2.21818C2.06735 31.2354 1.91991 31.2781 1.79119 31.3568C1.66247 31.4355 1.55714 31.5471 1.48615 31.6803C1.41516 31.8134 1.38109 31.9631 1.38748 32.1138C1.39386 32.2645 1.44047 32.4108 1.52247 32.5374L8.97858 43.9085C9.05419 44.0241 9.15738 44.1192 9.27885 44.185C9.40032 44.2509 9.53625 44.2855 9.67443 44.2858Z" fill="url(#paint1_linear)"/>
<path d="M19.4141 35.8091C19.4141 38.9906 20.3575 42.1006 22.125 44.7459C23.8926 47.3913 26.4049 49.453 29.3442 50.6705C32.2835 51.888 35.5178 52.2066 38.6382 51.5859C41.7586 50.9652 44.6248 49.4332 46.8745 47.1835C49.1241 44.9339 50.6562 42.0676 51.2768 38.9473C51.8975 35.8269 51.579 32.5926 50.3615 29.6533C49.1439 26.7139 47.0822 24.2017 44.4369 22.4341C41.7915 20.6666 38.6815 19.7231 35.5 19.7231C31.2352 19.728 27.1465 21.4243 24.1309 24.44C21.1152 27.4556 19.4189 31.5443 19.4141 35.8091ZM36.332 26.8925V28.0468C37.3083 28.2407 38.1872 28.7669 38.8192 29.5358C39.4513 30.3046 39.7974 31.2687 39.7988 32.2641C39.7988 32.4847 39.7112 32.6964 39.5551 32.8524C39.3991 33.0084 39.1875 33.0961 38.9668 33.0961C38.7461 33.0961 38.5345 33.0084 38.3785 32.8524C38.2224 32.6964 38.1348 32.4847 38.1348 32.2641C38.1348 31.743 37.9802 31.2336 37.6907 30.8003C37.4012 30.367 36.9897 30.0293 36.5083 29.8299C36.0268 29.6304 35.4971 29.5783 34.986 29.6799C34.4749 29.7816 34.0054 30.0325 33.6369 30.401C33.2685 30.7695 33.0175 31.239 32.9159 31.7501C32.8142 32.2611 32.8664 32.7909 33.0658 33.2723C33.2652 33.7538 33.6029 34.1653 34.0362 34.4548C34.4695 34.7443 34.9789 34.8988 35.5 34.8988C36.5675 34.8991 37.5968 35.2967 38.3874 36.014C39.178 36.7313 39.6734 37.7172 39.7772 38.7797C39.881 39.8421 39.5857 40.9052 38.9489 41.762C38.3121 42.6188 37.3793 43.208 36.332 43.4149V44.7271C36.332 44.9477 36.2444 45.1594 36.0883 45.3154C35.9323 45.4714 35.7207 45.5591 35.5 45.5591C35.2793 45.5591 35.0677 45.4714 34.9117 45.3154C34.7556 45.1594 34.668 44.9477 34.668 44.7271V43.4149C33.6917 43.221 32.8128 42.6949 32.1807 41.926C31.5487 41.1571 31.2025 40.193 31.2012 39.1977C31.2012 38.977 31.2888 38.7654 31.4449 38.6093C31.6009 38.4533 31.8125 38.3656 32.0332 38.3656C32.2539 38.3656 32.4655 38.4533 32.6215 38.6093C32.7776 38.7654 32.8652 38.977 32.8652 39.1977C32.8661 39.8918 33.1407 40.5575 33.6293 41.0505C34.1178 41.5435 34.7811 41.824 35.4752 41.8312C35.4835 41.8312 35.4917 41.8299 35.5 41.8299C35.5083 41.8299 35.5165 41.8309 35.5248 41.8312C36.2172 41.8184 36.8768 41.5336 37.3607 41.0382C37.8447 40.5429 38.1142 39.877 38.111 39.1844C38.1077 38.4919 37.8319 37.8286 37.3433 37.3378C36.8547 36.8471 36.1925 36.5684 35.5 36.5622C34.4325 36.5619 33.4032 36.1644 32.6126 35.447C31.822 34.7297 31.3266 33.7439 31.2228 32.6814C31.119 31.6189 31.4142 30.5558 32.051 29.699C32.6879 28.8422 33.6207 28.253 34.668 28.0461V26.8925C34.668 26.6718 34.7556 26.4602 34.9117 26.3041C35.0677 26.1481 35.2793 26.0604 35.5 26.0604C35.7207 26.0604 35.9323 26.1481 36.0883 26.3041C36.2444 26.4602 36.332 26.6718 36.332 26.8925Z" fill="url(#paint2_linear)"/>
<defs>
<linearGradient id="paint0_linear" x1="13.9336" y1="64.5506" x2="69.6137" y2="64.5506" gradientUnits="userSpaceOnUse">
<stop stop-color="#FD8B8B"/>
<stop offset="1" stop-color="#FF9838"/>
</linearGradient>
<linearGradient id="paint1_linear" x1="1.38672" y1="44.2858" x2="57.0663" y2="44.2858" gradientUnits="userSpaceOnUse">
<stop stop-color="#FD8B8B"/>
<stop offset="1" stop-color="#FF9838"/>
</linearGradient>
<linearGradient id="paint2_linear" x1="19.4141" y1="51.895" x2="51.5859" y2="51.895" gradientUnits="userSpaceOnUse">
<stop stop-color="#FD8B8B"/>
<stop offset="1" stop-color="#FF9838"/>
</linearGradient>
</defs>
</svg>
