<svg width="79" height="80" viewBox="0 0 79 80" fill="none" xmlns="http://www.w3.org/2000/svg">
<path d="M42.7334 52.6638C41.2928 52.6638 39.8844 53.091 38.6866 53.8913C37.4887 54.6917 36.555 55.8293 36.0037 57.1603C35.4524 58.4913 35.3081 59.9559 35.5892 61.3689C35.8702 62.7819 36.564 64.0798 37.5827 65.0985C38.6014 66.1172 39.8993 66.8109 41.3123 67.092C42.7252 67.373 44.1898 67.2287 45.5208 66.6774C46.8518 66.1261 47.9894 65.1924 48.7898 63.9946C49.5902 62.7967 50.0173 61.3884 50.0173 59.9477C50.0151 58.0166 49.247 56.1652 47.8815 54.7997C46.516 53.4341 44.6646 52.666 42.7334 52.6638ZM44.261 57.5532C44.5065 57.5532 44.742 57.6507 44.9156 57.8243C45.0892 57.9979 45.1867 58.2334 45.1867 58.479C45.1867 58.7245 45.0892 58.96 44.9156 59.1336C44.742 59.3072 44.5065 59.4047 44.261 59.4047H40.0321C40.0077 59.6097 40.0077 59.8169 40.0321 60.0219H44.2611C44.5066 60.0219 44.7421 60.1195 44.9157 60.2931C45.0894 60.4667 45.1869 60.7022 45.1869 60.9477C45.1869 61.1932 45.0894 61.4287 44.9157 61.6023C44.7421 61.7759 44.5066 61.8735 44.2611 61.8735H40.7478C41.0914 62.348 41.5418 62.7349 42.0627 63.0029C42.5836 63.271 43.1603 63.4126 43.7461 63.4165H45.4929C45.7384 63.4165 45.9739 63.514 46.1475 63.6876C46.3211 63.8612 46.4186 64.0967 46.4186 64.3422C46.4186 64.5878 46.3211 64.8232 46.1475 64.9969C45.9739 65.1705 45.7384 65.268 45.4929 65.268H43.7461C42.6535 65.2665 41.5855 64.944 40.6747 64.3405C39.7639 63.737 39.0506 62.8791 38.6234 61.8735H37.3634C37.1179 61.8735 36.8824 61.7759 36.7088 61.6023C36.5352 61.4287 36.4376 61.1932 36.4376 60.9477C36.4376 60.7022 36.5352 60.4667 36.7088 60.2931C36.8824 60.1195 37.1179 60.0219 37.3634 60.0219H38.1755C38.1576 59.8166 38.1576 59.6101 38.1755 59.4047H37.3634C37.1179 59.4047 36.8824 59.3072 36.7088 59.1336C36.5352 58.96 36.4376 58.7245 36.4376 58.479C36.4376 58.2334 36.5352 57.9979 36.7088 57.8243C36.8824 57.6507 37.1179 57.5532 37.3634 57.5532H38.6234C39.0506 56.5476 39.7639 55.6897 40.6747 55.0862C41.5855 54.4827 42.6535 54.1601 43.7461 54.1586H45.4929C45.7384 54.1586 45.9739 54.2562 46.1475 54.4298C46.3211 54.6034 46.4186 54.8389 46.4186 55.0844C46.4186 55.33 46.3211 55.5654 46.1475 55.7391C45.9739 55.9127 45.7384 56.0102 45.4929 56.0102H43.7461C43.1603 56.014 42.5836 56.1557 42.0627 56.4237C41.5418 56.6918 41.0914 57.0787 40.7478 57.5532H44.261Z" fill="url(#paint0_linear)"/>
<path d="M9.28733 8.78784L3.55859 37.4432L11.1014 38.9512L16.83 10.2958L9.28733 8.78784ZM12.0479 17.2702C11.5193 17.2702 11.0026 17.1134 10.5631 16.8198C10.1236 16.5262 9.78107 16.1088 9.57877 15.6205C9.37648 15.1322 9.32351 14.5948 9.42658 14.0764C9.52966 13.558 9.78413 13.0818 10.1578 12.708C10.5315 12.3342 11.0077 12.0796 11.5261 11.9764C12.0445 11.8732 12.5818 11.9261 13.0702 12.1283C13.5585 12.3305 13.976 12.6729 14.2697 13.1123C14.5635 13.5518 14.7203 14.0684 14.7204 14.597C14.7198 15.3056 14.4381 15.9851 13.937 16.4863C13.436 16.9875 12.7565 17.2694 12.0479 17.2702Z" fill="url(#paint1_linear)"/>
<path d="M52.535 60.0221C52.535 59.7766 52.6325 59.5411 52.8061 59.3675C52.9798 59.1939 53.2152 59.0963 53.4608 59.0963H53.737C53.5693 56.7964 52.668 54.611 51.1656 52.8615L50.9732 53.0167C50.8884 53.1076 50.7861 53.1805 50.6725 53.231C50.5589 53.2815 50.4363 53.3087 50.312 53.3108C50.1877 53.3129 50.0642 53.2899 49.949 53.2433C49.8338 53.1966 49.7291 53.1273 49.6412 53.0393C49.5534 52.9513 49.4842 52.8465 49.4377 52.7312C49.3912 52.6159 49.3684 52.4924 49.3707 52.3681C49.373 52.2438 49.4003 52.1213 49.451 52.0077C49.5016 51.8942 49.5747 51.7921 49.6657 51.7074L49.8596 51.5151C48.1097 50.0392 45.946 49.141 43.6654 48.9436V49.2199C43.6654 49.4655 43.5678 49.701 43.3942 49.8746C43.2206 50.0482 42.9851 50.1457 42.7396 50.1457C42.4941 50.1457 42.2586 50.0482 42.085 49.8746C41.9114 49.701 41.8138 49.4655 41.8138 49.2199V48.9436C39.531 49.1413 37.3651 50.0399 35.6128 51.5163L35.8015 51.7097C35.9305 51.8399 36.0183 52.0052 36.0538 52.185C36.0893 52.3649 36.0709 52.5512 36.001 52.7206C35.9312 52.8901 35.8129 53.0351 35.661 53.1377C35.509 53.2402 35.3302 53.2957 35.147 53.2971C35.0259 53.2989 34.9057 53.2767 34.7934 53.2316C34.681 53.1866 34.5787 53.1197 34.4924 53.0348L34.3 52.861C32.7975 54.6106 31.8961 56.7962 31.7285 59.0963H32.0049C32.2504 59.0963 32.4859 59.1939 32.6595 59.3675C32.8331 59.5411 32.9306 59.7766 32.9306 60.0221C32.9306 60.2676 32.8331 60.5031 32.6595 60.6767C32.4859 60.8504 32.2504 60.9479 32.0049 60.9479H31.7285C31.926 63.2183 32.8245 65.3712 34.2996 67.1085L34.4921 66.8791C34.6657 66.7053 34.9013 66.6076 35.1469 66.6074C35.3926 66.6073 35.6282 66.7048 35.802 66.8784C35.9758 67.052 36.0735 67.2875 36.0737 67.5332C36.0738 67.7788 35.9763 68.0145 35.8027 68.1883L35.6122 68.3807C37.3648 69.8568 39.5309 70.755 41.8138 70.9522V70.6759C41.8138 70.4303 41.9114 70.1948 42.085 70.0212C42.2586 69.8476 42.4941 69.7501 42.7396 69.7501C42.9851 69.7501 43.2206 69.8476 43.3942 70.0212C43.5678 70.1948 43.6654 70.4303 43.6654 70.6759V70.9536C45.3301 70.8205 46.9417 70.3054 48.375 69.4483C48.8986 69.1353 49.3954 68.7795 49.8601 68.3844L49.664 68.1881C49.5761 68.1026 49.5061 68.0005 49.458 67.8877C49.4099 67.7748 49.3847 67.6536 49.3839 67.531C49.383 67.4083 49.4066 67.2868 49.4531 67.1733C49.4996 67.0599 49.5683 66.9568 49.655 66.87C49.7417 66.7833 49.8447 66.7147 49.9582 66.6681C50.0717 66.6216 50.1932 66.598 50.3159 66.5989C50.4385 66.5997 50.5597 66.6249 50.6725 66.673C50.7854 66.721 50.8875 66.791 50.973 66.8789L51.1679 67.0736C52.3601 65.6799 53.181 64.0077 53.5544 62.2121C53.6419 61.7845 53.7009 61.2563 53.7371 60.9477H53.4608C53.2153 60.9477 52.9798 60.8502 52.8062 60.6766C52.6326 60.5031 52.535 60.2676 52.535 60.0221ZM42.7328 69.0835C40.926 69.0835 39.1597 68.5478 37.6573 67.544C36.1549 66.5401 34.984 65.1134 34.2925 63.4441C33.601 61.7747 33.4201 59.9379 33.7726 58.1657C34.1251 56.3936 34.9951 54.7658 36.2728 53.4881C37.5504 52.2105 39.1782 51.3404 40.9503 50.9878C42.7225 50.6353 44.5593 50.8162 46.2287 51.5077C47.898 52.1991 49.3248 53.3701 50.3286 54.8724C51.3325 56.3748 51.8683 58.141 51.8683 59.9479C51.8655 62.3699 50.9021 64.692 49.1895 66.4046C47.4769 68.1173 45.1548 69.0807 42.7328 69.0835Z" fill="url(#paint2_linear)"/>
<path d="M51.1281 23.6835L65.3131 21.0759C65.3183 21.075 65.3236 21.0739 65.3285 21.0732C66.6008 20.858 67.7588 20.2076 68.6046 19.233C69.4503 18.2585 69.9312 17.0204 69.965 15.7305L47.6152 20.6007L51.1281 23.6835Z" fill="url(#paint3_linear)"/>
<path d="M12.0476 13.7766C11.8852 13.7766 11.7264 13.8248 11.5914 13.915C11.4563 14.0053 11.3511 14.1336 11.289 14.2836C11.2269 14.4337 11.2107 14.5988 11.2424 14.7581C11.2741 14.9174 11.3524 15.0637 11.4673 15.1784C11.5822 15.2932 11.7286 15.3714 11.8879 15.403C12.0472 15.4346 12.2123 15.4182 12.3623 15.3559C12.5123 15.2937 12.6405 15.1883 12.7306 15.0532C12.8207 14.9181 12.8687 14.7593 12.8686 14.5969C12.8682 14.3793 12.7815 14.1708 12.6276 14.017C12.4737 13.8633 12.2651 13.7768 12.0476 13.7766Z" fill="url(#paint4_linear)"/>
<path d="M52.7773 25.2629C53.5378 26.1735 54.094 27.2367 54.4083 28.3807L68.3413 34.2696C68.3493 34.273 68.3567 34.2765 68.365 34.2802C69.5381 34.8108 70.8588 34.9184 72.1023 34.5846C73.3458 34.2509 74.4352 33.4965 75.1849 32.4498L55.1493 24.8269L52.7773 25.2629Z" fill="url(#paint5_linear)"/>
<path d="M50.6747 25.7475L45.0178 20.7843C44.2608 20.1196 43.3329 19.6802 42.339 19.5158L42.3219 19.5127L26.2003 16.5331C24.8725 16.289 23.5049 16.3772 22.2195 16.7898L21.7836 16.9298C21.6918 16.9589 21.596 16.9735 21.4997 16.9731H17.383L14.043 33.6826L16.8586 34.0291C16.9976 34.0462 17.1309 34.0946 17.2485 34.1707C17.3661 34.2468 17.4649 34.3486 17.5375 34.4684C17.5375 34.4684 17.5464 34.4831 17.5469 34.4838C18.4199 35.9446 19.6514 37.1582 21.1249 38.0096C22.5983 38.861 24.2647 39.3221 25.9663 39.349C26.0939 39.3514 26.2197 39.3801 26.3357 39.4335C26.4517 39.4868 26.5554 39.5636 26.6403 39.659C26.7252 39.7543 26.7895 39.8662 26.8291 39.9876C26.8686 40.109 26.8827 40.2373 26.8703 40.3644L25.3844 55.6185C27.0087 55.2642 28.4812 54.4102 29.5953 53.1764C30.7094 51.9425 31.4091 50.3907 31.5962 48.7388L32.3926 41.6742C32.647 39.4139 32.9965 37.1353 33.4307 34.9018C33.4489 34.8078 33.4817 34.7171 33.5279 34.6332C34.3537 33.1283 35.617 31.9096 37.1507 31.1384C38.6843 30.3672 40.416 30.08 42.1165 30.3146C43.817 30.5492 45.4062 31.2947 46.6737 32.4523C47.9412 33.6099 48.8273 35.1252 49.2148 36.7975L51.3475 46.0046C51.6983 47.5277 52.401 48.9474 53.3994 50.15C54.3978 51.3526 55.664 52.3045 57.0966 52.9296L52.7411 29.3839C52.4783 27.9748 51.7508 26.6945 50.6747 25.7475Z" fill="url(#paint6_linear)"/>
<path d="M54.8438 30.575L55.5895 34.6067L56.5705 35.7309L63.1119 43.3378C63.9691 44.3423 65.1052 45.0698 66.3762 45.4283C67.6472 45.7867 68.9959 45.7599 70.2517 45.3514L60.258 32.8627L54.8438 30.575Z" fill="url(#paint7_linear)"/>
<defs>
<linearGradient id="paint0_linear" x1="35.4492" y1="67.2319" x2="50.0173" y2="67.2319" gradientUnits="userSpaceOnUse">
<stop stop-color="#FD8B8B"/>
<stop offset="1" stop-color="#FF9838"/>
</linearGradient>
<linearGradient id="paint1_linear" x1="3.55859" y1="38.9512" x2="16.83" y2="38.9512" gradientUnits="userSpaceOnUse">
<stop stop-color="#FD8B8B"/>
<stop offset="1" stop-color="#FF9838"/>
</linearGradient>
<linearGradient id="paint2_linear" x1="31.7285" y1="70.9536" x2="53.7371" y2="70.9536" gradientUnits="userSpaceOnUse">
<stop stop-color="#FD8B8B"/>
<stop offset="1" stop-color="#FF9838"/>
</linearGradient>
<linearGradient id="paint3_linear" x1="47.6152" y1="23.6836" x2="69.965" y2="23.6836" gradientUnits="userSpaceOnUse">
<stop stop-color="#FD8B8B"/>
<stop offset="1" stop-color="#FF9838"/>
</linearGradient>
<linearGradient id="paint4_linear" x1="11.2266" y1="15.4186" x2="12.8686" y2="15.4186" gradientUnits="userSpaceOnUse">
<stop stop-color="#FD8B8B"/>
<stop offset="1" stop-color="#FF9838"/>
</linearGradient>
<linearGradient id="paint5_linear" x1="52.7773" y1="34.7749" x2="75.185" y2="34.7749" gradientUnits="userSpaceOnUse">
<stop stop-color="#FD8B8B"/>
<stop offset="1" stop-color="#FF9838"/>
</linearGradient>
<linearGradient id="paint6_linear" x1="14.043" y1="55.6185" x2="57.0966" y2="55.6185" gradientUnits="userSpaceOnUse">
<stop stop-color="#FD8B8B"/>
<stop offset="1" stop-color="#FF9838"/>
</linearGradient>
<linearGradient id="paint7_linear" x1="54.8438" y1="45.6788" x2="70.2517" y2="45.6788" gradientUnits="userSpaceOnUse">
<stop stop-color="#FD8B8B"/>
<stop offset="1" stop-color="#FF9838"/>
</linearGradient>
</defs>
</svg>
