<?xml version="1.0" encoding="utf-8"?>
<!-- Generator: Adobe Illustrator 23.0.1, SVG Export Plug-In . SVG Version: 6.00 Build 0)  -->
<svg version="1.1" id="Слой_1" xmlns="http://www.w3.org/2000/svg" xmlns:xlink="http://www.w3.org/1999/xlink" x="0px" y="0px"
	 viewBox="0 0 600 600" style="enable-background:new 0 0 600 600;" xml:space="preserve">
<style type="text/css">
	.st0{fill:#73BE45;}
</style>
<path class="st0" d="M568.8,51.5c-24.2,11.2-47.6,23.9-70.5,37.5c-22.9,13.7-45.1,28.7-66.6,44.9c-5.4,4.1-10.7,8.3-16,12.4
	c-5.3,4.3-10.5,8.7-15.7,13c-5.3,4.2-10.4,9.1-15.5,13.8c-5.1,4.7-10.4,9.4-15.1,14.3l-14.5,14.6L341.1,217c-4.7,5-9,10.1-13.4,15.1
	c-4.4,5.1-8.8,10.2-13,15.3c-17,20.6-33.1,41.8-48.4,63.3c-14.2,20.3-28.1,40.8-41.1,61.8c-1.2-1.3-2.4-2.7-3.6-4
	c-21.8-23.8-45.1-46.7-71.2-67.5l-4.9-3.9c-1.7-1.3-3.5-2.6-5.3-3.9c-3.6-2.6-7.1-5.3-10.6-7.6l-10.8-7c-3.6-2.2-7.2-4.3-10.9-6.4
	c-14.5-8.2-29.3-15.4-44.3-21.6c-15-6.3-30.2-11.6-45.6-16.3c-0.2,0-0.3-0.1-0.5-0.1C4,230.2-5.9,246.9,4,256.9
	c11.1,11.2,22,22.3,32.5,33.5c10.5,10.9,20.4,22.1,29.9,33.1l6.9,8.3l6.5,8.3c2.2,2.7,4,5.5,6,8.3l3,4.1l3.1,4.5
	c16.4,23.6,31.9,48.7,47.2,73.8c7.6,12.6,15.2,25.3,22.7,38l11.1,19.1l5.4,9.5c1.8,3.1,3.7,6.4,5.1,9.1l8.6,15.9
	c16.1,29.7,58,31.8,76.9,3.8l14.2-21l42.1-62l42.1-62.3c13.9-20.8,28-41.2,41.9-61.8c7.1-10,13.9-20.4,21.1-30.3l10.5-15l10.6-14.7
	c3.5-5,7.1-9.7,10.7-14.4l5.4-7.1c1.7-2.4,3.6-4.8,5.5-7.2c3.8-4.8,7.6-9.5,11.4-14.4c3.9-4.8,7.9-9.5,11.7-14.4
	c15.7-19.2,31.8-38.5,48.2-58c16.6-19.7,33.3-39.5,50.1-59.8c14.3-17.4-4.7-42.2-25.2-32.9C569.2,51.3,569,51.4,568.8,51.5z"/>
</svg>
