<?xml version="1.0" encoding="utf-8"?>
<!-- Generator: Adobe Illustrator 23.0.1, SVG Export Plug-In . SVG Version: 6.00 Build 0)  -->
<svg version="1.1" xmlns="http://www.w3.org/2000/svg" xmlns:xlink="http://www.w3.org/1999/xlink" x="0px" y="0px"
	 viewBox="0 0 600 600" style="enable-background:new 0 0 600 600;" xml:space="preserve">
<style type="text/css">
	.st0{fill:#FF3E3E;}
</style>
<g id="Слой_1">
</g>
<g id="Слой_2">
	<g>
		<path class="st0" d="M19.6,124c-5.6-15.6,11.4-29.7,25.7-21.4c2.6,1.5,5.1,3,7.7,4.6c14.7,8.7,28.7,17.8,42.4,27.1
			c27.4,18.7,53.4,38.3,78.4,58.6c25,20.2,48.9,41.2,72.2,62.2c11.6,10.7,23,21,34.2,31.7c11.3,10.3,22.2,21,33.1,30.8l8,7.6l7.9,7
			l7.7,7.2c2.7,2.4,5.9,5.1,8.8,7.7c11.8,10.5,23.6,21.1,35.2,32.1c23.3,21.9,46.1,44.6,68,68.5c22,23.9,43,49.1,63,75.7
			c10,13.4,19.7,27.1,28.9,41.4c1.7,2.6,3.3,5.1,5,7.8c8.8,14-4.6,31.5-20.4,26.5c-2.9-0.9-5.9-1.9-8.8-2.8
			c-16.3-5.2-32-11.2-47.5-17.5c-30.9-12.7-60.7-27.1-89.3-42.9c-28.8-15.7-56.4-32.9-83.4-51.3c-13.5-9.2-26.7-18.8-39.8-28.7
			c-3.3-2.5-6.4-4.9-9.8-7.7l-10.5-8.7l-10.3-8.8l-9.6-8.8c-6.2-6-12.8-11.9-18.6-18c-5.9-6.1-11.8-12.2-17.6-18.4
			c-11.1-12.5-22.3-25-32.6-38c-20.9-25.8-40-52.7-57.6-80.7c-17.6-28-33.6-57.1-47.8-87.5c-7-15.2-13.7-30.8-19.6-46.9
			C21.7,129.6,20.6,126.8,19.6,124z"/>
		<path class="st0" d="M569.9,3.3c13-9.3,31.2,2.8,25.8,17.2c-1.3,3.5-2.7,7-4.1,10.5C584.7,48.6,577,65.8,569,82.7
			c-16.3,33.8-34.3,66.6-54.2,98.3c-19.8,31.8-41.2,62.6-64.5,92.5c-23.2,29.9-48.1,58.9-76.2,87c-7.1,7-13.9,13.9-21.8,20.9
			l-11.6,10.3l-5.8,5.1l-5.5,4.6c-14.8,12.1-29.8,24-45.1,35.4c-30.5,23-61.9,44.8-94.5,65.4c-32.5,20.7-66.1,40-101,58
			c-17.5,9-35.3,17.6-53.6,25.6c-3.7,1.7-7.5,3.3-11.3,4.9c-14.9,6.4-29.8-9.1-21.1-21.9c2.2-3.3,4.4-6.5,6.7-9.7
			c10.8-15.8,22.2-31,33.8-45.9c23.3-29.8,47.7-58.4,73.1-85.9c25.3-27.6,51.6-54.1,78.3-79.9c13.3-12.9,26.9-25.6,40.4-38.1
			l5.1-4.7l4.5-4.4l9-8.7c6.1-5.5,12.3-12,18.4-18.1l76.1-76.6c26-25.8,52.5-51.7,80.1-76.9c27.5-25.3,56.1-50.2,86-74.3
			c15-12,30.3-23.9,46.2-35.4C563.5,7.8,566.7,5.5,569.9,3.3z"/>
	</g>
</g>
</svg>
