<svg width="141" height="282" viewBox="0 0 141 282" fill="none" xmlns="http://www.w3.org/2000/svg">
<g clip-path="url(#clip0)">
<path d="M18.913 89.3305C18.913 89.3305 17.3814 86.6743 16.0431 85.7098C14.7196 84.7452 12.5932 84.9381 10.9426 83.1278C9.29197 81.3174 6.71941 83.0981 6.6748 79.6703C6.63019 76.2425 8.14696 77.1625 6.39227 75.5302C4.65245 73.8979 7.95364 71.1527 7.95364 71.1527C7.95364 71.1527 -0.819818 67.1314 0.0426579 65.3062C0.920004 63.481 7.59676 67.7101 16.2067 68.912C16.2067 68.912 19.6417 67.1165 20.5339 68.274C21.4261 69.4166 20.5934 79.6703 20.5934 79.6703L24.0879 86.0214L18.913 89.3305Z" fill="#FBC0A4"/>
<path d="M24.0879 83.5137L22.1845 80.4717C22.1845 80.4717 16.2513 83.7808 14.6155 88.366L17.5896 90.3841L24.0879 83.5137Z" fill="#F8E8D8"/>
<path d="M16.2227 68.9121C13.0553 71.6722 10.8396 75.2484 11.6724 76.109C12.5051 76.9697 16.2227 74.269 16.2227 74.269L15.8063 77.3555C15.8063 77.3555 12.0144 79.4033 10.7504 76.4652C9.47156 73.527 16.2227 68.9121 16.2227 68.9121Z" fill="#F69D7D"/>
<path d="M57.0851 70.0991C55.9252 72.6217 44.9807 99.4358 44.9807 99.4358C44.9807 99.4358 41.858 95.9932 42.1108 99.4358L24.5787 81.4806C24.5787 81.4806 16.5041 84.211 15.8498 91.3337C15.8498 91.3337 37.6348 121.219 45.5309 122.036C53.4419 122.852 60.6094 100.653 60.6094 100.653L57.0851 70.0991Z" fill="#3E3533"/>
<path d="M57.0851 70.0991C55.9252 72.6217 44.9807 99.4358 44.9807 99.4358C44.9807 99.4358 41.858 95.9932 42.1108 99.4358L24.5787 81.4806C24.5787 81.4806 16.5041 84.211 15.8498 91.3337C15.8498 91.3337 37.6348 121.219 45.5309 122.036C53.4419 122.852 60.6094 100.653 60.6094 100.653L57.0851 70.0991Z" fill="url(#paint0_linear)"/>
<path d="M102.856 37.0825C102.856 37.0825 100.715 36.9638 99.7926 35.836C98.8707 34.7083 101.889 25.4933 101.889 25.4933C101.889 25.4933 99.0194 23.03 98.9896 19.5577C98.945 16.1002 101.25 14.3047 104.819 14.5273C108.403 14.7498 113.562 19.4983 113.562 19.4983L110.945 20.8487C110.945 20.8487 110.098 28.7133 108.982 30.7314C107.852 32.7495 102.856 37.0825 102.856 37.0825Z" fill="#3E3533"/>
<path d="M109.74 21.7541C108.684 26.6658 105.22 38.7744 105.22 38.7744L102.127 35.2575L103.673 20.1069L109.74 21.7541Z" fill="#3E3533"/>
<path d="M96.8038 267.844L95.4209 260.483L87.0192 261.7L87.4653 268.615C87.4653 268.615 89.0415 271.717 93.458 271.791C97.8745 271.85 96.8038 267.844 96.8038 267.844Z" fill="#302624"/>
<path d="M59.287 263.154L59.5547 269.149L57.9487 273.037L51.0043 270.841L49.4875 266.404L48.9819 259.504L59.287 263.154Z" fill="#302624"/>
<path d="M33.4566 273.319C35.6128 272.25 42.4531 270.188 47.2265 266.404C47.7469 265.988 48.431 265.825 49.1001 265.959L49.4719 266.033C49.4719 266.033 50.0964 269.238 53.6207 270.381C55.9999 271.138 59.5539 269.149 59.5539 269.149L60.1934 277.637H32.8023C32.2372 277.355 32.0737 276.761 32.0737 276.761C32.0737 276.761 30.7056 274.699 33.4566 273.319Z" fill="#302624"/>
<path d="M57.9336 128.268C57.9336 128.268 53.7105 182.089 53.2941 186.986C52.8778 191.883 47.7029 264.742 47.7029 264.742C54.1863 267.265 61.1754 265.321 61.1754 265.321L72.5065 191.868L79.9714 152.693L82.4845 151.996C82.4845 151.996 83.3321 199.688 83.3618 199.436C83.3767 199.198 84.4325 263.466 84.4325 263.466C90.7077 266.627 99.4366 263.214 99.4366 263.214C99.4366 263.214 102.158 200.86 102.916 197.21C103.675 193.56 103.883 123.624 103.883 123.624L57.9336 128.268Z" fill="#3E3533"/>
<path d="M56.6548 142.869C65.9041 146.075 86.8266 150.838 103.868 143.864C103.898 139.501 103.823 133.699 103.838 130.642L57.428 134.663C57.2198 137.349 56.9522 139.145 56.6548 142.869Z" fill="#302624"/>
<path d="M59.4661 123.401C59.823 122.08 60.1204 121.249 60.1204 121.249L101.103 122.926C101.103 122.926 101.252 123.757 101.475 125.181C101.266 125.463 101.103 125.671 101.103 125.671C82.8124 133.135 69.563 133.135 59.4661 123.401Z" fill="#330E00"/>
<path d="M110.113 88.6182L102.931 114.957L106.589 139.56C106.589 139.56 74.1421 151.862 53.7847 138.611L57.9632 83.6323L110.113 88.6182Z" fill="#3E3533"/>
<path d="M63.0476 65.4992C58.7055 67.3244 52.5938 70.9897 57.962 83.6176L59.8356 122.511C59.8356 122.511 57.7538 128.506 59.0624 129.782C69.1593 139.561 82.4236 139.561 100.729 132.097C100.729 132.097 101.695 130.865 101.814 130.375C102.484 127.734 100.253 120.359 100.253 120.359L110.484 88.6184C110.484 88.6184 120.566 74.922 113.889 69.9509C103.376 62.1308 80.2525 58.2727 63.0476 65.4992Z" fill="#3E3533"/>
<path d="M53.784 138.611L56.2079 106.707C60.9218 112.242 64.684 118.578 67.2268 125.389C78.0375 119.795 87.495 111.618 94.5881 101.736C91.9263 108.858 89.2497 115.966 86.5879 123.089C93.5026 114.987 104.417 93.1143 111.332 85.0122L102.93 114.972L106.588 139.575C106.588 139.56 74.1415 151.862 53.784 138.611Z" fill="url(#paint1_linear)"/>
<path d="M75.0031 60.7951C75.0031 60.7951 70.9584 60.6171 70.2298 61.0771C69.5011 61.5222 67.6572 66.8198 67.2855 67.6507C66.9137 68.4817 72.1927 73.4083 72.1927 73.4083C72.1927 73.4083 67.8357 80.5458 68.0141 81.1097C68.1926 81.6884 75.9251 112.865 75.9251 112.865C75.9251 112.865 94.6468 85.0124 95.0334 83.6175C95.42 82.2375 93.2341 75.0702 93.2341 75.0702C93.2341 75.0702 98.7807 70.9895 99.1079 70.0992C99.4499 69.2088 100.149 63.5255 99.1079 62.7984C98.4685 62.3532 94.736 61.5222 94.736 61.5222L75.0031 60.7951Z" fill="#302624"/>
<path d="M94.752 62.8725C94.752 62.8725 89.012 77.6521 83.9561 90.6659C79.9858 100.905 75.5842 90.191 75.5842 90.191L74.3499 60.8544C74.6176 60.8395 75.1975 60.7653 75.4652 60.7505L94.752 62.8725Z" fill="#F8E8D8"/>
<path d="M75.7934 70.2179C74.6484 69.9508 74.5889 66.3598 74.5889 66.3598L74.3658 60.9287C74.3807 60.8991 74.3956 60.8694 74.3956 60.8397C74.6781 60.8249 75.2134 60.7507 75.4811 60.7358L93.2362 62.6946C93.1767 62.9023 93.8905 64.3862 93.7567 64.8017C92.7306 67.8289 89.4146 72.1767 88.7454 72.2806C87.9573 72.3993 85.9795 70.1289 85.7119 69.387C85.3104 69.7579 84.6115 70.856 84.1951 71.227C83.972 76.5097 84.1654 83.4543 84.2546 89.8796C81.1764 97.8036 78.3065 105.193 77.0722 108.384C76.8492 108.681 76.6261 108.963 76.4031 109.23L75.7339 93.53C77.7414 85.9769 79.734 78.4091 81.7415 70.856C81.1021 69.9805 80.2842 69.3424 79.6448 68.4669C78.589 69.5057 77.2655 70.2179 75.7934 70.2179Z" fill="url(#paint2_linear)"/>
<path d="M79.897 63.7333C81.6219 64.7275 85.1759 65.2469 87.1091 65.2914C89.979 65.3656 88.834 63.6888 89.7857 63.4366L99.1094 41.9497L82.2465 49.5324L82.2019 50.2447L79.897 63.7333Z" fill="#FBC0A4"/>
<path d="M84.5365 57.0558C86.3804 56.8332 88.031 56.3138 89.7114 55.5422C91.3025 54.8151 92.849 53.9841 94.3063 53.0344L99.1094 41.9497L82.2465 49.5324L82.2019 50.2447L80.9825 57.3674C82.1721 57.2635 83.3469 57.1893 84.5365 57.0558Z" fill="#F69D7D"/>
<path d="M75.5842 90.1914L81.5918 69.9659L78.9598 67.0277L83.4209 64.2974L86.8262 67.4432L83.6439 70.2478C83.6439 70.2478 84.4023 79.626 83.9413 90.6662C79.971 100.905 76.417 110.046 76.417 110.046L75.5842 90.1914Z" fill="#F84511"/>
<path d="M92.1501 57.9907C92.1501 57.9907 85.3692 64.4754 83.6294 64.1934C81.8896 63.9115 80.9825 57.3823 80.9825 57.3823C80.9825 57.3823 74.7816 59.163 74.0381 60.0237C73.2797 60.8843 75.1385 69.3425 75.9415 69.758C77.6515 70.6187 82.8264 64.8612 83.7632 65.6031C84.7001 66.3302 87.3618 71.2568 88.2392 71.1529C89.1165 71.049 96.1056 64.1786 95.7041 61.656C95.3174 59.1185 92.1501 57.9907 92.1501 57.9907Z" fill="#F8E8D8"/>
<path d="M105.191 30.5087C105.191 30.5087 111.02 29.188 110.217 36.1178C109.414 43.0625 104.373 43.196 102.886 43.4928C102.886 43.4928 100.12 55.8537 84.8334 54.6665C69.5468 53.4794 72.0599 41.6824 72.164 33.8474C72.2829 26.0125 71.4056 12.42 81.3984 11.4257C91.4953 10.4315 106.068 11.0844 105.191 30.5087Z" fill="#FBC0A4"/>
<path d="M88.8329 41.2524C86.0819 42.9144 82.4238 43.7306 79.2267 43.3893C80.1784 45.897 81.1747 47.6184 84.8774 47.0248C87.8961 46.55 89.4872 43.8789 88.8329 41.2524Z" fill="#CB4453"/>
<path d="M88.9672 42.4243C89.1605 44.6056 87.4951 46.8315 84.9225 47.2321C83.8221 47.4102 82.915 47.1728 82.231 46.9799C81.9633 46.1341 81.6956 45.2882 81.428 44.4276C83.7329 43.7895 86.0526 43.1514 88.3575 42.5133C88.5508 42.4688 88.7739 42.4243 88.9672 42.4243Z" fill="#F8E8D8"/>
<path d="M88.4766 42.8397C87.5992 43.8784 86.3501 44.561 85.0415 44.9469C83.9709 45.2585 82.8556 45.392 81.7403 45.4365C81.6362 45.0952 81.5321 44.7688 81.428 44.4275C83.4653 43.8636 85.5025 43.2997 87.5397 42.7358L88.4766 42.8397Z" fill="#CFD4D8"/>
<path d="M80.3871 43.4632C80.5953 44.027 80.744 44.4722 80.8481 44.6058C80.9968 44.8135 85.3241 45.1993 88.9673 42.7064C88.997 42.2315 88.997 41.8457 88.8335 41.2373C86.6921 42.5283 82.9151 43.4483 80.3871 43.4632Z" fill="#F8E8D8"/>
<path d="M83.0337 41.46C83.0485 41.3116 82.5429 41.178 82.2753 40.5251C82.1414 40.1986 82.082 39.8277 82.186 39.3677C82.2753 38.9076 82.4983 38.4031 82.766 37.8244C83.8366 35.5095 84.4909 33.5359 84.2233 33.4172C83.9556 33.2985 82.885 35.0792 81.8143 37.3941C81.5466 37.9728 81.2938 38.596 81.2344 39.2341C81.2046 39.5606 81.2195 39.8573 81.2938 40.1541C81.3682 40.4509 81.502 40.6883 81.6507 40.8961C81.9481 41.2967 82.3347 41.5045 82.6024 41.549C82.8849 41.5935 83.0337 41.5193 83.0337 41.46Z" fill="#F69D7D"/>
<path d="M87.4798 29.0696C87.569 29.1883 88.0002 29.0251 88.6842 28.847C89.3683 28.6689 90.2902 28.4908 91.346 28.5947C92.3572 28.6986 93.2643 29.0399 93.8888 29.3515C94.2011 29.5147 94.4688 29.6335 94.6472 29.7373C94.8405 29.8264 94.9744 29.8709 95.019 29.8115C95.0636 29.767 95.0339 29.6335 94.9298 29.4405C94.8108 29.2476 94.6026 28.9954 94.3052 28.7431C93.6955 28.2237 92.6992 27.6895 91.4352 27.5708C90.2159 27.4521 89.0857 27.7934 88.4166 28.1792C87.7028 28.5502 87.4054 28.9509 87.4798 29.0696Z" fill="#3E3533"/>
<path d="M81.577 28.8022C81.681 28.7132 81.458 28.2532 80.8483 27.7338C80.2535 27.2145 79.2126 26.6803 77.9932 26.5616C76.7292 26.4428 75.6288 26.7841 74.9448 27.17C74.6028 27.3629 74.35 27.5706 74.1864 27.7338C74.0377 27.8971 73.9782 28.0158 74.0229 28.0751C74.0675 28.1345 74.2013 28.1196 74.4095 28.0751C74.6028 28.0158 74.8853 27.9416 75.2273 27.8525C75.8965 27.6745 76.8631 27.4964 77.8743 27.6003C78.93 27.7042 79.8074 28.0455 80.4468 28.3571C81.0862 28.6539 81.4729 28.9061 81.577 28.8022Z" fill="#3E3533"/>
<path d="M90.3665 41.9647C90.2624 44.2202 92.0171 46.1344 94.2774 46.2383C96.5377 46.3422 98.456 44.5912 98.5601 42.3356C98.6641 40.0801 96.9095 38.1659 94.6492 38.062C92.3889 37.9581 90.4706 39.7091 90.3665 41.9647Z" fill="url(#paint3_radial)"/>
<path d="M71.8372 41.119C71.7331 43.3745 73.4878 45.2887 75.7481 45.3926C78.0084 45.4965 79.9267 43.7455 80.0308 41.4899C80.1348 39.2344 78.3802 37.3202 76.1199 37.2163C73.8447 37.1124 71.9413 38.8634 71.8372 41.119Z" fill="url(#paint4_radial)"/>
<path d="M77.2496 33.4916C77.205 34.6194 78.0675 35.5839 79.2125 35.6284C80.3426 35.673 81.3092 34.8123 81.3538 33.6697C81.3984 32.5419 80.5359 31.5774 79.3909 31.5329C78.2608 31.4884 77.2942 32.3639 77.2496 33.4916Z" fill="#3E3533"/>
<path d="M108.224 33.6104C108.76 35.4504 108.001 37.3795 107.258 39.1453C107.035 39.6647 106.797 40.2286 106.321 40.5402C105.845 40.8667 105.087 40.8073 104.834 40.3028C104.596 39.8131 104.953 39.2492 105.22 38.7744C105.503 38.2995 105.652 37.5872 105.191 37.2905C104.983 37.1569 104.7 37.1569 104.462 37.0382C103.971 36.7711 103.971 36.0737 104.105 35.5395C104.284 34.7827 104.566 34.0704 104.938 33.3878C105.31 32.7201 105.875 32.0523 106.633 32.0671C107.421 32.082 108.001 32.8536 108.224 33.6104Z" fill="url(#paint5_linear)"/>
<path d="M89.3092 269.031C92.6253 265.915 95.5547 268.541 95.5547 268.541L96.8187 267.829C98.6477 270.559 102.142 273.824 102.588 275.426C103.421 278.468 101.934 282 97.0417 282C92.2684 282 87.6586 279.092 87.1381 276.717C86.8259 275.293 87.3315 271.464 87.495 268.615L89.3092 269.031Z" fill="#302624"/>
<path d="M72.4898 191.868L72.7129 190.696C70.2444 199.317 66.7945 210.966 66.17 210.996C65.1885 211.04 55.389 209.482 54.9578 208.191C54.7645 207.612 53.9466 198.842 53.099 189.286C52.0878 202.76 47.6862 264.742 47.6862 264.742C54.1696 267.265 61.1587 265.321 61.1587 265.321L72.4898 191.868Z" fill="url(#paint6_linear)"/>
<path d="M99.4211 263.229C99.4211 263.229 99.4211 263.169 99.4211 263.095C99.4211 263.08 99.4211 263.051 99.4211 263.036C99.4211 262.977 99.4211 262.887 99.4359 262.798C99.4508 262.531 99.4657 262.131 99.4805 261.626C99.4805 261.507 99.4954 261.389 99.4954 261.255C99.5103 261.018 99.5103 260.78 99.5251 260.513C99.5251 260.409 99.54 260.306 99.54 260.202C99.5698 259.608 99.5995 258.94 99.6292 258.198C99.6292 258.08 99.6441 257.961 99.6441 257.827C99.659 257.412 99.6887 256.967 99.7036 256.507C99.7036 256.492 99.7036 256.492 99.7036 256.477C99.7185 255.987 99.7482 255.483 99.7779 254.949C99.7779 254.86 99.7928 254.785 99.7928 254.696C99.8523 253.391 99.9118 251.981 99.9861 250.467C99.9861 250.319 100.001 250.17 100.001 250.022C100.12 247.44 100.254 244.591 100.388 241.608C100.388 241.564 100.388 241.505 100.388 241.46C100.447 240.347 100.492 239.204 100.551 238.047C100.551 238.003 100.551 237.973 100.551 237.928C100.997 228.387 101.518 217.925 101.964 209.987C101.964 209.972 101.964 209.972 101.964 209.957C102.083 207.968 102.187 206.143 102.291 204.526C100.298 205.965 96.908 208.25 95.5399 208.206C93.5324 208.146 86.7664 202.641 86.3649 200.193C86.0527 198.234 83.7478 179.878 82.8258 172.592C83.0637 185.458 83.3165 199.584 83.3314 199.451C83.3314 199.436 83.3314 199.525 83.3314 199.703C83.3314 199.733 83.3314 199.777 83.3314 199.822C83.3463 200.549 83.376 202.315 83.4206 204.823C83.4206 204.971 83.4206 205.119 83.4355 205.268C83.4504 206.173 83.4652 207.182 83.4801 208.25C83.4801 208.606 83.495 208.977 83.495 209.348C83.5247 210.847 83.5545 212.465 83.5842 214.186C83.5842 214.394 83.5842 214.616 83.5991 214.839C83.9114 233.788 84.4021 263.481 84.4021 263.481C85.5768 264.075 86.8408 264.431 88.1196 264.638C88.5509 264.698 88.9672 264.757 89.3985 264.787C89.8297 264.817 90.2461 264.831 90.6625 264.831C91.0788 264.831 91.4952 264.817 91.9116 264.802C92.3279 264.772 92.7294 264.742 93.1161 264.698C93.5027 264.653 93.8893 264.609 94.2611 264.549C94.8113 264.46 95.3466 264.357 95.8373 264.253C96.1645 264.178 96.4767 264.104 96.7741 264.03C98.395 263.629 99.4211 263.229 99.4211 263.229Z" fill="url(#paint7_linear)"/>
<path d="M105.191 30.5086C105.191 30.5086 102.797 32.2745 102.143 36.1623H100.388V29.4402C100.388 29.4402 95.0646 27.9712 97.0721 20.1659C99.0944 12.3457 107.035 20.1065 107.035 20.1065L105.191 30.5086Z" fill="#3E3533"/>
<path d="M115.08 133.61C114.158 131.681 113.162 129.782 112.061 127.942C111.377 128.461 110.723 128.951 110.143 129.381C108.076 130.925 106.663 131.978 106.396 132.126C105.102 132.854 99.8678 132.631 99.5852 136.088C99.5852 136.088 98.0833 137.795 96.8194 139.427C95.5554 141.06 100.225 141.252 100.269 143.241C100.299 145.229 103.675 144.294 104.165 146.327C104.656 148.36 104.745 148.182 106.44 148.242C108.136 148.301 109.831 147.025 110.099 144.161C110.099 144.161 113.608 144.057 114.396 140.956C114.426 140.852 114.441 140.763 114.456 140.659C114.827 138.196 112.433 135.614 115.08 133.61Z" fill="#FBC0A4"/>
<path d="M118.203 132.809L116.166 134.946C116.166 134.946 111.943 132.616 109.742 127.942L112.002 125.107L118.203 132.809Z" fill="#F8E8D8"/>
<path d="M118.753 134.515C114.173 131.755 110.113 125.167 110.113 125.167L122.426 106.455L108.819 89.0339L113.875 69.9658C122.069 76.7324 140.449 101.573 140.999 108.206C141.192 110.58 118.753 134.515 118.753 134.515Z" fill="#3E3533"/>
<path d="M89.9793 18.1776C89.9793 18.1776 95.6746 22.2732 102.797 19.0531C109.92 15.833 109.891 11.0697 109.891 11.0697C109.891 11.0697 103.645 10.8175 99.4219 6.12835C95.1839 1.43923 82.8416 -3.32408 73.5328 3.13088C64.224 9.571 67.1534 19.0234 72.7298 20.626C78.3061 22.2286 81.4586 18.3557 82.8713 19.2163C84.284 20.0622 86.5145 20.9822 89.9793 18.1776Z" fill="#3E3533"/>
<path d="M70.083 6.27697C70.6481 5.57954 71.3321 4.88211 72.1351 4.21436C82.916 11.1887 95.8829 14.7797 108.731 14.3494C108.493 14.7204 108.21 15.0913 107.868 15.492C108.954 16.0262 110.025 16.7236 110.932 17.3914C105.653 18.6675 100.136 18.994 94.7528 18.2669C85.5332 17.0204 76.7449 12.7319 70.083 6.27697Z" fill="url(#paint8_linear)"/>
<path d="M87.0347 34.2335C87.1387 34.3522 87.5105 34.189 88.0756 33.9813C88.3581 33.8774 88.7001 33.7884 89.0868 33.6993C89.4734 33.6251 89.8897 33.5658 90.3359 33.5361C90.782 33.5213 91.2132 33.5509 91.5998 33.5954C91.9865 33.6548 92.3285 33.729 92.6259 33.8032C93.191 33.9516 93.6073 34.1 93.6817 33.9813C93.7412 33.8625 93.533 33.5213 92.9233 33.1354C92.6259 32.9425 92.2393 32.7793 91.7931 32.6606C91.347 32.5419 90.8266 32.4825 90.2912 32.4974C89.7559 32.527 89.2503 32.6309 88.8191 32.7793C88.3879 32.9425 88.0161 33.1354 87.7336 33.3432C87.1685 33.7438 86.9454 34.1445 87.0347 34.2335Z" fill="#3E3533"/>
</g>
<defs>
<linearGradient id="paint0_linear" x1="52.9348" y1="97.6324" x2="47.4277" y2="93.8307" gradientUnits="userSpaceOnUse">
<stop stop-color="#302624" stop-opacity="0.5"/>
<stop offset="0.9947" stop-color="#302624" stop-opacity="0"/>
</linearGradient>
<linearGradient id="paint1_linear" x1="83.8959" y1="94.3707" x2="80.5913" y2="132.69" gradientUnits="userSpaceOnUse">
<stop stop-color="#302624" stop-opacity="0.5"/>
<stop offset="0.9947" stop-color="#302624" stop-opacity="0"/>
</linearGradient>
<linearGradient id="paint2_linear" x1="81.6706" y1="69.3798" x2="66.9128" y2="109.775" gradientUnits="userSpaceOnUse">
<stop stop-color="#CFD4D8"/>
<stop offset="1" stop-color="#CFD4D8" stop-opacity="0"/>
</linearGradient>
<radialGradient id="paint3_radial" cx="0" cy="0" r="1" gradientUnits="userSpaceOnUse" gradientTransform="translate(94.4663 42.1467) rotate(2.60228) scale(4.09867 4.09008)">
<stop stop-color="#F69D7D" stop-opacity="0.7"/>
<stop offset="1" stop-color="#F69D7D" stop-opacity="0"/>
</radialGradient>
<radialGradient id="paint4_radial" cx="0" cy="0" r="1" gradientUnits="userSpaceOnUse" gradientTransform="translate(75.9267 41.305) rotate(2.60228) scale(4.09867 4.09008)">
<stop stop-color="#F69D7D" stop-opacity="0.7"/>
<stop offset="1" stop-color="#F69D7D" stop-opacity="0"/>
</radialGradient>
<linearGradient id="paint5_linear" x1="104.555" y1="37.2816" x2="107.615" y2="35.5641" gradientUnits="userSpaceOnUse">
<stop stop-color="#F69D7D"/>
<stop offset="1" stop-color="#F69D7D" stop-opacity="0.6"/>
</linearGradient>
<linearGradient id="paint6_linear" x1="60.9982" y1="187.865" x2="59.351" y2="271.506" gradientUnits="userSpaceOnUse">
<stop stop-color="#302624" stop-opacity="0.5"/>
<stop offset="0.9947" stop-color="#302624" stop-opacity="0"/>
</linearGradient>
<linearGradient id="paint7_linear" x1="92.5728" y1="188.486" x2="90.9255" y2="272.128" gradientUnits="userSpaceOnUse">
<stop stop-color="#302624" stop-opacity="0.5"/>
<stop offset="0.9947" stop-color="#302624" stop-opacity="0"/>
</linearGradient>
<linearGradient id="paint8_linear" x1="88.5993" y1="21.183" x2="91.1393" y2="8.66248" gradientUnits="userSpaceOnUse">
<stop stop-color="#F8E8D8" stop-opacity="0.2"/>
<stop offset="1" stop-color="#F8E8D8" stop-opacity="0"/>
</linearGradient>
<clipPath id="clip0">
<rect width="141" height="282" fill="white" transform="matrix(-1 0 0 1 141 0)"/>
</clipPath>
</defs>
</svg>
