<svg width="538" height="742" viewBox="0 0 538 742" fill="none" xmlns="http://www.w3.org/2000/svg">
<g opacity="0.2">
<path opacity="0.2" d="M76.0785 712.287C63.9776 712.287 54.1289 702.459 54.1289 690.307V79.0844C54.1289 66.9323 63.9394 57.104 76.0785 57.104H499.305C511.406 57.104 521.255 66.9323 521.255 79.0844V690.307C521.255 702.459 511.444 712.287 499.305 712.287H76.0785Z" fill="black"/>
<path opacity="0.2" d="M514.269 49.0278H47.1426V701.811H514.269V49.0278Z" fill="black"/>
<path opacity="0.2" d="M140.099 165.33H94.0234V119.35H140.099V165.33ZM102.383 156.987H131.739V127.693H102.383V156.987Z" fill="black"/>
<path opacity="0.2" d="M470.295 127.958H154.297V133.52H470.295V127.958Z" fill="black"/>
<path opacity="0.2" d="M470.295 149.938H154.297V155.5H470.295V149.938Z" fill="black"/>
<path opacity="0.2" d="M140.861 122.168C129.257 126.473 120.095 137.787 112.995 148.339C107.727 142.32 101.238 137.977 93.2975 135.349C88.6404 133.825 86.7699 140.949 91.2743 142.625C99.1762 145.52 105.246 150.548 109.674 157.672C111.392 160.453 115.171 160.263 116.927 157.672C124.829 146.053 136.319 137.939 144.488 126.854C146.091 124.682 143.381 121.254 140.861 122.168Z" fill="black"/>
<path opacity="0.2" d="M140.099 234.281H94.0234V188.301H140.099V234.281ZM102.383 225.938H131.739V196.643H102.383V225.938Z" fill="black"/>
<path opacity="0.2" d="M470.295 196.909H154.297V202.471H470.295V196.909Z" fill="black"/>
<path opacity="0.2" d="M470.295 218.89H154.297V224.451H470.295V218.89Z" fill="black"/>
<path opacity="0.2" d="M140.861 191.119C129.257 195.424 120.095 206.738 112.995 217.29C107.727 211.271 101.238 206.929 93.2975 204.3C88.6404 202.776 86.7699 209.9 91.2743 211.576C99.1762 214.471 105.246 219.5 109.674 226.623C111.392 229.404 115.171 229.214 116.927 226.623C124.829 215.005 136.319 206.89 144.488 195.805C146.091 193.634 143.381 190.205 140.861 191.119Z" fill="black"/>
<path opacity="0.2" d="M140.099 303.268H94.0234V257.25H140.099V303.268ZM102.383 294.925H131.739V265.631H102.383V294.925Z" fill="black"/>
<path opacity="0.2" d="M470.295 265.897H154.297V271.459H470.295V265.897Z" fill="black"/>
<path opacity="0.2" d="M470.295 287.841H154.297V293.403H470.295V287.841Z" fill="black"/>
<path opacity="0.2" d="M140.861 260.108C129.257 264.413 120.095 275.727 112.995 286.279C107.727 280.26 101.238 275.917 93.2975 273.289C88.6404 271.765 86.7699 278.889 91.2743 280.565C99.1762 283.46 105.246 288.488 109.674 295.612C111.392 298.393 115.171 298.202 116.927 295.612C124.829 283.993 136.319 275.879 144.488 264.794C146.091 262.584 143.381 259.156 140.861 260.108Z" fill="black"/>
<path opacity="0.2" d="M140.099 372.22H94.0234V326.24H140.099V372.22ZM102.383 363.877H131.739V334.582H102.383V363.877Z" fill="black"/>
<path opacity="0.2" d="M470.295 334.849H154.297V340.41H470.295V334.849Z" fill="black"/>
<path opacity="0.2" d="M470.295 356.792H154.297V362.353H470.295V356.792Z" fill="black"/>
<path opacity="0.2" d="M140.861 329.058C129.257 333.363 120.095 344.677 112.995 355.229C107.727 349.21 101.238 344.867 93.2975 342.238C88.6404 340.715 86.7699 347.838 91.2743 349.515C99.1762 352.41 105.246 357.438 109.674 364.562C111.392 367.343 115.171 367.152 116.927 364.562C124.829 352.943 136.319 344.829 144.488 333.743C146.091 331.534 143.381 328.106 140.861 329.058Z" fill="black"/>
<path opacity="0.2" d="M140.099 441.17H94.0234V395.19H140.099V441.17ZM102.383 432.828H131.739V403.533H102.383V432.828Z" fill="black"/>
<path opacity="0.2" d="M470.295 403.799H154.297V409.361H470.295V403.799Z" fill="black"/>
<path opacity="0.2" d="M470.295 425.78H154.297V431.342H470.295V425.78Z" fill="black"/>
<path opacity="0.2" d="M140.099 510.12H94.0234V464.14H140.099V510.12ZM102.383 501.777H131.739V472.483H102.383V501.777Z" fill="black"/>
<path opacity="0.2" d="M470.295 472.75H154.297V478.312H470.295V472.75Z" fill="black"/>
<path opacity="0.2" d="M470.295 494.73H154.297V500.292H470.295V494.73Z" fill="black"/>
<path opacity="0.2" d="M140.099 579.071H94.0234V533.091H140.099V579.071ZM102.383 570.728H131.739V541.434H102.383V570.728Z" fill="black"/>
<path opacity="0.2" d="M470.295 541.738H154.297V547.3H470.295V541.738Z" fill="black"/>
<path opacity="0.2" d="M470.295 563.682H154.297V569.243H470.295V563.682Z" fill="black"/>
<path opacity="0.2" d="M140.099 648.059H94.0234V602.08H140.099V648.059ZM102.383 639.717H131.739V610.422H102.383V639.717Z" fill="black"/>
<path opacity="0.2" d="M470.295 610.689H154.297V616.251H470.295V610.689Z" fill="black"/>
<path opacity="0.2" d="M470.295 632.631H154.297V638.193H470.295V632.631Z" fill="black"/>
<path opacity="0.53" d="M443.536 78.1315L442.352 44.2657L442.276 42.3991C441.932 32.9517 433.916 25.2947 424.373 25.2947H413.15H406.126L405.782 14.9331H155.633L156.015 25.2947H148.991H137.768C128.225 25.2947 120.743 32.9898 121.048 42.3991L121.124 44.2657L122.308 78.1315C122.308 78.0934 122.308 78.0553 122.308 78.0172L122.422 81.2933C122.766 90.7407 130.782 98.3977 140.326 98.3977H219.344C223.162 98.3977 226.559 100.721 227.704 103.959C227.78 104.15 227.857 104.34 227.895 104.531C229.613 111.007 232.399 115.921 236.026 119.616C236.102 119.692 236.217 119.807 236.293 119.921C247.516 131.159 266.374 131.159 284.735 131.159C303.402 131.159 322.565 131.159 332.91 119.311C336.116 115.654 338.483 110.854 339.704 104.531C339.781 104.112 339.895 103.693 340.048 103.312C340.048 103.274 340.048 103.274 340.086 103.236C340.162 103.045 340.277 102.893 340.353 102.74C341.651 100.15 344.552 98.3977 347.873 98.3977H426.892C436.435 98.3977 443.917 90.7407 443.612 81.2933L443.497 78.0172C443.536 78.0553 443.536 78.0934 443.536 78.1315ZM433.534 42.3991L434.908 81.2552C435.061 85.5218 431.358 88.9884 426.625 88.9884H347.606C339.475 88.9884 332.719 94.4359 331.192 102.245C327.604 120.759 311.113 121.711 284.468 121.711C257.823 121.711 241.256 120.759 236.369 102.245C234.308 94.4359 227.17 88.9884 219.039 88.9884H140.02C135.287 88.9884 131.355 85.5218 131.202 81.2552L129.828 42.3991C129.79 40.7991 130.248 39.3134 131.126 38.0563C132.576 35.9992 135.172 34.6659 138.112 34.6659H156.358V35.1612L156.511 40.1896C156.74 46.3609 161.588 51.3893 167.352 51.3893H396.583C402.347 51.3893 406.851 46.3609 406.622 40.1896L406.431 35.1231V34.6278H424.678C427.617 34.6278 430.29 35.9992 431.893 38.0182C432.885 39.3134 433.496 40.7991 433.534 42.3991Z" fill="black"/>
<path opacity="0.2" d="M424.032 21.0654H137.427C127.884 21.0654 120.135 28.2272 120.135 36.9888V73.1784C120.135 81.9782 127.884 89.1018 137.427 89.1018H216.446C220.492 89.1018 224.004 91.5017 224.806 94.7778C230.875 119.539 256.222 119.539 280.73 119.539C305.237 119.539 330.546 119.539 336.653 94.7778C337.455 91.4636 340.967 89.1018 345.013 89.1018H424.032C433.575 89.1018 441.324 81.9782 441.324 73.1784V36.9888C441.324 28.2272 433.537 21.0654 424.032 21.0654ZM432.583 73.2165C432.583 77.1783 428.765 80.4163 424.032 80.4163H345.013C336.882 80.4163 329.935 85.4828 328.141 92.7588C323.903 110.016 307.374 110.892 280.73 110.892C254.085 110.892 237.556 110.016 233.318 92.7588C231.524 85.4828 224.577 80.4163 216.446 80.4163H137.427C132.694 80.4163 128.876 77.1783 128.876 73.2165V37.0269C128.876 33.0651 132.694 29.8271 137.427 29.8271H424.032C428.765 29.8271 432.583 33.0651 432.583 37.0269V73.2165Z" fill="black"/>
<path opacity="0.2" d="M424.032 21.0654H137.427C127.884 21.0654 120.135 28.2272 120.135 36.9888V38.7031C120.135 29.9414 127.884 22.7797 137.427 22.7797H424.032C433.575 22.7797 441.324 29.9414 441.324 38.7031V37.0269C441.324 28.2272 433.537 21.0654 424.032 21.0654Z" fill="black"/>
<path opacity="0.2" d="M137.424 82.1318H216.442C224.573 82.1318 231.521 87.1984 233.315 94.4744C237.552 111.731 254.081 112.607 280.726 112.607C307.371 112.607 323.9 111.731 328.137 94.4744C329.932 87.1984 336.879 82.1318 345.01 82.1318H424.029C428.762 82.1318 432.579 78.8938 432.579 74.932V73.2178C432.579 77.1796 428.762 80.4176 424.029 80.4176H345.01C336.879 80.4176 329.932 85.4841 328.137 92.7601C323.9 110.017 307.371 110.893 280.726 110.893C254.081 110.893 237.552 110.017 233.315 92.7601C231.521 85.4841 224.573 80.4176 216.442 80.4176H137.424C132.69 80.4176 128.873 77.1796 128.873 73.2178V74.932C128.873 78.8938 132.69 82.1318 137.424 82.1318Z" fill="black"/>
<path opacity="0.2" d="M424.029 26.7793H137.424C132.69 26.7793 128.873 30.0173 128.873 33.9791V37.0267C128.873 33.0649 132.729 29.8268 137.424 29.8268H424.029C428.762 29.8268 432.579 33.0649 432.579 37.0267V33.9791C432.579 30.0173 428.724 26.7793 424.029 26.7793Z" fill="black"/>
<path opacity="0.2" d="M424.033 86.0928H345.014C340.968 86.0928 337.456 88.4928 336.654 91.7689C330.585 116.568 305.238 116.568 280.731 116.568C256.223 116.568 230.915 116.568 224.807 91.7689C224.005 88.4928 220.493 86.0928 216.447 86.0928H137.428C127.885 86.0928 120.098 78.9311 120.098 70.1694V73.217C120.098 81.9787 127.847 89.1404 137.428 89.1404H216.447C220.493 89.1404 224.005 91.5403 224.807 94.8164C230.915 119.616 256.223 119.616 280.731 119.616C305.238 119.616 330.547 119.616 336.654 94.8164C337.456 91.5403 340.968 89.1404 345.014 89.1404H424.033C433.576 89.1404 441.364 81.9787 441.364 73.217V70.1694C441.325 78.9311 433.576 86.0928 424.033 86.0928Z" fill="black"/>
<path opacity="0.2" d="M412.804 21.0654H148.607V29.789H412.804V21.0654Z" fill="black"/>
<path opacity="0.2" d="M382.99 45.3702H178.457C165.86 45.3702 155.668 35.1991 155.668 22.6279V11.4282H405.817V22.6279C405.779 35.1991 395.587 45.3702 382.99 45.3702Z" fill="black"/>
<path opacity="0.2" d="M395.321 40.6844H166.09C160.326 40.6844 155.631 35.9988 155.631 30.2466V34.9703C155.631 40.7225 160.326 45.4081 166.09 45.4081H395.321C401.085 45.4081 405.78 40.7225 405.78 34.9703V30.2466C405.78 35.9988 401.085 40.6844 395.321 40.6844Z" fill="black"/>
<path opacity="0.2" d="M296.607 22.2854H167.963C166.398 22.2854 165.139 21.0283 165.139 19.4664C165.139 17.9046 166.398 16.6475 167.963 16.6475H296.607C298.172 16.6475 299.432 17.9046 299.432 19.4664C299.432 21.0283 298.172 22.2854 296.607 22.2854Z" fill="black"/>
<path opacity="0.2" d="M393.452 22.2854H314.547C312.982 22.2854 311.723 21.0283 311.723 19.4664C311.723 17.9046 312.982 16.6475 314.547 16.6475H393.49C395.055 16.6475 396.315 17.9046 396.315 19.4664C396.276 21.0283 395.017 22.2854 393.452 22.2854Z" fill="black"/>
</g>
<path d="M507.836 4H30.1262C13.4996 4 0 17.4369 0 34.0331V711.929C0 728.525 13.4996 742 30.1262 742H507.874C524.5 742 538 728.525 538 711.929V34.0331C537.962 17.4369 524.5 4 507.836 4Z" fill="#414042"/>
<path d="M507.836 3.42822H30.1262C13.4996 3.42822 0 16.605 0 32.8801V41.4282C0 25.1532 13.4996 11.939 30.1262 11.939H507.874C524.5 11.939 538 25.1532 538 41.4282V32.8801C537.962 16.605 524.5 3.42822 507.836 3.42822Z" fill="#5E6062"/>
<path d="M502.126 38H35V690.784H502.126V38Z" fill="white"/>
<path opacity="0.53" d="M430.915 66.0757L429.734 32.2756L429.657 30.4127C429.314 20.9836 421.312 13.3415 411.786 13.3415H400.584H393.573L393.23 3H143.532L143.913 13.3415H136.901H125.699C116.173 13.3415 108.704 21.0216 109.009 30.4127L109.085 32.2756L110.266 66.0757C110.266 66.0377 110.266 65.9997 110.266 65.9616L110.381 69.2314C110.724 78.6604 118.726 86.3025 128.252 86.3025H207.128C210.938 86.3025 214.33 88.6218 215.473 91.8535C215.549 92.0436 215.625 92.2337 215.663 92.4238C217.378 98.8872 220.159 103.792 223.779 107.48C223.856 107.556 223.97 107.67 224.046 107.784C235.249 119 254.072 119 272.401 119C291.034 119 310.162 119 320.488 107.176C323.689 103.526 326.052 98.7352 327.271 92.4238C327.347 92.0056 327.461 91.5873 327.614 91.2071C327.614 91.1691 327.614 91.1691 327.652 91.1311C327.728 90.941 327.842 90.7889 327.919 90.6368C329.214 88.0515 332.11 86.3025 335.425 86.3025H414.301C423.827 86.3025 431.296 78.6604 430.991 69.2314L430.877 65.9616C430.915 65.9997 430.915 66.0377 430.915 66.0757ZM420.931 30.4127L422.303 69.1934C422.456 73.4517 418.759 76.9115 414.035 76.9115H335.158C327.042 76.9115 320.298 82.3484 318.774 90.1426C315.192 108.62 298.731 109.571 272.134 109.571C245.537 109.571 229 108.62 224.122 90.1426C222.065 82.3484 214.939 76.9115 206.823 76.9115H127.947C123.222 76.9115 119.297 73.4517 119.145 69.1934L117.773 30.4127C117.735 28.8158 118.192 27.333 119.069 26.0783C120.517 24.0252 123.108 22.6945 126.042 22.6945H144.256V23.1888L144.408 28.2075C144.637 34.3668 149.476 39.3854 155.23 39.3854H384.046C389.8 39.3854 394.296 34.3668 394.068 28.2075L393.877 23.1508V22.6565H412.091C415.025 22.6565 417.693 24.0252 419.293 26.0403C420.284 27.333 420.893 28.8158 420.931 30.4127Z" fill="#C7C8C4"/>
<path d="M411.718 8H125.282C115.745 8 108 15.1273 108 23.8468V59.8623C108 68.6197 115.745 75.7091 125.282 75.7091H204.254C208.298 75.7091 211.808 78.0975 212.609 81.3578C218.675 106 244.007 106 268.5 106C292.993 106 318.287 106 324.391 81.3578C325.192 78.0596 328.702 75.7091 332.746 75.7091H411.718C421.255 75.7091 429 68.6197 429 59.8623V23.8468C429 15.1273 421.217 8 411.718 8ZM420.263 59.9002C420.263 63.8429 416.448 67.0654 411.718 67.0654H332.746C324.62 67.0654 317.676 72.1075 315.883 79.3485C311.648 96.5222 295.129 97.3942 268.5 97.3942C241.871 97.3942 225.352 96.5222 221.117 79.3485C219.324 72.1075 212.38 67.0654 204.254 67.0654H125.282C120.552 67.0654 116.737 63.8429 116.737 59.9002V23.8847C116.737 19.942 120.552 16.7195 125.282 16.7195H411.718C416.448 16.7195 420.263 19.942 420.263 23.8847V59.9002Z" fill="#C7C8C4"/>
<path d="M411.718 10H125.282C115.745 10 108 16.9028 108 25.3477V27C108 18.5551 115.745 11.6523 125.282 11.6523H411.718C421.255 11.6523 429 18.5551 429 27V25.3844C429 16.9028 421.217 10 411.718 10Z" fill="#E1E3E4"/>
<path d="M125.531 69.8259H204.366C212.478 69.8259 219.409 74.8424 221.199 82.0464C225.427 99.1325 241.917 100 268.5 100C295.083 100 311.574 99.1325 315.801 82.0464C317.591 74.8424 324.522 69.8259 332.634 69.8259H411.469C416.192 69.8259 420 66.6199 420 62.6973V61C420 64.9226 416.192 68.1286 411.469 68.1286H332.634C324.522 68.1286 317.591 73.1451 315.801 80.3491C311.574 97.4352 295.083 98.3027 268.5 98.3027C241.917 98.3027 225.427 97.4352 221.199 80.3491C219.409 73.1451 212.478 68.1286 204.366 68.1286H125.531C120.809 68.1286 117 64.9226 117 61V62.6973C116.962 66.6199 120.809 69.8259 125.531 69.8259Z" fill="#E1E3E4"/>
<path d="M411.469 15H125.531C120.808 15 117 18.1599 117 22.026V25C117 21.1338 120.847 17.974 125.531 17.974H411.469C416.192 17.974 420 21.1338 420 25V22.026C420 18.1599 416.153 15 411.469 15Z" fill="#9A9B99"/>
<path d="M411.684 73.7797H332.73C328.687 73.7797 325.178 76.1579 324.378 79.4045C318.313 103.98 292.987 103.98 268.5 103.98C244.013 103.98 218.725 103.98 212.623 79.4045C211.822 76.1579 208.313 73.7797 204.269 73.7797H125.316C115.781 73.7797 108 66.6826 108 58V61.02C108 69.7026 115.743 76.7997 125.316 76.7997H204.269C208.313 76.7997 211.822 79.178 212.623 82.4245C218.725 107 244.013 107 268.5 107C292.987 107 318.275 107 324.378 82.4245C325.178 79.178 328.687 76.7997 332.73 76.7997H411.684C421.219 76.7997 429 69.7026 429 61.02V58C428.962 66.6826 421.219 73.7797 411.684 73.7797Z" fill="#9A9B99"/>
<path d="M401.361 9.63721H137.164V18.3608H401.361V9.63721Z" fill="#C7C8C4"/>
<path d="M371.186 34H166.776C154.186 34 144 23.8114 144 11.2189V0H394V11.2189C393.962 23.8114 383.776 34 371.186 34Z" fill="#C7C8C4"/>
<path d="M383.547 30.392H154.453C148.692 30.392 144 24.8291 144 18V23.608C144 30.4372 148.692 36 154.453 36H383.547C389.307 36 394 30.4372 394 23.608V18C394 24.8291 389.307 30.392 383.547 30.392Z" fill="#9A9B99"/>
<path d="M285.16 10H156.516C154.951 10 153.691 8.88513 153.691 7.5C153.691 6.11486 154.951 5 156.516 5H285.16C286.725 5 287.985 6.11486 287.985 7.5C287.985 8.88513 286.725 10 285.16 10Z" fill="#F1F2F2"/>
<path d="M382.006 10H303.102C301.537 10 300.277 8.88513 300.277 7.5C300.277 6.11486 301.537 5 303.102 5H382.044C383.61 5 384.869 6.11486 384.869 7.5C384.831 8.88513 383.571 10 382.006 10Z" fill="#F1F2F2"/>
</svg>
