<svg width="899" height="775" viewBox="0 0 899 775" fill="none" xmlns="http://www.w3.org/2000/svg">
<path d="M658.809 472.142C544.228 440.85 429.626 460.763 315.045 419.285C325.434 359.327 335.822 298.87 346.19 238C460.77 269.293 575.373 249.379 689.954 290.857C679.565 350.815 669.176 411.272 658.809 472.142Z" fill="#005E1F"/>
<path d="M645.877 425.822C651.419 393.096 656.983 360.5 662.525 328.013C649.572 324.365 640.835 311.726 643.008 298.892C557.333 278.848 471.658 284.516 385.984 268.858C383.81 281.758 371.552 290.314 358.621 287.165C353.079 319.869 347.515 352.465 341.973 384.952C354.926 388.622 363.663 401.261 361.49 414.095C447.164 434.248 532.839 428.58 618.514 444.15C620.666 431.229 632.924 422.673 645.877 425.822Z" fill="#99C57C"/>
<path d="M554.095 359.045C549.314 387.797 522.364 409.361 493.849 407.45C465.356 405.496 446.122 379.893 450.881 351.076C455.663 322.324 482.613 300.76 511.128 302.671C539.621 304.625 558.855 330.228 554.095 359.045Z" fill="#005E1F"/>
<path d="M504.109 379.676C503.522 383.194 502.936 386.733 502.37 390.251C499.349 390.034 496.328 389.839 493.307 389.622C493.894 386.082 494.481 382.521 495.068 378.981C488.809 377.634 483.049 374.486 479.115 370.338C481.267 367.167 483.419 363.975 485.592 360.804C489.787 365.452 496.72 369.013 501.675 369.361C505.348 369.621 507.891 368.405 508.326 365.843C509.673 357.612 483.723 360.826 486.548 343.671C487.809 336.005 494.133 331.053 503.088 330.207C503.653 326.819 504.196 323.431 504.761 320.043C507.782 320.261 510.803 320.456 513.824 320.673C513.259 324.039 512.716 327.405 512.151 330.771C517.628 331.792 522.626 334.115 526.212 337.025C524.104 340.239 521.974 343.475 519.866 346.711C515.302 343.432 509.282 340.717 505.326 340.435C502.327 340.218 500.175 341.195 499.806 343.41C498.48 351.423 524.365 348.643 521.496 366.081C520.127 374.572 512.89 379.089 504.109 379.676Z" fill="#E5E5E5"/>
<path d="M544.794 531.514C425.997 532.426 321.109 582.612 199.552 573.687C193.293 513.164 186.881 452.164 180.383 390.751C299.158 389.839 404.068 339.653 525.625 348.578C531.884 409.101 538.274 470.101 544.794 531.514Z" fill="#005E1F"/>
<path d="M519.777 490.427C516.257 457.441 512.757 424.541 509.28 391.771C495.827 391.771 483.982 381.977 482.591 369.035C394.677 372.922 313.762 401.587 227.044 409.709C228.457 422.717 218.981 434.27 205.658 434.726C209.179 467.712 212.678 500.59 216.156 533.36C229.609 533.382 241.454 543.197 242.845 556.118C330.78 552.318 411.717 523.675 498.391 515.466C497 502.458 506.476 490.905 519.777 490.427Z" fill="#99C57C"/>
<path d="M413.325 451.013C416.52 479.982 396.416 508.039 368.466 513.924C340.495 519.766 315.044 500.33 311.828 471.274C308.633 442.305 328.737 414.247 356.687 408.362C384.636 402.521 410.108 421.978 413.325 451.013Z" fill="#005E1F"/>
<path d="M370.814 484.39C371.205 487.952 371.618 491.491 372.01 495.053C369.054 495.661 366.076 496.291 363.12 496.899C362.729 493.315 362.316 489.754 361.925 486.171C355.535 486.562 349.146 485.107 344.234 482.175C345.451 478.527 346.668 474.9 347.863 471.252C353.166 474.575 360.795 476.138 365.663 475.139C369.271 474.401 371.401 472.533 371.097 469.949C370.162 461.653 346.059 471.795 344.125 454.509C343.256 446.778 348.015 440.307 356.405 437.071C356.013 433.661 355.644 430.252 355.253 426.821C358.209 426.213 361.186 425.583 364.142 424.975C364.511 428.363 364.903 431.75 365.272 435.138C370.836 434.639 376.269 435.507 380.508 437.353C379.334 441.023 378.182 444.715 377.008 448.385C371.727 446.474 365.185 445.475 361.317 446.279C358.382 446.887 356.557 448.407 356.818 450.643C357.709 458.722 381.877 449.015 383.833 466.583C384.833 475.139 379.117 481.458 370.814 484.39Z" fill="#E5E5E5"/>
<path d="M664.242 607.26C560.181 550.016 444.122 542.524 342.451 475.378C366.597 419.525 390.874 363.193 415.26 306.449C519.321 363.693 635.38 371.185 737.051 438.331C712.905 494.163 688.628 550.516 664.242 607.26Z" fill="#005E1F"/>
<path d="M662.547 559.202C675.609 528.691 688.649 498.289 701.668 468.017C689.932 461.437 684.411 447.104 689.519 435.139C610.929 395.594 526.319 381.044 446.708 345.755C441.579 357.808 427.648 363.237 415.803 357.135C402.741 387.646 389.7 418.026 376.682 448.299C388.418 454.9 393.938 469.233 388.831 481.198C467.399 520.852 552.009 535.402 631.641 570.603C636.792 558.573 650.702 553.122 662.547 559.202Z" fill="#99C57C"/>
<path d="M588.978 472.794C577.589 499.635 546.314 514.272 519.06 505.759C491.806 497.181 479.113 467.8 490.524 440.893C501.912 414.074 533.187 399.416 560.441 407.928C587.696 416.485 600.388 445.888 588.978 472.794Z" fill="#005E1F"/>
<path d="M535.556 481.133C534.165 484.434 532.775 487.713 531.384 491.014C528.493 490.102 525.602 489.19 522.733 488.278C524.124 484.955 525.537 481.654 526.928 478.332C521.169 475.552 516.3 471.144 513.453 466.214C516.3 463.63 519.126 461.046 521.973 458.462C524.972 463.956 530.862 469.037 535.6 470.536C539.121 471.643 541.881 471.057 542.881 468.668C546.119 460.981 520.147 458.027 526.928 442.023C529.971 434.856 537.273 431.534 546.163 432.815C547.51 429.645 548.836 426.496 550.183 423.325C553.074 424.237 555.964 425.149 558.833 426.061C557.508 429.21 556.182 432.337 554.856 435.486C559.942 437.766 564.267 441.176 567.049 444.868C564.223 447.495 561.42 450.145 558.594 452.794C554.921 448.538 549.705 444.477 545.923 443.282C543.055 442.37 540.729 442.805 539.86 444.889C536.687 452.381 562.506 455.726 555.638 472.013C552.313 479.939 544.228 482.632 535.556 481.133Z" fill="#E5E5E5"/>
<g opacity="0.5" filter="url(#filter0_f)">
<path d="M254.468 95.4349C223.426 98.0357 199.919 120.792 201.273 146.569L201.237 146.57L202.118 157.038L203.198 156.949C210.185 178.4 234.692 192.958 262.45 190.626C290.209 188.295 311.947 169.86 315.27 147.552L316.349 147.464L315.468 136.996L315.432 136.996C312.482 111.355 285.509 92.834 254.468 95.4349Z" fill="#DA8100"/>
<path d="M247.332 136.689L252.615 135.274L242.499 97.5205C240.721 97.9969 238.97 98.5391 237.273 99.1487L247.332 136.689Z" fill="#F4BD00"/>
<path d="M271.687 130.164L262.328 95.2345C260.462 95.1783 258.58 95.1992 256.683 95.2974L266.404 131.579L271.687 130.164Z" fill="#F4BD00"/>
<path d="M263.494 132.359L253.624 95.5241C250.744 95.8033 247.928 96.248 245.193 96.8623L255.293 134.556L263.494 132.359Z" fill="#F4BD00"/>
<path d="M219.115 109.311C207.462 118.834 200.52 132.228 201.272 146.569L201.235 146.569L202.117 157.037L203.196 156.949C207.156 169.108 226.089 176.544 238.714 182.453C229.013 146.247 222.455 121.773 219.115 109.311Z" fill="#C3690D"/>
<path d="M280.377 186.653C299.174 179.665 312.707 164.769 315.263 147.563L316.343 147.475L315.462 137.007L315.425 137.007C313.568 120.856 302.167 107.536 286.23 100.528C291.796 121.265 302.405 154.565 280.377 186.653Z" fill="#C3690D"/>
<path d="M255.166 104.603C223.461 107.262 199.545 130.706 201.747 156.967C203.949 183.229 231.436 202.362 263.141 199.704C294.845 197.045 318.762 173.601 316.559 147.339C314.357 121.078 286.87 101.944 255.166 104.603Z" fill="#FFDD00"/>
<path d="M256.063 115.276C280.658 113.217 301.976 128.056 303.685 148.423C305.398 168.798 286.846 186.98 262.252 189.039C237.657 191.097 216.339 176.258 214.629 155.892C212.911 135.527 231.46 117.337 256.063 115.276Z" fill="#D4860C"/>
<path d="M256.203 117.017C279.645 115.048 299.956 129.19 301.583 148.603C303.211 168.016 285.534 185.344 262.1 187.311C238.666 189.277 218.347 175.137 216.719 155.724C215.092 136.311 232.769 118.983 256.203 117.017Z" fill="#F0AA00"/>
<path d="M262.397 137.111C263.865 136.399 265.661 135.99 267.794 135.884C270.312 135.756 272.469 136.081 274.275 136.864C276.078 137.639 277.576 138.706 278.761 140.066C279.946 141.426 280.868 142.994 281.52 144.779C282.171 146.565 282.598 148.429 282.808 150.37L290.545 149.983L290.755 155.051L282.891 155.444C282.754 158.371 282.297 161.293 281.522 164.217C280.744 167.134 279.718 169.77 278.453 172.124L267.3 167.354C267.979 166.178 268.607 164.915 269.195 163.572C269.706 162.451 270.195 161.144 270.672 159.657C271.149 158.171 271.457 156.666 271.61 155.13L265.988 155.414C265.705 156.739 265.351 158.074 264.934 159.408C264.335 161.428 263.673 163.174 262.939 164.656C262.206 166.138 261.365 167.357 260.397 168.337C259.437 169.314 258.324 170.06 257.066 170.57C255.807 171.08 254.345 171.372 252.682 171.462C250.379 171.577 248.325 171.298 246.532 170.63C244.729 169.955 243.168 168.996 241.831 167.75C240.494 166.503 239.414 165.024 238.571 163.308C237.728 161.592 237.161 159.747 236.869 157.774L230.411 158.1L230.201 153.032L236.724 152.707C236.842 151.307 237.041 149.941 237.324 148.616C237.616 147.289 237.958 146.012 238.349 144.786C238.75 143.557 239.17 142.405 239.62 141.327C240.07 140.249 240.487 139.253 240.871 138.339L251.385 143.144C250.831 144.103 250.316 145.144 249.853 146.271C249.424 147.225 249.026 148.289 248.667 149.47C248.309 150.651 248.054 151.841 247.881 153.036L253.638 152.742C253.709 152.359 253.808 151.949 253.94 151.522C254.072 151.094 254.197 150.642 254.298 150.168C254.856 148.067 255.476 146.16 256.175 144.449C256.875 142.739 257.722 141.272 258.72 140.029C259.703 138.799 260.937 137.822 262.397 137.111ZM270.923 149.707C270.568 149.3 270.108 149.114 269.551 149.144C268.957 149.176 268.439 149.451 268.016 149.984C267.593 150.517 267.223 151.209 266.917 152.075L271.649 151.837C271.523 150.822 271.287 150.111 270.923 149.707ZM252.665 156.085L247.807 156.329C248.093 158.012 248.846 158.813 250.088 158.754C250.726 158.72 251.24 158.491 251.629 158.04C252.013 157.6 252.359 156.951 252.665 156.085Z" fill="#DA8100"/>
<path d="M261.149 137.756C262.617 137.044 264.413 136.635 266.546 136.529C269.064 136.401 271.221 136.726 273.027 137.509C274.83 138.284 276.328 139.351 277.513 140.711C278.698 142.071 279.62 143.639 280.272 145.424C280.923 147.21 281.35 149.074 281.56 151.015L289.297 150.628L289.506 155.696L281.643 156.089C281.506 159.016 281.049 161.938 280.274 164.862C279.496 167.779 278.47 170.415 277.204 172.769L266.052 167.999C266.731 166.823 267.359 165.56 267.947 164.217C268.458 163.096 268.947 161.789 269.424 160.302C269.901 158.816 270.209 157.311 270.362 155.775L264.74 156.059C264.457 157.384 264.103 158.719 263.686 160.053C263.087 162.073 262.425 163.819 261.691 165.301C260.958 166.783 260.117 168.002 259.149 168.982C258.189 169.959 257.076 170.705 255.817 171.215C254.559 171.725 253.097 172.017 251.434 172.107C249.131 172.223 247.077 171.943 245.284 171.275C243.481 170.6 241.92 169.641 240.583 168.395C239.246 167.148 238.166 165.669 237.323 163.953C236.48 162.237 235.913 160.392 235.621 158.419L229.162 158.745L228.953 153.677L235.476 153.352C235.594 151.952 235.793 150.586 236.076 149.261C236.368 147.934 236.71 146.657 237.101 145.431C237.501 144.202 237.922 143.05 238.372 141.972C238.822 140.894 239.239 139.898 239.623 138.984L250.137 143.789C249.583 144.749 249.068 145.789 248.605 146.916C248.176 147.87 247.778 148.934 247.419 150.115C247.061 151.296 246.806 152.486 246.633 153.681L252.39 153.387C252.461 153.004 252.56 152.594 252.692 152.167C252.824 151.74 252.949 151.287 253.05 150.813C253.608 148.712 254.228 146.805 254.927 145.094C255.627 143.384 256.474 141.917 257.472 140.674C258.453 139.436 259.678 138.46 261.149 137.756ZM269.673 150.343C269.318 149.937 268.857 149.75 268.3 149.781C267.707 149.812 267.188 150.088 266.766 150.621C266.343 151.153 265.972 151.845 265.666 152.711L270.399 152.474C270.273 151.459 270.028 150.749 269.673 150.343ZM251.417 156.73L246.558 156.974C246.845 158.657 247.598 159.458 248.84 159.399C249.478 159.365 249.992 159.136 250.381 158.685C250.765 158.245 251.111 157.596 251.417 156.73Z" fill="#FFDD00"/>
</g>
<g opacity="0.7">
<path d="M254.468 95.4349C223.426 98.0357 199.919 120.792 201.273 146.569L201.237 146.57L202.118 157.038L203.198 156.949C210.185 178.4 234.692 192.958 262.45 190.626C290.209 188.295 311.947 169.86 315.27 147.552L316.349 147.464L315.468 136.996L315.432 136.996C312.482 111.355 285.509 92.834 254.468 95.4349Z" fill="#DA8100"/>
<path d="M247.332 136.689L252.615 135.274L242.499 97.5205C240.721 97.9969 238.97 98.5391 237.273 99.1487L247.332 136.689Z" fill="#F4BD00"/>
<path d="M271.687 130.164L262.328 95.2345C260.462 95.1783 258.58 95.1992 256.683 95.2974L266.404 131.579L271.687 130.164Z" fill="#F4BD00"/>
<path d="M263.494 132.359L253.624 95.5241C250.744 95.8033 247.928 96.248 245.193 96.8623L255.293 134.556L263.494 132.359Z" fill="#F4BD00"/>
<path d="M219.115 109.311C207.462 118.834 200.52 132.228 201.272 146.569L201.235 146.569L202.117 157.037L203.196 156.949C207.156 169.108 226.089 176.544 238.714 182.453C229.013 146.247 222.455 121.773 219.115 109.311Z" fill="#C3690D"/>
<path d="M280.377 186.653C299.174 179.665 312.707 164.769 315.263 147.563L316.343 147.475L315.462 137.007L315.425 137.007C313.568 120.856 302.167 107.536 286.23 100.528C291.796 121.265 302.405 154.565 280.377 186.653Z" fill="#C3690D"/>
<path d="M255.166 104.603C223.461 107.262 199.545 130.706 201.747 156.967C203.949 183.229 231.436 202.362 263.141 199.704C294.845 197.045 318.762 173.601 316.559 147.339C314.357 121.078 286.87 101.944 255.166 104.603Z" fill="#FFDD00"/>
<path d="M256.063 115.276C280.658 113.217 301.976 128.056 303.685 148.423C305.398 168.798 286.846 186.98 262.252 189.039C237.657 191.097 216.339 176.258 214.629 155.892C212.911 135.527 231.46 117.337 256.063 115.276Z" fill="#D4860C"/>
<path d="M256.203 117.017C279.645 115.048 299.956 129.19 301.583 148.603C303.211 168.016 285.534 185.344 262.1 187.311C238.666 189.277 218.347 175.137 216.719 155.724C215.092 136.311 232.769 118.983 256.203 117.017Z" fill="#F0AA00"/>
<path d="M262.397 137.111C263.865 136.399 265.661 135.99 267.794 135.884C270.312 135.756 272.469 136.081 274.275 136.864C276.078 137.639 277.576 138.706 278.761 140.066C279.946 141.426 280.868 142.994 281.52 144.779C282.171 146.565 282.598 148.429 282.808 150.37L290.545 149.983L290.755 155.051L282.891 155.444C282.754 158.371 282.297 161.293 281.522 164.217C280.744 167.134 279.718 169.77 278.453 172.124L267.3 167.354C267.979 166.178 268.607 164.915 269.195 163.572C269.706 162.451 270.195 161.144 270.672 159.657C271.149 158.171 271.457 156.666 271.61 155.13L265.988 155.414C265.705 156.739 265.351 158.074 264.934 159.408C264.335 161.428 263.673 163.174 262.939 164.656C262.206 166.138 261.365 167.357 260.397 168.337C259.437 169.314 258.324 170.06 257.066 170.57C255.807 171.08 254.345 171.372 252.682 171.462C250.379 171.577 248.325 171.298 246.532 170.63C244.729 169.955 243.168 168.996 241.831 167.75C240.494 166.503 239.414 165.024 238.571 163.308C237.728 161.592 237.161 159.747 236.869 157.774L230.411 158.1L230.201 153.032L236.724 152.707C236.842 151.307 237.041 149.941 237.324 148.616C237.616 147.289 237.958 146.012 238.349 144.786C238.75 143.557 239.17 142.405 239.62 141.327C240.07 140.249 240.487 139.253 240.871 138.339L251.385 143.144C250.831 144.103 250.316 145.144 249.853 146.271C249.424 147.225 249.026 148.289 248.667 149.47C248.309 150.651 248.054 151.841 247.881 153.036L253.638 152.742C253.709 152.359 253.808 151.949 253.94 151.522C254.072 151.094 254.197 150.642 254.298 150.168C254.856 148.067 255.476 146.16 256.175 144.449C256.875 142.739 257.722 141.272 258.72 140.029C259.703 138.799 260.937 137.822 262.397 137.111ZM270.923 149.707C270.568 149.3 270.108 149.114 269.551 149.144C268.957 149.176 268.439 149.451 268.016 149.984C267.593 150.517 267.223 151.209 266.917 152.075L271.649 151.837C271.523 150.822 271.287 150.111 270.923 149.707ZM252.665 156.085L247.807 156.329C248.093 158.012 248.846 158.813 250.088 158.754C250.726 158.72 251.24 158.491 251.629 158.04C252.013 157.6 252.359 156.951 252.665 156.085Z" fill="#DA8100"/>
<path d="M261.149 137.756C262.617 137.044 264.413 136.635 266.546 136.529C269.064 136.401 271.221 136.726 273.027 137.509C274.83 138.284 276.328 139.351 277.513 140.711C278.698 142.071 279.62 143.639 280.272 145.424C280.923 147.21 281.35 149.074 281.56 151.015L289.297 150.628L289.506 155.696L281.643 156.089C281.506 159.016 281.049 161.938 280.274 164.862C279.496 167.779 278.47 170.415 277.204 172.769L266.052 167.999C266.731 166.823 267.359 165.56 267.947 164.217C268.458 163.096 268.947 161.789 269.424 160.302C269.901 158.816 270.209 157.311 270.362 155.775L264.74 156.059C264.457 157.384 264.103 158.719 263.686 160.053C263.087 162.073 262.425 163.819 261.691 165.301C260.958 166.783 260.117 168.002 259.149 168.982C258.189 169.959 257.076 170.705 255.817 171.215C254.559 171.725 253.097 172.017 251.434 172.107C249.131 172.223 247.077 171.943 245.284 171.275C243.481 170.6 241.92 169.641 240.583 168.395C239.246 167.148 238.166 165.669 237.323 163.953C236.48 162.237 235.913 160.392 235.621 158.419L229.162 158.745L228.953 153.677L235.476 153.352C235.594 151.952 235.793 150.586 236.076 149.261C236.368 147.934 236.71 146.657 237.101 145.431C237.501 144.202 237.922 143.05 238.372 141.972C238.822 140.894 239.239 139.898 239.623 138.984L250.137 143.789C249.583 144.749 249.068 145.789 248.605 146.916C248.176 147.87 247.778 148.934 247.419 150.115C247.061 151.296 246.806 152.486 246.633 153.681L252.39 153.387C252.461 153.004 252.56 152.594 252.692 152.167C252.824 151.74 252.949 151.287 253.05 150.813C253.608 148.712 254.228 146.805 254.927 145.094C255.627 143.384 256.474 141.917 257.472 140.674C258.453 139.436 259.678 138.46 261.149 137.756ZM269.673 150.343C269.318 149.937 268.857 149.75 268.3 149.781C267.707 149.812 267.188 150.088 266.766 150.621C266.343 151.153 265.972 151.845 265.666 152.711L270.399 152.474C270.273 151.459 270.028 150.749 269.673 150.343ZM251.417 156.73L246.558 156.974C246.845 158.657 247.598 159.458 248.84 159.399C249.478 159.365 249.992 159.136 250.381 158.685C250.765 158.245 251.111 157.596 251.417 156.73Z" fill="#FFDD00"/>
</g>
<path d="M541.404 512.838C432.3 472.36 308.091 489.342 197.748 453.575C209.028 391.076 220.33 328.469 231.675 265.775C340.778 306.254 464.987 289.272 575.33 325.038C564.05 387.537 552.727 450.144 541.404 512.838Z" fill="url(#paint0_linear)"/>
<path d="M529.885 464.238C535.905 430.882 541.903 397.57 547.902 364.257C535.296 360.739 526.798 348.057 529.124 335.093C444.427 316.699 353.949 320.347 269.774 299.913C267.448 312.855 255.212 321.021 242.65 317.285C236.63 350.641 230.631 383.954 224.633 417.244C237.238 420.762 245.758 433.445 243.411 446.387C328.108 464.737 418.607 461.111 502.739 481.567C505.086 468.646 517.323 460.481 529.885 464.238Z" fill="#ACD987"/>
<path d="M439.101 394.421C434.037 422.673 406.478 442.956 377.377 440.415C348.254 437.896 328.867 412.532 333.953 384.214C339.017 355.962 366.575 335.679 395.677 338.22C424.8 340.739 444.187 366.081 439.101 394.421Z" fill="#0C8F39"/>
<path d="M388.048 413.444C387.439 416.875 386.809 420.328 386.201 423.759C383.114 423.477 380.028 423.194 376.942 422.934C377.572 419.481 378.181 416.006 378.811 412.553C372.443 411.098 366.575 407.884 362.598 403.737C364.815 400.675 367.031 397.613 369.248 394.551C373.508 399.198 380.55 402.846 385.636 403.302C389.396 403.65 392.004 402.499 392.438 400.002C393.873 391.967 367.357 394.529 370.357 377.786C371.704 370.294 378.181 365.625 387.331 365.017C387.918 361.716 388.504 358.415 389.113 355.093C392.199 355.375 395.285 355.657 398.372 355.918C397.785 359.197 397.198 362.476 396.611 365.777C402.197 366.906 407.282 369.273 410.934 372.227C408.76 375.332 406.565 378.459 404.392 381.565C399.763 378.264 393.612 375.441 389.591 375.093C386.527 374.811 384.331 375.723 383.94 377.873C382.549 385.691 408.999 383.563 405.935 400.588C404.414 408.84 397.002 413.075 388.048 413.444Z" fill="white"/>
<path opacity="0.5" d="M737.417 248.518L734.939 241.178L732.461 248.518C729.266 257.965 722.638 265.869 713.879 270.647C722.638 275.424 729.266 283.329 732.461 292.776L734.939 300.116L737.417 292.776C740.611 283.329 747.24 275.424 755.999 270.647C747.262 265.869 740.611 257.965 737.417 248.518Z" fill="url(#paint1_linear)"/>
<path opacity="0.5" d="M218.542 596.34L216.064 589L213.586 596.34C210.391 605.787 203.763 613.691 195.004 618.469C203.763 623.246 210.391 631.151 213.586 640.597L216.064 647.937L218.542 640.597C221.737 631.151 228.365 623.246 237.124 618.469C228.365 613.691 221.737 605.808 218.542 596.34Z" fill="url(#paint2_linear)"/>
<path opacity="0.5" d="M686.517 221.807L684.8 216.726L683.083 221.807C680.867 228.365 676.281 233.838 670.195 237.16C676.259 240.483 680.867 245.955 683.083 252.514L684.8 257.595L686.517 252.514C688.734 245.955 693.32 240.483 699.406 237.16C693.32 233.816 688.713 228.344 686.517 221.807Z" fill="url(#paint3_linear)"/>
<path opacity="0.5" d="M163.17 475.885L161.453 470.803L159.736 475.885C157.519 482.443 152.933 487.915 146.848 491.238C152.911 494.561 157.519 500.033 159.736 506.591L161.453 511.673L163.17 506.591C165.387 500.033 169.972 494.561 176.058 491.238C169.972 487.894 165.365 482.421 163.17 475.885Z" fill="url(#paint4_linear)"/>
<path opacity="0.5" d="M732.322 520.082L730.605 515L728.888 520.082C726.671 526.64 722.085 532.112 716 535.435C722.064 538.757 726.671 544.23 728.888 550.788L730.605 555.87L732.322 550.788C734.539 544.23 739.125 538.757 745.21 535.435C739.147 532.112 734.539 526.64 732.322 520.082Z" fill="url(#paint5_linear)"/>
<path opacity="0.5" d="M483.244 181.741L481.527 176.66L479.81 181.741C477.593 188.299 473.007 193.772 466.922 197.094C472.986 200.417 477.593 205.889 479.81 212.448L481.527 217.529L483.244 212.448C485.461 205.889 490.047 200.417 496.132 197.094C490.047 193.772 485.439 188.278 483.244 181.741Z" fill="url(#paint6_linear)"/>
<path opacity="0.5" d="M57.326 441.704L55.609 436.622L53.8921 441.704C51.6752 448.262 47.0894 453.734 41.0039 457.057C47.0676 460.379 51.6752 465.852 53.8921 472.41L55.609 477.492L57.326 472.41C59.5429 465.852 64.1287 460.379 70.2142 457.057C64.1504 453.734 59.5429 448.24 57.326 441.704Z" fill="url(#paint7_linear)"/>
<path opacity="0.5" d="M256.93 17.794L255.213 12.7124L253.496 17.794C251.279 24.3522 246.693 29.8246 240.607 33.1472C246.671 36.4697 251.279 41.9422 253.496 48.5004L255.213 53.582L256.93 48.5004C259.146 41.9422 263.732 36.4697 269.818 33.1472C263.754 29.8246 259.146 24.3522 256.93 17.794Z" fill="url(#paint8_linear)"/>
<path opacity="0.5" d="M210.202 42.5073L209.007 38.9893L207.812 42.5073C206.268 47.0459 203.095 50.8462 198.879 53.1481C203.095 55.45 206.268 59.2503 207.812 63.789L209.007 67.307L210.202 63.789C211.745 59.2503 214.918 55.45 219.135 53.1481C214.918 50.8462 211.745 47.0459 210.202 42.5073Z" fill="url(#paint9_linear)"/>
<path opacity="0.5" d="M441.102 208.169L439.907 204.651L438.733 208.169C437.19 212.708 434.017 216.508 429.801 218.81C434.017 221.112 437.19 224.912 438.733 229.451L439.929 232.969L441.124 229.451C442.667 224.912 445.84 221.112 450.057 218.81C445.84 216.508 442.645 212.708 441.102 208.169Z" fill="url(#paint10_linear)"/>
<path d="M631.361 604.881C515.541 593.394 399.721 641.343 283.902 634.741C278.925 571.417 273.969 508.006 268.992 444.487C384.812 455.975 500.631 408.026 616.451 414.627C621.428 477.929 626.384 541.362 631.361 604.881Z" fill="url(#paint11_linear)"/>
<path d="M607.866 560.777C605.214 526.986 602.562 493.24 599.889 459.515C586.805 459.319 575.352 449.199 574.309 436.083C487.721 439.796 401.112 466.247 314.524 467.854C315.567 480.97 305.787 491.958 292.703 491.524C295.355 525.314 298.006 559.061 300.679 592.786C313.763 592.981 325.217 603.101 326.26 616.218C412.848 612.482 499.457 586.011 586.045 584.447C585.002 571.33 594.782 560.342 607.866 560.777Z" fill="#ACD987"/>
<path d="M502.326 516.28C504.608 544.88 483.114 571.504 454.316 576.412C425.519 581.363 400.308 561.753 398.026 533.066C395.743 504.466 417.238 477.843 446.036 472.935C474.833 467.983 500.044 487.593 502.326 516.28Z" fill="#0C8F39"/>
<path d="M457.751 547.638C458.033 551.112 458.316 554.609 458.576 558.083C455.534 558.604 452.469 559.104 449.426 559.625C449.144 556.129 448.861 552.611 448.579 549.114C442.037 549.31 435.56 547.703 430.648 544.706C432.018 541.188 433.387 537.648 434.756 534.13C440.059 537.54 447.796 539.277 452.817 538.43C456.533 537.8 458.772 536.041 458.576 533.522C457.924 525.4 432.909 534.586 431.561 517.626C430.953 510.047 436.038 503.88 444.732 500.948C444.471 497.604 444.189 494.26 443.928 490.915C446.971 490.394 450.035 489.895 453.078 489.374C453.339 492.696 453.599 496.019 453.882 499.341C459.576 499.015 465.097 500.014 469.378 501.947C468.052 505.509 466.748 509.07 465.423 512.631C460.098 510.612 453.447 509.439 449.448 510.112C446.427 510.612 444.515 512.045 444.689 514.238C445.319 522.165 470.356 513.37 471.747 530.612C472.421 539.038 466.335 545.01 457.751 547.638Z" fill="white"/>
<g opacity="0.5" filter="url(#filter1_f)">
<path d="M486.069 676.663C474.019 659.318 452.688 653.23 438.011 662.764L437.999 662.743L432.151 666.809L432.569 667.412C422.343 678.787 422.102 698.112 432.881 713.621C443.661 729.129 461.854 735.644 476.079 730.032L476.497 730.636L482.345 726.57L482.332 726.549C496.388 716.124 498.119 694.008 486.069 676.663Z" fill="#DA8100"/>
<path d="M459.428 686.459L462.05 689.081L480.788 670.343C479.906 669.46 478.994 668.616 478.061 667.826L459.428 686.459Z" fill="#F4BD00"/>
<path d="M471.517 698.547L488.853 681.211C488.254 680.096 487.603 678.998 486.902 677.917L468.895 695.925L471.517 698.547Z" fill="#F4BD00"/>
<path d="M467.449 694.481L485.731 676.199C484.591 674.603 483.375 673.1 482.088 671.702L463.379 690.411L467.449 694.481Z" fill="#F4BD00"/>
<path d="M465.941 660.61C456.398 656.996 446.181 657.461 438.015 662.764L438.002 662.743L432.154 666.809L432.572 667.412C426.775 673.86 428.827 687.498 429.638 696.913C447.608 678.943 459.755 666.796 465.941 660.61Z" fill="#C3690D"/>
<path d="M441.295 722.8C451.77 731.469 465.104 734.365 476.074 730.033L476.492 730.637L482.339 726.571L482.327 726.55C491.181 719.984 495.137 708.774 493.849 697.04C483.56 707.338 467.604 724.857 441.295 722.8Z" fill="#C3690D"/>
<path d="M480.925 680.182C468.616 662.468 446.743 656.372 432.07 666.568C417.396 676.764 415.48 699.39 427.789 717.104C440.098 734.819 461.971 740.914 476.645 730.719C491.318 720.523 493.234 697.897 480.925 680.182Z" fill="#FFDD00"/>
<path d="M474.962 684.327C484.508 698.07 483.022 715.618 471.643 723.526C460.26 731.439 443.295 726.71 433.749 712.966C424.202 699.223 425.688 681.675 437.067 673.767C448.442 665.855 465.411 670.579 474.962 684.327Z" fill="#D4860C"/>
<path d="M473.986 684.998C483.089 698.096 481.671 714.816 470.824 722.352C459.977 729.889 443.81 725.384 434.711 712.291C425.612 699.198 427.026 682.473 437.873 674.937C448.72 667.4 464.887 671.905 473.986 684.998Z" fill="#F0AA00"/>
<path d="M464.287 695.448C465.203 696.069 466.052 696.985 466.837 698.201C467.766 699.637 468.307 701.013 468.459 702.339C468.615 703.66 468.497 704.902 468.1 706.059C467.703 707.216 467.095 708.288 466.267 709.276C465.44 710.264 464.49 711.147 463.422 711.928L466.272 716.34L463.367 718.181L460.47 713.697C458.705 714.609 456.835 715.331 454.855 715.867C452.879 716.399 450.983 716.69 449.172 716.745L448.192 708.579C449.112 708.579 450.067 708.52 451.055 708.411C451.886 708.33 452.82 708.174 453.854 707.95C454.888 707.727 455.876 707.397 456.831 706.967L454.758 703.762C453.884 704.045 452.98 704.29 452.055 704.497C450.666 704.83 449.416 705.033 448.298 705.105C447.179 705.176 446.178 705.096 445.274 704.86C444.375 704.627 443.56 704.226 442.834 703.661C442.108 703.095 441.441 702.335 440.824 701.389C439.975 700.076 439.443 698.775 439.228 697.496C439.013 696.208 439.047 694.967 439.325 693.759C439.604 692.552 440.106 691.416 440.828 690.339C441.55 689.263 442.441 688.304 443.501 687.464L441.12 683.782L444.025 681.941L446.427 685.661C447.288 685.256 448.158 684.91 449.032 684.627C449.91 684.348 450.776 684.116 451.629 683.93C452.486 683.748 453.305 683.605 454.09 683.503C454.876 683.402 455.602 683.309 456.269 683.225L457.012 691.028C456.261 691.028 455.475 691.078 454.656 691.188C453.951 691.26 453.191 691.386 452.376 691.576C451.561 691.766 450.776 692.02 450.016 692.324L452.14 695.604C452.389 695.516 452.663 695.436 452.959 695.368C453.254 695.3 453.563 695.22 453.875 695.119C455.298 694.735 456.628 694.452 457.869 694.283C459.111 694.114 460.259 694.114 461.327 694.279C462.383 694.439 463.375 694.832 464.287 695.448ZM459.782 704.725C459.9 704.378 459.854 704.045 459.647 703.728C459.427 703.39 459.09 703.179 458.634 703.112C458.178 703.044 457.646 703.061 457.033 703.175L458.777 705.873C459.33 705.455 459.668 705.075 459.782 704.725ZM449.847 696.166L448.057 693.396C447.166 694.135 446.951 694.849 447.407 695.558C447.643 695.921 447.951 696.145 448.348 696.221C448.737 696.297 449.235 696.28 449.847 696.166Z" fill="#DA8100"/>
<path d="M463.486 694.933C464.403 695.554 465.251 696.47 466.037 697.686C466.966 699.122 467.506 700.498 467.658 701.824C467.814 703.145 467.696 704.387 467.299 705.544C466.902 706.7 466.294 707.773 465.467 708.761C464.639 709.749 463.689 710.631 462.621 711.413L465.471 715.825L462.566 717.666L459.669 713.182C457.905 714.094 456.034 714.816 454.054 715.352C452.078 715.884 450.182 716.175 448.371 716.23L447.391 708.064C448.312 708.064 449.266 708.005 450.254 707.895C451.086 707.815 452.019 707.659 453.053 707.435C454.088 707.211 455.076 706.882 456.03 706.451L453.957 703.247C453.083 703.53 452.179 703.774 451.255 703.981C449.865 704.315 448.616 704.518 447.497 704.589C446.378 704.661 445.377 704.581 444.474 704.344C443.574 704.112 442.759 703.711 442.033 703.145C441.307 702.58 440.64 701.82 440.023 700.874C439.175 699.561 438.643 698.26 438.427 696.981C438.212 695.693 438.246 694.452 438.524 693.244C438.803 692.037 439.306 690.901 440.028 689.824C440.75 688.748 441.64 687.789 442.7 686.949L440.319 683.267L443.224 681.426L445.626 685.146C446.488 684.741 447.357 684.394 448.231 684.111C449.11 683.833 449.975 683.601 450.828 683.415C451.685 683.233 452.504 683.09 453.29 682.988C454.075 682.887 454.801 682.794 455.468 682.71L456.211 690.512C455.46 690.512 454.675 690.563 453.855 690.673C453.15 690.745 452.39 690.871 451.575 691.061C450.761 691.251 449.975 691.505 449.215 691.809L451.339 695.089C451.588 695.001 451.863 694.92 452.158 694.853C452.454 694.785 452.762 694.705 453.074 694.604C454.497 694.22 455.827 693.937 457.069 693.768C458.31 693.599 459.458 693.599 460.527 693.764C461.586 693.92 462.574 694.308 463.486 694.933ZM458.985 704.205C459.104 703.859 459.057 703.525 458.85 703.209C458.631 702.871 458.293 702.66 457.837 702.592C457.381 702.525 456.849 702.542 456.237 702.656L457.981 705.354C458.534 704.936 458.867 704.551 458.985 704.205ZM449.046 695.651L447.256 692.881C446.365 693.62 446.15 694.334 446.606 695.043C446.842 695.406 447.151 695.63 447.547 695.706C447.936 695.782 448.434 695.765 449.046 695.651Z" fill="#FFDD00"/>
</g>
<g opacity="0.7">
<path d="M486.069 676.663C474.019 659.318 452.688 653.23 438.011 662.764L437.999 662.743L432.151 666.809L432.569 667.412C422.343 678.787 422.102 698.112 432.881 713.621C443.661 729.129 461.854 735.644 476.079 730.032L476.497 730.636L482.345 726.57L482.332 726.549C496.388 716.124 498.119 694.008 486.069 676.663Z" fill="#DA8100"/>
<path d="M459.428 686.459L462.05 689.081L480.788 670.343C479.906 669.46 478.994 668.616 478.061 667.826L459.428 686.459Z" fill="#F4BD00"/>
<path d="M471.517 698.547L488.853 681.211C488.254 680.096 487.603 678.998 486.902 677.917L468.895 695.925L471.517 698.547Z" fill="#F4BD00"/>
<path d="M467.449 694.481L485.731 676.199C484.591 674.603 483.375 673.1 482.088 671.702L463.379 690.411L467.449 694.481Z" fill="#F4BD00"/>
<path d="M465.941 660.61C456.398 656.996 446.181 657.461 438.015 662.764L438.002 662.743L432.154 666.809L432.572 667.412C426.775 673.86 428.827 687.498 429.638 696.913C447.608 678.943 459.755 666.796 465.941 660.61Z" fill="#C3690D"/>
<path d="M441.295 722.8C451.77 731.469 465.104 734.365 476.074 730.033L476.492 730.637L482.339 726.571L482.327 726.55C491.181 719.984 495.137 708.774 493.849 697.04C483.56 707.338 467.604 724.857 441.295 722.8Z" fill="#C3690D"/>
<path d="M480.925 680.182C468.616 662.468 446.743 656.372 432.07 666.568C417.396 676.764 415.48 699.39 427.789 717.104C440.098 734.819 461.971 740.914 476.645 730.719C491.318 720.523 493.234 697.897 480.925 680.182Z" fill="#FFDD00"/>
<path d="M474.962 684.327C484.508 698.07 483.022 715.618 471.643 723.526C460.26 731.439 443.295 726.71 433.749 712.966C424.202 699.223 425.688 681.675 437.067 673.767C448.442 665.855 465.411 670.579 474.962 684.327Z" fill="#D4860C"/>
<path d="M473.986 684.998C483.089 698.096 481.671 714.816 470.824 722.352C459.977 729.889 443.81 725.384 434.711 712.291C425.612 699.198 427.026 682.473 437.873 674.937C448.72 667.4 464.887 671.905 473.986 684.998Z" fill="#F0AA00"/>
<path d="M464.287 695.448C465.203 696.069 466.052 696.985 466.837 698.201C467.766 699.637 468.307 701.013 468.459 702.339C468.615 703.66 468.497 704.902 468.1 706.059C467.703 707.216 467.095 708.288 466.267 709.276C465.44 710.264 464.49 711.147 463.422 711.928L466.272 716.34L463.367 718.181L460.47 713.697C458.705 714.609 456.835 715.331 454.855 715.867C452.879 716.399 450.983 716.69 449.172 716.745L448.192 708.579C449.112 708.579 450.067 708.52 451.055 708.411C451.886 708.33 452.82 708.174 453.854 707.95C454.888 707.727 455.876 707.397 456.831 706.967L454.758 703.762C453.884 704.045 452.98 704.29 452.055 704.497C450.666 704.83 449.416 705.033 448.298 705.105C447.179 705.176 446.178 705.096 445.274 704.86C444.375 704.627 443.56 704.226 442.834 703.661C442.108 703.095 441.441 702.335 440.824 701.389C439.975 700.076 439.443 698.775 439.228 697.496C439.013 696.208 439.047 694.967 439.325 693.759C439.604 692.552 440.106 691.416 440.828 690.339C441.55 689.263 442.441 688.304 443.501 687.464L441.12 683.782L444.025 681.941L446.427 685.661C447.288 685.256 448.158 684.91 449.032 684.627C449.91 684.348 450.776 684.116 451.629 683.93C452.486 683.748 453.305 683.605 454.09 683.503C454.876 683.402 455.602 683.309 456.269 683.225L457.012 691.028C456.261 691.028 455.475 691.078 454.656 691.188C453.951 691.26 453.191 691.386 452.376 691.576C451.561 691.766 450.776 692.02 450.016 692.324L452.14 695.604C452.389 695.516 452.663 695.436 452.959 695.368C453.254 695.3 453.563 695.22 453.875 695.119C455.298 694.735 456.628 694.452 457.869 694.283C459.111 694.114 460.259 694.114 461.327 694.279C462.383 694.439 463.375 694.832 464.287 695.448ZM459.782 704.725C459.9 704.378 459.854 704.045 459.647 703.728C459.427 703.39 459.09 703.179 458.634 703.112C458.178 703.044 457.646 703.061 457.033 703.175L458.777 705.873C459.33 705.455 459.668 705.075 459.782 704.725ZM449.847 696.166L448.057 693.396C447.166 694.135 446.951 694.849 447.407 695.558C447.643 695.921 447.951 696.145 448.348 696.221C448.737 696.297 449.235 696.28 449.847 696.166Z" fill="#DA8100"/>
<path d="M463.486 694.933C464.403 695.554 465.251 696.47 466.037 697.686C466.966 699.122 467.506 700.498 467.658 701.824C467.814 703.145 467.696 704.387 467.299 705.544C466.902 706.7 466.294 707.773 465.467 708.761C464.639 709.749 463.689 710.631 462.621 711.413L465.471 715.825L462.566 717.666L459.669 713.182C457.905 714.094 456.034 714.816 454.054 715.352C452.078 715.884 450.182 716.175 448.371 716.23L447.391 708.064C448.312 708.064 449.266 708.005 450.254 707.895C451.086 707.815 452.019 707.659 453.053 707.435C454.088 707.211 455.076 706.882 456.03 706.451L453.957 703.247C453.083 703.53 452.179 703.774 451.255 703.981C449.865 704.315 448.616 704.518 447.497 704.589C446.378 704.661 445.377 704.581 444.474 704.344C443.574 704.112 442.759 703.711 442.033 703.145C441.307 702.58 440.64 701.82 440.023 700.874C439.175 699.561 438.643 698.26 438.427 696.981C438.212 695.693 438.246 694.452 438.524 693.244C438.803 692.037 439.306 690.901 440.028 689.824C440.75 688.748 441.64 687.789 442.7 686.949L440.319 683.267L443.224 681.426L445.626 685.146C446.488 684.741 447.357 684.394 448.231 684.111C449.11 683.833 449.975 683.601 450.828 683.415C451.685 683.233 452.504 683.09 453.29 682.988C454.075 682.887 454.801 682.794 455.468 682.71L456.211 690.512C455.46 690.512 454.675 690.563 453.855 690.673C453.15 690.745 452.39 690.871 451.575 691.061C450.761 691.251 449.975 691.505 449.215 691.809L451.339 695.089C451.588 695.001 451.863 694.92 452.158 694.853C452.454 694.785 452.762 694.705 453.074 694.604C454.497 694.22 455.827 693.937 457.069 693.768C458.31 693.599 459.458 693.599 460.527 693.764C461.586 693.92 462.574 694.308 463.486 694.933ZM458.985 704.205C459.104 703.859 459.057 703.525 458.85 703.209C458.631 702.871 458.293 702.66 457.837 702.592C457.381 702.525 456.849 702.542 456.237 702.656L457.981 705.354C458.534 704.936 458.867 704.551 458.985 704.205ZM449.046 695.651L447.256 692.881C446.365 693.62 446.15 694.334 446.606 695.043C446.842 695.406 447.151 695.63 447.547 695.706C447.936 695.782 448.434 695.765 449.046 695.651Z" fill="#FFDD00"/>
</g>
<g opacity="0.8">
<g opacity="0.5" filter="url(#filter2_f)">
<path d="M845.291 388.136C855.829 365.753 849.512 340.548 831.245 331.243L831.259 331.218L823.709 327.667L823.342 328.445C805.813 324.733 786.068 335.807 776.649 355.826C767.23 375.844 771.276 398.116 785.3 409.26L784.933 410.037L792.482 413.588L792.496 413.563C811.304 421.716 834.754 410.519 845.291 388.136Z" fill="#DA8100"/>
<path d="M819.75 366.846L818.626 371.042L848.61 379.076C848.988 377.664 849.311 376.244 849.565 374.835L819.75 366.846Z" fill="#F4BD00"/>
<path d="M814.567 386.189L842.308 393.622C843.088 392.361 843.821 391.059 844.507 389.715L815.691 381.994L814.567 386.189Z" fill="#F4BD00"/>
<path d="M816.311 379.683L845.566 387.522C846.517 385.43 847.33 383.316 847.993 381.191L818.057 373.17L816.311 379.683Z" fill="#F4BD00"/>
<path d="M849.787 358.312C847.864 346.515 841.409 336.421 831.246 331.244L831.26 331.218L823.71 327.668L823.343 328.445C813.407 326.34 800.774 336.41 791.697 342.747C820.451 350.451 839.889 355.66 849.787 358.312Z" fill="#C3690D"/>
<path d="M772.264 369.734C769.606 385.438 774.477 400.661 785.296 409.252L784.928 410.029L792.478 413.58L792.492 413.555C804.338 418.692 818.027 416.139 829.176 407.961C812.703 403.554 785.587 397.628 772.264 369.734Z" fill="#C3690D"/>
<path d="M838.707 384.977C849.468 362.115 842.84 336.355 823.903 327.442C804.966 318.528 780.891 329.835 770.13 352.698C759.368 375.56 765.996 401.319 784.933 410.233C803.87 419.147 827.946 407.839 838.707 384.977Z" fill="#FFDD00"/>
<path d="M831.011 381.356C822.661 399.089 803.989 407.859 789.302 400.948C774.608 394.034 769.469 374.054 777.82 356.321C786.17 338.587 804.842 329.817 819.529 336.729C834.218 343.633 839.364 363.615 831.011 381.356Z" fill="#D4860C"/>
<path d="M829.758 380.759C821.803 397.665 804.011 406.019 790.012 399.429C776.013 392.84 771.115 373.8 779.068 356.901C787.021 340.002 804.816 331.642 818.814 338.232C832.813 344.821 837.711 363.86 829.758 380.759Z" fill="#F0AA00"/>
<path d="M813.478 377.041C813.385 378.334 812.952 379.732 812.179 381.24C811.266 383.024 810.187 384.378 808.931 385.309C807.681 386.241 806.353 386.848 804.947 387.123C803.541 387.398 802.097 387.41 800.61 387.149C799.123 386.888 797.671 386.441 796.253 385.815L793.446 391.29L789.878 389.422L792.73 383.857C790.771 382.601 788.943 381.126 787.239 379.431C785.542 377.738 784.136 375.986 783.02 374.181L790.73 368.404C791.269 369.338 791.888 370.271 792.578 371.209C793.146 372.006 793.851 372.861 794.684 373.78C795.517 374.698 796.43 375.507 797.426 376.223L799.462 372.243C798.664 371.522 797.886 370.749 797.135 369.932C795.983 368.718 795.045 367.569 794.317 366.476C793.589 365.383 793.084 364.321 792.795 363.266C792.503 362.217 792.433 361.156 792.582 360.088C792.73 359.02 793.111 357.898 793.709 356.718C794.544 355.088 795.552 353.787 796.723 352.819C797.904 351.847 799.183 351.154 800.571 350.729C801.959 350.305 803.406 350.149 804.921 350.251C806.436 350.353 807.93 350.695 809.403 351.278L811.743 346.706L815.312 348.575L812.946 353.191C813.861 353.827 814.722 354.507 815.521 355.228C816.318 355.955 817.06 356.697 817.748 357.454C818.435 358.217 819.06 358.964 819.623 359.701C820.186 360.438 820.705 361.121 821.182 361.748L813.701 367.072C813.261 366.309 812.75 365.542 812.159 364.776C811.673 364.103 811.099 363.406 810.429 362.69C809.759 361.975 809.042 361.327 808.289 360.734L806.205 364.81C806.44 365.01 806.682 365.242 806.924 365.502C807.166 365.762 807.428 366.028 807.713 366.286C808.937 367.504 810.003 368.688 810.901 369.848C811.799 371.008 812.472 372.173 812.931 373.353C813.386 374.518 813.569 375.755 813.478 377.041ZM801.429 377.904C801.849 377.821 802.16 377.579 802.36 377.183C802.574 376.763 802.591 376.296 802.392 375.794C802.194 375.292 801.865 374.762 801.391 374.208L799.675 377.557C800.423 377.873 801.006 377.993 801.429 377.904ZM804.292 362.813L806.053 359.374C804.782 358.903 803.932 359.103 803.479 359.981C803.25 360.433 803.203 360.877 803.358 361.324C803.509 361.763 803.818 362.258 804.292 362.813Z" fill="#DA8100"/>
<path d="M813.53 375.926C813.437 377.219 813.005 378.616 812.231 380.125C811.319 381.908 810.239 383.263 808.983 384.194C807.734 385.126 806.406 385.733 805 386.008C803.594 386.283 802.149 386.294 800.663 386.034C799.176 385.773 797.724 385.326 796.306 384.7L793.499 390.175L789.93 388.306L792.783 382.742C790.824 381.486 788.996 380.011 787.292 378.316C785.595 376.623 784.189 374.871 783.073 373.065L790.783 367.289C791.322 368.223 791.941 369.156 792.631 370.094C793.199 370.891 793.904 371.746 794.737 372.664C795.57 373.583 796.483 374.392 797.478 375.108L799.515 371.128C798.716 370.407 797.939 369.634 797.187 368.817C796.035 367.603 795.098 366.454 794.37 365.361C793.641 364.268 793.137 363.206 792.847 362.151C792.556 361.102 792.486 360.041 792.634 358.972C792.783 357.904 793.163 356.783 793.762 355.603C794.597 353.973 795.604 352.672 796.776 351.704C797.956 350.731 799.235 350.039 800.624 349.614C802.012 349.19 803.458 349.034 804.973 349.136C806.489 349.238 807.983 349.58 809.456 350.163L811.796 345.591L815.365 347.46L812.998 352.075C813.914 352.712 814.775 353.391 815.574 354.112C816.371 354.84 817.113 355.582 817.801 356.338C818.487 357.102 819.113 357.849 819.676 358.586C820.238 359.323 820.758 360.005 821.234 360.633L813.754 365.957C813.314 365.194 812.803 364.427 812.211 363.661C811.726 362.987 811.152 362.29 810.482 361.575C809.812 360.86 809.095 360.211 808.341 359.618L806.257 363.694C806.493 363.895 806.735 364.127 806.977 364.387C807.218 364.647 807.48 364.913 807.766 365.17C808.989 366.389 810.055 367.572 810.954 368.733C811.852 369.893 812.525 371.058 812.983 372.238C813.446 373.405 813.63 374.635 813.53 375.926ZM801.488 376.79C801.909 376.708 802.22 376.465 802.42 376.07C802.634 375.649 802.65 375.183 802.452 374.681C802.253 374.179 801.924 373.649 801.45 373.094L799.735 376.444C800.483 376.76 801.068 376.873 801.488 376.79ZM804.345 361.698L806.106 358.259C804.835 357.788 803.985 357.988 803.532 358.866C803.302 359.318 803.256 359.762 803.411 360.209C803.562 360.648 803.871 361.143 804.345 361.698Z" fill="#FFDD00"/>
</g>
<g opacity="0.7">
<path d="M845.291 388.136C855.829 365.753 849.512 340.548 831.245 331.243L831.259 331.218L823.709 327.667L823.342 328.445C805.813 324.733 786.068 335.807 776.649 355.826C767.23 375.844 771.276 398.116 785.3 409.26L784.933 410.037L792.482 413.588L792.496 413.563C811.304 421.716 834.754 410.519 845.291 388.136Z" fill="#DA8100"/>
<path d="M819.75 366.846L818.626 371.042L848.61 379.076C848.988 377.664 849.311 376.244 849.565 374.835L819.75 366.846Z" fill="#F4BD00"/>
<path d="M814.567 386.189L842.308 393.622C843.088 392.361 843.821 391.059 844.507 389.715L815.691 381.994L814.567 386.189Z" fill="#F4BD00"/>
<path d="M816.311 379.683L845.566 387.522C846.517 385.43 847.33 383.316 847.993 381.191L818.057 373.17L816.311 379.683Z" fill="#F4BD00"/>
<path d="M849.787 358.312C847.864 346.515 841.409 336.421 831.246 331.244L831.26 331.218L823.71 327.668L823.343 328.445C813.407 326.34 800.774 336.41 791.697 342.747C820.451 350.451 839.889 355.66 849.787 358.312Z" fill="#C3690D"/>
<path d="M772.264 369.734C769.606 385.438 774.477 400.661 785.296 409.252L784.928 410.029L792.478 413.58L792.492 413.555C804.338 418.692 818.027 416.139 829.176 407.961C812.703 403.554 785.587 397.628 772.264 369.734Z" fill="#C3690D"/>
<path d="M838.707 384.977C849.468 362.115 842.84 336.355 823.903 327.442C804.966 318.528 780.891 329.835 770.13 352.698C759.368 375.56 765.996 401.319 784.933 410.233C803.87 419.147 827.946 407.839 838.707 384.977Z" fill="#FFDD00"/>
<path d="M831.011 381.356C822.661 399.089 803.989 407.859 789.302 400.948C774.608 394.034 769.469 374.054 777.82 356.321C786.17 338.587 804.842 329.817 819.529 336.729C834.218 343.633 839.364 363.615 831.011 381.356Z" fill="#D4860C"/>
<path d="M829.758 380.759C821.803 397.665 804.011 406.019 790.012 399.429C776.013 392.84 771.115 373.8 779.068 356.901C787.021 340.002 804.816 331.642 818.814 338.232C832.813 344.821 837.711 363.86 829.758 380.759Z" fill="#F0AA00"/>
<path d="M813.478 377.041C813.385 378.334 812.952 379.732 812.179 381.24C811.266 383.024 810.187 384.378 808.931 385.309C807.681 386.241 806.353 386.848 804.947 387.123C803.541 387.398 802.097 387.41 800.61 387.149C799.123 386.888 797.671 386.441 796.253 385.815L793.446 391.29L789.878 389.422L792.73 383.857C790.771 382.601 788.943 381.126 787.239 379.431C785.542 377.738 784.136 375.986 783.02 374.181L790.73 368.404C791.269 369.338 791.888 370.271 792.578 371.209C793.146 372.006 793.851 372.861 794.684 373.78C795.517 374.698 796.43 375.507 797.426 376.223L799.462 372.243C798.664 371.522 797.886 370.749 797.135 369.932C795.983 368.718 795.045 367.569 794.317 366.476C793.589 365.383 793.084 364.321 792.795 363.266C792.503 362.217 792.433 361.156 792.582 360.088C792.73 359.02 793.111 357.898 793.709 356.718C794.544 355.088 795.552 353.787 796.723 352.819C797.904 351.847 799.183 351.154 800.571 350.729C801.959 350.305 803.406 350.149 804.921 350.251C806.436 350.353 807.93 350.695 809.403 351.278L811.743 346.706L815.312 348.575L812.946 353.191C813.861 353.827 814.722 354.507 815.521 355.228C816.318 355.955 817.06 356.697 817.748 357.454C818.435 358.217 819.06 358.964 819.623 359.701C820.186 360.438 820.705 361.121 821.182 361.748L813.701 367.072C813.261 366.309 812.75 365.542 812.159 364.776C811.673 364.103 811.099 363.406 810.429 362.69C809.759 361.975 809.042 361.327 808.289 360.734L806.205 364.81C806.44 365.01 806.682 365.242 806.924 365.502C807.166 365.762 807.428 366.028 807.713 366.286C808.937 367.504 810.003 368.688 810.901 369.848C811.799 371.008 812.472 372.173 812.931 373.353C813.386 374.518 813.569 375.755 813.478 377.041ZM801.429 377.904C801.849 377.821 802.16 377.579 802.36 377.183C802.574 376.763 802.591 376.296 802.392 375.794C802.194 375.292 801.865 374.762 801.391 374.208L799.675 377.557C800.423 377.873 801.006 377.993 801.429 377.904ZM804.292 362.813L806.053 359.374C804.782 358.903 803.932 359.103 803.479 359.981C803.25 360.433 803.203 360.877 803.358 361.324C803.509 361.763 803.818 362.258 804.292 362.813Z" fill="#DA8100"/>
<path d="M813.53 375.926C813.437 377.219 813.005 378.616 812.231 380.125C811.319 381.908 810.239 383.263 808.983 384.194C807.734 385.126 806.406 385.733 805 386.008C803.594 386.283 802.149 386.294 800.663 386.034C799.176 385.773 797.724 385.326 796.306 384.7L793.499 390.175L789.93 388.306L792.783 382.742C790.824 381.486 788.996 380.011 787.292 378.316C785.595 376.623 784.189 374.871 783.073 373.065L790.783 367.289C791.322 368.223 791.941 369.156 792.631 370.094C793.199 370.891 793.904 371.746 794.737 372.664C795.57 373.583 796.483 374.392 797.478 375.108L799.515 371.128C798.716 370.407 797.939 369.634 797.187 368.817C796.035 367.603 795.098 366.454 794.37 365.361C793.641 364.268 793.137 363.206 792.847 362.151C792.556 361.102 792.486 360.041 792.634 358.972C792.783 357.904 793.163 356.783 793.762 355.603C794.597 353.973 795.604 352.672 796.776 351.704C797.956 350.731 799.235 350.039 800.624 349.614C802.012 349.19 803.458 349.034 804.973 349.136C806.489 349.238 807.983 349.58 809.456 350.163L811.796 345.591L815.365 347.46L812.998 352.075C813.914 352.712 814.775 353.391 815.574 354.112C816.371 354.84 817.113 355.582 817.801 356.338C818.487 357.102 819.113 357.849 819.676 358.586C820.238 359.323 820.758 360.005 821.234 360.633L813.754 365.957C813.314 365.194 812.803 364.427 812.211 363.661C811.726 362.987 811.152 362.29 810.482 361.575C809.812 360.86 809.095 360.211 808.341 359.618L806.257 363.694C806.493 363.895 806.735 364.127 806.977 364.387C807.218 364.647 807.48 364.913 807.766 365.17C808.989 366.389 810.055 367.572 810.954 368.733C811.852 369.893 812.525 371.058 812.983 372.238C813.446 373.405 813.63 374.635 813.53 375.926ZM801.488 376.79C801.909 376.708 802.22 376.465 802.42 376.07C802.634 375.649 802.65 375.183 802.452 374.681C802.253 374.179 801.924 373.649 801.45 373.094L799.735 376.444C800.483 376.76 801.068 376.873 801.488 376.79ZM804.345 361.698L806.106 358.259C804.835 357.788 803.985 357.988 803.532 358.866C803.302 359.318 803.256 359.762 803.411 360.209C803.562 360.648 803.871 361.143 804.345 361.698Z" fill="#FFDD00"/>
</g>
</g>
<g opacity="0.5">
<g opacity="0.5" filter="url(#filter3_f)">
<path d="M102.285 282.011C90.7781 265.448 70.4089 259.634 56.3939 268.738L56.3818 268.718L50.7976 272.601L51.1968 273.177C41.4315 284.039 41.2017 302.493 51.4951 317.303C61.7886 332.112 79.1621 338.333 92.7457 332.975L93.1448 333.551L98.729 329.669L98.7169 329.648C112.139 319.694 113.792 298.574 102.285 282.011Z" fill="#DA8100"/>
<path d="M76.8438 291.365L79.3476 293.869L97.2412 275.975C96.3985 275.133 95.5276 274.326 94.6366 273.572L76.8438 291.365Z" fill="#F4BD00"/>
<path d="M88.3866 302.909L104.942 286.354C104.369 285.289 103.748 284.241 103.079 283.209L85.8828 300.405L88.3866 302.909Z" fill="#F4BD00"/>
<path d="M84.504 299.026L101.962 281.568C100.874 280.044 99.7123 278.608 98.4826 277.274L80.6172 295.139L84.504 299.026Z" fill="#F4BD00"/>
<path d="M83.0594 266.681C73.9472 263.23 64.19 263.673 56.3923 268.737L56.3802 268.717L50.796 272.6L51.1951 273.177C45.6593 279.333 47.6188 292.356 48.393 301.348C65.5528 284.188 77.1526 272.588 83.0594 266.681Z" fill="#C3690D"/>
<path d="M59.5254 326.067C69.5286 334.345 82.2614 337.111 92.7363 332.974L93.1354 333.551L98.7196 329.668L98.7075 329.648C107.162 323.378 110.94 312.673 109.711 301.469C99.8849 311.303 84.6483 328.031 59.5254 326.067Z" fill="#C3690D"/>
<path d="M97.3707 285.371C85.6165 268.455 64.729 262.635 50.7172 272.371C36.7053 282.107 34.8751 303.713 46.6293 320.629C58.3835 337.545 79.2709 343.366 93.2828 333.629C107.295 323.893 109.125 302.287 97.3707 285.371Z" fill="#FFDD00"/>
<path d="M91.6763 289.329C100.792 302.453 99.3732 319.209 88.5072 326.761C77.6372 334.317 61.4369 329.801 52.3208 316.677C43.2046 303.554 44.6238 286.797 55.4898 279.245C66.3518 271.689 82.5561 276.201 91.6763 289.329Z" fill="#D4860C"/>
<path d="M90.7454 289.97C99.4382 302.477 98.0835 318.443 87.7255 325.64C77.3675 332.837 61.9293 328.535 53.2405 316.032C44.5518 303.529 45.9024 287.559 56.2604 280.362C66.6184 273.165 82.0566 277.467 90.7454 289.97Z" fill="#F0AA00"/>
<path d="M81.4841 299.949C82.359 300.542 83.1694 301.417 83.9193 302.578C84.8064 303.949 85.3224 305.263 85.4676 306.529C85.6168 307.791 85.5039 308.977 85.1249 310.081C84.7459 311.186 84.1653 312.21 83.375 313.154C82.5848 314.097 81.6776 314.94 80.6575 315.686L83.3791 319.899L80.6051 321.657L77.8392 317.375C76.1539 318.246 74.3677 318.935 72.4768 319.447C70.5898 319.956 68.7795 320.234 67.0498 320.286L66.1144 312.488C66.9934 312.488 67.9046 312.432 68.848 312.327C69.6423 312.251 70.5334 312.101 71.5212 311.888C72.509 311.674 73.4525 311.359 74.3637 310.948L72.384 307.888C71.5494 308.158 70.6866 308.392 69.8036 308.59C68.4771 308.908 67.2837 309.102 66.2152 309.17C65.1467 309.239 64.1912 309.162 63.3283 308.936C62.4696 308.715 61.6914 308.332 60.9979 307.791C60.3044 307.251 59.6674 306.525 59.0787 305.622C58.2683 304.368 57.7603 303.126 57.5546 301.905C57.349 300.675 57.3813 299.49 57.6474 298.336C57.9135 297.183 58.3933 296.099 59.0827 295.071C59.7722 294.042 60.6229 293.127 61.6349 292.325L59.3609 288.809L62.1349 287.051L64.4291 290.603C65.2516 290.216 66.0821 289.886 66.9168 289.615C67.7554 289.349 68.5819 289.128 69.3964 288.95C70.2149 288.777 70.997 288.64 71.747 288.543C72.4969 288.446 73.1904 288.357 73.8274 288.277L74.5371 295.728C73.8194 295.728 73.0695 295.776 72.2873 295.881C71.6139 295.949 70.8882 296.07 70.11 296.252C69.3319 296.433 68.5819 296.675 67.8562 296.966L69.8842 300.098C70.1221 300.014 70.3842 299.937 70.6664 299.873C70.9487 299.808 71.243 299.731 71.5414 299.635C72.9001 299.268 74.1702 298.998 75.3555 298.836C76.5409 298.675 77.6376 298.675 78.6577 298.832C79.6657 298.986 80.6132 299.36 81.4841 299.949ZM77.182 308.807C77.2949 308.477 77.2506 308.158 77.053 307.856C76.8433 307.533 76.5208 307.332 76.0853 307.267C75.6499 307.203 75.1419 307.219 74.5572 307.328L76.2224 309.904C76.7506 309.505 77.0731 309.142 77.182 308.807ZM67.6949 300.635L65.9854 297.99C65.1346 298.695 64.929 299.377 65.3645 300.054C65.5902 300.401 65.8846 300.614 66.2636 300.687C66.6345 300.76 67.1103 300.743 67.6949 300.635Z" fill="#DA8100"/>
<path d="M80.7184 299.457C81.5934 300.05 82.4038 300.925 83.1537 302.086C84.0407 303.457 84.5568 304.771 84.702 306.037C84.8512 307.299 84.7383 308.484 84.3593 309.589C83.9803 310.694 83.3997 311.718 82.6094 312.661C81.8191 313.605 80.912 314.448 79.8919 315.194L82.6134 319.407L79.8395 321.165L77.0736 316.883C75.3882 317.754 73.6021 318.443 71.7111 318.955C69.8242 319.463 68.0139 319.742 66.2842 319.794L65.3488 311.996C66.2277 311.996 67.139 311.94 68.0824 311.835C68.8767 311.758 69.7678 311.609 70.7556 311.395C71.7434 311.182 72.6869 310.867 73.5981 310.456L71.6184 307.396C70.7838 307.666 69.921 307.9 69.038 308.097C67.7115 308.416 66.518 308.609 65.4496 308.678C64.3811 308.747 63.4256 308.67 62.5627 308.444C61.7039 308.222 60.9258 307.839 60.2323 307.299C59.5388 306.759 58.9017 306.033 58.3131 305.13C57.5027 303.876 56.9946 302.634 56.789 301.412C56.5834 300.183 56.6157 298.997 56.8818 297.844C57.1479 296.691 57.6277 295.606 58.3171 294.578C59.0066 293.55 59.8573 292.635 60.8693 291.833L58.5953 288.317L61.3693 286.559L63.6634 290.111C64.4859 289.724 65.3165 289.393 66.1511 289.123C66.9898 288.857 67.8163 288.635 68.6308 288.458C69.4492 288.285 70.2314 288.147 70.9814 288.051C71.7313 287.954 72.4248 287.865 73.0618 287.785L73.7715 295.236C73.0538 295.236 72.3038 295.284 71.5216 295.389C70.8483 295.457 70.1226 295.578 69.3444 295.76C68.5662 295.941 67.8163 296.183 67.0906 296.473L69.1186 299.606C69.3565 299.521 69.6186 299.445 69.9008 299.38C70.183 299.316 70.4774 299.239 70.7757 299.142C72.1345 298.776 73.4045 298.505 74.5899 298.344C75.7753 298.183 76.872 298.183 77.8921 298.34C78.9041 298.489 79.8475 298.86 80.7184 299.457ZM76.4204 308.311C76.5333 307.98 76.489 307.662 76.2914 307.36C76.0817 307.037 75.7592 306.835 75.3237 306.771C74.8883 306.706 74.3803 306.722 73.7956 306.831L75.4608 309.408C75.989 309.009 76.3075 308.642 76.4204 308.311ZM66.9293 300.142L65.2198 297.497C64.369 298.203 64.1634 298.884 64.5988 299.562C64.8246 299.909 65.119 300.122 65.498 300.195C65.8689 300.267 66.3447 300.251 66.9293 300.142Z" fill="#FFDD00"/>
</g>
<g opacity="0.7">
<path d="M102.285 282.011C90.7781 265.448 70.4089 259.634 56.3939 268.738L56.3818 268.718L50.7976 272.601L51.1968 273.177C41.4315 284.039 41.2017 302.493 51.4951 317.303C61.7886 332.112 79.1621 338.333 92.7457 332.975L93.1448 333.551L98.729 329.669L98.7169 329.648C112.139 319.694 113.792 298.574 102.285 282.011Z" fill="#DA8100"/>
<path d="M76.8438 291.365L79.3476 293.869L97.2412 275.975C96.3985 275.133 95.5276 274.326 94.6366 273.572L76.8438 291.365Z" fill="#F4BD00"/>
<path d="M88.3866 302.909L104.942 286.354C104.369 285.289 103.748 284.241 103.079 283.209L85.8828 300.405L88.3866 302.909Z" fill="#F4BD00"/>
<path d="M84.504 299.026L101.962 281.568C100.874 280.044 99.7123 278.608 98.4826 277.274L80.6172 295.139L84.504 299.026Z" fill="#F4BD00"/>
<path d="M83.0594 266.681C73.9472 263.23 64.19 263.673 56.3923 268.737L56.3802 268.717L50.796 272.6L51.1951 273.177C45.6593 279.333 47.6188 292.356 48.393 301.348C65.5528 284.188 77.1526 272.588 83.0594 266.681Z" fill="#C3690D"/>
<path d="M59.5254 326.067C69.5286 334.345 82.2614 337.111 92.7363 332.974L93.1354 333.551L98.7196 329.668L98.7075 329.648C107.162 323.378 110.94 312.673 109.711 301.469C99.8849 311.303 84.6483 328.031 59.5254 326.067Z" fill="#C3690D"/>
<path d="M97.3707 285.371C85.6165 268.455 64.729 262.635 50.7172 272.371C36.7053 282.107 34.8751 303.713 46.6293 320.629C58.3835 337.545 79.2709 343.366 93.2828 333.629C107.295 323.893 109.125 302.287 97.3707 285.371Z" fill="#FFDD00"/>
<path d="M91.6763 289.329C100.792 302.453 99.3732 319.209 88.5072 326.761C77.6372 334.317 61.4369 329.801 52.3208 316.677C43.2046 303.554 44.6238 286.797 55.4898 279.245C66.3518 271.689 82.5561 276.201 91.6763 289.329Z" fill="#D4860C"/>
<path d="M90.7454 289.97C99.4382 302.477 98.0835 318.443 87.7255 325.64C77.3675 332.837 61.9293 328.535 53.2405 316.032C44.5518 303.529 45.9024 287.559 56.2604 280.362C66.6184 273.165 82.0566 277.467 90.7454 289.97Z" fill="#F0AA00"/>
<path d="M81.4841 299.949C82.359 300.542 83.1694 301.417 83.9193 302.578C84.8064 303.949 85.3224 305.263 85.4676 306.529C85.6168 307.791 85.5039 308.977 85.1249 310.081C84.7459 311.186 84.1653 312.21 83.375 313.154C82.5848 314.097 81.6776 314.94 80.6575 315.686L83.3791 319.899L80.6051 321.657L77.8392 317.375C76.1539 318.246 74.3677 318.935 72.4768 319.447C70.5898 319.956 68.7795 320.234 67.0498 320.286L66.1144 312.488C66.9934 312.488 67.9046 312.432 68.848 312.327C69.6423 312.251 70.5334 312.101 71.5212 311.888C72.509 311.674 73.4525 311.359 74.3637 310.948L72.384 307.888C71.5494 308.158 70.6866 308.392 69.8036 308.59C68.4771 308.908 67.2837 309.102 66.2152 309.17C65.1467 309.239 64.1912 309.162 63.3283 308.936C62.4696 308.715 61.6914 308.332 60.9979 307.791C60.3044 307.251 59.6674 306.525 59.0787 305.622C58.2683 304.368 57.7603 303.126 57.5546 301.905C57.349 300.675 57.3813 299.49 57.6474 298.336C57.9135 297.183 58.3933 296.099 59.0827 295.071C59.7722 294.042 60.6229 293.127 61.6349 292.325L59.3609 288.809L62.1349 287.051L64.4291 290.603C65.2516 290.216 66.0821 289.886 66.9168 289.615C67.7554 289.349 68.5819 289.128 69.3964 288.95C70.2149 288.777 70.997 288.64 71.747 288.543C72.4969 288.446 73.1904 288.357 73.8274 288.277L74.5371 295.728C73.8194 295.728 73.0695 295.776 72.2873 295.881C71.6139 295.949 70.8882 296.07 70.11 296.252C69.3319 296.433 68.5819 296.675 67.8562 296.966L69.8842 300.098C70.1221 300.014 70.3842 299.937 70.6664 299.873C70.9487 299.808 71.243 299.731 71.5414 299.635C72.9001 299.268 74.1702 298.998 75.3555 298.836C76.5409 298.675 77.6376 298.675 78.6577 298.832C79.6657 298.986 80.6132 299.36 81.4841 299.949ZM77.182 308.807C77.2949 308.477 77.2506 308.158 77.053 307.856C76.8433 307.533 76.5208 307.332 76.0853 307.267C75.6499 307.203 75.1419 307.219 74.5572 307.328L76.2224 309.904C76.7506 309.505 77.0731 309.142 77.182 308.807ZM67.6949 300.635L65.9854 297.99C65.1346 298.695 64.929 299.377 65.3645 300.054C65.5902 300.401 65.8846 300.614 66.2636 300.687C66.6345 300.76 67.1103 300.743 67.6949 300.635Z" fill="#DA8100"/>
<path d="M80.7184 299.457C81.5934 300.05 82.4038 300.925 83.1537 302.086C84.0407 303.457 84.5568 304.771 84.702 306.037C84.8512 307.299 84.7383 308.484 84.3593 309.589C83.9803 310.694 83.3997 311.718 82.6094 312.661C81.8191 313.605 80.912 314.448 79.8919 315.194L82.6134 319.407L79.8395 321.165L77.0736 316.883C75.3882 317.754 73.6021 318.443 71.7111 318.955C69.8242 319.463 68.0139 319.742 66.2842 319.794L65.3488 311.996C66.2277 311.996 67.139 311.94 68.0824 311.835C68.8767 311.758 69.7678 311.609 70.7556 311.395C71.7434 311.182 72.6869 310.867 73.5981 310.456L71.6184 307.396C70.7838 307.666 69.921 307.9 69.038 308.097C67.7115 308.416 66.518 308.609 65.4496 308.678C64.3811 308.747 63.4256 308.67 62.5627 308.444C61.7039 308.222 60.9258 307.839 60.2323 307.299C59.5388 306.759 58.9017 306.033 58.3131 305.13C57.5027 303.876 56.9946 302.634 56.789 301.412C56.5834 300.183 56.6157 298.997 56.8818 297.844C57.1479 296.691 57.6277 295.606 58.3171 294.578C59.0066 293.55 59.8573 292.635 60.8693 291.833L58.5953 288.317L61.3693 286.559L63.6634 290.111C64.4859 289.724 65.3165 289.393 66.1511 289.123C66.9898 288.857 67.8163 288.635 68.6308 288.458C69.4492 288.285 70.2314 288.147 70.9814 288.051C71.7313 287.954 72.4248 287.865 73.0618 287.785L73.7715 295.236C73.0538 295.236 72.3038 295.284 71.5216 295.389C70.8483 295.457 70.1226 295.578 69.3444 295.76C68.5662 295.941 67.8163 296.183 67.0906 296.473L69.1186 299.606C69.3565 299.521 69.6186 299.445 69.9008 299.38C70.183 299.316 70.4774 299.239 70.7757 299.142C72.1345 298.776 73.4045 298.505 74.5899 298.344C75.7753 298.183 76.872 298.183 77.8921 298.34C78.9041 298.489 79.8475 298.86 80.7184 299.457ZM76.4204 308.311C76.5333 307.98 76.489 307.662 76.2914 307.36C76.0817 307.037 75.7592 306.835 75.3237 306.771C74.8883 306.706 74.3803 306.722 73.7956 306.831L75.4608 309.408C75.989 309.009 76.3075 308.642 76.4204 308.311ZM66.9293 300.142L65.2198 297.497C64.369 298.203 64.1634 298.884 64.5988 299.562C64.8246 299.909 65.119 300.122 65.498 300.195C65.8689 300.267 66.3447 300.251 66.9293 300.142Z" fill="#FFDD00"/>
</g>
</g>
<g opacity="0.8">
<g opacity="0.5" filter="url(#filter4_f)">
<path d="M590.656 88.6684C588.624 64.4107 570.841 46.0407 550.697 47.0991L550.696 47.0707L542.516 47.7592L542.585 48.6028C525.823 54.0633 514.446 73.2144 516.268 94.9063C518.09 116.598 532.496 133.586 549.928 136.183L549.998 137.026L558.178 136.338L558.177 136.309C578.215 134.004 592.688 112.926 590.656 88.6684Z" fill="#DA8100"/>
<path d="M558.416 83.0923L559.522 87.2205L589.025 79.3153C588.653 77.9259 588.229 76.5575 587.753 75.2316L558.416 83.0923Z" fill="#F4BD00"/>
<path d="M563.516 102.125L590.812 94.811C590.856 93.3528 590.839 91.8823 590.763 90.3995L562.41 97.9966L563.516 102.125Z" fill="#F4BD00"/>
<path d="M561.801 95.7229L590.586 88.01C590.368 85.76 590.02 83.5588 589.54 81.4217L560.084 89.3145L561.801 95.7229Z" fill="#F4BD00"/>
<path d="M579.813 61.0431C572.371 51.9363 561.904 46.5115 550.697 47.099L550.696 47.0706L542.516 47.7591L542.585 48.6027C533.083 51.6974 527.272 66.4928 522.655 76.3583C550.948 68.7773 570.074 63.6526 579.813 61.0431Z" fill="#C3690D"/>
<path d="M519.373 108.916C524.834 123.605 536.474 134.18 549.92 136.178L549.989 137.021L558.169 136.333L558.169 136.304C570.79 134.853 581.2 125.944 586.676 113.489C570.471 117.839 544.449 126.13 519.373 108.916Z" fill="#C3690D"/>
<path d="M583.491 89.2155C581.413 64.4398 563.092 45.7502 542.57 47.4711C522.048 49.1921 507.096 70.6719 509.174 95.4477C511.251 120.223 529.572 138.913 550.094 137.192C570.616 135.471 585.568 113.991 583.491 89.2155Z" fill="#FFDD00"/>
<path d="M575.151 89.9156C576.76 109.135 565.164 125.794 549.248 127.13C533.326 128.468 519.117 113.971 517.509 94.7516C515.9 75.5319 527.496 58.8729 543.411 57.5368C559.325 56.1939 573.54 70.6892 575.151 89.9156Z" fill="#D4860C"/>
<path d="M573.79 90.0239C575.328 108.343 564.277 124.215 549.106 125.487C533.936 126.759 520.395 112.945 518.858 94.6324C517.321 76.3196 528.371 60.4411 543.541 59.1693C558.712 57.8974 572.253 71.7111 573.79 90.0239Z" fill="#F0AA00"/>
<path d="M558.087 94.8657C558.644 96.0132 558.963 97.4168 559.046 99.0832C559.146 101.051 558.892 102.737 558.28 104.148C557.674 105.557 556.841 106.728 555.778 107.654C554.715 108.58 553.49 109.3 552.095 109.809C550.699 110.319 549.242 110.652 547.726 110.816L548.028 116.863L544.068 117.026L543.761 110.881C541.473 110.774 539.19 110.417 536.905 109.811C534.626 109.203 532.565 108.402 530.726 107.413L534.454 98.6972C535.373 99.2277 536.359 99.7186 537.409 100.178C538.285 100.578 539.307 100.959 540.468 101.332C541.63 101.705 542.806 101.946 544.006 102.066L543.784 97.6722C542.748 97.4509 541.705 97.1746 540.663 96.8482C539.084 96.3806 537.72 95.8627 536.562 95.2895C535.404 94.7164 534.451 94.0596 533.685 93.3029C532.922 92.5528 532.339 91.6828 531.94 90.6996C531.542 89.7163 531.314 88.5732 531.243 87.2739C531.153 85.4741 531.371 83.8695 531.894 82.4684C532.421 81.0589 533.17 79.8393 534.144 78.7945C535.118 77.7498 536.274 76.9056 537.615 76.247C538.957 75.5884 540.398 75.1451 541.94 74.9172L541.685 69.8698L545.646 69.7064L545.9 74.8038C546.993 74.8956 548.061 75.0513 549.096 75.2726C550.134 75.5006 551.131 75.7676 552.09 76.0737C553.05 76.3864 553.95 76.7151 554.793 77.0666C555.635 77.418 556.413 77.7438 557.128 78.044L553.373 86.2606C552.623 85.8275 551.81 85.4255 550.929 85.063C550.184 84.7283 549.352 84.4168 548.429 84.1368C547.506 83.8568 546.576 83.6571 545.643 83.5226L545.872 88.0212C546.172 88.0762 546.492 88.1543 546.826 88.2572C547.16 88.3601 547.514 88.4576 547.884 88.5366C549.526 88.973 551.016 89.4571 552.353 90.0039C553.689 90.5507 554.835 91.2126 555.807 91.9925C556.768 92.761 557.532 93.7248 558.087 94.8657ZM548.244 101.529C548.562 101.251 548.708 100.891 548.684 100.456C548.659 99.9925 548.444 99.5871 548.027 99.2569C547.611 98.9266 547.07 98.6369 546.394 98.3979L546.579 102.096C547.372 101.997 547.929 101.813 548.244 101.529ZM543.26 87.2604L543.069 83.464C541.754 83.6882 541.128 84.2763 541.174 85.2471C541.201 85.7458 541.38 86.1468 541.732 86.4514C542.076 86.7511 542.583 87.0214 543.26 87.2604Z" fill="#DA8100"/>
<path d="M557.583 93.8891C558.14 95.0366 558.459 96.4403 558.542 98.1066C558.642 100.075 558.388 101.76 557.776 103.171C557.17 104.58 556.337 105.751 555.274 106.677C554.211 107.603 552.986 108.324 551.591 108.833C550.195 109.342 548.739 109.675 547.222 109.839L547.524 115.886L543.564 116.05L543.257 109.905C540.969 109.798 538.686 109.441 536.401 108.835C534.122 108.227 532.062 107.425 530.222 106.436L533.95 97.7207C534.869 98.2511 535.855 98.742 536.905 99.2018C537.781 99.6011 538.803 99.9829 539.964 100.356C541.126 100.728 542.302 100.969 543.502 101.089L543.28 96.6956C542.244 96.4743 541.201 96.1981 540.159 95.8717C538.58 95.4041 537.216 94.8861 536.058 94.313C534.9 93.7398 533.947 93.0831 533.181 92.3263C532.418 91.5763 531.835 90.7063 531.437 89.723C531.038 88.7397 530.81 87.5967 530.74 86.2974C530.649 84.4976 530.868 82.8929 531.39 81.4918C531.917 80.0823 532.666 78.8627 533.64 77.818C534.614 76.7732 535.77 75.9291 537.112 75.2705C538.453 74.6118 539.894 74.1686 541.436 73.9406L541.181 68.8932L545.142 68.7298L545.396 73.8273C546.489 73.9191 547.557 74.0747 548.592 74.296C549.63 74.524 550.627 74.791 551.586 75.0971C552.546 75.4098 553.446 75.7386 554.289 76.09C555.131 76.4414 555.909 76.7672 556.624 77.0674L552.869 85.2841C552.119 84.8509 551.306 84.4489 550.425 84.0864C549.68 83.7517 548.848 83.4402 547.925 83.1602C547.002 82.8803 546.072 82.6806 545.139 82.546L545.368 87.0446C545.668 87.0997 545.988 87.1777 546.322 87.2806C546.656 87.3835 547.01 87.4811 547.38 87.56C549.022 87.9965 550.512 88.4806 551.849 89.0274C553.185 89.5742 554.331 90.236 555.303 91.016C556.271 91.7827 557.033 92.7398 557.583 93.8891ZM547.747 100.55C548.065 100.273 548.21 99.9131 548.186 99.4778C548.162 99.0141 547.946 98.6088 547.53 98.2785C547.114 97.9483 546.573 97.6586 545.896 97.4195L546.082 101.118C546.875 101.019 547.429 100.828 547.747 100.55ZM542.756 86.2839L542.565 82.4875C541.25 82.7116 540.624 83.2998 540.67 84.2706C540.697 84.7693 540.876 85.1703 541.228 85.4749C541.572 85.7746 542.079 86.0449 542.756 86.2839Z" fill="#FFDD00"/>
</g>
<g opacity="0.7">
<path d="M590.656 88.6684C588.624 64.4107 570.841 46.0407 550.697 47.0991L550.696 47.0707L542.516 47.7592L542.585 48.6028C525.823 54.0633 514.446 73.2144 516.268 94.9063C518.09 116.598 532.496 133.586 549.928 136.183L549.998 137.026L558.178 136.338L558.177 136.309C578.215 134.004 592.688 112.926 590.656 88.6684Z" fill="#DA8100"/>
<path d="M558.416 83.0923L559.522 87.2205L589.025 79.3153C588.653 77.9259 588.229 76.5575 587.753 75.2316L558.416 83.0923Z" fill="#F4BD00"/>
<path d="M563.516 102.125L590.812 94.811C590.856 93.3528 590.839 91.8823 590.763 90.3995L562.41 97.9966L563.516 102.125Z" fill="#F4BD00"/>
<path d="M561.801 95.7229L590.586 88.01C590.368 85.76 590.02 83.5588 589.54 81.4217L560.084 89.3145L561.801 95.7229Z" fill="#F4BD00"/>
<path d="M579.813 61.0431C572.371 51.9363 561.904 46.5115 550.697 47.099L550.696 47.0706L542.516 47.7591L542.585 48.6027C533.083 51.6974 527.272 66.4928 522.655 76.3583C550.948 68.7773 570.074 63.6526 579.813 61.0431Z" fill="#C3690D"/>
<path d="M519.373 108.916C524.834 123.605 536.474 134.18 549.92 136.178L549.989 137.021L558.169 136.333L558.169 136.304C570.79 134.853 581.2 125.944 586.676 113.489C570.471 117.839 544.449 126.13 519.373 108.916Z" fill="#C3690D"/>
<path d="M583.491 89.2155C581.413 64.4398 563.092 45.7502 542.57 47.4711C522.048 49.1921 507.096 70.6719 509.174 95.4477C511.251 120.223 529.572 138.913 550.094 137.192C570.616 135.471 585.568 113.991 583.491 89.2155Z" fill="#FFDD00"/>
<path d="M575.151 89.9156C576.76 109.135 565.164 125.794 549.248 127.13C533.326 128.468 519.117 113.971 517.509 94.7516C515.9 75.5319 527.496 58.8729 543.411 57.5368C559.325 56.1939 573.54 70.6892 575.151 89.9156Z" fill="#D4860C"/>
<path d="M573.79 90.0239C575.328 108.343 564.277 124.215 549.106 125.487C533.936 126.759 520.395 112.945 518.858 94.6324C517.321 76.3196 528.371 60.4411 543.541 59.1693C558.712 57.8974 572.253 71.7111 573.79 90.0239Z" fill="#F0AA00"/>
<path d="M558.087 94.8657C558.644 96.0132 558.963 97.4168 559.046 99.0832C559.146 101.051 558.892 102.737 558.28 104.148C557.674 105.557 556.841 106.728 555.778 107.654C554.715 108.58 553.49 109.3 552.095 109.809C550.699 110.319 549.242 110.652 547.726 110.816L548.028 116.863L544.068 117.026L543.761 110.881C541.473 110.774 539.19 110.417 536.905 109.811C534.626 109.203 532.565 108.402 530.726 107.413L534.454 98.6972C535.373 99.2277 536.359 99.7186 537.409 100.178C538.285 100.578 539.307 100.959 540.468 101.332C541.63 101.705 542.806 101.946 544.006 102.066L543.784 97.6722C542.748 97.4509 541.705 97.1746 540.663 96.8482C539.084 96.3806 537.72 95.8627 536.562 95.2895C535.404 94.7164 534.451 94.0596 533.685 93.3029C532.922 92.5528 532.339 91.6828 531.94 90.6996C531.542 89.7163 531.314 88.5732 531.243 87.2739C531.153 85.4741 531.371 83.8695 531.894 82.4684C532.421 81.0589 533.17 79.8393 534.144 78.7945C535.118 77.7498 536.274 76.9056 537.615 76.247C538.957 75.5884 540.398 75.1451 541.94 74.9172L541.685 69.8698L545.646 69.7064L545.9 74.8038C546.993 74.8956 548.061 75.0513 549.096 75.2726C550.134 75.5006 551.131 75.7676 552.09 76.0737C553.05 76.3864 553.95 76.7151 554.793 77.0666C555.635 77.418 556.413 77.7438 557.128 78.044L553.373 86.2606C552.623 85.8275 551.81 85.4255 550.929 85.063C550.184 84.7283 549.352 84.4168 548.429 84.1368C547.506 83.8568 546.576 83.6571 545.643 83.5226L545.872 88.0212C546.172 88.0762 546.492 88.1543 546.826 88.2572C547.16 88.3601 547.514 88.4576 547.884 88.5366C549.526 88.973 551.016 89.4571 552.353 90.0039C553.689 90.5507 554.835 91.2126 555.807 91.9925C556.768 92.761 557.532 93.7248 558.087 94.8657ZM548.244 101.529C548.562 101.251 548.708 100.891 548.684 100.456C548.659 99.9925 548.444 99.5871 548.027 99.2569C547.611 98.9266 547.07 98.6369 546.394 98.3979L546.579 102.096C547.372 101.997 547.929 101.813 548.244 101.529ZM543.26 87.2604L543.069 83.464C541.754 83.6882 541.128 84.2763 541.174 85.2471C541.201 85.7458 541.38 86.1468 541.732 86.4514C542.076 86.7511 542.583 87.0214 543.26 87.2604Z" fill="#DA8100"/>
<path d="M557.583 93.8891C558.14 95.0366 558.459 96.4403 558.542 98.1066C558.642 100.075 558.388 101.76 557.776 103.171C557.17 104.58 556.337 105.751 555.274 106.677C554.211 107.603 552.986 108.324 551.591 108.833C550.195 109.342 548.739 109.675 547.222 109.839L547.524 115.886L543.564 116.05L543.257 109.905C540.969 109.798 538.686 109.441 536.401 108.835C534.122 108.227 532.062 107.425 530.222 106.436L533.95 97.7207C534.869 98.2511 535.855 98.742 536.905 99.2018C537.781 99.6011 538.803 99.9829 539.964 100.356C541.126 100.728 542.302 100.969 543.502 101.089L543.28 96.6956C542.244 96.4743 541.201 96.1981 540.159 95.8717C538.58 95.4041 537.216 94.8861 536.058 94.313C534.9 93.7398 533.947 93.0831 533.181 92.3263C532.418 91.5763 531.835 90.7063 531.437 89.723C531.038 88.7397 530.81 87.5967 530.74 86.2974C530.649 84.4976 530.868 82.8929 531.39 81.4918C531.917 80.0823 532.666 78.8627 533.64 77.818C534.614 76.7732 535.77 75.9291 537.112 75.2705C538.453 74.6118 539.894 74.1686 541.436 73.9406L541.181 68.8932L545.142 68.7298L545.396 73.8273C546.489 73.9191 547.557 74.0747 548.592 74.296C549.63 74.524 550.627 74.791 551.586 75.0971C552.546 75.4098 553.446 75.7386 554.289 76.09C555.131 76.4414 555.909 76.7672 556.624 77.0674L552.869 85.2841C552.119 84.8509 551.306 84.4489 550.425 84.0864C549.68 83.7517 548.848 83.4402 547.925 83.1602C547.002 82.8803 546.072 82.6806 545.139 82.546L545.368 87.0446C545.668 87.0997 545.988 87.1777 546.322 87.2806C546.656 87.3835 547.01 87.4811 547.38 87.56C549.022 87.9965 550.512 88.4806 551.849 89.0274C553.185 89.5742 554.331 90.236 555.303 91.016C556.271 91.7827 557.033 92.7398 557.583 93.8891ZM547.747 100.55C548.065 100.273 548.21 99.9131 548.186 99.4778C548.162 99.0141 547.946 98.6088 547.53 98.2785C547.114 97.9483 546.573 97.6586 545.896 97.4195L546.082 101.118C546.875 101.019 547.429 100.828 547.747 100.55ZM542.756 86.2839L542.565 82.4875C541.25 82.7116 540.624 83.2998 540.67 84.2706C540.697 84.7693 540.876 85.1703 541.228 85.4749C541.572 85.7746 542.079 86.0449 542.756 86.2839Z" fill="#FFDD00"/>
</g>
</g>
<defs>
<filter id="filter0_f" x="164.941" y="56.8071" width="186.054" height="172.711" filterUnits="userSpaceOnUse" color-interpolation-filters="sRGB">
<feFlood flood-opacity="0" result="BackgroundImageFix"/>
<feBlend mode="normal" in="SourceGraphic" in2="BackgroundImageFix" result="shape"/>
<feGaussianBlur stdDeviation="12.5" result="effect1_foregroundBlur"/>
</filter>
<filter id="filter1_f" x="380.502" y="619.252" width="154.376" height="154.928" filterUnits="userSpaceOnUse" color-interpolation-filters="sRGB">
<feFlood flood-opacity="0" result="BackgroundImageFix"/>
<feBlend mode="normal" in="SourceGraphic" in2="BackgroundImageFix" result="shape"/>
<feGaussianBlur stdDeviation="12.5" result="effect1_foregroundBlur"/>
</filter>
<filter id="filter2_f" x="725.645" y="286.302" width="159.159" height="165.071" filterUnits="userSpaceOnUse" color-interpolation-filters="sRGB">
<feFlood flood-opacity="0" result="BackgroundImageFix"/>
<feBlend mode="normal" in="SourceGraphic" in2="BackgroundImageFix" result="shape"/>
<feGaussianBlur stdDeviation="12.5" result="effect1_foregroundBlur"/>
</filter>
<filter id="filter3_f" x="0.345703" y="226.061" width="149.675" height="150.197" filterUnits="userSpaceOnUse" color-interpolation-filters="sRGB">
<feFlood flood-opacity="0" result="BackgroundImageFix"/>
<feBlend mode="normal" in="SourceGraphic" in2="BackgroundImageFix" result="shape"/>
<feGaussianBlur stdDeviation="12.5" result="effect1_foregroundBlur"/>
</filter>
<filter id="filter4_f" x="480.412" y="13.2432" width="145.893" height="156.321" filterUnits="userSpaceOnUse" color-interpolation-filters="sRGB">
<feFlood flood-opacity="0" result="BackgroundImageFix"/>
<feBlend mode="normal" in="SourceGraphic" in2="BackgroundImageFix" result="shape"/>
<feGaussianBlur stdDeviation="12.5" result="effect1_foregroundBlur"/>
</filter>
<linearGradient id="paint0_linear" x1="574.757" y1="547.012" x2="224.617" y2="253.171" gradientUnits="userSpaceOnUse">
<stop stop-color="#0C8F39"/>
<stop offset="0.4895" stop-color="#078531"/>
<stop offset="1" stop-color="#007624"/>
</linearGradient>
<linearGradient id="paint1_linear" x1="734.941" y1="548.583" x2="734.941" y2="142.781" gradientUnits="userSpaceOnUse">
<stop stop-color="#FFA340"/>
<stop offset="1" stop-color="#FCD224"/>
</linearGradient>
<linearGradient id="paint2_linear" x1="216.066" y1="896.404" x2="216.066" y2="490.602" gradientUnits="userSpaceOnUse">
<stop stop-color="#FFA340"/>
<stop offset="1" stop-color="#FCD224"/>
</linearGradient>
<linearGradient id="paint3_linear" x1="684.802" y1="429.892" x2="684.802" y2="148.493" gradientUnits="userSpaceOnUse">
<stop stop-color="#FFA340"/>
<stop offset="1" stop-color="#FCD224"/>
</linearGradient>
<linearGradient id="paint4_linear" x1="161.454" y1="683.97" x2="161.454" y2="402.57" gradientUnits="userSpaceOnUse">
<stop stop-color="#FFA340"/>
<stop offset="1" stop-color="#FCD224"/>
</linearGradient>
<linearGradient id="paint5_linear" x1="730.607" y1="728.167" x2="730.607" y2="446.767" gradientUnits="userSpaceOnUse">
<stop stop-color="#FFA340"/>
<stop offset="1" stop-color="#FCD224"/>
</linearGradient>
<linearGradient id="paint6_linear" x1="481.528" y1="389.826" x2="481.528" y2="108.427" gradientUnits="userSpaceOnUse">
<stop stop-color="#FFA340"/>
<stop offset="1" stop-color="#FCD224"/>
</linearGradient>
<linearGradient id="paint7_linear" x1="55.6104" y1="649.789" x2="55.6104" y2="368.389" gradientUnits="userSpaceOnUse">
<stop stop-color="#FFA340"/>
<stop offset="1" stop-color="#FCD224"/>
</linearGradient>
<linearGradient id="paint8_linear" x1="255.214" y1="225.879" x2="255.214" y2="-55.5206" gradientUnits="userSpaceOnUse">
<stop stop-color="#FFA340"/>
<stop offset="1" stop-color="#FCD224"/>
</linearGradient>
<linearGradient id="paint9_linear" x1="209.008" y1="186.688" x2="209.008" y2="-8.28802" gradientUnits="userSpaceOnUse">
<stop stop-color="#FFA340"/>
<stop offset="1" stop-color="#FCD224"/>
</linearGradient>
<linearGradient id="paint10_linear" x1="439.93" y1="352.35" x2="439.93" y2="157.374" gradientUnits="userSpaceOnUse">
<stop stop-color="#FFA340"/>
<stop offset="1" stop-color="#FCD224"/>
</linearGradient>
<linearGradient id="paint11_linear" x1="672.303" y1="629.465" x2="258.937" y2="434.151" gradientUnits="userSpaceOnUse">
<stop stop-color="#0C8F39"/>
<stop offset="0.4895" stop-color="#078531"/>
<stop offset="1" stop-color="#007624"/>
</linearGradient>
</defs>
</svg>
