<svg width="226" height="227" viewBox="0 0 226 227" fill="none" xmlns="http://www.w3.org/2000/svg">
<g opacity="0.5" filter="url(#filter0_f)">
<path d="M152.064 66.9125C126.718 45.4858 91.8643 44.9197 73.4645 65.3603L73.4367 65.3334L66.2141 73.8836L67.0941 74.63C56.198 96.0549 63.6927 125.486 86.3621 144.642C109.032 163.798 139.297 166.287 158.607 151.984L159.487 152.731L166.709 144.18L166.682 144.154C183.777 122.613 177.41 88.3393 152.064 66.9125Z" fill="#DA8100"/>
<path d="M115.607 92.6177L120.654 95.5312L141.475 59.4672C139.777 58.4867 138.049 57.5758 136.312 56.7569L115.607 92.6177Z" fill="#F4BD00"/>
<path d="M138.873 106.05L158.136 72.6834C156.773 71.2353 155.34 69.8335 153.836 68.4778L133.826 103.136L138.873 106.05Z" fill="#F4BD00"/>
<path d="M131.047 101.532L151.361 66.3456C148.982 64.3866 146.525 62.5996 144.002 61.0021L123.213 97.0092L131.047 101.532Z" fill="#F4BD00"/>
<path d="M114.981 50.734C99.0267 49.129 83.706 53.9898 73.468 65.3605L73.4402 65.3336L66.2176 73.8838L67.0976 74.6303C60.9205 86.7745 69.582 106.641 74.642 120.603C94.6096 86.0179 108.108 62.6389 114.981 50.734Z" fill="#C3690D"/>
<path d="M102.863 155.154C122.289 164.051 143.707 163.024 158.595 151.987L159.475 152.734L166.698 144.184L166.67 144.157C177.439 130.59 178.885 111.965 172.158 94.6784C160.728 114.495 143.634 147.575 102.863 155.154Z" fill="#C3690D"/>
<path d="M145.685 74.3472C119.796 52.4645 84.1158 52.1089 65.9902 73.5529C47.8645 94.9968 54.1576 130.12 80.0463 152.003C105.935 173.885 141.616 174.241 159.741 152.797C177.867 131.353 171.574 96.2298 145.685 74.3472Z" fill="#FFDD00"/>
<path d="M138.318 83.0636C158.398 100.042 163.279 127.282 149.224 143.914C135.163 160.554 107.489 160.276 87.4088 143.297C67.3285 126.319 62.4475 99.0793 76.5031 82.4474C90.5506 65.8107 118.23 66.0806 138.318 83.0636Z" fill="#D4860C"/>
<path d="M137.111 84.479C156.256 100.657 160.903 126.613 147.503 142.465C134.104 158.316 107.732 158.054 88.5957 141.88C69.4592 125.707 64.8041 99.7459 78.2033 83.8943C91.6025 68.0427 117.975 68.3057 137.111 84.479Z" fill="#F0AA00"/>
<path d="M126.64 104.286C128.283 104.855 129.944 105.901 131.63 107.427C133.624 109.228 135.004 111.098 135.774 113.048C136.549 114.991 136.874 116.923 136.742 118.841C136.61 120.758 136.124 122.633 135.269 124.47C134.415 126.306 133.332 128.032 132.028 129.652L138.149 135.19L134.488 139.166L128.268 133.537C125.96 135.64 123.414 137.496 120.627 139.116C117.844 140.727 115.085 141.94 112.358 142.76L107.549 130.764C108.947 130.389 110.371 129.912 111.826 129.343C113.056 128.883 114.409 128.266 115.888 127.506C117.367 126.746 118.733 125.844 120.006 124.802L115.556 120.781C114.344 121.566 113.072 122.305 111.753 122.995C109.78 124.066 107.966 124.882 106.296 125.446C104.627 126.01 103.076 126.295 101.608 126.304C100.148 126.317 98.7484 126.04 97.4159 125.477C96.0835 124.913 94.7618 124.031 93.4414 122.846C91.6191 121.198 90.2827 119.44 89.4355 117.586C88.5849 115.719 88.1313 113.821 88.0631 111.875C87.995 109.928 88.2957 108 88.9537 106.072C89.6118 104.144 90.5742 102.327 91.8411 100.621L86.729 96.0006L90.3896 92.0248L95.5492 96.6939C96.6918 95.7283 97.8712 94.8491 99.0828 94.0642C100.303 93.284 101.522 92.5795 102.741 91.9506C103.968 91.3264 105.153 90.7754 106.304 90.3021C107.455 89.8289 108.519 89.3925 109.498 88.993L113.799 100.534C112.658 100.84 111.487 101.236 110.288 101.736C109.247 102.132 108.145 102.633 106.985 103.253C105.826 103.873 104.737 104.577 103.707 105.348L108.265 109.463C108.607 109.228 108.991 108.994 109.412 108.771C109.833 108.549 110.268 108.302 110.701 108.021C112.705 106.859 114.609 105.888 116.424 105.127C118.24 104.366 119.983 103.899 121.671 103.714C123.339 103.529 125.004 103.721 126.64 104.286ZM123.574 120.198C123.613 119.625 123.407 119.137 122.964 118.741C122.493 118.317 121.894 118.134 121.175 118.217C120.455 118.3 119.655 118.542 118.772 118.964L122.516 122.35C123.185 121.491 123.544 120.777 123.574 120.198ZM105.013 111.248L101.169 107.772C100.117 109.256 100.081 110.427 101.061 111.318C101.568 111.773 102.127 111.987 102.76 111.941C103.381 111.899 104.13 111.67 105.013 111.248Z" fill="#DA8100"/>
<path d="M125.212 103.83C126.855 104.399 128.516 105.445 130.202 106.971C132.196 108.773 133.576 110.642 134.346 112.593C135.121 114.535 135.446 116.467 135.315 118.385C135.183 120.302 134.696 122.177 133.842 124.014C132.987 125.85 131.904 127.576 130.6 129.196L136.721 134.734L133.06 138.71L126.84 133.082C124.532 135.184 121.987 137.04 119.199 138.66C116.416 140.271 113.657 141.484 110.93 142.304L106.122 130.308C107.519 129.934 108.943 129.456 110.398 128.887C111.628 128.427 112.981 127.81 114.46 127.05C115.939 126.29 117.305 125.388 118.578 124.346L114.128 120.325C112.917 121.11 111.645 121.849 110.325 122.539C108.352 123.61 106.538 124.426 104.869 124.99C103.199 125.554 101.648 125.84 100.18 125.848C98.7207 125.862 97.3207 125.584 95.9882 125.021C94.6558 124.457 93.334 123.575 92.0137 122.39C90.1914 120.742 88.855 118.985 88.0078 117.13C87.1572 115.263 86.7036 113.365 86.6354 111.419C86.5673 109.473 86.868 107.544 87.526 105.616C88.184 103.688 89.1465 101.871 90.4134 100.165L85.3013 95.5447L88.9619 91.569L94.1215 96.2381C95.2641 95.2725 96.4435 94.3932 97.6551 93.6084C98.8748 92.8282 100.094 92.1237 101.313 91.4948C102.54 90.8706 103.725 90.3195 104.876 89.8463C106.027 89.3731 107.092 88.9367 108.07 88.5372L112.371 100.079C111.231 100.384 110.059 100.781 108.86 101.28C107.819 101.676 106.717 102.178 105.558 102.797C104.398 103.417 103.309 104.121 102.279 104.892L106.837 109.008C107.179 108.772 107.563 108.538 107.984 108.316C108.405 108.093 108.84 107.846 109.273 107.565C111.277 106.403 113.181 105.433 114.996 104.671C116.812 103.91 118.555 103.443 120.243 103.258C121.916 103.065 123.573 103.252 125.212 103.83ZM122.151 119.735C122.19 119.161 121.983 118.673 121.541 118.277C121.07 117.854 120.471 117.67 119.752 117.753C119.032 117.836 118.232 118.078 117.349 118.5L121.093 121.886C121.762 121.027 122.112 120.308 122.151 119.735ZM103.585 110.793L99.7414 107.316C98.6896 108.8 98.653 109.971 99.6336 110.862C100.14 111.317 100.699 111.532 101.332 111.485C101.953 111.443 102.702 111.215 103.585 110.793Z" fill="#FFDD00"/>
</g>
<g opacity="0.7">
<path d="M152.064 66.9125C126.718 45.4858 91.8643 44.9197 73.4645 65.3603L73.4367 65.3334L66.2141 73.8836L67.0941 74.63C56.198 96.0549 63.6927 125.486 86.3621 144.642C109.032 163.798 139.297 166.287 158.607 151.984L159.487 152.731L166.709 144.18L166.682 144.154C183.777 122.613 177.41 88.3393 152.064 66.9125Z" fill="#DA8100"/>
<path d="M115.607 92.6177L120.654 95.5312L141.475 59.4672C139.777 58.4867 138.049 57.5758 136.312 56.7569L115.607 92.6177Z" fill="#F4BD00"/>
<path d="M138.873 106.05L158.136 72.6834C156.773 71.2353 155.34 69.8335 153.836 68.4778L133.826 103.136L138.873 106.05Z" fill="#F4BD00"/>
<path d="M131.047 101.532L151.361 66.3456C148.982 64.3866 146.525 62.5996 144.002 61.0021L123.213 97.0092L131.047 101.532Z" fill="#F4BD00"/>
<path d="M114.981 50.734C99.0267 49.129 83.706 53.9898 73.468 65.3605L73.4402 65.3336L66.2176 73.8838L67.0976 74.6303C60.9205 86.7745 69.582 106.641 74.642 120.603C94.6096 86.0179 108.108 62.6389 114.981 50.734Z" fill="#C3690D"/>
<path d="M102.863 155.154C122.289 164.051 143.707 163.024 158.595 151.987L159.475 152.734L166.698 144.184L166.67 144.157C177.439 130.59 178.885 111.965 172.158 94.6784C160.728 114.495 143.634 147.575 102.863 155.154Z" fill="#C3690D"/>
<path d="M145.685 74.3472C119.796 52.4645 84.1158 52.1089 65.9902 73.5529C47.8645 94.9968 54.1576 130.12 80.0463 152.003C105.935 173.885 141.616 174.241 159.741 152.797C177.867 131.353 171.574 96.2298 145.685 74.3472Z" fill="#FFDD00"/>
<path d="M138.318 83.0636C158.398 100.042 163.279 127.282 149.224 143.914C135.163 160.554 107.489 160.276 87.4088 143.297C67.3285 126.319 62.4475 99.0793 76.5031 82.4474C90.5506 65.8107 118.23 66.0806 138.318 83.0636Z" fill="#D4860C"/>
<path d="M137.111 84.479C156.256 100.657 160.903 126.613 147.503 142.465C134.104 158.316 107.732 158.054 88.5957 141.88C69.4592 125.707 64.8041 99.7459 78.2033 83.8943C91.6025 68.0427 117.975 68.3057 137.111 84.479Z" fill="#F0AA00"/>
<path d="M126.64 104.286C128.283 104.855 129.944 105.901 131.63 107.427C133.624 109.228 135.004 111.098 135.774 113.048C136.549 114.991 136.874 116.923 136.742 118.841C136.61 120.758 136.124 122.633 135.269 124.47C134.415 126.306 133.332 128.032 132.028 129.652L138.149 135.19L134.488 139.166L128.268 133.537C125.96 135.64 123.414 137.496 120.627 139.116C117.844 140.727 115.085 141.94 112.358 142.76L107.549 130.764C108.947 130.389 110.371 129.912 111.826 129.343C113.056 128.883 114.409 128.266 115.888 127.506C117.367 126.746 118.733 125.844 120.006 124.802L115.556 120.781C114.344 121.566 113.072 122.305 111.753 122.995C109.78 124.066 107.966 124.882 106.296 125.446C104.627 126.01 103.076 126.295 101.608 126.304C100.148 126.317 98.7484 126.04 97.4159 125.477C96.0835 124.913 94.7618 124.031 93.4414 122.846C91.6191 121.198 90.2827 119.44 89.4355 117.586C88.5849 115.719 88.1313 113.821 88.0631 111.875C87.995 109.928 88.2957 108 88.9537 106.072C89.6118 104.144 90.5742 102.327 91.8411 100.621L86.729 96.0006L90.3896 92.0248L95.5492 96.6939C96.6918 95.7283 97.8712 94.8491 99.0828 94.0642C100.303 93.284 101.522 92.5795 102.741 91.9506C103.968 91.3264 105.153 90.7754 106.304 90.3021C107.455 89.8289 108.519 89.3925 109.498 88.993L113.799 100.534C112.658 100.84 111.487 101.236 110.288 101.736C109.247 102.132 108.145 102.633 106.985 103.253C105.826 103.873 104.737 104.577 103.707 105.348L108.265 109.463C108.607 109.228 108.991 108.994 109.412 108.771C109.833 108.549 110.268 108.302 110.701 108.021C112.705 106.859 114.609 105.888 116.424 105.127C118.24 104.366 119.983 103.899 121.671 103.714C123.339 103.529 125.004 103.721 126.64 104.286ZM123.574 120.198C123.613 119.625 123.407 119.137 122.964 118.741C122.493 118.317 121.894 118.134 121.175 118.217C120.455 118.3 119.655 118.542 118.772 118.964L122.516 122.35C123.185 121.491 123.544 120.777 123.574 120.198ZM105.013 111.248L101.169 107.772C100.117 109.256 100.081 110.427 101.061 111.318C101.568 111.773 102.127 111.987 102.76 111.941C103.381 111.899 104.13 111.67 105.013 111.248Z" fill="#DA8100"/>
<path d="M125.212 103.83C126.855 104.399 128.516 105.445 130.202 106.971C132.196 108.773 133.576 110.642 134.346 112.593C135.121 114.535 135.446 116.467 135.315 118.385C135.183 120.302 134.696 122.177 133.842 124.014C132.987 125.85 131.904 127.576 130.6 129.196L136.721 134.734L133.06 138.71L126.84 133.082C124.532 135.184 121.987 137.04 119.199 138.66C116.416 140.271 113.657 141.484 110.93 142.304L106.122 130.308C107.519 129.934 108.943 129.456 110.398 128.887C111.628 128.427 112.981 127.81 114.46 127.05C115.939 126.29 117.305 125.388 118.578 124.346L114.128 120.325C112.917 121.11 111.645 121.849 110.325 122.539C108.352 123.61 106.538 124.426 104.869 124.99C103.199 125.554 101.648 125.84 100.18 125.848C98.7207 125.862 97.3207 125.584 95.9882 125.021C94.6558 124.457 93.334 123.575 92.0137 122.39C90.1914 120.742 88.855 118.985 88.0078 117.13C87.1572 115.263 86.7036 113.365 86.6354 111.419C86.5673 109.473 86.868 107.544 87.526 105.616C88.184 103.688 89.1465 101.871 90.4134 100.165L85.3013 95.5447L88.9619 91.569L94.1215 96.2381C95.2641 95.2725 96.4435 94.3932 97.6551 93.6084C98.8748 92.8282 100.094 92.1237 101.313 91.4948C102.54 90.8706 103.725 90.3195 104.876 89.8463C106.027 89.3731 107.092 88.9367 108.07 88.5372L112.371 100.079C111.231 100.384 110.059 100.781 108.86 101.28C107.819 101.676 106.717 102.178 105.558 102.797C104.398 103.417 103.309 104.121 102.279 104.892L106.837 109.008C107.179 108.772 107.563 108.538 107.984 108.316C108.405 108.093 108.84 107.846 109.273 107.565C111.277 106.403 113.181 105.433 114.996 104.671C116.812 103.91 118.555 103.443 120.243 103.258C121.916 103.065 123.573 103.252 125.212 103.83ZM122.151 119.735C122.19 119.161 121.983 118.673 121.541 118.277C121.07 117.854 120.471 117.67 119.752 117.753C119.032 117.836 118.232 118.078 117.349 118.5L121.093 121.886C121.762 121.027 122.112 120.308 122.151 119.735ZM103.585 110.793L99.7414 107.316C98.6896 108.8 98.653 109.971 99.6336 110.862C100.14 111.317 100.699 111.532 101.332 111.485C101.953 111.443 102.702 111.215 103.585 110.793Z" fill="#FFDD00"/>
</g>
<defs>
<filter id="filter0_f" x="8.16992" y="5.4707" width="214.29" height="211.154" filterUnits="userSpaceOnUse" color-interpolation-filters="sRGB">
<feFlood flood-opacity="0" result="BackgroundImageFix"/>
<feBlend mode="normal" in="SourceGraphic" in2="BackgroundImageFix" result="shape"/>
<feGaussianBlur stdDeviation="12.5" result="effect1_foregroundBlur"/>
</filter>
</defs>
</svg>
