<svg width="208" height="183" viewBox="0 0 208 183" fill="none" xmlns="http://www.w3.org/2000/svg">
<path d="M200.429 81.2662C148.495 104.754 111.114 153.451 60.3757 179.012C42.7588 153.373 25.1299 127.693 7.46521 101.971C59.3999 78.4832 96.7805 29.7865 147.519 4.22595C165.13 29.8551 182.765 55.5449 200.429 81.2662Z" fill="url(#paint0_linear)"/>
<path d="M179.664 68.3132C170.265 54.6313 160.877 40.9678 151.485 27.3189C145.888 30.4398 138.552 28.9524 134.898 23.6449C99.0836 46.4223 68.8274 78.8482 32.4971 100.732C36.1514 106.04 34.6941 113.095 29.0386 116.115C38.4373 129.797 47.8253 143.46 57.2173 157.109C62.8142 153.988 70.15 155.475 73.8043 160.783C109.613 137.996 139.864 105.561 176.205 83.6956C172.551 78.388 174.008 71.3328 179.664 68.3132Z" fill="#ACD987"/>
<path d="M124.006 75.2845C131.977 86.8556 129.38 103.411 118.369 112.544C107.367 121.695 91.8729 119.552 83.8806 107.944C75.9095 96.3727 78.5066 79.8176 89.5184 70.6845C100.52 61.5331 116.014 63.6765 124.006 75.2845Z" fill="#0C8F39"/>
<path d="M112.779 99.499C113.75 100.903 114.726 102.317 115.687 103.727C114.524 104.693 113.347 105.655 112.184 106.621C111.208 105.208 110.227 103.785 109.251 102.371C106.524 104.056 103.384 104.96 100.567 104.892C100.286 103.065 99.9999 101.228 99.7192 99.4008C102.803 99.5483 106.51 98.3905 108.432 96.802C109.854 95.6248 110.373 94.3306 109.673 93.3101C107.408 90.0251 99.0474 100.047 94.3229 93.1834C92.2089 90.118 92.8557 86.2569 95.825 82.8848C94.8955 81.5303 93.9567 80.1811 93.0272 78.8266C94.1901 77.8605 95.3675 76.8982 96.5304 75.9321C97.4546 77.2774 98.3788 78.6227 99.3122 79.9627C101.647 78.4302 104.233 77.5021 106.523 77.2734C106.832 79.1085 107.151 80.9383 107.461 82.7735C104.708 83.2208 101.6 84.3519 100.069 85.6167C98.9103 86.5683 98.4501 87.6444 99.0609 88.5321C101.269 91.7395 109.734 81.8785 114.546 88.8509C116.895 92.2595 115.777 96.2824 112.779 99.499Z" fill="white"/>
<defs>
<linearGradient id="paint0_linear" x1="223.814" y1="81.6673" x2="0.669584" y2="100.05" gradientUnits="userSpaceOnUse">
<stop stop-color="#0C8F39"/>
<stop offset="0.4895" stop-color="#078531"/>
<stop offset="1" stop-color="#007624"/>
</linearGradient>
</defs>
</svg>
