<svg width="45" height="22" viewBox="0 0 45 22" fill="none" xmlns="http://www.w3.org/2000/svg">
<path d="M14.754 0H16.842C18.486 0.0611111 20.76 0.941111 20.346 3.03722C19.53 6.11111 16.284 7.49222 13.83 8.98944C16.188 9.94278 18.168 11.8617 18.312 14.5689C20.274 12.8822 22.932 12.0206 25.482 12.5339C25.98 13.2183 26.208 14.3 25.596 14.9844C24.258 16.6283 22.554 17.9117 20.952 19.2806C22.266 19.2378 23.58 19.2256 24.888 19.2378C26.106 14.6056 28.584 10.4867 30.372 6.08056C29.466 5.48778 28.572 4.87056 27.702 4.22278C30.456 0.715 35.322 0.598889 39.336 0H41.448C42.822 0.0855556 44.118 0.635556 45 1.74167V3.26944C43.776 6.105 40.938 7.56556 38.418 8.98944C39.906 9.83278 41.646 10.6272 42.36 12.3261C43.29 14.0433 42.594 16.2617 41.07 17.3556C37.668 20.0506 33.192 20.2156 29.196 21.3767C27.414 21.8778 24.918 22.6356 24.198 20.2156C21.882 20.845 19.596 21.615 17.226 22H16.89C16.686 21.67 16.278 21.0161 16.074 20.6861C18.504 18.3822 21.27 16.4267 23.412 13.8233C22.5 14.4039 21.618 15.0272 20.754 15.675C19.83 15.7239 18.912 15.7483 17.988 15.7544C15.702 18.7672 11.934 19.7878 8.43 20.4722C5.628 20.9244 2.892 22.2872 0 21.6944V20.185C1.212 15.1983 3.846 10.7861 5.778 6.08667C4.872 5.48778 3.978 4.86444 3.108 4.21667C5.874 0.715 10.734 0.592778 14.754 0ZM11.76 3.53222C10.776 4.51 10.56 6.06222 9.918 7.29056C12.12 5.94611 14.532 4.87667 16.374 3.00056C14.832 3.11667 13.266 3.135 11.76 3.53222ZM36.018 3.56889C35.55 4.82167 35.052 6.06222 34.512 7.29056C36.714 5.94 39.132 4.87667 40.968 2.99444C39.312 3.08611 37.656 3.26333 36.018 3.56889ZM4.11 18.0033C7.56 16.6833 11.7 16.3228 14.34 13.4567C12.582 12.0511 10.332 11.7578 8.214 11.3422C6.792 13.53 5.322 15.6872 4.11 18.0033ZM28.698 18.0094C32.154 16.6894 36.288 16.3167 38.928 13.4567C37.17 12.0511 34.92 11.7578 32.802 11.3483C31.38 13.5361 29.904 15.6872 28.698 18.0094Z" fill="#4A4A4A"/>
</svg>
