<svg width="174" height="197" viewBox="0 0 174 197" fill="none" xmlns="http://www.w3.org/2000/svg">
<circle cx="87" cy="87" r="87" fill="url(#paint0_linear)" fill-opacity="0.5"/>
<path d="M30.495 62.0631C30.495 65.2381 27.9169 67.812 24.7368 67.812C21.5566 67.812 18.9785 65.2381 18.9785 62.0631C18.9785 58.8881 21.5566 56.3142 24.7368 56.3142C27.9169 56.3142 30.495 58.8881 30.495 62.0631Z" fill="#FF9300"/>
<path d="M25.998 25H23.998V50H25.998V25Z" fill="#1C1C36"/>
<path d="M30.2211 57.1119V52.2701C30.2211 49.2426 27.7634 46.7944 24.7365 46.7944C21.7041 46.7944 19.252 49.2481 19.252 52.2701V57.1119H30.2211Z" fill="#00AA9D"/>
<path d="M30.2218 57.1121H19.2527L13.998 62.0631V63.5878H35.4765V62.0631L30.2218 57.1121Z" fill="#008478"/>
<path d="M35.4765 62.063H13.998V63.5877H35.4765V62.063Z" fill="#00AA9D"/>
<path d="M30.2265 52.7729H19.252V55.4835H30.2265V52.7729Z" fill="#008478"/>
<path opacity="0.2" d="M26.6194 47.1279C26.0338 46.9147 25.3988 46.7891 24.7365 46.7891C21.7041 46.7891 19.252 49.2427 19.252 52.2647V57.1065H23.0123V52.2647C23.0123 49.904 24.5121 47.8984 26.6194 47.1279Z" fill="#2D2D4E"/>
<path opacity="0.2" d="M23.1007 57.1121H19.2527L13.998 62.0631V63.5878H17.8515V62.0631L23.1007 57.1121Z" fill="#2D2D4E"/>
<path d="M89.2567 62.0631C89.2567 65.2381 86.6786 67.812 83.4985 67.812C80.3183 67.812 77.7402 65.2381 77.7402 62.0631C77.7402 58.8881 80.3183 56.3142 83.4985 56.3142C86.6786 56.3142 89.2567 58.8881 89.2567 62.0631Z" fill="#FF9300"/>
<path d="M83.998 0H81.998V50H83.998V0Z" fill="#1C1C36"/>
<path d="M88.9828 57.1119V52.2701C88.9828 49.2426 86.5251 46.7944 83.4982 46.7944C80.4659 46.7944 78.0137 49.2481 78.0137 52.2701V57.1119H88.9828Z" fill="#00AA9D"/>
<path d="M88.9836 57.1121H78.009L72.7598 62.0631V63.5878H94.2382V62.0631L88.9836 57.1121Z" fill="#008478"/>
<path d="M94.2382 62.063H72.7598V63.5877H94.2382V62.063Z" fill="#00AA9D"/>
<path d="M88.9844 52.7729H78.0098V55.4835H88.9844V52.7729Z" fill="#008478"/>
<path opacity="0.2" d="M85.3757 47.1279C84.79 46.9147 84.1551 46.7891 83.4982 46.7891C80.4659 46.7891 78.0137 49.2427 78.0137 52.2647V57.1065H81.774V52.2647C81.774 49.904 83.2738 47.8984 85.3757 47.1279Z" fill="#2D2D4E"/>
<path opacity="0.2" d="M81.8624 57.1121H78.009L72.7598 62.0631V63.5878H76.6077V62.0631L81.8624 57.1121Z" fill="#2D2D4E"/>
<path d="M161.941 62.9846C162.452 59.8508 160.321 56.8968 157.183 56.3865C154.044 55.8763 151.085 58.0031 150.574 61.1369C150.063 64.2706 152.193 67.2247 155.332 67.7349C158.471 68.2451 161.429 66.1183 161.941 62.9846Z" fill="#FF9300"/>
<path d="M156.998 33H154.998V50H156.998V33Z" fill="#1C1C36"/>
<path d="M161.744 57.1119V52.2701C161.744 49.2426 159.286 46.7944 156.26 46.7944C153.227 46.7944 150.77 49.2481 150.77 52.2701V57.1119H161.744Z" fill="#00AA9D"/>
<path d="M161.743 57.1121H150.769L145.52 62.0631V63.5878H166.998V62.0631L161.743 57.1121Z" fill="#008478"/>
<path d="M166.998 62.063H145.52V63.5877H166.998V62.063Z" fill="#00AA9D"/>
<path d="M161.744 52.7729H150.77V55.4835H161.744V52.7729Z" fill="#008478"/>
<path opacity="0.2" d="M158.137 47.1279C157.551 46.9147 156.916 46.7891 156.254 46.7891C153.221 46.7891 150.764 49.2427 150.764 52.2647V57.1065H154.524V52.2647C154.535 49.904 156.035 47.8984 158.137 47.1279Z" fill="#2D2D4E"/>
<path opacity="0.2" d="M154.622 57.1121H150.769L145.52 62.0631V63.5878H149.367V62.0631L154.622 57.1121Z" fill="#2D2D4E"/>
<path d="M166.555 131.789H0.441406V136.434H166.555V131.789Z" fill="#FF9300"/>
<path opacity="0.2" d="M166.555 133.964H0.441406V136.587H166.555V133.964Z" fill="#2D2D4E"/>
<path d="M15.9481 136.434H12.8008V193.781H15.9481V136.434Z" fill="#ED7100"/>
<path d="M154.194 136.434H151.047V193.781H154.194V136.434Z" fill="#ED7100"/>
<path opacity="0.2" d="M15.9481 136.434H12.8008V144.194H15.9481V136.434Z" fill="#2D2D4E"/>
<path opacity="0.2" d="M154.194 136.434H151.047V144.194H154.194V136.434Z" fill="#2D2D4E"/>
<path d="M42.04 136.434H15.9473V193.781H42.04V136.434Z" fill="#FF9300"/>
<path d="M49.3409 136.434H42.0391V193.781H49.3409V136.434Z" fill="#CF5A00"/>
<path opacity="0.2" d="M49.3409 136.434H42.0391V144.194H49.3409V136.434Z" fill="#2D2D4E"/>
<path d="M161.495 136.434H154.193V193.781H161.495V136.434Z" fill="#CF5A00"/>
<path opacity="0.2" d="M161.495 136.434H154.193V144.194H161.495V136.434Z" fill="#2D2D4E"/>
<path d="M39.0139 139.041H18.9805V149.353H39.0139V139.041Z" fill="#ED7100"/>
<path opacity="0.5" d="M37.6009 141.325H20.3809V143.238H37.6009V141.325Z" fill="#2D2D4E"/>
<path d="M39.0139 153.255H18.9805V163.567H39.0139V153.255Z" fill="#ED7100"/>
<path opacity="0.5" d="M37.6009 155.539H20.3809V157.452H37.6009V155.539Z" fill="#2D2D4E"/>
<path d="M39.0139 167.469H18.9805V177.78H39.0139V167.469Z" fill="#ED7100"/>
<path opacity="0.5" d="M37.6009 169.753H20.3809V171.665H37.6009V169.753Z" fill="#2D2D4E"/>
<path d="M39.0139 181.677H18.9805V191.989H39.0139V181.677Z" fill="#ED7100"/>
<path opacity="0.5" d="M37.6009 183.967H20.3809V185.879H37.6009V183.967Z" fill="#2D2D4E"/>
<path d="M151.048 136.434H124.955V193.781H151.048V136.434Z" fill="#FF9300"/>
<path d="M148.016 139.041H127.988V149.353H148.016V139.041Z" fill="#ED7100"/>
<path opacity="0.5" d="M146.609 141.325H129.389V143.238H146.609V141.325Z" fill="#2D2D4E"/>
<path d="M148.016 153.255H127.988V163.567H148.016V153.255Z" fill="#ED7100"/>
<path opacity="0.5" d="M146.609 155.539H129.389V157.452H146.609V155.539Z" fill="#2D2D4E"/>
<path d="M148.016 167.469H127.988V177.78H148.016V167.469Z" fill="#ED7100"/>
<path opacity="0.5" d="M146.609 169.753H129.389V171.665H146.609V169.753Z" fill="#2D2D4E"/>
<path d="M148.016 181.677H127.988V191.989H148.016V181.677Z" fill="#ED7100"/>
<path opacity="0.5" d="M146.609 183.967H129.389V185.879H146.609V183.967Z" fill="#2D2D4E"/>
<path opacity="0.4" d="M42.04 136.462H15.9473V161.266L42.04 144.222V136.462Z" fill="#2D2D4E"/>
<path opacity="0.4" d="M151.048 137.024H124.955V161.829L151.048 144.784V137.024Z" fill="#2D2D4E"/>
<path d="M83.2852 169.857H80.9863V181.174H83.2852V169.857Z" fill="#1C1C36"/>
<path d="M83.2852 169.857H80.9863V173.83H83.2852V169.857Z" fill="#0B0B1C"/>
<path d="M101.666 191.278V186.404L100.773 185.322L82.3438 181.688L82.311 181.611L82.1303 181.644L81.9497 181.611L81.9169 181.688L63.4872 185.322L62.6005 186.404V191.278C61.5058 191.716 60.7285 192.781 60.7285 194.033C60.7285 195.672 62.0586 197 63.7007 197C65.3428 197 66.6729 195.672 66.6729 194.033C66.6729 192.781 65.8956 191.716 64.8009 191.278V187.311L77.0837 184.885L71.2324 188.661L70.7288 189.584V191.246C69.5794 191.656 68.7528 192.743 68.7528 194.033C68.7528 195.672 70.0829 197 71.725 197C73.3671 197 74.6972 195.672 74.6972 194.033C74.6972 192.825 73.9692 191.787 72.9292 191.322V190.18L82.1194 184.251L91.3096 190.18V191.322C90.2696 191.787 89.5416 192.82 89.5416 194.033C89.5416 195.672 90.8717 197 92.5138 197C94.1559 197 95.486 195.672 95.486 194.033C95.486 192.743 94.6594 191.661 93.51 191.246V189.584L93.0064 188.661L87.1551 184.885L99.4434 187.311V191.278C98.3487 191.716 97.5714 192.781 97.5714 194.033C97.5714 195.672 98.9015 197 100.544 197C102.186 197 103.516 195.672 103.516 194.033C103.532 192.781 102.76 191.721 101.666 191.278Z" fill="#0B0B1C"/>
<path d="M84.2369 184.634V180.819C84.2369 179.661 83.2955 178.721 82.1351 178.721C80.9747 178.721 80.0332 179.661 80.0332 180.819V184.634H84.2369Z" fill="#0B0B1C"/>
<path d="M97.1294 141.413C97.1294 151.025 62.2734 151.025 62.2734 141.413V120.718C62.2734 111.105 70.0733 103.318 79.7014 103.318C89.3295 103.318 97.1294 111.111 97.1294 120.718V141.413Z" fill="#404064"/>
<path d="M93.3677 141.413C93.3677 151.025 58.5117 151.025 58.5117 141.413V120.718C58.5117 111.105 66.3171 103.318 75.9397 103.318C85.5678 103.318 93.3677 111.111 93.3677 120.718V141.413Z" fill="#2D2D4E"/>
<path d="M113.143 162.681C113.143 163.966 112.103 165.004 110.817 165.004H80.6134C79.3271 165.004 78.2871 163.966 78.2871 162.681V159.02C78.2871 157.736 79.3271 156.698 80.6134 156.698H110.817C112.103 156.698 113.143 157.736 113.143 159.02V162.681Z" fill="#404064"/>
<path d="M93.3677 162.681C93.3677 163.966 92.3277 165.004 91.0414 165.004H60.838C59.5517 165.004 58.5117 163.966 58.5117 162.681V159.02C58.5117 157.736 59.5517 156.698 60.838 156.698H91.0414C92.3277 156.698 93.3677 157.736 93.3677 159.02V162.681Z" fill="#2D2D4E"/>
<path d="M103.613 165.004H79.6992V167.764H103.613V165.004Z" fill="#1C1C36"/>
<path d="M87.9806 165.004H64.0664V167.764H87.9806V165.004Z" fill="#0B0B1C"/>
<path d="M77.9043 167.758C77.9043 168.917 78.8458 169.857 80.0062 169.857H95.9563C97.1167 169.857 98.0581 168.917 98.0581 167.758H77.9043Z" fill="#1C1C36"/>
<path d="M65.8633 167.758C65.8633 168.917 66.8047 169.857 67.9651 169.857H83.9153C85.0757 169.857 86.0171 168.917 86.0171 167.758H65.8633Z" fill="#0B0B1C"/>
<path d="M79.393 164.906V137.03C79.393 136.041 78.5884 135.238 77.5976 135.238H75.9008C74.9101 135.238 74.1055 136.041 74.1055 137.03V164.906H79.393Z" fill="#1C1C36"/>
<path d="M77.9438 164.906V137.03C77.9438 136.041 77.1391 135.238 76.1484 135.238H74.4516C73.4609 135.238 72.6562 136.041 72.6562 137.03V164.906H77.9438Z" fill="#0B0B1C"/>
<path d="M148.017 129.822H118.432V131.795H148.017V129.822Z" fill="#4C4C4C"/>
<path d="M139.636 122.816H122.832V129.816H139.636V122.816Z" fill="#37383B"/>
<path opacity="0.2" d="M139.636 122.816H122.832V127.101H139.636V122.816Z" fill="#2D2D4E"/>
<path d="M138.503 122.816H121.699V129.816H138.503V122.816Z" fill="#4C4C4C"/>
<path d="M144.835 129.822H115.25V131.795H144.835V129.822Z" fill="#808080"/>
<path d="M158.914 120.007C158.914 122.909 156.555 125.265 153.648 125.265H110.084C107.177 125.265 104.818 122.915 104.818 120.007V92.7002C104.818 89.7984 107.177 87.4431 110.084 87.4431H153.648C156.555 87.4431 158.914 89.7984 158.914 92.7002V120.007Z" fill="#4C4C4C"/>
<path d="M153.648 87.4431H110.084C107.177 87.4431 104.818 89.7984 104.818 92.7002V120.007H158.914V92.7002C158.914 89.7984 156.555 87.4431 153.648 87.4431Z" fill="#051A37"/>
<path opacity="0.2" d="M121.699 125.264V129.822L138.503 127.139V125.264H121.699Z" fill="#2D2D4E"/>
<path d="M14.617 128.86L4.7207 109.925L21.9407 101.187L23.3529 103.619L8.62886 111.094L17.2772 127.647L14.617 128.86ZM6.28616 110.395L15.1644 127.379L15.6953 127.133L7.06888 110.624L21.7491 103.17L21.4645 102.684L6.28616 110.395Z" fill="#051A37"/>
<path d="M15.6845 127.205C12.9367 127.205 10.709 129.287 10.709 131.855H20.6545C20.66 129.287 18.4323 127.205 15.6845 127.205Z" fill="#00A0C1"/>
<path opacity="0.2" d="M17.031 127.379C16.6041 127.265 16.1498 127.205 15.6845 127.205C12.9367 127.205 10.709 129.287 10.709 131.855H13.402C13.4075 129.724 14.9401 127.931 17.031 127.379Z" fill="#051A37"/>
<path d="M10.085 110.772C10.085 112.444 8.63454 113.8 6.85014 113.8C5.06027 113.8 3.61523 112.444 3.61523 110.772C3.61523 109.1 5.06574 107.745 6.85014 107.745C8.63454 107.745 10.085 109.1 10.085 110.772Z" fill="#00A0C1"/>
<path d="M8.10457 110.772C8.10457 111.417 7.54079 111.941 6.85111 111.941C6.16144 111.941 5.59766 111.417 5.59766 110.772C5.59766 110.122 6.15597 109.603 6.85111 109.603C7.54079 109.597 8.10457 110.122 8.10457 110.772Z" fill="#051A37"/>
<path d="M22.1205 103.553C21.907 103.553 21.6881 103.482 21.5184 103.335L17.9989 100.291C17.6376 99.9792 17.6157 99.4546 17.9496 99.1158C18.2835 98.777 18.8418 98.7551 19.2031 99.0721L22.7226 102.116C23.0839 102.427 23.1058 102.952 22.7719 103.291C22.6022 103.466 22.3614 103.553 22.1205 103.553Z" fill="#051A37"/>
<path d="M25.7226 102.242L24.2776 100.99C23.1008 99.9738 21.2617 100.039 20.1724 101.143C19.0832 102.247 19.1543 103.969 20.3366 104.985L21.7816 106.236L24.502 113.428L33.6046 104.204L25.7226 102.242Z" fill="#00A0C1"/>
<path d="M25.7234 102.242L25.1487 101.75L21.3281 105.848L21.777 106.236L21.9959 106.81L26.1613 102.351L25.7234 102.242Z" fill="#051A37"/>
<path d="M29.6155 129.412C29.3966 129.412 29.2105 129.248 29.1886 129.03L27.6943 115.756C27.6669 115.521 27.8366 115.308 28.0775 115.28C28.3128 115.253 28.5263 115.423 28.5537 115.663L30.0425 128.937C30.0698 129.172 29.9002 129.385 29.6593 129.412C29.6484 129.412 29.632 129.412 29.6155 129.412Z" fill="#287194"/>
<path d="M29.5725 120.035C29.5014 120.035 29.4357 119.98 29.4302 119.909L29.069 116.68L28.2479 116.772C28.1658 116.783 28.1001 116.723 28.0892 116.647C28.0782 116.57 28.1384 116.494 28.2151 116.488L29.3262 116.363L29.7203 119.876C29.7313 119.953 29.6711 120.029 29.5944 120.035C29.5835 120.035 29.578 120.035 29.5725 120.035Z" fill="#287194"/>
<path d="M30.5405 129.385C30.5186 129.385 30.4967 129.385 30.4803 129.379C30.2449 129.347 30.0807 129.128 30.1136 128.888L32.0348 115.668C32.0676 115.433 32.2866 115.269 32.5274 115.302C32.7628 115.335 32.927 115.554 32.8942 115.794L30.9729 129.013C30.9401 129.232 30.754 129.385 30.5405 129.385Z" fill="#287194"/>
<path d="M32.8016 120.291C32.7961 120.291 32.7851 120.291 32.7797 120.291C32.703 120.281 32.6483 120.21 32.6592 120.128L33.1245 116.909L32.3035 116.789C32.2268 116.778 32.1721 116.707 32.183 116.625C32.194 116.548 32.2651 116.488 32.3472 116.504L33.4529 116.663L32.9439 120.166C32.9329 120.242 32.8727 120.291 32.8016 120.291Z" fill="#287194"/>
<path d="M34.7228 123.079H26.1621L28.0779 131.789H32.8071L34.7228 123.079Z" fill="#183151"/>
<path d="M26.1621 123.079L28.0779 131.789H30.5301L28.6143 123.079H26.1621Z" fill="#051A37"/>
<path d="M157.15 120.007C157.15 122.909 154.791 125.265 151.885 125.265H108.32C105.414 125.265 103.055 122.915 103.055 120.007V92.7002C103.055 89.7984 105.414 87.4431 108.32 87.4431H151.885C154.791 87.4431 157.15 89.7984 157.15 92.7002V120.007Z" fill="#808080"/>
<path d="M151.885 87.4431H108.32C105.414 87.4431 103.055 89.7984 103.055 92.7002V120.007H157.15V92.7002C157.15 89.7984 154.791 87.4431 151.885 87.4431Z" fill="#0B2C51"/>
<path d="M131.047 121.887C131.047 122.434 130.603 122.871 130.061 122.871C129.514 122.871 129.076 122.428 129.076 121.887C129.076 121.346 129.52 120.904 130.061 120.904C130.603 120.904 131.047 121.346 131.047 121.887Z" fill="#0B2C51"/>
<g opacity="0.05">
<path opacity="0.05" d="M103.049 106.783L122.42 87.4431H118.107L103.049 102.477V106.783Z" fill="white"/>
<path opacity="0.05" d="M127.932 87.4431L103.049 112.286V120.007H112.42L145.037 87.4431H127.932Z" fill="white"/>
<path opacity="0.05" d="M157.151 98.7386V92.7001C157.151 91.7437 156.888 90.8475 156.44 90.0715L126.455 120.007H135.848L157.151 98.7386Z" fill="white"/>
<path opacity="0.05" d="M157.151 111.439V102.062L139.17 120.008H148.563L157.151 111.439Z" fill="white"/>
<path opacity="0.05" d="M154.025 87.9022C153.368 87.6071 152.646 87.4431 151.879 87.4431H150.166L117.549 120.007H121.862L154.025 87.9022Z" fill="white"/>
</g>
<path d="M151.885 88.5361C154.184 88.5361 156.056 90.405 156.056 92.7002V118.915H104.149V92.7002C104.149 90.405 106.021 88.5361 108.32 88.5361H151.885ZM151.885 87.4431H108.32C105.414 87.4431 103.055 89.7984 103.055 92.7002V120.007H157.15V92.7002C157.15 89.7984 154.791 87.4431 151.885 87.4431Z" fill="#051A37"/>
<path d="M51.0574 130.434H50.6523V124.221H51.0574C52.7706 124.221 54.1719 125.614 54.1719 127.33C54.1664 129.041 52.7706 130.434 51.0574 130.434ZM51.4624 125.073V129.587C52.5353 129.396 53.3508 128.456 53.3508 127.33C53.3508 126.205 52.5353 125.265 51.4624 125.073Z" fill="#003041"/>
<path d="M43.2402 122.805V130.642C43.2402 131.314 43.9682 131.855 44.8659 131.855H49.8359C50.7336 131.855 51.4616 131.314 51.4616 130.642V122.805H43.2402Z" fill="#00415C"/>
<path d="M51.4616 126.319H43.2402V126.117H51.4616V126.319Z" fill="#003041"/>
<path d="M51.4616 126.871H43.2402V126.669H51.4616V126.871Z" fill="#003041"/>
<path d="M51.4616 127.429H43.2402V127.226H51.4616V127.429Z" fill="#003041"/>
<path d="M51.4616 127.986H43.2402V127.784H51.4616V127.986Z" fill="#003041"/>
<path d="M51.4616 128.543H43.2402V128.341H51.4616V128.543Z" fill="#003041"/>
<path opacity="0.3" d="M45.2326 130.642V122.805H43.2402V130.642C43.2402 131.314 43.9682 131.855 44.8659 131.855H46.8583C45.9606 131.855 45.2326 131.314 45.2326 130.642Z" fill="#0B0B1C"/>
<defs>
<linearGradient id="paint0_linear" x1="0" y1="174" x2="174" y2="174" gradientUnits="userSpaceOnUse">
<stop stop-color="#FFE9E9"/>
<stop offset="1" stop-color="#FFE6CE"/>
</linearGradient>
</defs>
</svg>
