<svg width="259" height="174" viewBox="0 0 259 174" fill="none" xmlns="http://www.w3.org/2000/svg">
<circle cx="127.002" cy="87" r="87" fill="url(#paint0_linear)" fill-opacity="0.5"/>
<g clip-path="url(#clip0)">
<path d="M125.32 173C194.533 173 250.64 166.833 250.64 159.224C250.64 151.616 194.533 145.448 125.32 145.448C56.1078 145.448 0 151.616 0 159.224C0 166.833 56.1078 173 125.32 173Z" fill="#91CDED"/>
<path d="M254.49 121.966C253.818 121.648 241.401 121.281 240.24 121.232C240.24 121.232 232.076 116.257 230.047 115.988C228.018 115.719 198.063 114.289 198.063 114.289C198.063 114.289 178.093 100.611 177.127 100.476C177.127 100.476 178.337 99.156 178.557 98.5814C178.557 98.5814 179.743 98.0436 179.767 97.4568C179.792 96.8701 157.805 84.8662 157.438 84.3773C157.292 84.1817 156.827 83.5216 156.314 82.8126C155.275 81.3458 153.613 80.4534 151.816 80.3923C142.186 80.0623 111.412 78.9988 110.935 78.7421C110.361 78.4365 79.8801 62.7166 70.8117 61.0052C61.7433 59.3061 38.2534 59.0005 38.2534 59.0005C38.2534 59.0005 37.8012 60.5407 41.0643 61.8242C44.3275 63.1077 61.0955 71.3222 63.0021 74.8915L55.5103 74.6104C55.0581 74.5982 54.6059 74.6593 54.1903 74.7938C53.5793 75.0016 52.9926 75.2338 52.5038 75.5761C50.8661 76.7129 50.0961 78.6932 49.5339 80.4901C48.7151 83.106 48.0429 86.0153 48.3362 88.5334C48.9106 89.0101 49.5706 89.4991 50.3405 90.0003C50.3405 90.0003 50.0717 93.3374 51.0616 94.1075C51.0616 94.1075 67.5608 95.4644 69.8951 95.4521C69.8951 95.4521 69.5529 104.473 69.1251 105.427C68.7096 106.38 57.3924 112.749 54.4714 123.42C54.4714 123.42 35.5646 125.034 35.0635 125.596C34.5625 126.159 32.277 132.491 32.277 132.491C32.277 132.491 28.2072 132.234 27.8039 132.711C27.4006 133.175 20.1654 144.666 19.6643 144.934C19.1633 145.203 13.3458 145.081 12.6491 145.448C11.9525 145.815 11.4025 150.068 11.4025 150.068C11.4025 150.068 10.5226 150.081 10.3759 150.227C10.2293 150.362 10.4004 152.22 10.6815 152.477C10.9626 152.733 31.6537 162.94 33.487 163.344C35.3202 163.747 138.642 162.659 154.371 162.867C170.1 163.075 225.268 157.782 226.649 157.048C228.03 156.327 251.972 131.977 254.123 126.415C254.123 126.415 257.448 125.767 257.387 124.985C257.325 124.215 255.162 122.284 254.49 121.966Z" fill="#6A3A27"/>
<path d="M254.49 121.966C253.818 121.648 241.401 121.281 240.24 121.232C240.24 121.232 232.076 116.257 230.047 115.988C228.018 115.719 198.063 114.289 198.063 114.289C198.063 114.289 178.093 100.611 177.127 100.476C177.127 100.476 178.337 99.156 178.557 98.5814C178.557 98.5814 179.743 98.0436 179.767 97.4568C179.792 96.8701 157.805 84.8662 157.438 84.3773C157.292 84.1817 156.827 83.5216 156.314 82.8126C155.275 81.3458 153.613 80.4534 151.816 80.3923C142.186 80.0623 111.412 78.9988 110.935 78.7421C110.361 78.4365 79.8801 62.7166 70.8117 61.0052C61.7433 59.3061 38.2534 59.0005 38.2534 59.0005C38.2534 59.0005 37.8012 60.5407 41.0643 61.8242C44.3275 63.1077 61.0955 71.3222 63.0021 74.8915L55.5103 74.6104C55.0581 74.5982 54.6059 74.6593 54.1903 74.7938C53.5793 75.0016 52.9926 75.2338 52.5038 75.5761C50.8661 76.7129 50.0961 78.6932 49.5339 80.4901C48.7151 83.106 48.0429 86.0153 48.3362 88.5334C48.9106 89.0101 49.5706 89.4991 50.3405 90.0003C50.3405 90.0003 50.0717 93.3374 51.0616 94.1075C51.0616 94.1075 67.5608 95.4644 69.8951 95.4521C69.8951 95.4521 69.5529 104.473 69.1251 105.427C68.7096 106.38 57.3924 112.749 54.4714 123.42C54.4714 123.42 35.5646 125.034 35.0635 125.596C34.5625 126.159 32.277 132.491 32.277 132.491C32.277 132.491 28.2072 132.234 27.8039 132.711C27.4006 133.175 20.1654 144.666 19.6643 144.934C19.1633 145.203 13.3458 145.081 12.6491 145.448C11.9525 145.815 11.4025 150.068 11.4025 150.068C11.4025 150.068 10.5226 150.081 10.3759 150.227C10.2293 150.362 10.4004 152.22 10.6815 152.477C10.9626 152.733 31.6537 162.94 33.487 163.344C35.3202 163.747 138.642 162.659 154.371 162.867C170.1 163.075 225.268 157.782 226.649 157.048C228.03 156.327 251.972 131.977 254.123 126.415C254.123 126.415 257.448 125.767 257.387 124.985C257.325 124.215 255.162 122.284 254.49 121.966Z" fill="#CFBCB0"/>
<path d="M36.3713 153.674C36.5301 153.076 41.1499 153.161 41.4188 152.721C42.6165 150.704 46.5274 136.928 46.8329 136.647C47.1385 136.365 49.925 136.353 50.0594 136.109C50.1939 135.864 52.2104 129.349 52.5038 129.166C52.7971 128.994 65.5075 125.78 65.752 125.547C65.9964 125.315 54.5081 123.298 54.4714 123.42C54.4714 123.42 35.5646 125.034 35.0635 125.596C34.5625 126.159 32.277 132.49 32.277 132.49C32.277 132.49 28.2072 132.234 27.8039 132.711C27.4006 133.175 20.1654 144.665 19.6643 144.934C19.1633 145.203 13.3458 145.081 12.6491 145.448C11.9525 145.815 11.4025 150.068 11.4025 150.068C11.4025 150.068 10.5226 150.081 10.3759 150.227C10.2293 150.362 10.4004 152.22 10.6815 152.477C10.9626 152.733 31.6537 162.94 33.487 163.344C33.597 163.368 34.0492 163.38 34.8069 163.405C34.6847 163.087 35.6502 156.474 36.3713 153.674Z" fill="#F5E0D4"/>
<path d="M36.3715 153.674C36.5304 153.075 41.1501 153.161 41.419 152.721C42.6167 150.704 46.5276 136.928 46.8332 136.647C47.1387 136.365 49.9252 136.353 50.0597 136.109C50.1941 135.864 52.2107 129.349 52.504 129.166C52.7973 128.994 65.5078 125.78 65.7522 125.547C65.9966 125.315 65.0067 135.705 64.97 135.828C64.97 135.828 64.7256 143.578 64.2245 144.152C63.7234 144.714 63.149 163.344 63.149 163.344C63.149 163.344 31.654 162.928 33.4872 163.344C33.5972 163.368 34.0494 163.38 34.8071 163.405C34.6849 163.087 35.6504 156.474 36.3715 153.674Z" fill="#CFBCB0"/>
<path d="M12.6491 145.46C11.9525 145.827 11.4025 150.081 11.4025 150.081C11.4025 150.081 10.5226 150.093 10.3759 150.24C10.2293 150.374 10.4004 152.232 10.6815 152.489C10.9626 152.745 31.6537 162.952 33.487 163.356C33.597 163.38 34.0492 163.392 34.8069 163.417C34.6969 163.111 35.6502 156.498 36.3713 153.687C36.3835 153.662 32.0815 152.489 28.0728 151.095C21.1187 148.65 12.7347 145.411 12.6491 145.46Z" fill="#F9EEE7"/>
<path d="M27.7923 132.723C27.389 133.187 20.1538 144.678 19.6528 144.947C19.5428 145.008 41.3461 152.831 41.4072 152.721C42.6049 150.704 46.5158 136.928 46.8214 136.647C46.8825 136.598 27.8779 132.625 27.7923 132.723Z" fill="#F9EEE7"/>
<path d="M35.0502 125.608C34.5491 126.171 32.2637 132.503 32.2637 132.503C32.2637 132.503 49.985 136.231 50.0461 136.109C50.1805 135.864 52.1971 129.349 52.4904 129.166C52.576 129.129 35.1602 125.498 35.0502 125.608Z" fill="#F9EEE7"/>
<path d="M157.426 84.3895C157.28 84.1939 156.815 83.5338 156.302 82.8249C155.263 81.358 153.601 80.4656 151.805 80.4045C142.174 80.0745 111.4 79.011 110.923 78.7543C110.361 78.4365 79.8805 62.7166 70.812 61.0052C61.7436 59.3061 38.2537 59.0005 38.2537 59.0005C38.2537 59.0005 37.8015 60.5407 41.0647 61.8242C44.3278 63.1077 61.0959 71.3222 63.0024 74.8915L55.5106 74.6104C55.0584 74.5982 54.6062 74.6593 54.1907 74.7938C53.5796 75.0016 52.993 75.2338 52.5041 75.5761C50.8664 76.7129 50.0964 78.6932 49.5342 80.4901C48.7154 83.106 48.0432 86.0153 48.3365 88.5334C48.9109 89.0101 49.5709 89.4991 50.3409 90.0003C50.3409 90.0003 50.072 93.3374 51.0619 94.1075C51.0619 94.1075 67.5611 95.4644 69.8954 95.4521C69.8954 95.4521 97.4673 96.4912 102.552 96.4545C117.657 96.3811 178.521 98.7159 178.57 98.5814C178.57 98.5814 179.755 98.0436 179.78 97.4568C179.78 96.8945 157.805 84.8907 157.426 84.3895Z" fill="#CFBCB0"/>
<path d="M157.426 84.3894C157.279 84.1939 156.815 83.5338 156.302 82.8248C155.263 81.3579 153.601 80.4656 151.804 80.4044C142.174 80.0744 111.4 79.0109 110.923 78.7542C110.85 78.7176 54.8991 79.1821 53.6281 79.8788C51.0249 81.2968 50.206 89.9269 50.3282 90.0124C50.3282 90.0124 50.0594 93.3495 51.0493 94.1196C51.0493 94.1196 67.5485 95.4765 69.8828 95.4643C69.8828 95.4643 97.4547 96.5033 102.539 96.4666C117.645 96.3933 178.508 98.7281 178.557 98.5936C178.557 98.5936 179.743 98.0557 179.767 97.469C179.779 96.8945 157.805 84.8906 157.426 84.3894Z" fill="#F5E0D4"/>
<path d="M75.1875 130.033L77.3752 97.9824L83.4615 98.6181L81.8727 128.078L75.1875 130.033Z" fill="#1A263A"/>
<path d="M83.6328 127.748L84.7328 98.7036L90.1469 99.4126L89.1203 126.586L83.6328 127.748Z" fill="#1A263A"/>
<path d="M258.487 109.326C244.603 107.652 191.341 106.881 186.99 106.796L189.105 108.214C190.424 108.238 195.998 108.153 204.748 108.361L195.545 120.487H197.794L206.178 108.397C212.949 108.568 220.893 108.776 228.739 109.033L219.72 120.719L221.626 120.756L230.169 109.082C238.272 109.351 246.179 109.669 252.498 110.035L243.588 121.355L245.642 121.428L253.891 110.121C257.668 110.353 256.226 110.231 258.34 110.488C258.352 110.488 258.377 110.488 258.389 110.488C258.694 110.5 258.951 110.28 258.988 109.974C259.037 109.656 258.804 109.363 258.487 109.326Z" fill="#1E1E1C"/>
<path d="M254.491 121.966C253.818 121.648 241.401 121.281 240.24 121.232C240.24 121.232 232.076 116.257 230.047 115.988C228.019 115.719 198.064 114.289 198.064 114.289C198.064 114.289 178.093 100.611 177.128 100.476C177.128 100.476 153.467 98.3248 147.014 98.1414C127.166 97.5547 105.583 100.061 88.9858 112.064C79.0985 119.215 54.7531 158.564 52.541 163.393C83.5961 163.258 142.773 162.696 154.359 162.855C170.088 163.063 225.257 157.77 226.638 157.036C228.019 156.315 251.961 131.965 254.112 126.403C254.112 126.403 257.436 125.755 257.375 124.973C257.326 124.215 255.163 122.284 254.491 121.966Z" fill="#F5E0D4"/>
<path d="M142.395 113.421C168.891 113.837 198.064 114.301 198.064 114.301C198.064 114.301 178.094 100.623 177.128 100.488C177.128 100.488 153.467 98.3369 147.014 98.1536C146.623 98.1413 145.169 98.178 142.969 98.3247L142.395 113.421Z" fill="#1A263A"/>
<path d="M141.355 98.447C130.759 99.3027 108.443 102.444 100.107 112.81C100.315 112.773 119.479 113.067 140.781 113.397L141.355 98.447Z" fill="#1A263A"/>
<path d="M254.489 121.966C253.817 121.648 241.4 121.281 240.239 121.232C240.239 121.232 159.271 118.262 108.612 124.154C61.5104 129.63 41.027 151.108 32.7652 162.94C32.7408 162.977 32.7041 163.014 32.6797 163.05C33.0586 163.197 33.3397 163.307 33.4863 163.344C35.3196 163.747 138.641 162.659 154.37 162.867C170.099 163.075 225.268 157.782 226.649 157.048C228.03 156.327 251.972 131.977 254.123 126.415C254.123 126.415 257.447 125.767 257.386 124.985C257.325 124.215 255.162 122.284 254.489 121.966Z" fill="#F9EEE7"/>
<path d="M120.591 130.706C94.2655 133.346 68.368 140.962 47.2246 163.429C76.2509 163.344 142.076 162.708 154.371 162.867C170.101 163.075 225.269 157.782 226.65 157.048C228.031 156.327 251.973 131.977 254.124 126.415C254.124 126.427 166.446 126.097 120.591 130.706Z" fill="#F5E0D4"/>
<path d="M157.695 156.596C111.485 160.129 42.9343 161.339 35.6013 159.982C28.9894 157.55 11.4025 150.081 11.4025 150.081C11.4025 150.081 10.5226 150.093 10.3759 150.24C10.2293 150.374 10.4004 152.232 10.6815 152.489C10.9626 152.746 31.6537 162.953 33.487 163.356C35.3202 163.759 138.642 162.671 154.371 162.879C170.1 163.087 225.268 157.794 226.649 157.061C227.383 156.682 234.324 149.775 241.071 142.514C236.524 145.179 191.805 153.98 157.695 156.596Z" fill="#1A263A"/>
<path d="M208.671 134.678C208.61 133.481 206.593 132.613 204.174 132.735C201.754 132.869 199.835 133.945 199.908 135.143C199.969 136.341 201.986 137.209 204.406 137.087C206.813 136.964 208.732 135.889 208.671 134.678Z" fill="#1A263A"/>
<path d="M170.98 136.304C170.907 134.948 168.634 133.97 165.908 134.116C163.183 134.263 161.032 135.473 161.105 136.83C161.179 138.187 163.452 139.165 166.177 139.018C168.903 138.871 171.054 137.661 170.98 136.304Z" fill="#1A263A"/>
<path d="M239.067 131.623C238.871 130.633 237.099 130.144 235.107 130.535C233.115 130.926 231.648 132.038 231.844 133.028C232.039 134.019 233.811 134.508 235.803 134.116C237.796 133.725 239.25 132.613 239.067 131.623Z" fill="#1A263A"/>
<path d="M102.393 140.106C102.393 140.106 112.427 141.94 121.862 141.426C131.297 140.913 147.564 139.776 147.564 139.776C147.564 139.776 108.063 139.25 102.393 140.106Z" fill="#1A263A"/>
<path d="M40.4294 60.4674C47.4568 60.8952 50.5366 60.4674 57.0874 61.8976C60.1183 62.5454 82.4961 74.2681 90.8434 80.8568C91.9311 81.7125 114.052 82.1281 114.333 80.9913C114.407 80.6734 111.009 78.791 110.924 78.7421C110.361 78.4365 79.8807 62.7166 70.8122 61.0052C61.7438 59.3061 38.2539 59.0005 38.2539 59.0005C38.2539 59.0005 38.645 60.3573 40.4294 60.4674Z" fill="#F9EEE7"/>
<path d="M98.334 115.132C98.334 115.132 103.333 125.474 124.305 125.559C145.277 125.645 174.022 124.545 174.022 124.545C174.022 124.545 117.302 114.252 98.334 115.132Z" fill="#1A263A"/>
</g>
<defs>
<linearGradient id="paint0_linear" x1="40.002" y1="174" x2="214.002" y2="174" gradientUnits="userSpaceOnUse">
<stop stop-color="#FFE9E9"/>
<stop offset="1" stop-color="#FFE6CE"/>
</linearGradient>
<clipPath id="clip0">
<rect width="259" height="114" fill="white" transform="translate(0 59.0005)"/>
</clipPath>
</defs>
</svg>
