<svg width="232" height="228" viewBox="0 0 232 228" fill="none" xmlns="http://www.w3.org/2000/svg">
<circle cx="116.002" cy="132" r="87" fill="url(#paint0_linear)" fill-opacity="0.5"/>
<path opacity="0.13" d="M65.5278 203.466C38.1248 203.466 38.5095 215.398 51.5437 217.274C64.5779 219.15 117.749 222.124 117.749 222.124C117.749 222.124 129.448 228 152.324 228C175.2 228 176.433 218.089 176.433 218.089C176.433 218.089 201.04 218.227 200.343 210.445C199.645 202.663 156.124 205.101 156.124 205.101L65.5278 203.466Z" fill="#231F20"/>
<path d="M203.721 81.6747C198.605 81.6747 196.399 75.4371 203.776 73.941C203.776 73.941 201.725 70.5749 204.575 68.8254C207.425 67.082 209.535 70.1948 209.535 70.1948C209.535 70.1948 208.044 65.5799 213.016 65.0792C217.988 64.5785 216.497 72.3122 216.497 72.3122C216.497 72.3122 217.615 69.4468 219.479 70.9428C221.343 72.4389 220.225 73.3619 220.225 73.3619C220.225 73.3619 221.842 72.0408 223.08 73.3619C224.325 74.683 223.08 75.6784 223.08 75.6784C223.08 75.6784 228.551 71.0635 231.16 75.057C233.77 79.0506 229.669 81.6687 227.307 81.6687C224.944 81.6687 203.721 81.6747 203.721 81.6747Z" fill="white"/>
<path d="M75.5435 189.892C75.5435 189.892 75.5375 189.892 75.5435 189.892C75.0205 189.886 74.4974 189.88 73.9804 189.862C73.8361 189.856 73.7218 189.742 73.7279 189.597C73.7339 189.452 73.8481 189.344 73.9924 189.344C74.5094 189.356 75.0265 189.368 75.5435 189.374C75.6878 189.374 75.802 189.494 75.802 189.639C75.802 189.778 75.6818 189.892 75.5435 189.892ZM77.1006 189.892C76.9564 189.892 76.8421 189.778 76.8421 189.633C76.8421 189.488 76.9564 189.374 77.1006 189.368C77.6177 189.362 78.1347 189.356 78.6518 189.337H78.6578C78.796 189.337 78.9163 189.452 78.9163 189.591C78.9223 189.736 78.8081 189.856 78.6638 189.856C78.1467 189.874 77.6237 189.886 77.1006 189.892ZM72.4232 189.808C72.4172 189.808 72.4172 189.808 72.4112 189.808C71.8882 189.784 71.3711 189.76 70.8481 189.724C70.7038 189.718 70.5956 189.591 70.6076 189.446C70.6136 189.301 70.7459 189.193 70.8842 189.205C71.4012 189.235 71.9182 189.265 72.4353 189.289C72.5796 189.295 72.6878 189.416 72.6818 189.561C72.6758 189.699 72.5615 189.808 72.4232 189.808ZM80.2149 189.802C80.0766 189.802 79.9624 189.693 79.9564 189.555C79.9504 189.41 80.0586 189.289 80.2029 189.283C80.7199 189.259 81.2369 189.229 81.754 189.193C81.8983 189.187 82.0185 189.289 82.0305 189.434C82.0426 189.579 81.9343 189.699 81.7901 189.712C81.273 189.748 80.75 189.778 80.2269 189.802C80.2209 189.802 80.2209 189.802 80.2149 189.802ZM69.309 189.621C69.303 189.621 69.297 189.621 69.291 189.621C68.7739 189.579 68.2509 189.537 67.7338 189.482C67.5895 189.47 67.4873 189.344 67.4994 189.199C67.5114 189.054 67.6497 188.951 67.7819 188.963C68.299 189.012 68.816 189.06 69.333 189.102C69.4773 189.114 69.5855 189.241 69.5735 189.38C69.5615 189.512 69.4473 189.621 69.309 189.621ZM83.3231 189.597C83.1909 189.597 83.0766 189.494 83.0646 189.362C83.0526 189.217 83.1608 189.09 83.2991 189.078C83.744 189.042 84.1829 189 84.6217 188.951C84.76 188.933 84.8923 189.042 84.9043 189.181C84.9223 189.325 84.8141 189.452 84.6758 189.464C84.231 189.512 83.7861 189.555 83.3412 189.591C83.3352 189.597 83.3291 189.597 83.3231 189.597ZM66.2068 189.319C66.1947 189.319 66.1887 189.319 66.1767 189.319C65.6597 189.259 65.1426 189.199 64.6256 189.132C64.4813 189.114 64.3851 188.982 64.4031 188.843C64.4212 188.698 64.5534 188.602 64.6917 188.62C65.2088 188.686 65.7198 188.746 66.2368 188.807C66.3811 188.825 66.4833 188.951 66.4653 189.096C66.4533 189.223 66.339 189.319 66.2068 189.319ZM63.1166 188.921C63.1045 188.921 63.0925 188.921 63.0805 188.921C62.5634 188.849 62.0524 188.764 61.5354 188.686C61.3911 188.662 61.2949 188.529 61.3189 188.384C61.343 188.24 61.4753 188.143 61.6195 188.167C62.1306 188.252 62.6416 188.33 63.1526 188.402C63.2969 188.421 63.3931 188.553 63.3751 188.698C63.357 188.831 63.2428 188.921 63.1166 188.921ZM60.0444 188.427C60.0263 188.427 60.0143 188.427 59.9963 188.421C59.4853 188.33 58.9742 188.234 58.4632 188.137C58.3249 188.107 58.2287 187.974 58.2588 187.829C58.2889 187.691 58.4211 187.6 58.5654 187.624C59.0704 187.721 59.5814 187.817 60.0925 187.908C60.2308 187.932 60.327 188.071 60.3029 188.209C60.2728 188.336 60.1646 188.427 60.0444 188.427ZM56.9902 187.829C56.9722 187.829 56.9542 187.829 56.9361 187.823C56.4251 187.715 55.9201 187.606 55.4151 187.492C55.2768 187.461 55.1866 187.323 55.2167 187.178C55.2467 187.039 55.385 186.949 55.5293 186.979C56.0343 187.093 56.5393 187.202 57.0444 187.311C57.1826 187.341 57.2728 187.479 57.2428 187.618C57.2187 187.745 57.1105 187.829 56.9902 187.829ZM53.9541 187.142C53.9361 187.142 53.9121 187.142 53.894 187.136C53.389 187.015 52.884 186.882 52.385 186.756C52.2467 186.719 52.1625 186.575 52.1986 186.436C52.2347 186.297 52.373 186.213 52.5173 186.249C53.0163 186.382 53.5153 186.508 54.0203 186.629C54.1586 186.665 54.2427 186.804 54.2127 186.943C54.1826 187.063 54.0744 187.142 53.9541 187.142ZM50.9481 186.357C50.9241 186.357 50.9 186.351 50.876 186.345C50.371 186.207 49.8719 186.062 49.3729 185.917C49.2347 185.875 49.1565 185.73 49.1986 185.591C49.2407 185.453 49.385 185.374 49.5232 185.416C50.0223 185.561 50.5152 185.706 51.0203 185.845C51.1585 185.881 51.2367 186.026 51.2006 186.164C51.1645 186.279 51.0623 186.357 50.9481 186.357ZM47.9541 185.471C47.93 185.471 47.9 185.465 47.8759 185.459C47.3769 185.302 46.8839 185.145 46.391 184.982C46.2527 184.94 46.1805 184.789 46.2226 184.656C46.2647 184.518 46.415 184.445 46.5473 184.493C47.0403 184.656 47.5332 184.813 48.0262 184.97C48.1645 185.012 48.2367 185.157 48.1946 185.296C48.1705 185.398 48.0683 185.471 47.9541 185.471ZM44.9962 184.493C44.9661 184.493 44.942 184.487 44.912 184.481C44.419 184.312 43.926 184.131 43.439 183.956C43.3068 183.908 43.2346 183.757 43.2827 183.625C43.3308 183.492 43.4811 183.42 43.6134 183.468C44.1004 183.649 44.5873 183.818 45.0743 183.993C45.2126 184.041 45.2847 184.186 45.2366 184.324C45.2006 184.427 45.1044 184.493 44.9962 184.493ZM42.0683 183.42C42.0382 183.42 42.0082 183.414 41.9721 183.401C41.4851 183.214 40.9981 183.021 40.5172 182.828C40.3849 182.774 40.3188 182.623 40.3729 182.491C40.427 182.358 40.5773 182.291 40.7095 182.346C41.1905 182.539 41.6715 182.732 42.1524 182.919C42.2847 182.973 42.3508 183.124 42.3027 183.257C42.2727 183.359 42.1705 183.42 42.0683 183.42ZM39.1765 182.249C39.1404 182.249 39.1103 182.243 39.0743 182.231C38.5933 182.026 38.1123 181.821 37.6434 181.604C37.5111 181.543 37.451 181.393 37.5111 181.26C37.5712 181.127 37.7215 181.067 37.8538 181.127C38.3228 181.338 38.7977 181.543 39.2787 181.749C39.4109 181.803 39.4711 181.96 39.4169 182.092C39.3749 182.189 39.2787 182.249 39.1765 182.249ZM36.3328 180.976C36.2967 180.976 36.2606 180.97 36.2245 180.952C35.7496 180.729 35.2806 180.506 34.8117 180.277C34.6854 180.216 34.6313 180.059 34.6915 179.927C34.7576 179.794 34.9139 179.746 35.0402 179.806C35.5031 180.035 35.972 180.259 36.441 180.482C36.5732 180.542 36.6273 180.699 36.5672 180.826C36.5251 180.922 36.4289 180.976 36.3328 180.976ZM33.5311 179.601C33.489 179.601 33.453 179.589 33.4109 179.571C32.9419 179.33 32.485 179.088 32.0281 178.841C31.9019 178.775 31.8538 178.612 31.9199 178.485C31.986 178.358 32.1483 178.31 32.2746 178.376C32.7255 178.624 33.1884 178.865 33.6514 179.1C33.7776 179.167 33.8317 179.323 33.7656 179.45C33.7175 179.553 33.6273 179.601 33.5311 179.601ZM30.7896 178.123C30.7475 178.123 30.6994 178.111 30.6634 178.087C30.2064 177.827 29.7555 177.568 29.3106 177.303C29.1904 177.23 29.1483 177.067 29.2205 176.947C29.2926 176.82 29.4549 176.784 29.5752 176.856C30.0201 177.122 30.465 177.381 30.9219 177.634C31.0481 177.707 31.0902 177.864 31.0181 177.99C30.964 178.075 30.8798 178.123 30.7896 178.123ZM28.1082 176.524C28.0601 176.524 28.012 176.512 27.97 176.482C27.5251 176.205 27.0862 175.921 26.6533 175.638C26.5331 175.559 26.497 175.396 26.5752 175.276C26.6533 175.155 26.8156 175.125 26.9359 175.197C27.3687 175.481 27.8016 175.758 28.2465 176.036C28.3668 176.114 28.4028 176.271 28.3307 176.398C28.2766 176.482 28.1924 176.524 28.1082 176.524ZM25.499 174.817C25.4449 174.817 25.3968 174.805 25.3487 174.769C24.9158 174.467 24.489 174.166 24.0741 173.864C23.9599 173.78 23.9298 173.617 24.014 173.502C24.0982 173.387 24.2605 173.363 24.3747 173.442C24.7896 173.743 25.2104 174.045 25.6433 174.341C25.7635 174.425 25.7936 174.582 25.7094 174.703C25.6613 174.775 25.5832 174.817 25.499 174.817ZM22.9799 172.977C22.9258 172.977 22.8717 172.959 22.8236 172.923C22.4088 172.603 21.994 172.277 21.5972 171.952C21.4829 171.861 21.4709 171.698 21.5611 171.584C21.6513 171.475 21.8136 171.457 21.9278 171.548C22.3246 171.873 22.7334 172.193 23.1423 172.513C23.2565 172.603 23.2805 172.766 23.1904 172.881C23.1362 172.941 23.0581 172.977 22.9799 172.977ZM20.5631 171.005C20.503 171.005 20.4428 170.987 20.3947 170.944C19.9979 170.6 19.6072 170.251 19.2224 169.901C19.1142 169.804 19.1082 169.641 19.2044 169.533C19.3005 169.424 19.4689 169.418 19.5711 169.515C19.9498 169.864 20.3346 170.208 20.7314 170.546C20.8396 170.643 20.8517 170.806 20.7615 170.914C20.7074 170.974 20.6352 171.005 20.5631 171.005ZM18.2665 168.887C18.2003 168.887 18.1342 168.863 18.0861 168.815C17.7073 168.447 17.3466 168.073 16.9859 167.693C16.8897 167.59 16.8897 167.421 16.9979 167.325C17.1001 167.228 17.2685 167.228 17.3647 167.337C17.7194 167.711 18.0801 168.079 18.4528 168.447C18.555 168.549 18.555 168.712 18.4589 168.815C18.4047 168.863 18.3326 168.887 18.2665 168.887ZM16.1262 166.619C16.054 166.619 15.9819 166.589 15.9338 166.528C15.5851 166.13 15.2484 165.726 14.9238 165.322C14.8336 165.207 14.8516 165.044 14.9658 164.954C15.0801 164.863 15.2424 164.882 15.3326 164.996C15.6512 165.394 15.9819 165.792 16.3306 166.185C16.4268 166.293 16.4147 166.456 16.3065 166.553C16.2464 166.595 16.1863 166.619 16.1262 166.619ZM14.1783 164.182C14.1001 164.182 14.0219 164.146 13.9678 164.073C13.6552 163.645 13.3546 163.211 13.072 162.782C12.9939 162.662 13.0239 162.499 13.1442 162.42C13.2644 162.342 13.4267 162.372 13.5049 162.493C13.7875 162.915 14.0821 163.343 14.3887 163.766C14.4728 163.88 14.4488 164.043 14.3346 164.128C14.2805 164.17 14.2264 164.182 14.1783 164.182ZM12.4588 161.576C12.3686 161.576 12.2845 161.527 12.2364 161.449C11.9658 160.991 11.7133 160.526 11.4788 160.068C11.4127 159.941 11.4668 159.784 11.5931 159.718C11.7193 159.651 11.8756 159.706 11.9418 159.832C12.1702 160.279 12.4227 160.737 12.6873 161.19C12.7594 161.316 12.7173 161.473 12.5971 161.546C12.549 161.564 12.5069 161.576 12.4588 161.576ZM11.0339 158.801C10.9377 158.801 10.8416 158.746 10.7995 158.65C10.583 158.173 10.3786 157.691 10.1742 157.208C10.1201 157.075 10.1802 156.925 10.3125 156.87C10.4448 156.816 10.5951 156.876 10.6492 157.009C10.8476 157.492 11.052 157.962 11.2624 158.433C11.3225 158.565 11.2624 158.716 11.1361 158.777C11.1061 158.789 11.07 158.801 11.0339 158.801ZM9.84956 155.905C9.74134 155.905 9.64515 155.839 9.60908 155.736C9.42872 155.248 9.25437 154.753 9.08603 154.252C9.03793 154.113 9.11609 153.969 9.24835 153.92C9.38663 153.872 9.53092 153.951 9.57902 154.083C9.74134 154.578 9.91569 155.067 10.0961 155.549C10.1442 155.682 10.078 155.833 9.94575 155.881C9.90968 155.905 9.87962 155.905 9.84956 155.905ZM8.86358 152.943C8.74935 152.943 8.64715 152.871 8.61709 152.756C8.46678 152.255 8.32851 151.749 8.19624 151.242C8.16017 151.103 8.24434 150.958 8.38261 150.922C8.52089 150.886 8.66518 150.971 8.70125 151.109C8.83352 151.61 8.9718 152.111 9.11609 152.605C9.15817 152.744 9.08002 152.889 8.94174 152.931C8.91168 152.937 8.88763 152.943 8.86358 152.943ZM8.076 149.915C7.95576 149.915 7.85355 149.83 7.82349 149.71C7.70926 149.197 7.60104 148.684 7.49884 148.171C7.46878 148.033 7.56497 147.894 7.70325 147.864C7.84754 147.834 7.97981 147.93 8.00987 148.069C8.10606 148.576 8.21428 149.082 8.32851 149.589C8.35857 149.728 8.2744 149.867 8.13612 149.903C8.11207 149.915 8.09404 149.915 8.076 149.915ZM7.47479 146.85C7.34854 146.85 7.24032 146.76 7.21627 146.633C7.1321 146.114 7.05395 145.596 6.98781 145.077C6.96978 144.932 7.07198 144.805 7.21026 144.787C7.35455 144.769 7.4808 144.872 7.49884 145.01C7.56497 145.523 7.63712 146.036 7.72129 146.549C7.74533 146.693 7.64914 146.826 7.50485 146.85C7.50485 146.85 7.49283 146.85 7.47479 146.85ZM7.07198 143.75C6.93972 143.75 6.82549 143.647 6.81346 143.514C6.76537 142.989 6.72328 142.465 6.68721 141.946C6.67519 141.801 6.78941 141.68 6.92769 141.668C7.06597 141.656 7.19222 141.771 7.20425 141.91C7.23431 142.422 7.27639 142.941 7.3305 143.46C7.34253 143.605 7.24032 143.731 7.09603 143.744C7.09002 143.75 7.08401 143.75 7.07198 143.75ZM6.8796 140.631C6.74132 140.631 6.62709 140.522 6.62108 140.377C6.60905 139.943 6.60304 139.515 6.60304 139.086V138.803C6.60304 138.658 6.71727 138.543 6.86156 138.543C7.00585 138.543 7.12008 138.664 7.12008 138.803V139.086C7.12008 139.509 7.12609 139.931 7.13811 140.359C7.14413 140.504 7.0299 140.625 6.88561 140.625C6.8796 140.631 6.8796 140.631 6.8796 140.631ZM18.9639 140.522C18.8737 140.522 18.7775 140.522 18.6873 140.516C18.543 140.51 18.4348 140.389 18.4408 140.245C18.4468 140.1 18.5671 139.997 18.7114 139.997C18.8076 140.003 18.9037 139.997 18.9999 140.003C19.4028 140.003 19.8116 139.973 20.2144 139.907C20.3527 139.883 20.4909 139.979 20.509 140.124C20.533 140.269 20.4368 140.402 20.2925 140.42C19.8476 140.486 19.3967 140.516 18.9639 140.522ZM17.1542 140.299C17.1362 140.299 17.1121 140.299 17.0941 140.293C16.5831 140.166 16.0721 139.991 15.5791 139.762C15.4468 139.702 15.3927 139.545 15.4528 139.418C15.5129 139.285 15.6632 139.231 15.7955 139.292C16.2584 139.503 16.7394 139.672 17.2144 139.792C17.3526 139.828 17.4368 139.967 17.4067 140.106C17.3767 140.221 17.2685 140.299 17.1542 140.299ZM21.7535 140.034C21.6453 140.034 21.543 139.967 21.507 139.859C21.4589 139.72 21.531 139.575 21.6633 139.527C22.1322 139.364 22.5952 139.153 23.0461 138.905C23.1723 138.833 23.3286 138.881 23.4008 139.008C23.4669 139.135 23.4248 139.292 23.2986 139.364C22.8236 139.623 22.3366 139.847 21.8437 140.021C21.8076 140.034 21.7775 140.034 21.7535 140.034ZM14.3346 139.014C14.2865 139.014 14.2324 139.002 14.1903 138.966C13.7694 138.676 13.3486 138.338 12.9458 137.97C12.8376 137.874 12.8316 137.705 12.9338 137.602C13.0299 137.5 13.1923 137.488 13.3005 137.584C13.6853 137.94 14.0821 138.26 14.4849 138.537C14.6051 138.616 14.6352 138.779 14.551 138.899C14.4969 138.972 14.4187 139.014 14.3346 139.014ZM24.4769 138.55C24.3988 138.55 24.3206 138.513 24.2725 138.447C24.1884 138.332 24.2064 138.169 24.3206 138.085C24.7174 137.783 25.1022 137.446 25.4689 137.084C25.5711 136.981 25.7335 136.981 25.8357 137.084C25.9379 137.186 25.9379 137.349 25.8357 137.452C25.4569 137.832 25.0481 138.182 24.6333 138.501C24.5852 138.531 24.531 138.55 24.4769 138.55ZM6.89763 137.506C6.89162 137.506 6.89162 137.506 6.88561 137.506C6.74132 137.5 6.6331 137.379 6.63911 137.234C6.66316 136.704 6.69923 136.179 6.74132 135.666C6.75334 135.521 6.8796 135.413 7.02389 135.431C7.16818 135.443 7.27038 135.569 7.25836 135.714C7.21627 136.227 7.1802 136.74 7.15615 137.265C7.15014 137.397 7.03591 137.506 6.89763 137.506ZM12.044 136.909C11.9718 136.909 11.8997 136.879 11.8456 136.818C11.5149 136.432 11.1903 136.01 10.8776 135.563C10.7935 135.449 10.8235 135.286 10.9438 135.201C11.064 135.123 11.2203 135.147 11.3045 135.268C11.6051 135.702 11.9237 136.112 12.2424 136.486C12.3386 136.595 12.3205 136.758 12.2123 136.854C12.1642 136.891 12.1041 136.909 12.044 136.909ZM26.6774 136.354C26.6233 136.354 26.5631 136.336 26.521 136.299C26.4068 136.209 26.3888 136.046 26.4729 135.931C26.7856 135.527 27.0681 135.105 27.3267 134.665C27.3988 134.538 27.5551 134.502 27.6814 134.574C27.8076 134.646 27.8497 134.803 27.7716 134.93C27.507 135.388 27.2064 135.835 26.8818 136.251C26.8337 136.317 26.7555 136.354 26.6774 136.354ZM7.16818 134.393C7.15615 134.393 7.14413 134.393 7.1321 134.393C6.98781 134.375 6.89162 134.242 6.90966 134.104C6.97579 133.579 7.05996 133.054 7.15014 132.547C7.17419 132.408 7.31247 132.312 7.45074 132.336C7.58902 132.36 7.68521 132.499 7.66117 132.638C7.57098 133.138 7.49283 133.651 7.42669 134.17C7.40866 134.297 7.29443 134.393 7.16818 134.393ZM10.2524 134.357C10.1622 134.357 10.078 134.309 10.0299 134.23C9.7714 133.79 9.5189 133.319 9.28443 132.837C9.21829 132.71 9.2724 132.553 9.39866 132.487C9.52491 132.42 9.68122 132.475 9.74736 132.601C9.98183 133.072 10.2283 133.53 10.4748 133.959C10.547 134.085 10.5049 134.242 10.3846 134.315C10.3426 134.345 10.3005 134.357 10.2524 134.357ZM28.2465 133.657C28.2104 133.657 28.1804 133.651 28.1443 133.639C28.012 133.585 27.9519 133.428 28.006 133.295C28.2044 132.819 28.3668 132.336 28.487 131.847C28.5231 131.709 28.6613 131.624 28.7996 131.66C28.9379 131.697 29.0221 131.835 28.986 131.974C28.8597 132.481 28.6854 132.994 28.481 133.494C28.4449 133.597 28.3487 133.657 28.2465 133.657ZM8.86358 131.564C8.76138 131.564 8.66518 131.504 8.6231 131.407C8.4728 131.051 8.32249 130.683 8.1782 130.309C8.10606 130.574 8.03993 130.846 7.97379 131.117C7.94373 131.256 7.79944 131.347 7.66117 131.31C7.52289 131.28 7.43271 131.136 7.46878 130.997C7.58902 130.478 7.7273 129.965 7.8776 129.471C7.91968 129.332 8.06397 129.253 8.20225 129.296C8.33452 129.338 8.41268 129.477 8.3766 129.609C8.44274 129.633 8.49684 129.688 8.5269 129.76C8.70727 130.249 8.89965 130.737 9.09805 131.202C9.15216 131.335 9.09204 131.485 8.95977 131.546C8.92971 131.558 8.89965 131.564 8.86358 131.564ZM29.004 130.635C28.998 130.635 28.986 130.635 28.98 130.635C28.8357 130.623 28.7335 130.496 28.7455 130.351C28.7696 130.098 28.7816 129.845 28.7816 129.591C28.7816 129.338 28.7696 129.084 28.7455 128.837C28.7335 128.692 28.8357 128.566 28.98 128.554C29.1183 128.542 29.2505 128.644 29.2626 128.789C29.2866 129.054 29.2986 129.32 29.2986 129.591C29.2986 129.857 29.2866 130.128 29.2626 130.4C29.2505 130.532 29.1363 130.635 29.004 130.635ZM7.7754 128.638C7.66718 128.638 7.56497 128.566 7.5289 128.457C7.37259 127.974 7.22228 127.474 7.07198 126.955C7.0299 126.816 7.11407 126.671 7.25234 126.635C7.39062 126.593 7.53491 126.677 7.57098 126.816C7.71527 127.329 7.86558 127.824 8.02189 128.3C8.06397 128.439 7.99183 128.584 7.85355 128.626C7.8295 128.632 7.79944 128.638 7.7754 128.638ZM8.62911 128.33C8.59905 128.33 8.56899 128.324 8.53893 128.312C8.40666 128.258 8.34053 128.113 8.38863 127.974C8.58101 127.474 8.79144 126.985 9.01388 126.521C9.074 126.394 9.23032 126.334 9.36258 126.4C9.49485 126.46 9.54896 126.617 9.48282 126.75C9.26639 127.202 9.06198 127.679 8.8756 128.168C8.83352 128.264 8.73733 128.33 8.62911 128.33ZM28.7094 127.54C28.5952 127.54 28.493 127.468 28.4629 127.353C28.3187 126.871 28.1263 126.4 27.8918 125.96C27.8257 125.833 27.8738 125.676 28 125.604C28.1263 125.537 28.2826 125.58 28.3547 125.712C28.6072 126.183 28.8177 126.69 28.968 127.202C29.01 127.341 28.9319 127.486 28.7936 127.528C28.7575 127.54 28.7335 127.54 28.7094 127.54ZM6.9337 125.628C6.81346 125.628 6.71126 125.549 6.6812 125.429C6.56697 124.916 6.45875 124.397 6.36857 123.884C6.34452 123.746 6.44071 123.607 6.57899 123.583C6.72328 123.553 6.85555 123.655 6.8796 123.794C6.96978 124.301 7.07198 124.813 7.18621 125.314C7.21627 125.453 7.1321 125.592 6.99383 125.628C6.96978 125.628 6.95174 125.628 6.9337 125.628ZM9.98784 125.519C9.93974 125.519 9.89766 125.507 9.85557 125.483C9.73533 125.411 9.69325 125.248 9.7714 125.127C10.054 124.663 10.3606 124.222 10.6732 123.818C10.7634 123.703 10.9257 123.685 11.04 123.776C11.1542 123.866 11.1722 124.029 11.082 124.144C10.7754 124.53 10.4868 124.952 10.2163 125.405C10.1622 125.477 10.078 125.519 9.98784 125.519ZM27.2485 124.807C27.1764 124.807 27.0982 124.777 27.0501 124.711C26.7375 124.331 26.3828 123.969 25.992 123.631C25.8838 123.535 25.8717 123.372 25.9619 123.263C26.0581 123.154 26.2204 123.142 26.3287 123.233C26.7435 123.589 27.1223 123.975 27.4529 124.373C27.5431 124.482 27.5311 124.651 27.4168 124.741C27.3627 124.789 27.3086 124.807 27.2485 124.807ZM11.9237 123.082C11.8576 123.082 11.7854 123.058 11.7374 123.004C11.6412 122.901 11.6412 122.732 11.7494 122.636C12.1462 122.262 12.561 121.918 12.9939 121.628C13.1141 121.55 13.2764 121.58 13.3546 121.701C13.4328 121.821 13.4027 121.984 13.2825 122.063C12.8736 122.34 12.4828 122.66 12.1041 123.016C12.05 123.058 11.9838 123.082 11.9237 123.082ZM24.8978 122.774C24.8497 122.774 24.8016 122.762 24.7595 122.732C24.3447 122.473 23.8878 122.225 23.4188 122.008C23.2866 121.948 23.2324 121.791 23.2926 121.664C23.3527 121.532 23.509 121.477 23.6353 121.538C24.1282 121.767 24.5972 122.02 25.0361 122.292C25.1563 122.37 25.1924 122.527 25.1202 122.648C25.0661 122.732 24.982 122.774 24.8978 122.774ZM6.39262 122.551C6.26035 122.551 6.15213 122.455 6.1341 122.322C6.07398 121.803 6.01987 121.278 5.98981 120.754C5.97778 120.609 6.086 120.488 6.23029 120.476C6.37458 120.464 6.49482 120.573 6.50685 120.717C6.54292 121.23 6.59102 121.749 6.65114 122.262C6.66917 122.406 6.56697 122.533 6.42268 122.551C6.41667 122.551 6.40464 122.551 6.39262 122.551ZM22.0841 121.441C22.0541 121.441 22.024 121.435 21.994 121.423C21.501 121.242 21.008 121.097 20.527 120.977C20.3887 120.941 20.3046 120.802 20.3346 120.663C20.3707 120.524 20.509 120.44 20.6472 120.47C21.1402 120.591 21.6513 120.747 22.1623 120.928C22.2946 120.977 22.3667 121.128 22.3186 121.26C22.2946 121.375 22.1924 121.441 22.0841 121.441ZM14.4909 121.351C14.3887 121.351 14.2925 121.29 14.2504 121.194C14.1903 121.061 14.2564 120.91 14.3827 120.85C14.8696 120.639 15.3807 120.47 15.9037 120.355C16.042 120.325 16.1803 120.416 16.2163 120.554C16.2464 120.693 16.1622 120.832 16.0179 120.868C15.525 120.977 15.044 121.134 14.5871 121.333C14.563 121.339 14.527 121.351 14.4909 121.351ZM19.0661 120.717C19.054 120.717 19.048 120.717 19.036 120.717C18.519 120.657 18.0079 120.639 17.521 120.663C17.3767 120.669 17.2564 120.554 17.2504 120.416C17.2444 120.271 17.3526 120.15 17.4969 120.144C18.0079 120.12 18.549 120.138 19.0901 120.199C19.2344 120.217 19.3366 120.343 19.3186 120.488C19.3066 120.621 19.1923 120.717 19.0661 120.717ZM6.18821 119.432C6.04392 119.432 5.92969 119.318 5.92969 119.173C5.92969 119.04 5.92969 118.902 5.92969 118.769C5.92969 118.377 5.9357 117.985 5.95374 117.598C5.95975 117.454 6.086 117.351 6.22428 117.345C6.36857 117.351 6.47679 117.472 6.47077 117.617C6.45875 117.997 6.44673 118.383 6.44673 118.769C6.44673 118.902 6.44673 119.034 6.44673 119.167C6.44673 119.312 6.3325 119.432 6.18821 119.432ZM6.30845 116.314C6.30244 116.314 6.29041 116.314 6.2844 116.314C6.14011 116.301 6.03791 116.175 6.04993 116.03C6.09803 115.511 6.15815 114.986 6.23029 114.468C6.24833 114.323 6.38059 114.232 6.52488 114.244C6.66917 114.263 6.76537 114.395 6.74733 114.54C6.67519 115.053 6.61506 115.572 6.57298 116.078C6.55494 116.211 6.44071 116.314 6.30845 116.314ZM6.74132 113.219C6.72328 113.219 6.71126 113.219 6.69322 113.213C6.55494 113.189 6.45875 113.05 6.48881 112.911C6.585 112.398 6.69322 111.886 6.81346 111.373C6.84954 111.234 6.98781 111.144 7.12609 111.18C7.26437 111.21 7.35455 111.355 7.31848 111.494C7.19824 111.994 7.09002 112.507 6.99383 113.008C6.96978 113.134 6.86156 113.219 6.74132 113.219ZM7.45675 110.184C7.43271 110.184 7.40866 110.185 7.38461 110.172C7.24633 110.13 7.16817 109.991 7.20425 109.853C7.34854 109.346 7.49884 108.845 7.66718 108.351C7.70926 108.212 7.85956 108.139 7.99784 108.188C8.13612 108.23 8.20826 108.381 8.16017 108.52C7.99784 109.008 7.84754 109.503 7.70325 110.004C7.67319 110.112 7.57098 110.184 7.45675 110.184ZM8.43071 107.216C8.40065 107.216 8.37059 107.21 8.34053 107.198C8.20826 107.15 8.13612 106.999 8.19023 106.861C8.3766 106.372 8.56899 105.883 8.76739 105.395C8.8215 105.262 8.97781 105.202 9.11008 105.256C9.24234 105.31 9.30246 105.467 9.24835 105.6C9.04995 106.076 8.85757 106.559 8.67721 107.048C8.63512 107.15 8.53893 107.216 8.43071 107.216ZM9.63313 104.327C9.59705 104.327 9.56098 104.321 9.52491 104.303C9.39264 104.242 9.33853 104.086 9.39866 103.959C9.61509 103.482 9.84355 103.012 10.078 102.541C10.1442 102.415 10.3005 102.36 10.4267 102.427C10.553 102.493 10.6071 102.65 10.541 102.777C10.3065 103.241 10.084 103.712 9.8676 104.182C9.82551 104.267 9.73533 104.327 9.63313 104.327ZM11.04 101.528C10.9979 101.528 10.9558 101.516 10.9137 101.498C10.7874 101.431 10.7393 101.268 10.8115 101.142C11.058 100.683 11.3165 100.225 11.581 99.7723C11.6532 99.6456 11.8095 99.6034 11.9358 99.6758C12.062 99.7482 12.1041 99.905 12.0319 100.032C11.7734 100.478 11.5149 100.931 11.2684 101.389C11.2203 101.48 11.1301 101.528 11.04 101.528ZM12.6091 98.8192C12.561 98.8192 12.5129 98.8071 12.4708 98.783C12.3506 98.7046 12.3145 98.5477 12.3867 98.4271C12.6632 97.9807 12.9458 97.5403 13.2344 97.1059C13.3125 96.9853 13.4748 96.9551 13.5951 97.0336C13.7153 97.112 13.7454 97.2749 13.6672 97.3955C13.3847 97.8298 13.1021 98.2642 12.8316 98.7046C12.7774 98.777 12.6933 98.8192 12.6091 98.8192ZM14.3225 96.2071C14.2684 96.2071 14.2203 96.189 14.1722 96.1588C14.052 96.0744 14.028 95.9175 14.1061 95.7969C14.4067 95.3686 14.7073 94.9403 15.0139 94.518C15.0981 94.4034 15.2604 94.3792 15.3747 94.4637C15.4889 94.5481 15.5129 94.711 15.4288 94.8256C15.1222 95.2419 14.8215 95.6642 14.527 96.0925C14.4909 96.1709 14.4067 96.2071 14.3225 96.2071ZM16.1622 93.6915C16.1081 93.6915 16.054 93.6734 16.0059 93.6372C15.8917 93.5467 15.8737 93.3839 15.9578 93.2692C16.2765 92.853 16.6011 92.4428 16.9258 92.0326C17.016 91.918 17.1783 91.9059 17.2925 91.9903C17.4067 92.0808 17.4248 92.2437 17.3346 92.3583C17.0099 92.7625 16.6913 93.1727 16.3727 93.5829C16.3186 93.6553 16.2404 93.6915 16.1622 93.6915ZM18.1162 91.2544C18.056 91.2544 17.9959 91.2363 17.9478 91.194C17.8396 91.1036 17.8216 90.9346 17.9178 90.8261C18.2544 90.4219 18.5911 90.0237 18.9338 89.6316C19.03 89.523 19.1923 89.511 19.3005 89.6075C19.4088 89.704 19.4208 89.8669 19.3246 89.9755C18.9879 90.3676 18.6452 90.7597 18.3146 91.1579C18.2665 91.2242 18.1943 91.2544 18.1162 91.2544ZM20.1663 88.8957C20.1062 88.8957 20.04 88.8715 19.9919 88.8293C19.8837 88.7328 19.8777 88.5699 19.9739 88.4613C20.3286 88.0692 20.6773 87.6891 21.038 87.3091C21.1342 87.2065 21.3026 87.2005 21.4048 87.297C21.507 87.3936 21.513 87.5625 21.4168 87.665C21.0621 88.039 20.7134 88.4251 20.3587 88.8112C20.3106 88.8655 20.2384 88.8957 20.1663 88.8957ZM22.3066 86.6154C22.2404 86.6154 22.1743 86.5912 22.1262 86.543C22.024 86.4404 22.024 86.2775 22.1202 86.175C22.4869 85.801 22.8537 85.4269 23.2204 85.059C23.3226 84.9564 23.4849 84.9564 23.5872 85.059C23.6894 85.1615 23.6894 85.3244 23.5872 85.4269C23.2204 85.7889 22.8597 86.1629 22.493 86.5369C22.4388 86.5912 22.3727 86.6154 22.3066 86.6154ZM24.519 84.4074C24.4529 84.4074 24.3807 84.3833 24.3327 84.329C24.2304 84.2265 24.2365 84.0575 24.3387 83.961C24.7174 83.593 25.0962 83.2371 25.4749 82.8812C25.5771 82.7847 25.7455 82.7907 25.8417 82.8933C25.9379 82.9958 25.9319 83.1647 25.8297 83.2613C25.4569 83.6111 25.0781 83.9731 24.6994 84.335C24.6453 84.3833 24.5852 84.4074 24.519 84.4074ZM26.7976 82.278C26.7255 82.278 26.6593 82.2478 26.6052 82.1935C26.509 82.0849 26.515 81.922 26.6233 81.8255C27.014 81.4696 27.4048 81.1197 27.7896 80.7819C27.8978 80.6854 28.0601 80.6974 28.1563 80.806C28.2525 80.9146 28.2405 81.0775 28.1323 81.174C27.7475 81.5118 27.3627 81.8557 26.972 82.2116C26.9239 82.2538 26.8637 82.278 26.7976 82.278ZM29.1423 80.2088C29.0702 80.2088 28.998 80.1786 28.9439 80.1183C28.8477 80.0097 28.8658 79.8468 28.974 79.7503C29.3768 79.4065 29.7796 79.0686 30.1704 78.7368C30.2786 78.6464 30.4469 78.6584 30.5371 78.773C30.6273 78.8816 30.6153 79.0505 30.501 79.141C30.1103 79.4668 29.7135 79.8046 29.3106 80.1485C29.2626 80.1907 29.2024 80.2088 29.1423 80.2088ZM31.5471 78.212C31.469 78.212 31.3968 78.1819 31.3427 78.1155C31.2526 78.0009 31.2706 77.838 31.3848 77.7475C31.7996 77.4097 32.2085 77.0839 32.6113 76.7702C32.7255 76.6798 32.8878 76.7039 32.978 76.8125C33.0682 76.9271 33.0441 77.09 32.9359 77.1805C32.5391 77.4941 32.1303 77.8199 31.7155 78.1517C31.6614 78.1879 31.6012 78.212 31.5471 78.212ZM34.0061 76.2756C33.9279 76.2756 33.8498 76.2394 33.8017 76.173C33.7115 76.0584 33.7355 75.8955 33.8498 75.8111C34.2826 75.4793 34.7035 75.1656 35.1003 74.87C35.2145 74.7855 35.3768 74.8097 35.461 74.9243C35.5452 75.0389 35.5211 75.2018 35.4069 75.2862C35.0101 75.5818 34.5893 75.8955 34.1624 76.2273C34.1143 76.2575 34.0602 76.2756 34.0061 76.2756ZM36.5131 74.4115C36.435 74.4115 36.3508 74.3753 36.3027 74.3029C36.2185 74.1883 36.2486 74.0254 36.3628 73.941C36.8257 73.6092 37.2526 73.3076 37.6434 73.0361C37.7636 72.9577 37.9199 72.9818 38.0041 73.1025C38.0883 73.2231 38.0582 73.3799 37.938 73.4644C37.5472 73.7359 37.1203 74.0375 36.6634 74.3693C36.6213 74.3994 36.5672 74.4115 36.5131 74.4115ZM39.0863 72.6259C39.0021 72.6259 38.9179 72.5837 38.8699 72.5113C38.7917 72.3906 38.8218 72.2277 38.942 72.1493C39.7897 71.5822 40.2707 71.2867 40.2707 71.2867C40.3909 71.2143 40.5532 71.2505 40.6254 71.3711C40.6975 71.4918 40.6614 71.6546 40.5412 71.727C40.5412 71.727 40.0663 72.0226 39.2306 72.5837C39.1885 72.6078 39.1344 72.6259 39.0863 72.6259Z" fill="white"/>
<path d="M58.2519 118.835C58.2519 118.835 30.1215 119.004 40.9191 146.446L46.1015 135.334L43.9432 130.846L46.9673 132.638L58.2519 118.835Z" fill="#92C53E"/>
<path d="M58.5469 118.473C58.5469 118.473 61.6431 108.749 72.7294 108.749C83.8156 108.749 87.4109 117.315 87.4109 117.315H72.9819L71.9238 113.611L71.3466 117.315L58.5469 118.473Z" fill="#92C53E"/>
<path d="M57.759 118.473C57.759 118.473 55.1197 95.6341 30.1816 103.531L40.0535 108.845L43.2399 107.844L42.0795 110.764L57.759 118.473Z" fill="#92C53E"/>
<path d="M73.307 184.729C73.307 184.729 69.6577 178.563 74.2689 166.046C78.8742 153.528 70.812 130.225 57.7598 119.438L58.5473 118.473C58.5473 118.473 79.6377 130.991 81.9403 151.598C84.243 172.205 79.4453 177.212 85.5897 184.723C85.5897 184.729 76.3792 186.074 73.307 184.729Z" fill="#8A5E3C"/>
<path d="M81.9454 151.598C79.6428 130.991 58.5524 118.473 58.5524 118.473L58.2578 118.835C61.0715 120.94 73.799 132.276 77.3401 142.688C81.5125 154.964 79.9313 159.301 79.2099 166.812C78.5967 173.224 77.5626 180.789 80.9474 185.205C83.4845 185.03 85.5947 184.723 85.5947 184.723C79.4504 177.212 84.248 172.205 81.9454 151.598Z" fill="#7A5334"/>
<path d="M58.2529 118.835C58.2529 118.835 40.9201 130.653 53.8761 151.839L56.0345 138.212L53.6597 136.191L56.4673 136.48L58.2529 118.835Z" fill="#B7D234"/>
<path d="M58.5468 118.473C58.5468 118.473 51.5668 110.625 42.5006 112.067C33.4344 113.509 28.252 122.467 28.252 128.536L42.218 123.336L42.5066 118.473L45.5848 122.322L58.5468 118.473Z" fill="#B7D234"/>
<path d="M58.252 118.835L71.6769 127.377L74.3162 124.777L73.4505 128.536L84.3925 136.191C84.3925 136.191 85.5468 124.204 75.7531 119.577C65.9654 114.962 58.252 118.835 58.252 118.835Z" fill="#B7D234"/>
<path d="M58.2523 118.835C58.2523 118.835 52.6731 109.901 59.6772 102.246C66.6813 94.5904 76.8296 98.2039 80.1784 100.659L69.2725 107.542L65.5269 106.722L66.9278 109.78L58.2523 118.835Z" fill="#B7D234"/>
<path d="M103.711 91.0191C103.711 91.0191 73.4218 79.5995 73.7825 113.533L83.9008 103.736L83.4199 98.0228L85.9329 101.196L103.711 91.0191Z" fill="#92C53E"/>
<path d="M104.18 90.7537C104.18 90.7537 111.49 81.5842 123.394 86.1509C135.304 90.7235 135.659 101.407 135.659 101.407L120.154 95.4591L120.533 91.0433L118.392 94.7834L104.18 90.7537Z" fill="#92C53E"/>
<path d="M103.331 90.4279C103.331 90.4279 109.849 64.8017 79.8242 63.01L88.2471 72.7888L92.0768 73.0301L89.6359 75.6904L103.331 90.4279Z" fill="#92C53E"/>
<path d="M92.9074 168.006C92.9074 168.006 91.5126 159.881 101.589 148.334C111.665 136.788 112.543 108.429 102.942 91.4595L104.186 90.7537C104.186 90.7537 121.717 112.899 115.753 135.986C109.789 159.072 102.587 162.475 106.11 173.074C106.104 173.074 95.6549 170.721 92.9074 168.006Z" fill="#8A5E3C"/>
<path d="M115.748 135.986C121.712 112.899 104.18 90.7537 104.18 90.7537L103.711 91.0191C105.876 94.4395 114.906 111.868 114.443 124.512C113.902 139.424 110.427 143.424 106.573 151.194C103.291 157.83 99.0822 165.533 100.91 171.668C103.705 172.525 106.098 173.068 106.098 173.068C102.581 162.469 109.784 159.072 115.748 135.986Z" fill="#7A5334"/>
<path d="M103.71 91.019C103.71 91.019 80.2453 96.569 85.4939 124.669L93.3937 110.92L91.6743 107.771L94.5721 109.237L103.71 91.019Z" fill="#B7D234"/>
<path d="M104.18 90.7537C104.18 90.7537 99.8929 79.4427 89.5581 77.2589C79.2234 75.0691 69.9888 82.5554 67.5059 89.0706L84.6343 89.2395L86.9369 84.136L88.6684 89.5411L104.18 90.7537Z" fill="#B7D234"/>
<path d="M103.711 91.0189L114.629 105.732L118.531 104.025L116.066 107.705L124.681 120.44C124.681 120.44 130.825 108.037 122.204 99.0362C113.589 90.0356 103.711 91.0189 103.711 91.0189Z" fill="#B7D234"/>
<path d="M103.71 91.0191C103.71 91.0191 101.371 79.123 112.036 73.7842C122.696 68.4514 132.117 76.5109 134.708 80.5286L120.177 83.4302L116.491 81.0051L116.744 84.872L103.71 91.0191Z" fill="#B7D234"/>
<path d="M79.3434 160.912L64.3313 144.908L53.3652 155.266L68.3774 171.27C68.8163 171.734 69.5558 171.759 70.0187 171.318L79.2953 162.559C79.7643 162.119 79.7823 161.377 79.3434 160.912Z" fill="white"/>
<path d="M59.101 139.322C58.6621 138.857 57.9226 138.833 57.4597 139.274L48.1831 148.033C47.7202 148.473 47.6961 149.215 48.135 149.68L53.3655 155.26L64.3315 144.902L59.101 139.322Z" fill="#FAAF40"/>
<path d="M76.7495 162.487L62.6836 147.488L62.3464 147.806L76.4124 162.805L76.7495 162.487Z" fill="#D0D2D3"/>
<path d="M67.4333 155.02L61.4551 148.645L59.9313 150.083L65.9096 156.458L67.4333 155.02Z" fill="#D0D2D3"/>
<path d="M65.3357 156.997L59.3574 150.622L57.8337 152.061L63.8119 158.436L65.3357 156.997Z" fill="#D0D2D3"/>
<path d="M63.2614 158.959L57.2832 152.584L55.7594 154.022L61.7377 160.397L63.2614 158.959Z" fill="#D0D2D3"/>
<path d="M74.195 162.257L68.2168 155.882L66.6931 157.321L72.6713 163.696L74.195 162.257Z" fill="#D0D2D3"/>
<path d="M72.1013 164.239L66.123 157.865L64.5993 159.303L70.5775 165.678L72.1013 164.239Z" fill="#D0D2D3"/>
<path d="M70.0251 166.192L64.0469 159.817L62.5231 161.256L68.5014 167.631L70.0251 166.192Z" fill="#D0D2D3"/>
<path d="M58.3312 149.517L58.1989 149.13L58.1448 148.974C58.2049 148.931 58.247 148.889 58.271 148.865C58.2771 148.859 58.2831 148.853 58.2891 148.847C58.3071 148.823 58.3071 148.799 58.3011 148.775C58.2951 148.75 58.2831 148.726 58.265 148.708C58.247 148.69 58.229 148.672 58.2049 148.66C58.1869 148.648 58.1628 148.636 58.1448 148.636C58.1388 148.636 58.1388 148.636 58.1328 148.642C58.1147 148.654 58.0847 148.678 58.0486 148.714L57.8502 148.117C57.8562 148.111 57.8622 148.105 57.8682 148.105C57.8803 148.099 57.8863 148.093 57.8983 148.081C57.9524 148.045 57.9945 148.008 58.0366 147.978C58.0967 147.93 58.1388 147.888 58.1508 147.87C58.1628 147.852 58.1628 147.833 58.1568 147.803C58.1568 147.791 58.1508 147.773 58.1448 147.761C58.1207 147.701 58.0727 147.622 58.0125 147.544C57.9825 147.508 57.9524 147.466 57.9163 147.429C57.8201 147.321 57.7119 147.23 57.6458 147.212C57.6338 147.206 57.6278 147.206 57.6157 147.206C57.6097 147.206 57.6097 147.206 57.6037 147.212C57.5977 147.212 57.5917 147.218 57.5857 147.218C57.5736 147.224 57.5616 147.23 57.5496 147.242L57.3151 146.549L57.2791 146.446C57.4233 146.295 57.5556 146.144 57.6698 146.006C57.6819 145.994 57.6939 145.975 57.7059 145.963C57.8262 145.813 57.9284 145.662 58.0185 145.523C58.0306 145.499 58.0426 145.481 58.0606 145.457C58.1027 145.384 58.1388 145.318 58.1688 145.258C58.1749 145.246 58.1809 145.227 58.1929 145.215C58.229 145.137 58.259 145.065 58.2831 144.998C58.2891 144.974 58.3011 144.95 58.3071 144.926C58.3312 144.829 58.3312 144.751 58.3131 144.691C58.3071 144.678 58.3071 144.666 58.3011 144.66C58.2951 144.648 58.2891 144.642 58.2831 144.636C58.223 144.57 58.1027 144.558 57.9404 144.588C57.9224 144.594 57.9043 144.594 57.8923 144.6C57.8562 144.606 57.8201 144.618 57.7841 144.63C57.73 144.648 57.6698 144.672 57.6037 144.697C57.4955 144.745 57.3752 144.799 57.243 144.872C57.1047 144.95 56.9544 145.04 56.7981 145.149C56.774 145.167 56.744 145.185 56.7139 145.203C56.6057 145.282 56.4915 145.366 56.3772 145.457L56.3712 145.451L56.3652 145.445L56.3712 145.439L56.3772 145.433L56.3592 145.427L56.275 145.384C56.269 145.384 56.269 145.39 56.263 145.39L55.4514 145.028C55.4634 145.016 55.4754 145.004 55.4875 144.998C55.5175 144.968 55.5356 144.95 55.5476 144.932C55.5536 144.926 55.5536 144.92 55.5536 144.92C55.5656 144.853 55.4454 144.691 55.3131 144.552C55.2951 144.534 55.277 144.516 55.259 144.504C55.2229 144.473 55.1869 144.443 55.1568 144.413C55.1388 144.401 55.1207 144.389 55.1087 144.377C55.0426 144.335 54.9885 144.317 54.9584 144.329C54.9584 144.329 54.9584 144.329 54.9524 144.329C54.9223 144.347 54.8562 144.413 54.766 144.51C54.748 144.528 54.7359 144.546 54.7179 144.564C54.6999 144.582 54.6818 144.6 54.6698 144.624C54.6578 144.636 54.6458 144.654 54.6337 144.666L54.2309 144.485C54.249 144.467 54.267 144.449 54.279 144.437C54.285 144.431 54.285 144.431 54.285 144.425C54.3452 144.335 54.2189 144.22 54.1468 144.214C54.1347 144.214 54.1047 144.238 54.0626 144.28C54.0566 144.286 54.0446 144.298 54.0385 144.311C54.0205 144.329 54.0025 144.353 53.9784 144.377L53.4494 144.142L53.0526 144.504L53.5395 144.98L54.0265 145.457C54.0205 145.463 54.0145 145.475 54.0085 145.481C54.0025 145.493 53.9965 145.505 53.9905 145.511C53.9484 145.577 53.9183 145.638 53.8943 145.692C53.8822 145.716 53.8762 145.74 53.8702 145.764C53.8642 145.788 53.8642 145.807 53.8642 145.825C53.8642 145.831 53.8702 145.837 53.8762 145.843C53.9243 145.897 54.0746 145.867 54.267 145.782C54.2911 145.77 54.3091 145.764 54.3331 145.752L54.778 146.193L55.2049 146.615C54.754 147.122 54.2911 147.695 53.9363 148.171C53.9123 148.208 53.8882 148.238 53.8642 148.274C53.8401 148.304 53.8161 148.34 53.7921 148.37L53.8341 148.304L53.8762 148.238L52.7039 148.008L52.3672 148.503L53.3532 149.028L53.3892 148.968C53.3652 149.01 53.3472 149.046 53.3351 149.076C53.3231 149.106 53.3171 149.13 53.3111 149.149C53.3111 149.161 53.3111 149.167 53.3171 149.173C53.3171 149.179 53.3231 149.179 53.3291 149.179C53.3592 149.185 53.4313 149.167 53.5335 149.118L53.5155 149.124L53.4734 149.149L53.9003 150.18L54.4233 149.891L54.3031 148.696L54.243 148.732L54.1648 148.775C54.6037 148.515 55.1568 148.153 55.6798 147.785C55.8001 147.701 55.9203 147.61 56.0346 147.526L56.6899 148.34C56.6778 148.364 56.6598 148.388 56.6478 148.413C56.5997 148.503 56.5576 148.588 56.5396 148.654C56.5215 148.72 56.5215 148.769 56.5456 148.799C56.5576 148.817 56.5877 148.817 56.6237 148.811C56.6899 148.799 56.7801 148.762 56.8883 148.708C56.9003 148.702 56.9123 148.696 56.9243 148.69C56.9364 148.684 56.9424 148.678 56.9544 148.678L57.9223 149.879L58.3312 149.517Z" fill="#F58D3E"/>
<path d="M54.0037 153.614L49.2656 148.561L48.7008 149.094L53.4389 154.147L54.0037 153.614Z" fill="#F58D3E"/>
<path d="M63.1229 145.005L58.3848 139.953L57.115 141.152L61.8531 146.204L63.1229 145.005Z" fill="#F58D3E"/>
<path d="M85.5726 162.01L78.9112 141.071L64.5664 145.668L71.2278 166.607C71.4202 167.216 72.0815 167.56 72.6887 167.361L84.8211 163.476C85.4283 163.277 85.765 162.62 85.5726 162.01Z" fill="white"/>
<path d="M76.5828 133.772C76.3905 133.163 75.7291 132.819 75.1219 133.018L62.9895 136.903C62.3823 137.096 62.0396 137.759 62.238 138.369L64.5587 145.668L78.9035 141.071L76.5828 133.772Z" fill="#FAAF40"/>
<path d="M82.5523 162.292L76.3105 142.673L75.8696 142.815L82.1113 162.434L82.5523 162.292Z" fill="#D0D2D3"/>
<path d="M77.354 151.527L74.7012 143.189L72.7081 143.827L75.361 152.165L77.354 151.527Z" fill="#D0D2D3"/>
<path d="M74.6118 152.408L71.959 144.069L69.966 144.708L72.6188 153.046L74.6118 152.408Z" fill="#D0D2D3"/>
<path d="M71.895 153.273L69.2422 144.935L67.2492 145.573L69.902 153.912L71.895 153.273Z" fill="#D0D2D3"/>
<path d="M80.3481 160.982L77.6953 152.643L75.7023 153.282L78.3551 161.62L80.3481 160.982Z" fill="#D0D2D3"/>
<path d="M77.604 161.862L74.9512 153.523L72.9582 154.162L75.611 162.5L77.604 161.862Z" fill="#D0D2D3"/>
<path d="M74.8892 162.728L72.2363 154.389L70.2433 155.028L72.8961 163.366L74.8892 162.728Z" fill="#D0D2D3"/>
<path d="M71.5088 142.64L71.5569 142.236L71.5749 142.073C71.6471 142.055 71.7012 142.043 71.7372 142.03C71.7493 142.024 71.7553 142.024 71.7613 142.018C71.7853 142.006 71.7974 141.982 71.8034 141.964C71.8094 141.94 71.8094 141.916 71.8034 141.892C71.7974 141.868 71.7853 141.843 71.7733 141.819C71.7613 141.801 71.7432 141.783 71.7312 141.771C71.7252 141.771 71.7252 141.771 71.7132 141.771C71.6952 141.771 71.6531 141.783 71.605 141.801L71.6831 141.174C71.6891 141.174 71.7012 141.174 71.7072 141.168C71.7192 141.168 71.7312 141.162 71.7433 141.162C71.8094 141.15 71.8635 141.138 71.9116 141.126C71.9897 141.107 72.0439 141.089 72.0619 141.077C72.0799 141.065 72.0859 141.047 72.092 141.023C72.098 141.011 72.098 140.993 72.098 140.981C72.104 140.914 72.0919 140.824 72.0739 140.727C72.0619 140.679 72.0499 140.631 72.0378 140.583C71.9958 140.444 71.9416 140.317 71.8875 140.269C71.8815 140.263 71.8695 140.257 71.8635 140.251C71.8575 140.251 71.8575 140.251 71.8515 140.251C71.8455 140.251 71.8394 140.251 71.8334 140.251C71.8334 140.251 71.8334 140.251 71.8274 140.251C71.8154 140.251 71.8034 140.257 71.7853 140.257L71.8755 139.533L71.8875 139.424C72.0799 139.352 72.2663 139.274 72.4286 139.195C72.4467 139.189 72.4587 139.177 72.4767 139.171C72.6511 139.087 72.8074 138.996 72.9457 138.912C72.9697 138.9 72.9877 138.881 73.0058 138.869C73.0719 138.827 73.132 138.779 73.1922 138.737C73.2042 138.725 73.2162 138.719 73.2282 138.707C73.2944 138.652 73.3545 138.598 73.4026 138.55C73.4206 138.532 73.4386 138.513 73.4507 138.489C73.5168 138.411 73.5529 138.339 73.5589 138.278C73.5589 138.266 73.5589 138.254 73.5589 138.242C73.5589 138.23 73.5589 138.218 73.5529 138.212C73.5288 138.127 73.4266 138.061 73.2643 138.019C73.2463 138.013 73.2342 138.013 73.2162 138.007C73.1801 138.001 73.1441 137.995 73.108 137.989C73.0479 137.983 72.9877 137.977 72.9156 137.971C72.7954 137.965 72.6631 137.965 72.5188 137.971C72.3565 137.983 72.1881 138.001 72.0018 138.025C71.9717 138.031 71.9356 138.037 71.9056 138.043C71.7733 138.067 71.635 138.091 71.4968 138.127L71.4907 138.121L71.4847 138.115H71.4907H71.4968L71.4847 138.097L71.4186 138.019C71.4126 138.019 71.4126 138.019 71.4066 138.019L70.8294 137.337C70.8475 137.331 70.8595 137.331 70.8775 137.325C70.9136 137.313 70.9436 137.301 70.9617 137.289C70.9677 137.283 70.9737 137.283 70.9737 137.277C71.0158 137.223 70.9797 137.023 70.9136 136.836C70.9076 136.812 70.8956 136.788 70.8895 136.77C70.8715 136.728 70.8535 136.686 70.8354 136.643C70.8234 136.625 70.8174 136.607 70.8054 136.589C70.7633 136.523 70.7212 136.481 70.6851 136.481C70.6851 136.481 70.6851 136.481 70.6791 136.481C70.643 136.481 70.5589 136.511 70.4326 136.565C70.4086 136.571 70.3905 136.583 70.3665 136.595C70.3424 136.607 70.3184 136.613 70.2943 136.625C70.2763 136.631 70.2583 136.643 70.2402 136.649L69.9577 136.312C69.9817 136.306 70.0058 136.3 70.0238 136.287C70.0298 136.287 70.0358 136.281 70.0358 136.281C70.132 136.227 70.0659 136.07 70.0058 136.028C69.9937 136.022 69.9577 136.028 69.8975 136.052C69.8855 136.058 69.8735 136.058 69.8615 136.064C69.8374 136.076 69.8074 136.082 69.7773 136.094L69.4046 135.654L68.8875 135.811L69.122 136.456L69.3565 137.102C69.3504 137.108 69.3384 137.114 69.3324 137.12C69.3204 137.126 69.3084 137.132 69.3023 137.138C69.2362 137.18 69.1821 137.223 69.14 137.259C69.116 137.277 69.0979 137.295 69.0859 137.313C69.0679 137.331 69.0619 137.349 69.0559 137.367C69.0559 137.373 69.0559 137.385 69.0559 137.391C69.0799 137.464 69.2242 137.5 69.4346 137.506C69.4587 137.506 69.4827 137.506 69.5068 137.506L69.7232 138.097L69.9276 138.664C69.3024 138.924 68.641 139.243 68.112 139.521C68.0759 139.539 68.0398 139.563 68.0037 139.581C67.9677 139.599 67.9316 139.617 67.8955 139.636L67.9617 139.593L68.0278 139.551L67.0659 138.833L66.5488 139.135L67.2102 140.034L67.2703 139.997C67.2282 140.028 67.1981 140.052 67.1741 140.076C67.15 140.1 67.132 140.118 67.12 140.13C67.114 140.142 67.114 140.148 67.114 140.154C67.114 140.16 67.12 140.16 67.12 140.166C67.144 140.185 67.2162 140.197 67.3304 140.203H67.3124H67.2643L67.2041 141.319L67.7993 141.282L68.2082 140.154L68.136 140.16L68.0458 140.166C68.5569 140.124 69.2062 140.034 69.8374 139.925C69.9817 139.901 70.126 139.871 70.2703 139.847L70.5108 140.866C70.4867 140.884 70.4627 140.896 70.4446 140.914C70.3605 140.975 70.2883 141.035 70.2462 141.083C70.1981 141.138 70.1801 141.18 70.1921 141.216C70.1981 141.234 70.2222 141.252 70.2583 141.264C70.3184 141.282 70.4206 141.288 70.5408 141.288C70.5529 141.288 70.5649 141.288 70.5769 141.288C70.5889 141.288 70.5949 141.288 70.607 141.288L70.9677 142.791L71.5088 142.64Z" fill="#F58D3E"/>
<path d="M65.8447 144.447L63.7422 137.838L63.0034 138.075L65.1059 144.683L65.8447 144.447Z" fill="#F58D3E"/>
<path d="M77.7783 140.629L75.6758 134.02L74.0149 134.552L76.1174 141.161L77.7783 140.629Z" fill="#F58D3E"/>
<path d="M80.0957 135.757L84.0216 172.628L95.3904 168.489L91.4345 131.323L80.0957 135.757Z" fill="#E6E7E8"/>
<path d="M103.46 133.253L107.38 170.124L95.3915 168.489L91.4355 131.323L103.46 133.253Z" fill="#E6E7E8"/>
<path d="M103.459 133.253L107.379 170.124L118.754 165.986L114.798 128.819L103.459 133.253Z" fill="#E6E7E8"/>
<path d="M126.815 130.75L130.741 167.62L118.753 165.986L114.797 128.819L126.815 130.75Z" fill="#E6E7E8"/>
<path d="M95.294 167.56L84.6767 171.421L80.9492 136.396L91.5365 132.258L103.555 134.188L114.899 129.754L126.118 131.558L129.845 166.583L118.657 165.057L107.282 169.195L95.294 167.56Z" fill="#52CAF5"/>
<path d="M126.708 137.108L126.635 136.414L115.501 134.852L115.441 134.84L104.072 138.972L93.8395 137.174L93.7734 137.162L81.4727 141.313L81.5448 142.006L93.8335 137.862L104.132 139.672L115.513 135.539L126.708 137.108Z" fill="white"/>
<path d="M97.2482 133.175L99.3104 152.575C99.3104 152.599 99.3104 152.605 99.3104 152.605C99.136 152.925 97.2843 152.497 96.5869 152.334C95.9797 152.195 95.4566 152.075 95.126 152.062C94.0558 152.02 90.5087 152.829 89.2341 153.788C88.0918 154.644 88.3985 156.937 88.7231 159.368C88.7953 159.899 88.8674 160.442 88.9215 160.973L89.8353 169.545L90.4065 169.34L89.5107 160.912C89.4506 160.375 89.3784 159.82 89.3123 159.289C89.0297 157.178 88.7411 154.994 89.5768 154.367C90.7311 153.498 94.1219 152.708 95.138 152.75C95.4206 152.762 95.9496 152.883 96.5027 153.01C98.1621 153.39 99.2803 153.607 99.7312 153.118C99.8755 152.961 99.9356 152.75 99.9116 152.509L97.8615 133.271L97.2482 133.175Z" fill="white"/>
<path d="M127.531 144.866L127.459 144.172C123.376 143.828 116.817 143.291 116.342 143.345C115.94 143.388 115.308 143.653 114.635 143.931C114.148 144.13 113.643 144.341 113.27 144.443L113.216 144.461C112.326 144.709 110.986 145.083 111.226 147.309L112.116 155.652C112.134 155.833 112.158 156.026 112.182 156.237C112.296 157.214 112.597 159.808 112.146 159.995C111.442 160.285 107.126 161.521 105.31 161.714C104.33 161.817 101.499 161.509 99.0035 161.238C96.9293 161.009 95.1317 160.816 94.5846 160.87C93.3882 160.997 89.4984 162.752 89.3301 162.824L89.5585 163.464C89.6006 163.446 93.5445 161.666 94.6568 161.552C95.1498 161.497 97.0015 161.702 98.9614 161.92C101.48 162.197 104.342 162.511 105.376 162.402C107.27 162.197 111.611 160.954 112.35 160.647C113.168 160.309 113.03 158.505 112.759 156.177C112.735 155.971 112.711 155.772 112.693 155.597L111.803 147.254C111.629 145.62 112.471 145.384 113.366 145.137L113.42 145.119C113.823 145.004 114.346 144.793 114.845 144.582C115.453 144.329 116.084 144.069 116.414 144.033C116.799 143.985 122.505 144.443 127.531 144.866Z" fill="white"/>
<path d="M124.352 165.835L124.953 165.913L122.626 144.063L122.043 144.124L124.352 165.835Z" fill="white"/>
<path d="M118.734 135.575L118.148 135.638L119.027 143.892L119.613 143.829L118.734 135.575Z" fill="white"/>
<path d="M82.1816 147.979L82.2538 148.672C86.0294 147.586 92.1076 145.867 92.9733 145.777C94.2238 145.644 98.8291 146.38 98.8772 146.386L98.9373 145.704C98.7449 145.674 94.2118 144.95 92.8952 145.089C91.9994 145.185 85.9813 146.887 82.1816 147.979Z" fill="white"/>
<path d="M105.267 141.041L105.676 144.89C105.73 145.409 106.163 145.771 106.596 145.656L108.784 145.083C109.145 144.986 109.386 144.594 109.338 144.16L108.899 140.028C108.839 139.473 108.352 139.105 107.901 139.286L105.742 140.142C105.424 140.269 105.225 140.643 105.267 141.041Z" fill="white"/>
<path d="M110.043 139.611L110.422 143.164C110.488 143.774 110.993 144.19 111.498 144.051L114.408 143.255C114.822 143.14 115.093 142.682 115.039 142.187L114.63 138.32C114.564 137.675 113.999 137.258 113.482 137.458L110.608 138.568C110.223 138.706 109.989 139.141 110.043 139.611Z" fill="white"/>
<path d="M129.185 160.387C128.319 160.351 127.303 160.297 126.287 160.212C121.351 159.79 121.213 159.018 121.213 159.012C121.159 158.499 121.111 157.679 121.062 156.81C120.846 152.919 120.714 152.171 120.245 152.099C119.776 152.026 117.383 151.821 116.078 151.96C115.453 152.026 113.373 152.877 110.968 153.866C108.431 154.904 105.557 156.08 104.71 156.171C103.838 156.261 101.06 155.941 98.6134 155.658C96.425 155.404 94.5432 155.187 93.9781 155.248C93.0462 155.35 86.3488 157.57 83.3066 158.59L83.3788 159.283C87.3287 157.956 93.2446 156.014 94.0502 155.929C94.5552 155.875 96.5993 156.11 98.5713 156.34C101.169 156.641 103.85 156.949 104.782 156.852C105.702 156.756 108.485 155.616 111.179 154.512C113.349 153.625 115.598 152.702 116.151 152.642C117.311 152.515 119.475 152.69 120.089 152.762C120.275 153.263 120.395 155.477 120.473 156.828C120.521 157.709 120.569 158.535 120.624 159.066C120.696 159.736 121.417 160.478 126.257 160.888C127.309 160.979 128.367 161.033 129.251 161.069L129.185 160.387Z" fill="white"/>
<path d="M128.042 149.661C124.026 149.131 116.481 148.171 115.657 148.413L115.177 148.551C113.565 149.016 110.205 149.987 109.525 150.265C108.798 150.566 107.896 150.934 108.058 152.485L109.742 168.302L110.313 168.097L108.647 152.424C108.545 151.459 108.972 151.23 109.742 150.916C110.397 150.645 113.86 149.649 115.339 149.221L115.82 149.082C116.457 148.895 122.878 149.668 128.121 150.361L128.042 149.661Z" fill="white"/>
<path d="M100.988 168.338L101.589 168.417L100.278 156.134L99.6953 156.195L100.988 168.338Z" fill="white"/>
<path d="M128.619 155.061C124.927 154.644 118.182 153.89 117.526 153.836C116.919 153.782 116.372 154.005 116.017 154.439C115.753 154.765 115.633 155.169 115.675 155.585L116.011 158.771C116.234 160.84 115.969 161.268 115.795 161.34C115.007 161.666 107.955 164.236 107.15 164.327C106.476 164.399 104.901 164.477 104.811 163.657L102.893 145.626C102.695 143.786 102.352 141.891 101.276 141.771C100.482 141.686 94.0974 141.21 92.4982 141.379C91.416 141.493 85.5422 143.327 81.8027 144.516L81.8989 145.439C86.1976 144.069 91.6325 142.392 92.5884 142.29C94.1095 142.127 100.464 142.597 101.222 142.682C101.396 142.7 101.823 143.032 102.112 145.71L104.029 163.741C104.12 164.574 104.745 165.509 107.24 165.237C108.19 165.135 115.32 162.517 116.072 162.203C117.112 161.775 116.889 159.688 116.781 158.686L116.444 155.501C116.426 155.356 116.48 155.211 116.583 155.079C116.775 154.843 117.112 154.717 117.478 154.747C118.128 154.801 125.054 155.579 128.703 155.99L128.619 155.061Z" fill="#FFF100"/>
<path d="M84.351 160.942L85.1747 168.682C85.2468 169.352 85.83 169.792 86.3771 169.581L88.331 168.821C88.7218 168.67 88.9683 168.218 88.9142 167.729L88.0965 160.049C88.0244 159.392 87.4533 158.952 86.9182 159.145L84.9582 159.844C84.5494 159.989 84.2969 160.448 84.351 160.942Z" fill="white"/>
<path d="M89.162 148.817L89.4205 151.254C89.4746 151.791 89.9376 152.153 90.3764 152.008L92.3604 151.369C92.7031 151.26 92.9195 150.874 92.8774 150.458L92.6009 147.846C92.5408 147.285 92.0478 146.923 91.5969 147.11L89.6309 147.93C89.3123 148.051 89.1199 148.419 89.162 148.817Z" fill="white"/>
<path d="M96.9285 166.577L99.1229 166.836C99.5557 166.884 99.9044 166.468 99.8503 165.967L99.5978 163.621C99.5557 163.253 99.3032 162.951 98.9906 162.903L96.7842 162.553C96.3453 162.481 95.9785 162.903 96.0327 163.416L96.2912 165.853C96.3333 166.233 96.5978 166.535 96.9285 166.577Z" fill="white"/>
<path d="M109.41 133.711L109.549 135.014C109.591 135.425 109.952 135.69 110.282 135.557L113.763 134.182C114.004 134.085 114.148 133.814 114.118 133.518L113.956 131.986C113.914 131.564 113.529 131.298 113.198 131.449L109.741 133.054C109.513 133.162 109.38 133.428 109.41 133.711Z" fill="white"/>
<path d="M87.0999 135.883L87.2623 137.409C87.3043 137.82 87.6651 138.085 87.9957 137.952L90.4366 136.993C90.6771 136.903 90.8214 136.625 90.7913 136.33L90.617 134.689C90.5749 134.272 90.2022 134.001 89.8655 134.152L87.4366 135.226C87.2021 135.328 87.0699 135.594 87.0999 135.883Z" fill="white"/>
<path d="M110.926 165.177L111.041 166.233C111.077 166.565 111.365 166.782 111.636 166.686L115.754 165.153C115.952 165.081 116.079 164.852 116.049 164.604L115.934 163.537C115.898 163.205 115.61 162.988 115.339 163.084L111.221 164.628C111.022 164.707 110.896 164.936 110.926 165.177Z" fill="white"/>
<g opacity="0.31">
<path opacity="0.31" d="M114.898 129.754L118.656 165.057L129.844 166.583L126.117 131.558L114.898 129.754Z" fill="#231F20"/>
</g>
<g opacity="0.31">
<path opacity="0.31" d="M91.6445 132.348L95.4021 167.657L106.591 169.177L102.863 134.152L91.6445 132.348Z" fill="#231F20"/>
</g>
<path d="M150.191 217.883H149.83C148.261 217.883 146.98 216.598 146.98 215.024V213.884C146.98 212.309 148.261 211.024 149.83 211.024H150.191C151.76 211.024 153.041 212.309 153.041 213.884V215.024C153.041 216.592 151.76 217.883 150.191 217.883Z" fill="#414042"/>
<path d="M179.449 214.451H179.088C177.519 214.451 176.238 213.166 176.238 211.592V210.451C176.238 208.877 177.519 207.592 179.088 207.592H179.449C181.018 207.592 182.298 208.877 182.298 210.451V211.592C182.298 213.166 181.012 214.451 179.449 214.451Z" fill="#414042"/>
<path d="M190.56 118.938L174.809 117.822C170.45 116.778 135.604 117.562 130.41 120.301C127.217 121.984 126.514 127.987 126.514 134.761C126.514 141.536 126.514 199.032 126.514 203.629C126.514 207.146 130.313 211.652 134.654 212.382C135.424 212.508 136.211 212.834 136.999 212.816L152.305 215.501C152.305 215.501 154.428 214.059 157.289 212.122C163.668 211.465 169.47 210.813 170.919 210.325C174.033 209.275 181.566 206.144 181.566 198.067C181.566 193.415 181.566 176.597 181.566 161.419C186.057 140.335 190.56 118.938 190.56 118.938Z" fill="#837167"/>
<g opacity="0.09">
<path opacity="0.09" d="M126.916 127.54L147.802 129.555L149.618 123.299L128.87 121.665C127.866 123.04 127.265 125.091 126.916 127.54Z" fill="white"/>
</g>
<path d="M190.561 118.938C186.202 117.894 151.356 118.678 146.161 121.417C142.969 123.1 142.266 129.102 142.266 135.877C142.266 142.652 142.266 203.532 142.266 208.135C142.266 212.738 148.759 216.357 154.47 215.326C160.182 214.3 183.551 212.496 186.665 211.441C189.779 210.391 197.312 207.26 197.312 199.183C197.312 191.105 197.312 146.295 197.312 137.174C197.312 128.053 196.014 120.241 190.561 118.938Z" fill="#9A8479"/>
<g opacity="0.1">
<path opacity="0.1" d="M197.312 199.183C197.312 195.123 197.312 181.785 197.312 168.368C197.312 168.574 197.276 181.688 192.983 195.648C188.654 209.715 167.883 208.672 155.943 207.851C143.997 207.031 142.265 191.654 142.265 191.654C142.265 191.654 140.534 207.459 133.44 206.892C126.814 206.361 126.526 195.509 126.514 194.073C126.514 199.074 126.514 202.621 126.514 203.629C126.514 207.146 130.313 211.652 134.654 212.382C135.424 212.509 136.211 212.834 136.999 212.816L148.392 214.813C149.63 215.235 150.959 215.483 152.299 215.501H152.305C153.027 215.513 153.754 215.452 154.47 215.326C160.181 214.3 183.55 212.496 186.664 211.441C189.779 210.385 197.312 207.26 197.312 199.183Z" fill="#231F20"/>
</g>
<path d="M144.988 147.972C144.988 152.141 145.896 155.869 148.103 156.026C150.309 156.183 186.057 153.576 188.564 152.925C191.071 152.273 191.594 146.935 191.594 143.285C191.594 139.635 190.428 135.34 185.233 134.948C180.039 134.556 153.038 137.035 149.533 137.162C146.028 137.289 144.988 141.198 144.988 147.972Z" fill="#837167"/>
<g opacity="0.09">
<path opacity="0.09" d="M144.039 131.123C144.039 131.123 143.39 122.901 150.4 121.67C157.41 120.44 181.428 119.27 186.881 119.921C192.334 120.573 193.891 122.008 195.058 127.474C195.058 127.474 193.501 120.832 186.1 120.959C178.699 121.091 155.721 122.129 151.825 122.654C147.935 123.179 144.815 125.911 144.039 131.123Z" fill="white"/>
</g>
<path d="M146.98 148.322C146.98 152.491 147.888 156.219 150.095 156.376C152.301 156.532 188.049 153.926 190.556 153.275C193.063 152.623 193.586 147.285 193.586 143.635C193.586 139.985 192.42 135.69 187.225 135.298C182.031 134.906 155.031 137.385 151.526 137.512C148.021 137.638 146.98 141.548 146.98 148.322Z" fill="#B39D94"/>
<path d="M145.025 170.95C145.025 175.119 142.818 197.759 151.903 197.24C154.109 197.113 182.576 194.93 185.144 194.556C193.446 193.349 191.631 169.913 191.631 166.263C191.631 162.613 190.464 158.318 185.27 157.926C180.075 157.534 153.075 160.013 149.57 160.14C146.065 160.267 145.025 164.176 145.025 170.95Z" fill="#837167"/>
<path d="M147.22 171.644C147.22 175.813 145.014 198.447 154.098 197.934C156.304 197.807 184.772 195.623 187.339 195.249C195.641 194.043 193.826 170.607 193.826 166.957C193.826 163.307 192.659 159.012 187.465 158.62C182.271 158.228 155.27 160.707 151.765 160.834C148.254 160.96 147.22 164.87 147.22 171.644Z" fill="#B39D94"/>
<g opacity="0.17">
<path opacity="0.17" d="M148.153 145.813C148.153 145.813 148.237 139.37 151.183 139.026C154.123 138.676 183.467 136.511 186.756 136.77C190.045 137.029 192.293 139.286 192.035 142.851C192.035 142.851 191.427 137.989 186.323 137.729C181.219 137.47 154.646 139.708 152.048 139.985C149.451 140.263 148.062 144.353 148.153 145.813Z" fill="white"/>
</g>
<g opacity="0.17">
<path opacity="0.17" d="M148.537 169.316C148.537 169.316 148.621 162.873 151.567 162.529C154.507 162.179 183.852 160.013 187.14 160.273C190.429 160.532 192.677 162.788 192.419 166.354C192.419 166.354 191.812 161.491 186.707 161.232C181.603 160.973 155.03 163.211 152.433 163.488C149.835 163.76 148.453 167.85 148.537 169.316Z" fill="white"/>
</g>
<path d="M151.331 141.475C151.229 141.475 151.145 141.397 151.139 141.294C151.133 141.186 151.211 141.095 151.319 141.083C151.602 141.059 179.642 138.7 187.362 138.809C187.47 138.809 187.554 138.899 187.554 139.008C187.554 139.116 187.464 139.207 187.356 139.201C179.666 139.092 151.632 141.451 151.349 141.475C151.343 141.475 151.337 141.475 151.331 141.475Z" fill="white"/>
<path d="M153.242 142.265C153.14 141.529 152.863 140.98 152.4 140.98C151.937 140.98 151.667 141.529 151.559 142.265C151.457 143.001 150.952 145.336 152.4 145.336C153.849 145.336 153.344 143.007 153.242 142.265ZM152.4 141.101C152.605 141.101 152.767 141.324 152.767 141.596C152.767 141.867 152.605 142.09 152.4 142.09C152.196 142.09 152.034 141.867 152.034 141.596C152.034 141.324 152.196 141.101 152.4 141.101ZM152.4 145.197C151.426 145.197 151.511 143.84 151.511 143.84H153.266C153.26 143.84 153.374 145.197 152.4 145.197Z" fill="white"/>
<path d="M152.269 165.847C152.167 165.847 152.083 165.768 152.076 165.666C152.07 165.557 152.149 165.467 152.257 165.455C152.539 165.431 180.58 163.072 188.299 163.18C188.407 163.18 188.492 163.271 188.492 163.379C188.492 163.488 188.401 163.579 188.293 163.573C180.604 163.464 152.569 165.823 152.287 165.847C152.281 165.847 152.275 165.847 152.269 165.847Z" fill="white"/>
<path d="M154.18 166.637C154.077 165.901 153.801 165.352 153.338 165.352C152.875 165.352 152.604 165.901 152.496 166.637C152.394 167.373 151.889 169.708 153.338 169.708C154.793 169.708 154.288 167.373 154.18 166.637ZM153.344 165.473C153.548 165.473 153.711 165.696 153.711 165.967C153.711 166.239 153.548 166.462 153.344 166.462C153.14 166.462 152.977 166.239 152.977 165.967C152.971 165.69 153.14 165.473 153.344 165.473ZM153.344 169.569C152.37 169.569 152.454 168.211 152.454 168.211H154.21C154.204 168.205 154.318 169.569 153.344 169.569Z" fill="white"/>
<path d="M145.15 116.163C145.487 116.006 148.481 115.903 148.92 115.849C149.359 115.795 152.629 116.151 152.822 116.434C153.014 116.718 149.227 117.351 149.227 117.351L145.15 116.163Z" fill="#C1C3C5"/>
<path d="M144.016 119.016C144.016 119.016 144.689 116.163 145.152 116.163C145.615 116.163 149.078 116.422 149.228 116.525C149.384 116.627 149.228 119.734 149.228 119.734L144.016 119.016Z" fill="#E5E6E7"/>
<path d="M149.229 116.525C149.229 116.525 152.74 116.109 152.944 116.525C153.149 116.941 153.407 119.246 153.407 119.246L149.223 119.74V116.525H149.229Z" fill="#CED0D1"/>
<path d="M168.105 115.662C168.37 115.541 170.745 115.469 171.093 115.427C171.442 115.385 174.033 115.674 174.19 115.903C174.34 116.127 171.334 116.621 171.334 116.621L168.105 115.662Z" fill="#C1C3C5"/>
<path d="M167.197 117.924C167.197 117.924 167.738 115.662 168.105 115.662C168.472 115.662 171.219 115.879 171.34 115.963C171.46 116.048 171.328 118.509 171.328 118.509L167.197 117.924Z" fill="#E5E6E7"/>
<path d="M171.34 115.964C171.34 115.964 174.124 115.644 174.286 115.976C174.448 116.307 174.647 118.135 174.647 118.135L171.328 118.509L171.34 115.964Z" fill="#CED0D1"/>
<path d="M146.854 116.024C146.854 116.024 146.854 98.4754 146.854 96.5631C146.854 94.6508 146.962 91.8758 150.719 91.7853C154.471 91.7009 166.639 91.4354 168.689 91.351C170.739 91.2665 171.78 93.2633 171.78 95.3445C171.78 97.4318 171.78 115.662 171.78 115.662H169.182C169.182 115.662 169.182 99.1631 169.182 97.3413C169.182 95.5195 168.413 94.8257 166.591 94.7352C164.769 94.6508 151.465 95.254 150.719 95.3445C149.974 95.429 149.974 96.8225 149.974 98.1255C149.974 99.4286 149.974 116.024 149.974 116.024C149.974 116.024 148.152 116.724 146.854 116.024Z" fill="#9B9D9F"/>
<path d="M148.234 116.283C148.234 116.283 148.234 98.4694 148.234 96.5631C148.234 94.6568 148.343 91.8758 152.1 91.7853C155.852 91.7009 168.02 91.4354 170.07 91.351C172.12 91.2665 173.16 93.2633 173.16 95.3445C173.16 97.4318 173.16 115.662 173.16 115.662H170.563C170.563 115.662 170.563 99.1631 170.563 97.3413C170.563 95.5195 169.794 94.8257 167.972 94.7352C166.15 94.6508 152.846 95.254 152.1 95.3445C151.355 95.429 151.355 96.8225 151.355 98.1255C151.355 99.4286 151.355 116.024 151.355 116.024C151.355 116.024 149.533 116.983 148.234 116.283Z" fill="#C1C3C5"/>
<path d="M153.213 91.7431V95.2962L152.444 95.3505C152.444 95.3505 152.516 96.2192 153.646 96.177C154.77 96.1348 166.241 95.6099 166.933 95.5677C167.624 95.5255 168.099 94.132 167.931 92.9194C167.756 91.7009 167.582 90.6633 166.548 90.615C165.508 90.5728 153.436 90.9649 152.871 90.9649C152.305 90.9649 152.047 91.8094 152.047 91.8094L153.213 91.7431Z" fill="#594A42"/>
<g opacity="0.1">
<path opacity="0.1" d="M165.678 94.3008C163.73 94.3853 156.636 94.518 155.073 94.4758C153.516 94.4336 153.209 92.6057 153.209 92.6057V95.2902L152.439 95.3445C152.439 95.3445 152.512 96.2132 153.642 96.1709C154.766 96.1287 166.237 95.6039 166.929 95.5616C167.62 95.5194 168.095 94.1259 167.927 92.9134C167.89 92.6419 167.848 92.3885 167.8 92.1472C167.56 92.9797 166.977 94.2466 165.678 94.3008Z" fill="#231F20"/>
</g>
<g opacity="0.09">
<path opacity="0.09" d="M167.54 91.2845C167.347 90.8864 167.047 90.627 166.542 90.6089C165.502 90.5667 153.429 90.9588 152.864 90.9588C152.486 90.9588 152.245 91.3388 152.131 91.5862C152.197 91.6525 152.275 91.7189 152.353 91.7852L153.213 91.737V92.3583C154.019 92.7927 155.143 93.1245 156.676 93.04C160.572 92.8228 164.119 92.9797 165.85 92.8651C166.945 92.7927 167.54 92.0446 167.54 91.2845Z" fill="white"/>
</g>
<path d="M63.9902 69.4408C64.5794 70.4663 73.5554 66.7744 74.1205 66.1772C74.6857 65.5739 72.7378 61.9604 71.9562 61.8639C71.1746 61.7674 63.2026 68.0714 63.9902 69.4408Z" fill="#CDCFD0"/>
<path d="M66.0338 69.3805C67.9216 68.91 70.6751 67.8482 72.4366 67.064L71.7813 61.9001C70.7893 62.2561 66.9175 65.2422 65.0117 67.4139L66.0338 69.3805Z" fill="#BABCBD"/>
<path d="M52.6201 49.6719C52.0309 48.6464 59.7024 42.6923 60.502 42.5053C61.3016 42.3183 63.4539 45.8171 63.1413 46.541C62.8346 47.271 53.4077 51.0413 52.6201 49.6719Z" fill="#CDCFD0"/>
<path d="M53.6562 47.9648L54.8527 49.8047C57.3958 49.298 61.3217 47.7295 62.6744 46.9151L58.5381 43.7903C56.9809 44.9485 54.9008 46.6618 53.6562 47.9648Z" fill="#BABCBD"/>
<path d="M71.0013 57.1584L73.0454 75.612L70.388 77.1563L62.416 61.2364L71.0013 57.1584Z" fill="#E4E5E6"/>
<path d="M67.231 50.6131L52.3331 39.6038L49.6758 41.1421L59.4214 56.0304L67.231 50.6131Z" fill="#E4E5E6"/>
<path d="M67.231 50.6131L52.3331 39.6038L49.6758 41.1421L59.4214 56.0304L67.231 50.6131Z" fill="#E4E5E6"/>
<path d="M62.4141 61.2364L62.9131 62.2378C67.338 60.3798 69.9292 58.7028 71.0775 57.8643L70.9993 57.1584L62.4141 61.2364Z" fill="#CDCFD0"/>
<path d="M59.3378 55.8856L58.7246 54.9506C62.5423 52.0308 65.2838 50.6253 66.5824 50.0461L67.1535 50.4684L59.3378 55.8856Z" fill="#CDCFD0"/>
<path d="M78.7242 48.3208C77.8164 46.7463 71.7081 47.8201 64.68 51.8921C57.6519 55.9641 44.9844 66.6718 45.4955 67.5646C46.0065 68.4575 61.5898 62.811 68.6179 58.739C75.64 54.6671 79.5899 49.829 78.7242 48.3208Z" fill="white"/>
<path d="M49.7531 62.9978L43.4885 60.2832L41.0176 62.6238L45.8753 66.7561L49.7531 62.9978Z" fill="#E4E5E6"/>
<path d="M51.5633 66.1467L50.7757 72.9514L47.5171 73.9227L46.3809 67.6368L51.5633 66.1467Z" fill="#E4E5E6"/>
<path d="M75.3102 50.2996C74.5827 49.0327 73.4104 48.8879 73.4104 48.8879L72.1719 50.0583C73.5667 49.7989 74.0116 51.0476 74.0116 51.0476C74.0116 51.0476 74.8653 52.0611 73.9394 53.1409L75.5687 52.6522C75.5747 52.6583 76.0376 51.5664 75.3102 50.2996Z" fill="#414042"/>
<path d="M51.6895 44.2124C51.6895 44.2124 55.7536 40.7437 56.1384 40.8884C56.5232 41.0332 57.0943 41.8054 56.6434 42.2397C56.1925 42.6741 52.3568 44.3029 51.6895 44.2124Z" fill="#F0F1F1"/>
<path d="M68.6973 73.7903C68.6973 73.7903 72.7614 70.3215 73.1462 70.4663C73.531 70.6111 74.1021 71.3833 73.6512 71.8176C73.2003 72.2459 69.3646 73.8747 68.6973 73.7903Z" fill="#F0F1F1"/>
<path d="M51.1419 64.2949L46.8613 66.7743C46.8613 66.7743 48.4365 66.913 51.1419 64.2949Z" fill="#CDCFD0"/>
<path d="M67.8148 51.1982L67.7968 51.1741C67.7306 51.0715 67.7547 50.9388 67.8569 50.8724L68.6505 50.3416C68.7527 50.2752 68.8849 50.2993 68.9511 50.4019L68.9691 50.426C69.0352 50.5286 69.0112 50.6613 68.909 50.7276L68.1154 51.2585C68.0192 51.3249 67.8809 51.2947 67.8148 51.1982Z" fill="#E4E5E6"/>
<path d="M66.0277 52.1091L66.0096 52.0849C65.9435 51.9824 65.9676 51.8497 66.0698 51.7833L66.8634 51.2524C66.9656 51.1861 67.0978 51.2102 67.164 51.3128L67.182 51.3369C67.2481 51.4395 67.2241 51.5722 67.1219 51.6385L66.3283 52.1694C66.2261 52.2358 66.0938 52.2056 66.0277 52.1091Z" fill="#E4E5E6"/>
<path d="M64.2972 53.1225L64.2792 53.0984C64.213 52.9958 64.2371 52.8631 64.3393 52.7967L65.1329 52.2659C65.2351 52.1995 65.3673 52.2236 65.4335 52.3262L65.4515 52.3503C65.5176 52.4529 65.4936 52.5856 65.3914 52.652L64.5978 53.1828C64.5016 53.2492 64.3633 53.219 64.2972 53.1225Z" fill="#E4E5E6"/>
<path d="M62.5706 54.1298L62.5526 54.1057C62.4865 54.0031 62.5105 53.8704 62.6127 53.8041L63.4063 53.2732C63.5085 53.2068 63.6408 53.231 63.7069 53.3335L63.725 53.3577C63.7911 53.4602 63.7671 53.5929 63.6649 53.6593L62.8713 54.1901C62.769 54.2625 62.6368 54.2324 62.5706 54.1298Z" fill="#E4E5E6"/>
<path d="M60.9593 55.3483L60.9413 55.3242C60.8752 55.2216 60.8992 55.0889 61.0014 55.0226L61.795 54.4917C61.8972 54.4253 62.0295 54.4495 62.0956 54.552L62.1136 54.5762C62.1798 54.6787 62.1557 54.8114 62.0535 54.8778L61.2599 55.4087C61.1637 55.475 61.0255 55.4509 60.9593 55.3483Z" fill="#E4E5E6"/>
<path d="M59.2953 56.4645L59.2772 56.4404C59.2111 56.3378 59.2351 56.2051 59.3373 56.1388L60.1309 55.6079C60.2331 55.5416 60.3654 55.5657 60.4315 55.6682L60.4496 55.6924C60.5157 55.7949 60.4917 55.9276 60.3895 55.994L59.5959 56.5249C59.4997 56.5912 59.3614 56.561 59.2953 56.4645Z" fill="#E4E5E6"/>
<path d="M57.6898 57.6833L57.6718 57.6592C57.6056 57.5566 57.6297 57.4239 57.7319 57.3575L58.5255 56.8267C58.6277 56.7603 58.7599 56.7844 58.8261 56.887L58.8441 56.9111C58.9103 57.0137 58.8862 57.1464 58.784 57.2127L57.9904 57.7436C57.8882 57.81 57.7559 57.7798 57.6898 57.6833Z" fill="#E4E5E6"/>
<path d="M56.0785 58.8957L56.0604 58.8716C55.9943 58.769 56.0183 58.6363 56.1205 58.5699L56.9141 58.0391C57.0163 57.9727 57.1486 57.9968 57.2147 58.0994L57.2328 58.1235C57.2989 58.2261 57.2749 58.3588 57.1727 58.4251L56.3791 58.956C56.2829 59.0224 56.1446 58.9982 56.0785 58.8957Z" fill="#E4E5E6"/>
<path d="M54.473 60.1142L54.455 60.0901C54.3888 59.9875 54.4129 59.8548 54.5151 59.7884L55.3147 59.2576C55.4169 59.1912 55.5492 59.2153 55.6153 59.3179L55.6333 59.342C55.6995 59.4446 55.6754 59.5773 55.5732 59.6437L54.7796 60.1745C54.6714 60.2409 54.5391 60.2107 54.473 60.1142Z" fill="#E4E5E6"/>
<path d="M52.8675 61.3268L52.8495 61.3027C52.7834 61.2002 52.8074 61.0674 52.9096 61.0011L53.7032 60.4702C53.8054 60.4039 53.9377 60.428 54.0038 60.5305L54.0218 60.5547C54.088 60.6572 54.0639 60.7899 53.9617 60.8563L53.1681 61.3872C53.0719 61.4535 52.9337 61.4294 52.8675 61.3268Z" fill="#E4E5E6"/>
<path d="M70.7835 56.3623L70.7955 56.3864C70.8497 56.495 70.9819 56.5372 71.0901 56.4829L71.9498 56.0546C72.0581 56.0003 72.1002 55.8676 72.046 55.759L72.034 55.7349C71.9799 55.6263 71.8476 55.5841 71.7394 55.6384L70.8797 56.0667C70.7775 56.121 70.7354 56.2537 70.7835 56.3623Z" fill="#E4E5E6"/>
<path d="M69.1056 57.4602L69.1176 57.4843C69.1717 57.5929 69.304 57.6351 69.4122 57.5808L70.2719 57.1525C70.3801 57.0982 70.4222 56.9655 70.3681 56.8569L70.3561 56.8328C70.302 56.7242 70.1697 56.682 70.0615 56.7363L69.2018 57.1646C69.0935 57.2189 69.0515 57.3516 69.1056 57.4602Z" fill="#E4E5E6"/>
<path d="M67.3692 58.4556L67.3813 58.4797C67.4354 58.5883 67.5676 58.6305 67.6759 58.5762L68.5356 58.1479C68.6438 58.0936 68.6859 57.9609 68.6318 57.8523L68.6197 57.8282C68.5656 57.7196 68.4334 57.6773 68.3252 57.7316L67.4654 58.16C67.3572 58.2142 67.3151 58.347 67.3692 58.4556Z" fill="#E4E5E6"/>
<path d="M65.6253 59.4511L65.6373 59.4753C65.6915 59.5839 65.8237 59.6261 65.9319 59.5718L66.7917 59.1435C66.8999 59.0892 66.942 58.9565 66.8878 58.8479L66.8758 58.8238C66.8217 58.7152 66.6894 58.6729 66.5812 58.7272L65.7215 59.1555C65.6193 59.2098 65.5772 59.3426 65.6253 59.4511Z" fill="#E4E5E6"/>
<path d="M63.7725 60.2412L63.7845 60.2653C63.8386 60.3739 63.9709 60.4161 64.0791 60.3618L64.9388 59.9335C65.047 59.8792 65.0891 59.7465 65.035 59.6379L65.023 59.6138C64.9689 59.5052 64.8366 59.463 64.7284 59.5173L63.8687 59.9456C63.7665 59.9999 63.7184 60.1326 63.7725 60.2412Z" fill="#E4E5E6"/>
<path d="M61.9756 61.1281L61.9876 61.1523C62.0417 61.2609 62.174 61.3031 62.2822 61.2488L63.1419 60.8205C63.2501 60.7662 63.2922 60.6335 63.2381 60.5249L63.2261 60.5008C63.172 60.3922 63.0397 60.3499 62.9315 60.4042L62.0718 60.8325C61.9696 60.8929 61.9215 61.0196 61.9756 61.1281Z" fill="#E4E5E6"/>
<path d="M60.1232 61.9182L60.1352 61.9423C60.1893 62.0509 60.3216 62.0931 60.4298 62.0388L61.2895 61.6105C61.3977 61.5562 61.4398 61.4235 61.3857 61.3149L61.3737 61.2908C61.3195 61.1822 61.1873 61.14 61.0791 61.1943L60.2193 61.6226C60.1111 61.6769 60.069 61.8096 60.1232 61.9182Z" fill="#E4E5E6"/>
<path d="M58.2659 62.7084L58.278 62.7326C58.3321 62.8412 58.4643 62.8834 58.5726 62.8291L59.4323 62.4008C59.5405 62.3465 59.5826 62.2138 59.5285 62.1052L59.5164 62.0811C59.4623 61.9725 59.3301 61.9303 59.2219 61.9846L58.3621 62.4129C58.2599 62.4672 58.2178 62.5999 58.2659 62.7084Z" fill="#E4E5E6"/>
<path d="M56.4149 63.4926L56.4269 63.5168C56.481 63.6254 56.6133 63.6676 56.7215 63.6133L57.5813 63.185C57.6895 63.1307 57.7316 62.998 57.6774 62.8894L57.6654 62.8653C57.6113 62.7567 57.479 62.7144 57.3708 62.7687L56.5171 63.2031C56.4089 63.2513 56.3608 63.3841 56.4149 63.4926Z" fill="#E4E5E6"/>
<path d="M54.5628 64.2771L54.5748 64.3012C54.6289 64.4098 54.7612 64.452 54.8694 64.3977L55.7292 63.9694C55.8374 63.9151 55.8795 63.7824 55.8254 63.6738L55.8133 63.6497C55.7592 63.5411 55.627 63.4989 55.5187 63.5532L54.659 63.9815C54.5568 64.0418 54.5147 64.1745 54.5628 64.2771Z" fill="#E4E5E6"/>
<path d="M94.9922 154.234L85.6614 153.8C85.5352 153.794 85.4209 153.83 85.3187 153.89V153.884L84.3929 154.313L84.9219 154.596L83.2506 159.905C83.1604 160.188 82.8838 160.369 82.5832 160.333L81.6694 160.219C81.5431 160.2 81.4289 160.237 81.3207 160.291L81.3147 160.285L80.3828 160.719L80.9179 161.136C80.8878 161.467 81.1223 161.775 81.465 161.805L81.8317 161.841L82.463 162.33L83.4309 161.878C83.5572 161.805 83.6534 161.691 83.7015 161.546L85.8718 155.2C85.962 154.94 86.2145 154.765 86.4851 154.783L94.5172 155.163C94.4932 154.699 94.7397 154.409 94.9922 154.234Z" fill="#806F65"/>
<path d="M129.917 163.356C129.917 163.356 66.3149 158.367 64.5413 158.186C64.1806 158.149 63.8139 158.216 63.4652 158.342C63.381 158.373 63.3029 158.403 63.2187 158.445L55.3008 161.739L60.9882 166.348C60.9882 177.321 60.9882 203.387 60.9882 205.245C60.9882 207.562 63.1225 208.63 65.2508 208.992C66.862 209.263 101.624 212.376 119.522 213.812L123.79 217.274L131.107 214.276C131.185 214.246 131.263 214.216 131.342 214.18C132.79 213.558 133.644 212.129 133.644 210.065C133.644 207.393 133.644 172.453 133.644 168.887C133.65 165.316 132.081 163.53 129.917 163.356Z" fill="#F58D3E"/>
<path d="M121.565 166.921C121.565 166.921 57.9634 161.932 56.1899 161.751C54.4163 161.57 52.6367 163.711 52.6367 165.135C52.6367 166.559 52.6367 206.494 52.6367 208.811C52.6367 211.127 54.771 212.195 56.8993 212.557C59.0336 212.913 119.257 218.264 121.565 218.083C123.874 217.902 125.299 216.303 125.299 213.625C125.299 210.952 125.299 176.012 125.299 172.446C125.299 168.881 123.729 167.096 121.565 166.921Z" fill="#FAAF40"/>
<path d="M53.7897 167.639C53.7897 167.639 52.7256 162.203 58.2326 162.65C63.7397 163.096 116.502 167.373 119.171 167.639C121.834 167.904 123.879 168.706 123.524 173.876C123.524 173.876 123.614 169.328 118.462 168.887C113.309 168.441 61.876 164.073 59.0383 163.898C56.1885 163.717 54.944 163.802 53.7897 167.639Z" fill="#FDC35A"/>
<g opacity="0.1">
<path opacity="0.1" d="M121.565 218.083C122.449 218.016 123.201 217.739 123.79 217.274L131.106 214.276C131.185 214.246 131.263 214.216 131.341 214.18C132.79 213.558 133.644 212.129 133.644 210.066C133.644 209.239 133.644 205.354 133.644 200.263C133.644 202.935 133.535 211.26 129.381 211.851C125.227 212.442 125.293 204.25 125.293 204.25C125.293 212.334 119.605 214.886 115.878 214.886C112.144 214.886 71.9958 211.501 61.8714 210.253C56.8814 209.637 54.1339 206.898 52.6309 204.28C52.6309 206.736 52.6309 208.401 52.6309 208.823C52.6309 211.139 54.7651 212.207 56.8934 212.569C59.0337 212.913 119.257 218.264 121.565 218.083Z" fill="#231F20"/>
</g>
<path d="M82.3059 159.609C82.3059 159.609 76.0654 162.595 75.0313 163.259C73.9972 163.923 74.3159 168.881 74.3159 172.091C74.3159 175.3 74.3159 214.204 74.3159 214.204L67.1855 213.558C67.1855 213.558 67.1855 167.349 67.1855 164.55C67.1855 161.751 74.2016 158.964 74.2016 158.964L82.3059 159.609Z" fill="#594A42"/>
<path d="M114.29 162.131C114.29 162.131 106.974 165.37 105.94 166.034C104.905 166.697 105.224 171.656 105.224 174.865C105.224 178.075 105.224 216.979 105.224 216.979L98.0938 216.333C98.0938 216.333 98.0938 170.124 98.0938 167.325C98.0938 164.526 107.358 161.437 107.358 161.437L114.29 162.131Z" fill="#594A42"/>
<path d="M74.1914 158.97C74.1914 158.97 68.3297 160.822 67.1754 162.644C66.021 164.459 64.981 170.492 64.8908 172.899C64.8006 175.306 66.2255 177.888 68.1794 177.978C70.1333 178.069 71.468 176.199 72.1774 173.074C72.8868 169.949 72.9049 164.309 75.5682 162.951C78.2255 161.594 82.3077 159.609 82.3077 159.609L74.1914 158.97Z" fill="#6E5B52"/>
<path d="M106.18 161.443C106.18 161.443 100.318 163.295 99.1636 165.117C98.0093 166.933 96.9692 172.965 96.8791 175.372C96.7889 177.779 98.2137 180.361 100.168 180.452C102.122 180.542 103.456 178.672 104.166 175.547C104.875 172.428 104.893 166.782 107.556 165.425C110.214 164.067 114.296 162.083 114.296 162.083L106.18 161.443Z" fill="#6E5B52"/>
<path d="M68.6297 161.443C68.6297 161.443 76.4634 162.354 76.9444 162.384C77.4253 162.415 78.2851 161.992 77.7079 161.817C77.1367 161.642 69.9162 160.894 69.3571 160.894C68.798 160.888 68.0405 161.377 68.6297 161.443Z" fill="#9A8479"/>
<path d="M72.1272 159.85C72.1272 159.85 79.54 160.58 79.997 160.599C80.4539 160.623 81.2715 160.279 80.7304 160.14C80.1893 160.001 73.3536 159.404 72.8246 159.404C72.2955 159.404 71.568 159.796 72.1272 159.85Z" fill="#9A8479"/>
<path d="M100.89 163.784C100.89 163.784 108.724 164.695 109.205 164.725C109.686 164.755 110.546 164.333 109.969 164.158C109.398 163.983 102.177 163.235 101.618 163.235C101.065 163.229 100.301 163.718 100.89 163.784Z" fill="#9A8479"/>
<path d="M104.396 162.191C104.396 162.191 111.809 162.915 112.265 162.939C112.722 162.963 113.54 162.62 112.999 162.481C112.458 162.342 105.622 161.745 105.093 161.745C104.558 161.745 103.836 162.137 104.396 162.191Z" fill="#9A8479"/>
<path d="M103.091 183.945C103.091 184.831 102.376 185.549 101.492 185.549C100.608 185.549 99.8926 184.831 99.8926 183.945C99.8926 183.058 100.608 182.34 101.492 182.34C102.376 182.34 103.091 183.064 103.091 183.945Z" fill="#A9ABAD"/>
<path d="M99.8926 183.945C99.8926 184.361 100.055 184.735 100.313 185.018C100.53 185.139 100.776 185.217 101.047 185.217C101.883 185.217 102.562 184.536 102.562 183.697C102.562 183.124 102.243 182.629 101.774 182.37C101.684 182.352 101.588 182.34 101.492 182.34C100.608 182.34 99.8926 183.064 99.8926 183.945Z" fill="#BBBDBF"/>
<path d="M101.209 183.667C101.209 183.993 101.022 184.252 100.794 184.252C100.565 184.252 100.379 183.993 100.379 183.667C100.379 183.341 100.565 183.082 100.794 183.082C101.022 183.082 101.209 183.347 101.209 183.667Z" fill="#D0D2D3"/>
<path d="M71.9308 182.34C71.9308 183.227 71.2154 183.945 70.3316 183.945C69.4479 183.945 68.7324 183.227 68.7324 182.34C68.7324 181.453 69.4479 180.735 70.3316 180.735C71.2154 180.741 71.9308 181.459 71.9308 182.34Z" fill="#A9ABAD"/>
<path d="M68.7324 182.34C68.7324 182.756 68.8947 183.13 69.1533 183.414C69.3697 183.534 69.6162 183.613 69.8867 183.613C70.7224 183.613 71.4018 182.931 71.4018 182.093C71.4018 181.52 71.0832 181.025 70.6142 180.766C70.524 180.747 70.4278 180.735 70.3316 180.735C69.4479 180.735 68.7324 181.459 68.7324 182.34Z" fill="#BBBDBF"/>
<path d="M70.0484 182.062C70.0484 182.388 69.862 182.648 69.6336 182.648C69.4051 182.648 69.2188 182.388 69.2188 182.062C69.2188 181.737 69.4051 181.477 69.6336 181.477C69.862 181.477 70.0484 181.743 70.0484 182.062Z" fill="#D0D2D3"/>
<path d="M103.091 209.173C103.091 210.06 102.376 210.777 101.492 210.777C100.608 210.777 99.8926 210.06 99.8926 209.173C99.8926 208.286 100.608 207.568 101.492 207.568C102.376 207.568 103.091 208.286 103.091 209.173Z" fill="#A9ABAD"/>
<path d="M99.8926 209.173C99.8926 209.589 100.055 209.963 100.313 210.247C100.53 210.367 100.776 210.446 101.047 210.446C101.883 210.446 102.562 209.764 102.562 208.925C102.562 208.352 102.243 207.858 101.774 207.598C101.684 207.58 101.588 207.568 101.492 207.568C100.608 207.568 99.8926 208.286 99.8926 209.173Z" fill="#BBBDBF"/>
<path d="M101.209 208.895C101.209 209.221 101.022 209.481 100.794 209.481C100.565 209.481 100.379 209.221 100.379 208.895C100.379 208.57 100.565 208.31 100.794 208.31C101.022 208.31 101.209 208.57 101.209 208.895Z" fill="#D0D2D3"/>
<path d="M71.9308 206.705C71.9308 207.592 71.2154 208.31 70.3316 208.31C69.4479 208.31 68.7324 207.592 68.7324 206.705C68.7324 205.818 69.4479 205.101 70.3316 205.101C71.2154 205.101 71.9308 205.818 71.9308 206.705Z" fill="#A9ABAD"/>
<path d="M68.7324 206.705C68.7324 207.121 68.8947 207.495 69.1533 207.779C69.3697 207.9 69.6162 207.978 69.8867 207.978C70.7224 207.978 71.4018 207.296 71.4018 206.458C71.4018 205.885 71.0832 205.39 70.6142 205.131C70.524 205.113 70.4278 205.101 70.3316 205.101C69.4479 205.101 68.7324 205.818 68.7324 206.705Z" fill="#BBBDBF"/>
<path d="M70.0484 206.428C70.0484 206.753 69.862 207.013 69.6336 207.013C69.4051 207.013 69.2188 206.753 69.2188 206.428C69.2188 206.102 69.4051 205.843 69.6336 205.843C69.862 205.843 70.0484 206.102 70.0484 206.428Z" fill="#D0D2D3"/>
<path d="M94.5948 154.705L84.7109 154.246C84.4284 154.234 84.1759 154.409 84.0917 154.681L82.3061 160.351C82.2159 160.635 81.9334 160.816 81.6388 160.779L80.7249 160.665C80.4003 160.623 80.0997 160.846 80.0396 161.166L79.9734 161.515C79.9073 161.871 80.1598 162.209 80.5205 162.245L82.1017 162.408C82.3903 162.438 82.6548 162.263 82.751 161.992L84.9214 155.646C85.0116 155.386 85.2641 155.211 85.5346 155.223L94.6309 155.658C94.4806 155.26 94.4926 154.94 94.5948 154.705Z" fill="#9A8479"/>
<path d="M88.1679 152.883C88.8653 152.919 94.2281 153.227 95.0938 153.281C96.693 153.383 96.705 156.46 95.0938 156.424C94.5888 156.412 87.4645 155.953 86.701 155.887C85.9374 155.827 85.5767 152.744 88.1679 152.883Z" fill="#806F65"/>
<g opacity="0.1">
<path opacity="0.1" d="M95.2798 153.317C93.7648 153.963 94.7568 155.76 94.3179 155.803C93.8489 155.845 88.7868 155.537 87.4761 155.471C86.6044 155.429 86.2978 154.705 86.1956 154.222C86.0152 155.012 86.3038 155.857 86.7006 155.893C87.4641 155.959 94.5884 156.418 95.0934 156.43C96.6385 156.46 96.6866 153.637 95.2798 153.317Z" fill="#231F20"/>
</g>
<path d="M100.87 161.847L100.01 161.787C99.7157 161.763 99.4752 161.54 99.4391 161.244L98.6515 154.928C98.6154 154.626 98.3689 154.397 98.0623 154.385L95.8138 154.319C95.5613 154.494 95.2908 154.662 95.3449 155.254L97.0583 155.296C97.3709 155.308 97.6234 155.555 97.6475 155.869L98.1705 162.529C98.1946 162.837 98.4411 163.078 98.7477 163.102L99.7818 163.174L100.155 163.609L101.116 163.156V163.15C101.261 163.066 101.375 162.927 101.411 162.746L101.441 162.601C101.507 162.221 101.243 161.871 100.87 161.847Z" fill="#78685F"/>
<path d="M99.923 162.288L99.0633 162.227C98.7687 162.203 98.5282 161.98 98.4921 161.684L97.7046 155.368C97.6685 155.067 97.422 154.837 97.1154 154.825L95.42 154.711C95.3178 154.946 95.3058 155.266 95.4621 155.67L96.1054 155.742C96.418 155.754 96.6705 156.002 96.6945 156.315L97.2176 162.975C97.2416 163.283 97.4881 163.524 97.7947 163.548L99.8028 163.687C100.109 163.705 100.392 163.494 100.452 163.192L100.482 163.048C100.56 162.668 100.296 162.318 99.923 162.288Z" fill="#9A8479"/>
<g opacity="0.09">
<path opacity="0.09" d="M88.1689 152.883C87.2009 152.829 86.6418 153.227 86.3652 153.752C86.5035 154.186 86.8703 154.807 87.8382 154.874C89.3472 154.976 92.8583 155.181 93.4114 155.133C93.8743 155.097 93.8022 153.86 94.2831 153.233C92.5096 153.13 88.746 152.919 88.1689 152.883Z" fill="white"/>
</g>
<path d="M187.116 50.8306C187.116 50.8306 180.894 50.6737 177.713 58.2023C174.527 65.731 175.212 77.7538 187.543 91.0616L187.116 50.8306Z" fill="#EC1C24"/>
<path d="M190.279 49.9741C190.279 49.9741 184.502 48.6168 180.341 57.4364C176.181 66.2559 177.618 76.5897 187.544 91.0618L190.478 91.4297L190.279 49.9741Z" fill="#F0F1F1"/>
<path d="M193.387 49.5035C193.387 49.5035 191.079 48.5805 188.506 50.3782C185.932 52.1759 181.351 56.7365 181.562 68.9343C181.772 81.1381 188.169 91.1401 188.169 91.1401L189.69 91.3331L193.387 49.5035Z" fill="#EC1C24"/>
<path d="M195.726 49.5635C195.726 49.5635 193.333 48.3993 191.391 49.9557C189.443 51.5181 186.185 56.9956 185.812 67.625C185.439 78.2543 188.8 91.2183 188.8 91.2183L190.471 91.4294L195.726 49.5635Z" fill="#F0F1F1"/>
<path d="M203.276 52.8755C203.276 52.8755 209.343 54.269 210.569 62.3526C211.796 70.4362 208.164 81.9161 192.93 91.7432L203.276 52.8755Z" fill="#EC1C24"/>
<path d="M200.427 51.2588C200.427 51.2588 206.361 51.3794 208.207 60.9591C210.059 70.5388 206.115 80.1969 192.924 91.7432L189.99 91.3752L200.427 51.2588Z" fill="#F0F1F1"/>
<path d="M197.529 50.0281C197.529 50.0281 199.994 49.7144 202.044 52.0912C204.094 54.468 207.407 60.03 204.19 71.7995C200.974 83.569 192.304 91.6647 192.304 91.6647L190.783 91.4717L197.529 50.0281Z" fill="#EC1C24"/>
<path d="M195.251 49.5034C195.251 49.5034 197.854 48.9665 199.357 50.9633C200.854 52.9601 202.663 59.0771 200.397 69.4711C198.13 79.8652 191.673 91.5864 191.673 91.5864L190.002 91.3753L195.251 49.5034Z" fill="#F0F1F1"/>
<path d="M195.792 49.0751C192.07 48.6046 191.012 60.2534 189.924 68.9101C188.836 77.5668 189.684 91.333 189.684 91.333L190.477 91.4356L191.271 91.5382C191.271 91.5382 195.491 78.4053 196.579 69.7546C197.656 61.0919 199.507 49.5456 195.792 49.0751Z" fill="#EC1C24"/>
<path d="M185.133 88.2986C185.133 88.2986 190.429 85.6201 195.943 89.6619L192.924 91.7371L187.135 91.0072L185.133 88.2986Z" fill="#CD1B21"/>
<path d="M192.972 91.7493C192.936 92.0329 191.577 92.0992 189.93 91.8881C188.283 91.683 186.984 91.2788 187.02 90.9953C187.056 90.7117 188.415 90.6514 190.062 90.8565C191.704 91.0677 193.008 91.4658 192.972 91.7493Z" fill="#A31114"/>
<path d="M189.949 91.7311C188.272 91.52 187.358 91.1761 187.189 91.0193C187.394 90.9047 188.362 90.8021 190.039 91.0132C191.717 91.2244 192.63 91.5683 192.799 91.7251C192.594 91.8397 191.632 91.9423 189.949 91.7311Z" fill="#730000"/>
<path d="M192.113 95.5137L189.78 95.0613L189.293 98.9281C189.293 98.9281 191.505 98.9221 191.692 98.8678C191.878 98.8075 192.113 95.5137 192.113 95.5137Z" fill="#7A5334"/>
<path d="M187.404 94.9177L189.779 95.0625L189.292 98.9294C189.292 98.9294 187.151 98.3683 186.983 98.2718C186.809 98.1693 187.404 94.9177 187.404 94.9177Z" fill="#8A5E3C"/>
<g opacity="0.17">
<path opacity="0.17" d="M187.393 94.9829C187.375 95.0794 187.338 95.2785 187.296 95.5379C187.741 95.5801 188.902 95.7008 189.112 95.7732C189.377 95.8576 189.431 96.5453 189.214 97.5407C189.016 98.4516 187.855 98.5662 187.086 98.3068C187.549 98.4697 189.292 98.9221 189.292 98.9221C189.292 98.9221 191.505 98.9161 191.691 98.8618C191.866 98.8136 192.076 96.0386 192.106 95.5801L191.829 95.5439L187.393 94.9829Z" fill="#775132"/>
</g>
<path d="M189.805 94.8441C189.805 94.8441 187.454 94.6752 187.352 94.6933C187.25 94.7053 187.147 95.2844 187.189 95.381C187.231 95.4775 189.702 95.6343 189.702 95.6343L189.805 94.8441Z" fill="#9A6944"/>
<path d="M189.801 94.844C189.801 94.844 192.122 95.2663 192.218 95.3085C192.314 95.3447 192.266 95.9299 192.206 96.0143C192.146 96.0988 189.705 95.6343 189.705 95.6343L189.801 94.844Z" fill="#8D603E"/>
<path d="M187.332 94.6871L187.176 91.0193H187.206L187.362 94.6871H187.332Z" fill="#F0F1F1"/>
<path d="M190.259 91.0432L189.783 94.844L189.813 94.8477L190.288 91.047L190.259 91.0432Z" fill="#F0F1F1"/>
<path d="M192.003 95.2541L191.973 95.2481L192.784 91.7251L192.814 91.7311L192.003 95.2541Z" fill="#F0F1F1"/>
<g opacity="0.21">
<path opacity="0.21" d="M195.943 89.6679C195.943 89.6619 195.943 89.6619 195.943 89.6679C208.64 80.3356 211.706 69.8752 210.57 62.3586C209.722 56.7725 206.566 54.3776 204.696 53.4365C203.458 52.1938 202.207 51.6569 201.383 51.4337C200.253 50.4444 199.093 50.1367 198.341 50.0522C198.317 50.0341 198.293 50.0281 198.269 50.01C209.71 57.1163 206.692 73.5611 199.514 82.4591C193.375 90.0661 185.656 86.6999 182.518 84.8178C183.305 85.964 184.177 87.1282 185.139 88.2986L187.075 90.9167C187.045 90.9408 187.027 90.9649 187.021 90.9951C187.015 91.0615 187.075 91.1278 187.189 91.2002L187.243 92.4309C187.255 92.4309 187.261 92.4369 187.273 92.4369L187.219 91.2183C187.64 91.4596 188.686 91.7311 189.93 91.8879C190.009 91.9 190.081 91.906 190.153 91.9121L189.997 93.1789C190.009 93.1789 190.015 93.1849 190.027 93.1849L190.189 91.9121C191.337 92.0387 192.311 92.0327 192.744 91.906L192.311 93.7942C192.323 93.7942 192.329 93.8002 192.341 93.8002L192.78 91.894C192.9 91.8517 192.973 91.8035 192.979 91.7431C192.979 91.7311 192.979 91.719 192.973 91.713C193.995 91.0494 194.963 90.3858 195.882 89.7102L195.943 89.6679Z" fill="#231F20"/>
</g>
<path d="M146.329 207.58C136.404 207.58 121.566 209.281 122.371 215.603C123.171 221.931 146.329 222.119 146.329 222.119C146.329 222.119 169.488 221.931 170.288 215.603C171.093 209.281 156.255 207.58 146.329 207.58Z" fill="#D1CCBE"/>
<g opacity="0.1">
<path opacity="0.1" d="M146.328 207.58C144.489 207.58 142.481 207.64 140.43 207.773L134.25 214.53C146.262 222.227 161.334 213.094 161.184 216.894C161.052 220.176 147.362 221.69 143.623 222.04C145.276 222.112 146.322 222.125 146.322 222.125C146.322 222.125 169.481 221.938 170.28 215.609C171.092 209.281 156.254 207.58 146.328 207.58Z" fill="#231F20"/>
</g>
<path d="M134.606 199.792C134.606 199.792 132.7 205.927 132.297 212.466C132.297 212.466 133.499 216.894 146.329 216.894C159.159 216.894 160.361 212.671 160.361 212.671C160.361 212.671 158.66 201.71 158.053 199.798C158.059 199.792 147.333 196.371 134.606 199.792Z" fill="#D1CCBE"/>
<path d="M160.367 212.665C160.367 212.665 160.121 211.085 159.784 209.022C158.588 209.951 155.185 211.664 146.335 211.664C138.291 211.664 134.353 210.252 132.603 209.293C132.471 210.325 132.363 211.387 132.297 212.466C132.297 212.466 133.499 216.894 146.329 216.894C159.165 216.888 160.367 212.665 160.367 212.665Z" fill="#594A42"/>
<g opacity="0.1">
<path opacity="0.1" d="M138.543 216.158C140.485 216.599 143.016 216.894 146.329 216.894C159.158 216.894 160.361 212.671 160.361 212.671C160.361 212.671 158.659 201.71 158.052 199.798C158.052 199.798 154.042 198.525 148.018 198.308C147.958 198.435 148.222 198.585 148.932 198.778C153.748 200.075 158.479 206.084 155.774 211.664C153.11 217.16 138.964 216.188 138.543 216.158Z" fill="#231F20"/>
</g>
<path d="M134.605 199.792C134.605 199.792 136.71 197.174 146.034 196.872C155.359 196.571 158.065 199.792 158.065 199.792C158.065 199.792 150.543 197.475 134.605 199.792Z" fill="#E4DECE"/>
<path d="M124.621 59.2397C124.621 59.2397 118.735 59.2397 113.024 59.2397C107.312 59.2397 109.723 50.0642 117.521 53.0201C117.521 53.0201 114.755 50.0702 118.393 48.1579C122.03 46.2456 122.547 50.0702 122.547 50.0702C122.547 50.0702 120.022 42.6019 127.345 42.427C134.667 42.252 130.164 50.8363 130.164 50.8363C130.164 50.8363 131.896 47.6391 134.319 49.2015C136.742 50.7639 135.245 51.8076 135.245 51.8076C135.245 51.8076 140.896 48.3328 143.319 52.6762C145.742 57.0197 140.896 59.2457 137.084 59.2457C133.273 59.2397 124.621 59.2397 124.621 59.2397Z" fill="white"/>
<path d="M74.6174 21.5786C67.968 21.5786 65.1003 13.4769 74.6895 11.5344C74.6895 11.5344 72.0262 7.16078 75.7296 4.89255C79.4331 2.62431 82.1746 6.67215 82.1746 6.67215C82.1746 6.67215 80.2387 0.6758 86.6957 0.030318C93.1526 -0.615164 91.2167 9.42902 91.2167 9.42902C91.2167 9.42902 92.6717 5.70091 95.0945 7.64942C97.5174 9.5919 96.0625 10.7924 96.0625 10.7924C96.0625 10.7924 98.1607 9.0731 99.7779 10.7924C101.395 12.5056 99.7779 13.8026 99.7779 13.8026C99.7779 13.8026 106.884 7.80627 110.275 12.9943C113.666 18.1762 108.339 21.5786 105.267 21.5786C102.195 21.5786 74.6174 21.5786 74.6174 21.5786Z" fill="white"/>
<path d="M14.4731 74.1522C14.4731 74.1522 6.62734 74.1522 2.2265 74.1522C-2.17434 74.1522 0.122278 63.6315 7.58326 68.1559C7.58326 68.1559 4.7155 64.5243 8.15441 63.5168C11.5993 62.5094 11.7917 65.5438 11.7917 65.5438C11.7917 65.5438 11.7917 58.3771 16.5773 59.4811C21.3629 60.5911 18.6816 67.0519 18.6816 67.0519C18.6816 67.0519 20.9782 63.0946 22.5052 65.0129C24.0383 66.9313 22.5052 68.5239 22.5052 68.5239C22.5052 68.5239 24.6095 63.9934 27.0985 67.0941C27.0985 67.0941 29.9662 63.4203 32.6476 67.0941C35.329 70.768 32.84 74.1643 30.1586 74.1643C27.4832 74.1522 14.4731 74.1522 14.4731 74.1522Z" fill="white"/>
<defs>
<linearGradient id="paint0_linear" x1="29.002" y1="219" x2="203.002" y2="219" gradientUnits="userSpaceOnUse">
<stop stop-color="#FFE9E9"/>
<stop offset="1" stop-color="#FFE6CE"/>
</linearGradient>
</defs>
</svg>
