<svg width="471" height="616" viewBox="0 0 471 616" fill="none" xmlns="http://www.w3.org/2000/svg">
<path opacity="0.5" d="M191.5 616C274.619 616 342 601.673 342 584C342 566.327 274.619 552 191.5 552C108.381 552 41 566.327 41 584C41 601.673 108.381 616 191.5 616Z" fill="url(#paint0_radial)"/>
<path d="M321.227 149.912C326.372 144.209 329.114 141.733 329.139 133.045C329.139 128.337 322.635 126.565 326.493 122.828C330.328 119.09 330.91 129.38 333.119 130.448C335.303 131.54 340.084 108.436 343.312 105.354C346.54 102.296 348.894 106.349 345.035 112.367C341.152 118.386 340.157 123.847 340.157 123.847C340.157 123.847 350.326 110.741 353.141 109.722C355.956 108.703 355.981 113.338 353.651 116.081C351.345 118.823 344.477 124.187 343.021 127.269C343.021 127.269 355.908 119.94 361.32 118.993C366.756 118.047 365.227 122.803 362.728 124.211C360.228 125.619 349.088 126.929 345.278 130.739C345.278 130.739 357.582 127.876 361.053 130.594C364.524 133.288 362.145 136.418 359.645 136.977C357.146 137.535 353.869 135.084 350.277 134.016C346.661 132.948 347.05 133.652 345.084 139.112C343.142 144.573 342.802 148.359 337.9 147.073C334.648 146.223 331.444 147.218 328.483 155.761C326.032 153.82 323.654 151.805 321.227 149.912Z" fill="#FFBD9B"/>
<path d="M333.821 161.586L338.02 155.98C338.02 155.98 330.229 147.097 323.919 144.112L319.72 148.772L333.821 161.586Z" fill="#F8E8D8"/>
<path d="M232.306 231.409C232.306 231.409 280.456 191.51 283.441 189.908C286.451 188.331 320.04 145.859 320.04 145.859C320.04 145.859 331.446 154.62 336.834 161.561C336.834 161.561 311.036 200.271 304.434 209.882C297.833 219.517 255.871 265.337 255.871 265.337L232.306 231.409Z" fill="#3E3533"/>
<path d="M96.9785 149.912C91.8334 144.209 89.091 141.733 89.0667 133.045C89.0667 128.337 95.5709 126.565 91.7121 122.828C87.8775 119.09 87.295 129.38 85.0865 130.448C82.9023 131.54 78.1212 108.436 74.8934 105.354C71.6655 102.296 69.3114 106.349 73.1945 112.367C77.0776 118.386 78.0727 123.847 78.0727 123.847C78.0727 123.847 67.8795 110.741 65.0885 109.722C62.2733 108.703 62.2248 113.338 64.5303 116.081C66.8359 118.823 73.7042 124.187 75.1603 127.269C75.1603 127.269 62.2733 119.94 56.8612 118.993C51.4249 118.047 52.9538 122.803 55.4779 124.211C58.0019 125.619 69.1173 126.929 72.9276 130.739C72.9276 130.739 60.623 127.876 57.1524 130.594C53.6819 133.288 56.0603 136.418 58.5601 136.977C61.0598 137.535 64.3362 135.084 67.928 134.016C71.5442 132.948 71.1559 133.652 73.1217 139.112C75.0633 144.573 75.3788 148.359 80.3055 147.073C83.5576 146.223 86.7611 147.218 89.722 155.761C92.1732 153.82 94.5273 151.805 96.9785 149.912Z" fill="#FFBD9B"/>
<path d="M84.3585 161.586L80.1599 155.98C80.1599 155.98 87.9503 147.097 94.2604 144.112L98.459 148.772L84.3585 161.586Z" fill="#F8E8D8"/>
<path d="M185.9 231.409C185.9 231.409 137.75 191.51 134.765 189.908C131.755 188.331 98.1665 145.859 98.1665 145.859C98.1665 145.859 86.7598 154.62 81.372 161.561C81.372 161.561 107.17 200.271 113.772 209.882C120.373 219.517 165.15 265.41 165.15 265.41L185.9 231.409Z" fill="#3E3533"/>
<path d="M238.395 189.326C238.395 189.326 234.9 189.132 233.396 187.287C231.891 185.443 236.818 170.371 236.818 170.371C236.818 170.371 232.134 166.343 232.085 160.664C232.012 155.009 235.774 152.072 241.599 152.436C247.448 152.8 255.869 160.566 255.869 160.566L251.598 162.775C251.598 162.775 250.214 175.638 248.394 178.938C246.55 182.239 238.395 189.326 238.395 189.326Z" fill="#3E3533"/>
<path d="M249.631 163.649C247.908 171.682 242.253 191.486 242.253 191.486L237.205 185.734L239.729 160.955L249.631 163.649Z" fill="#3E3533"/>
<path d="M228.517 566.133L226.26 554.095L212.548 556.085L213.276 567.395C213.276 567.395 215.848 572.467 223.056 572.588C230.264 572.71 228.517 566.133 228.517 566.133Z" fill="#302624"/>
<path d="M167.286 558.488L167.723 568.269L165.102 574.651L153.768 571.035L151.292 563.779L150.467 552.493L167.286 558.488Z" fill="#302624"/>
<path d="M125.131 575.112C128.65 573.365 139.814 569.992 147.605 563.803C148.454 563.123 149.57 562.856 150.663 563.075L151.269 563.196C151.269 563.196 152.289 568.438 158.041 570.307C161.924 571.545 167.724 568.293 167.724 568.293L168.768 582.175H124.063C123.141 581.714 122.874 580.743 122.874 580.743C122.874 580.743 120.641 577.345 125.131 575.112Z" fill="#302624"/>
<path d="M165.078 337.855C165.078 337.855 158.185 425.88 157.506 433.889C156.826 441.898 148.38 561.06 148.38 561.06C158.962 565.186 170.369 562.007 170.369 562.007L188.862 441.873L201.045 377.802L205.147 376.661C205.147 376.661 206.53 454.663 206.579 454.251C206.603 453.862 208.326 558.973 208.326 558.973C218.568 564.143 232.814 558.561 232.814 558.561C232.814 558.561 237.255 456.581 238.493 450.61C239.731 444.64 240.07 330.258 240.07 330.258L165.078 337.855Z" fill="#3E3533"/>
<path d="M162.99 361.76C178.085 366.978 212.232 374.793 240.045 363.386C240.094 356.251 239.972 346.761 239.997 341.762L164.252 348.339C163.912 352.732 163.475 355.668 162.99 361.76Z" fill="#302624"/>
<path d="M167.578 329.894C168.16 327.734 168.645 326.375 168.645 326.375L235.532 329.118C235.532 329.118 235.775 330.477 236.139 332.807C235.799 333.268 235.532 333.608 235.532 333.608C205.681 345.839 184.057 345.839 167.578 329.894Z" fill="#330E00"/>
<path d="M250.238 273.031L238.516 316.109L244.486 356.348C244.486 356.348 191.531 376.467 158.306 354.795L165.125 264.876L250.238 273.031Z" fill="#3E3533"/>
<path d="M173.427 235.219C166.34 238.204 156.365 244.199 165.127 264.852L168.185 328.462C168.185 328.462 164.787 338.267 166.923 340.354C183.402 356.348 205.05 356.348 234.926 344.14C234.926 344.14 236.503 342.126 236.697 341.325C237.789 337.005 234.149 324.943 234.149 324.943L250.846 273.031C250.846 273.031 267.301 250.63 256.404 242.5C239.245 229.71 201.507 223.4 173.427 235.219Z" fill="#3E3533"/>
<path d="M158.306 354.77L162.262 302.591C169.955 311.644 176.095 322.007 180.245 333.146C197.889 323.997 213.325 310.624 224.901 294.461C220.557 306.11 216.188 317.735 211.844 329.384C223.129 316.133 240.943 280.36 252.229 267.109L238.516 316.109L244.487 356.348C244.487 356.348 191.531 376.467 158.306 354.77Z" fill="url(#paint1_linear)"/>
<path d="M192.938 227.501C192.938 227.501 186.361 227.21 185.148 227.963C183.958 228.691 180.949 237.355 180.342 238.714C179.736 240.073 188.351 248.131 188.351 248.131C188.351 248.131 181.24 259.804 181.531 260.726C181.823 261.673 194.443 312.663 194.443 312.663C194.443 312.663 224.998 267.109 225.629 264.852C226.26 262.595 222.692 250.873 222.692 250.873C222.692 250.873 231.745 244.199 232.279 242.743C232.837 241.287 233.978 231.991 232.279 230.802C231.235 230.074 225.144 228.715 225.144 228.715L192.938 227.501Z" fill="#302624"/>
<path d="M225.168 230.924C225.168 230.924 215.8 255.096 207.548 276.38C201.068 293.126 193.885 275.604 193.885 275.604L191.87 227.623C192.307 227.599 193.254 227.477 193.691 227.453L225.168 230.924Z" fill="#F8E8D8"/>
<path d="M194.226 242.937C192.357 242.5 192.26 236.627 192.26 236.627L191.896 227.744C191.92 227.696 191.944 227.647 191.944 227.599C192.405 227.55 193.279 227.453 193.716 227.429L222.694 230.633C222.596 230.972 223.761 233.399 223.543 234.079C221.868 239.03 216.456 246.141 215.364 246.311C214.078 246.505 210.85 242.792 210.413 241.578C209.758 242.185 208.617 243.981 207.938 244.587C207.574 253.227 207.889 264.585 208.035 275.094C203.011 288.054 198.327 300.14 196.313 305.358C195.949 305.843 195.585 306.305 195.221 306.741L194.128 281.064C197.405 268.711 200.657 256.334 203.933 243.981C202.89 242.549 201.555 241.505 200.511 240.073C198.788 241.772 196.628 242.937 194.226 242.937Z" fill="url(#paint2_linear)"/>
<path d="M200.925 232.331C203.74 233.957 209.541 234.807 212.696 234.879C217.38 235.001 215.511 232.258 217.064 231.846L232.281 196.704L204.76 209.105L204.687 210.27L200.925 232.331Z" fill="#FBC0A4"/>
<path d="M208.497 221.385C211.507 221.021 214.201 220.172 216.943 218.91C219.54 217.721 222.064 216.362 224.442 214.808L232.281 196.679L204.76 209.081L204.687 210.246L202.697 221.895C204.638 221.725 206.556 221.628 208.497 221.385Z" fill="#F69D7D"/>
<path d="M193.885 275.604L203.69 242.524L199.394 237.719L206.675 233.253L212.232 238.399L207.039 242.985C207.039 242.985 208.277 258.324 207.524 276.38C201.044 293.126 195.244 308.076 195.244 308.076L193.885 275.604Z" fill="url(#paint3_linear)"/>
<path d="M220.922 222.939C220.922 222.939 209.856 233.545 207.016 233.084C204.177 232.623 202.696 221.944 202.696 221.944C202.696 221.944 192.576 224.856 191.362 226.264C190.125 227.672 193.158 241.505 194.469 242.185C197.26 243.592 205.706 234.176 207.234 235.389C208.763 236.579 213.108 244.636 214.54 244.466C215.971 244.296 227.378 233.059 226.723 228.934C226.092 224.784 220.922 222.939 220.922 222.939Z" fill="#F8E8D8"/>
<path d="M242.204 177.992C242.204 177.992 251.718 175.832 250.407 187.166C249.097 198.5 240.869 198.742 238.442 199.228C238.442 199.228 233.928 219.444 208.979 217.503C184.03 215.561 188.132 196.267 188.302 183.453C188.496 170.639 187.064 148.408 203.373 146.782C219.852 145.131 243.636 146.223 242.204 177.992Z" fill="#FBC0A4"/>
<path d="M206.045 195.879C206.069 195.636 205.244 195.417 204.807 194.35C204.588 193.816 204.491 193.209 204.661 192.457C204.807 191.704 205.171 190.879 205.608 189.933C207.355 186.146 208.423 182.919 207.986 182.725C207.549 182.53 205.802 185.443 204.055 189.229C203.618 190.175 203.205 191.195 203.108 192.238C203.059 192.772 203.084 193.257 203.205 193.743C203.326 194.228 203.545 194.617 203.788 194.956C204.273 195.612 204.904 195.951 205.341 196.024C205.802 196.121 206.045 196 206.045 195.879Z" fill="#F69D7D"/>
<path d="M213.301 173.211C213.447 173.405 214.151 173.138 215.267 172.847C216.384 172.556 217.888 172.264 219.611 172.434C221.262 172.604 222.742 173.162 223.761 173.672C224.271 173.939 224.708 174.133 224.999 174.303C225.315 174.449 225.533 174.521 225.606 174.424C225.679 174.352 225.63 174.133 225.46 173.818C225.266 173.502 224.926 173.114 224.441 172.677C223.446 171.827 221.82 170.954 219.757 170.76C217.767 170.565 215.922 171.124 214.83 171.755C213.665 172.386 213.18 173.041 213.301 173.211Z" fill="#3E3533"/>
<path d="M203.667 172.192C203.837 172.046 203.473 171.294 202.478 170.444C201.507 169.595 199.808 168.721 197.818 168.527C195.755 168.333 193.959 168.891 192.843 169.522C192.285 169.838 191.872 170.177 191.605 170.444C191.362 170.711 191.265 170.905 191.338 171.002C191.411 171.1 191.629 171.075 191.969 171.002C192.285 170.905 192.746 170.784 193.304 170.638C194.396 170.347 195.973 170.056 197.624 170.226C199.347 170.396 200.779 170.954 201.822 171.464C202.866 171.973 203.497 172.362 203.667 172.192Z" fill="#3E3533"/>
<path d="M218.009 196.704C217.839 200.393 220.703 203.523 224.392 203.693C228.081 203.863 231.212 200.999 231.381 197.31C231.551 193.621 228.688 190.491 224.999 190.321C221.31 190.175 218.179 193.015 218.009 196.704Z" fill="url(#paint4_radial)"/>
<path d="M187.769 195.345C187.599 199.034 190.463 202.164 194.152 202.334C197.841 202.504 200.971 199.64 201.141 195.951C201.311 192.262 198.447 189.132 194.758 188.962C191.045 188.792 187.939 191.656 187.769 195.345Z" fill="url(#paint5_radial)"/>
<path d="M215.678 183.719C215.605 185.564 217.013 187.141 218.881 187.214C220.726 187.287 222.303 185.879 222.376 184.011C222.449 182.166 221.041 180.589 219.173 180.516C217.328 180.443 215.751 181.875 215.678 183.719Z" fill="#3E3533"/>
<path d="M196.604 182.846C196.531 184.69 197.938 186.268 199.807 186.341C201.652 186.413 203.229 185.006 203.302 183.137C203.375 181.293 201.967 179.715 200.098 179.642C198.254 179.569 196.676 181.001 196.604 182.846Z" fill="#3E3533"/>
<path d="M216.845 195.757C212.112 198.039 206.045 198.767 200.9 197.699C202.041 201.922 203.4 204.907 209.491 204.543C214.467 204.252 217.5 200.15 216.845 195.757Z" fill="#CB4453"/>
<path d="M216.867 196C216.358 196.17 215.848 196.389 215.363 196.631C211.844 198.379 208.859 201.145 206.747 204.446C207.548 204.567 208.446 204.616 209.49 204.543C214.392 204.252 217.377 200.296 216.867 196Z" fill="#DD5664"/>
<path d="M202.768 198.014C203.01 198.961 203.205 199.713 203.326 199.956C203.52 200.32 210.485 201.63 216.82 198.184C216.941 197.408 216.99 196.777 216.82 195.781C213.155 197.505 206.869 198.403 202.768 198.014Z" fill="#F8E8D8"/>
<path d="M247.155 183.064C248.029 186.074 246.791 189.229 245.578 192.117C245.214 192.966 244.825 193.888 244.049 194.398C243.272 194.932 242.035 194.835 241.622 194.01C241.234 193.209 241.816 192.287 242.253 191.51C242.714 190.733 242.957 189.568 242.204 189.083C241.865 188.865 241.404 188.865 241.015 188.67C240.214 188.234 240.214 187.093 240.433 186.219C240.724 184.981 241.185 183.817 241.792 182.7C242.399 181.608 243.321 180.516 244.559 180.54C245.845 180.54 246.791 181.826 247.155 183.064Z" fill="url(#paint6_linear)"/>
<path d="M216.286 568.098C221.698 563.002 226.479 567.298 226.479 567.298L228.542 566.133C231.527 570.598 237.23 575.937 237.958 578.559C239.317 583.534 236.89 589.31 228.906 589.31C221.115 589.31 213.592 584.553 212.742 580.67C212.233 578.34 213.058 572.079 213.325 567.419L216.286 568.098Z" fill="#302624"/>
<path d="M188.835 441.897L189.199 439.98C185.17 454.081 179.54 473.132 178.521 473.181C176.919 473.254 160.925 470.705 160.222 468.594C159.906 467.647 158.571 453.304 157.188 437.675C155.538 459.711 148.354 561.085 148.354 561.085C158.935 565.21 170.342 562.031 170.342 562.031L188.835 441.897Z" fill="url(#paint7_linear)"/>
<path d="M232.789 558.585C232.789 558.585 232.789 558.488 232.789 558.366C232.789 558.342 232.789 558.294 232.789 558.269C232.789 558.172 232.789 558.027 232.813 557.881C232.837 557.444 232.861 556.789 232.886 555.964C232.886 555.77 232.91 555.575 232.91 555.357C232.934 554.969 232.934 554.58 232.959 554.143C232.959 553.974 232.983 553.804 232.983 553.634C233.031 552.663 233.08 551.571 233.128 550.357C233.128 550.163 233.153 549.969 233.153 549.751C233.177 549.071 233.226 548.343 233.25 547.591C233.25 547.566 233.25 547.566 233.25 547.542C233.274 546.741 233.323 545.916 233.371 545.042C233.371 544.897 233.395 544.775 233.395 544.63C233.492 542.494 233.59 540.189 233.711 537.713C233.711 537.47 233.735 537.228 233.735 536.985C233.929 532.762 234.148 528.102 234.366 523.224C234.366 523.151 234.366 523.054 234.366 522.982C234.463 521.161 234.536 519.293 234.633 517.4C234.633 517.327 234.633 517.278 234.633 517.205C235.361 501.6 236.211 484.49 236.939 471.506C236.939 471.482 236.939 471.482 236.939 471.458C237.133 468.205 237.303 465.22 237.473 462.575C234.221 464.929 228.687 468.667 226.454 468.594C223.178 468.497 212.135 459.493 211.48 455.488C210.97 452.285 207.209 422.263 205.704 410.347C206.092 431.389 206.505 454.493 206.529 454.275C206.529 454.251 206.529 454.396 206.529 454.687C206.529 454.736 206.529 454.809 206.529 454.882C206.553 456.071 206.602 458.959 206.675 463.036C206.675 463.279 206.675 463.521 206.699 463.764C206.723 465.245 206.748 466.895 206.772 468.642C206.772 469.225 206.796 469.832 206.796 470.438C206.845 472.889 206.893 475.535 206.917 478.35C206.917 478.69 206.917 479.054 206.942 479.418C207.451 510.41 208.252 558.973 208.252 558.973C210.17 559.944 212.232 560.526 214.32 560.866C215.023 560.963 215.703 561.06 216.407 561.109C217.111 561.157 217.79 561.182 218.47 561.182C219.149 561.182 219.829 561.157 220.508 561.133C221.188 561.084 221.843 561.036 222.474 560.963C223.105 560.89 223.736 560.818 224.343 560.72C225.241 560.575 226.115 560.405 226.915 560.235C227.449 560.114 227.959 559.992 228.444 559.871C231.114 559.264 232.789 558.609 232.789 558.585Z" fill="url(#paint8_linear)"/>
<path d="M242.207 177.992C242.207 177.992 238.299 180.856 237.231 187.214H234.368V176.22C234.368 176.22 225.679 173.818 228.98 161.052C232.28 148.262 245.24 160.955 245.24 160.955L242.207 177.992Z" fill="#3E3533"/>
<path d="M217.378 158.431C217.378 158.431 226.649 165.129 238.298 159.863C249.948 154.596 249.875 146.806 249.875 146.806C249.875 146.806 239.682 146.393 232.789 138.724C225.873 131.055 205.729 123.264 190.536 133.822C175.344 144.355 180.125 159.814 189.226 162.435C198.327 165.056 203.472 158.722 205.777 160.13C208.083 161.513 211.723 163.018 217.378 158.431Z" fill="#3E3533"/>
<path d="M184.906 138.943C185.828 137.802 186.945 136.661 188.255 135.569C205.851 146.976 227.014 152.849 247.982 152.145C247.594 152.752 247.133 153.359 246.575 154.014C248.346 154.888 250.094 156.028 251.574 157.12C242.959 159.208 233.955 159.741 225.169 158.552C210.122 156.538 195.779 149.524 184.906 138.943Z" fill="url(#paint9_linear)"/>
<path d="M373.024 78.2072C384.156 74.9762 392.682 67.4839 404.332 65.1013C406.52 70.6222 408.733 76.185 410.966 81.7838C399.834 85.0148 391.308 92.5071 379.657 94.8897C377.471 89.3703 375.257 83.806 373.024 78.2072Z" fill="#005E1F"/>
<path d="M376.458 81.4063C377.662 84.4134 378.86 87.4114 380.051 90.3989C381.315 90.0431 382.685 90.6512 383.158 91.8294C391.311 89.1349 398.154 84.3 406.083 81.2413C405.606 80.0556 406.192 78.7195 407.431 78.3232C406.227 75.3162 405.03 72.3196 403.839 69.3321C402.574 69.6864 401.204 69.0783 400.731 67.9001C392.572 70.5856 385.729 75.4205 377.804 78.4867C378.279 79.6725 377.695 81.0085 376.458 81.4063Z" fill="#99C57C"/>
<path d="M387.498 82.2926C386.431 79.6543 387.58 76.4859 390.048 75.1926C392.521 73.9037 395.424 75.0554 396.494 77.6997C397.559 80.3364 396.412 83.5063 393.944 84.7997C391.472 86.0901 388.567 84.9368 387.498 82.2926Z" fill="#005E1F"/>
<path d="M390.608 78.0301C390.476 77.7063 390.346 77.384 390.214 77.0603C390.477 76.9237 390.739 76.7872 391 76.6521C391.133 76.9774 391.264 77.3027 391.397 77.628C391.986 77.4224 392.627 77.3906 393.163 77.5343C393.145 77.9091 393.128 78.2825 393.11 78.6573C392.524 78.4851 391.767 78.5409 391.337 78.7645C391.017 78.931 390.867 79.162 390.963 79.3958C391.27 80.1498 393.266 78.5613 393.903 80.1337C394.187 80.8383 393.913 81.5715 393.211 82.0965C393.337 82.4083 393.462 82.7171 393.588 83.0289C393.326 83.1655 393.063 83.302 392.802 83.437C392.677 83.1282 392.552 82.8209 392.427 82.5122C391.918 82.7058 391.384 82.769 390.938 82.7062C390.951 82.3298 390.962 81.9535 390.974 81.5757C391.521 81.616 392.162 81.5362 392.505 81.3577C392.766 81.2227 392.896 81.0322 392.813 80.8283C392.514 80.0923 390.502 81.6434 389.852 80.0454C389.534 79.2689 389.906 78.5252 390.608 78.0301Z" fill="#E5E5E5"/>
<path d="M429.341 57.716C439.664 52.9801 447.064 43.2364 457.147 38.0898C460.682 43.1813 464.222 48.2818 467.766 53.3913C457.443 58.1272 450.043 67.8709 439.96 73.0175C436.426 67.926 432.887 62.824 429.341 57.716Z" fill="url(#paint10_linear)"/>
<path d="M433.491 60.275C435.377 62.9924 437.262 65.7053 439.147 68.4182C440.26 67.791 441.721 68.0798 442.455 69.135C449.57 64.5593 455.562 58.0636 462.781 53.6648C462.049 52.6111 462.329 51.2032 463.454 50.594C461.568 47.8767 459.683 45.1638 457.799 42.4524C456.687 43.0795 455.223 42.7923 454.492 41.7371C447.381 46.3157 441.386 52.8115 434.168 57.2058C434.898 58.2594 434.617 59.6674 433.491 60.275Z" fill="#ACD987"/>
<path d="M444.574 58.8282C442.973 56.5289 443.476 53.2274 445.659 51.3944C447.843 49.5584 450.931 49.9709 452.534 52.2761C454.135 54.5753 453.633 57.8769 451.449 59.7099C449.265 61.5459 446.178 61.1349 444.574 58.8282Z" fill="#0C8F39"/>
<path d="M446.785 53.9922C446.59 53.7134 446.396 53.4316 446.201 53.1528C446.433 52.9593 446.666 52.7658 446.897 52.5708C447.091 52.8526 447.289 53.1344 447.484 53.4162C448.024 53.0771 448.651 52.894 449.211 52.9057C449.27 53.27 449.328 53.6343 449.386 53.9986C448.772 53.9719 448.034 54.2061 447.652 54.5256C447.368 54.7611 447.267 55.0205 447.41 55.2228C447.865 55.8763 449.518 53.8696 450.467 55.2321C450.891 55.8421 450.766 56.6113 450.177 57.2847C450.364 57.553 450.551 57.8212 450.739 58.0925C450.506 58.286 450.274 58.4795 450.043 58.6745C449.857 58.4077 449.671 58.141 449.484 57.8727C449.02 58.1802 448.506 58.3678 448.05 58.416C447.986 58.0517 447.922 57.6844 447.857 57.3201C448.405 57.2284 449.024 56.9988 449.325 56.7453C449.556 56.5533 449.645 56.3389 449.523 56.1635C449.08 55.528 447.401 57.5002 446.438 56.1138C445.973 55.4393 446.193 54.6356 446.785 53.9922Z" fill="white"/>
<path d="M378.105 27.1113C386.89 19.9113 391.574 8.60947 400.023 1.07224C404.736 5.09881 409.454 9.13288 414.181 13.1729C405.396 20.373 400.712 31.6748 392.263 39.212C387.551 35.1869 382.832 31.1514 378.105 27.1113Z" fill="url(#paint11_linear)"/>
<path d="M382.77 28.5333C385.285 30.6823 387.797 32.8282 390.309 34.9711C391.225 34.0816 392.714 33.9896 393.691 34.8228C399.41 28.591 403.562 20.7887 409.427 14.7023C408.449 13.8691 408.366 12.4358 409.299 11.5629C406.784 9.41398 404.272 7.26807 401.76 5.12516C400.844 6.01459 399.355 6.10666 398.378 5.27347C392.66 11.5067 388.51 19.3106 382.643 25.394C383.62 26.2271 383.703 27.6604 382.77 28.5333Z" fill="#ACD987"/>
<path d="M393.124 24.321C390.992 22.5048 390.638 19.1841 392.287 16.858C393.933 14.529 397.026 14.1424 399.163 15.9647C401.294 17.7809 401.648 21.1016 399.999 23.4276C398.354 25.7567 395.261 26.1432 393.124 24.321Z" fill="#0C8F39"/>
<path d="M394.035 19.0812C393.775 18.8609 393.515 18.6391 393.257 18.4173C393.431 18.1714 393.608 17.9254 393.782 17.6795C394.043 17.9013 394.305 18.1245 394.566 18.3463C395.004 17.8814 395.561 17.5453 396.107 17.4131C396.256 17.7504 396.405 18.0892 396.554 18.4265C395.952 18.5571 395.299 18.9712 395.01 19.3761C394.797 19.6761 394.764 19.9519 394.952 20.1123C395.557 20.6278 396.65 18.2675 397.913 19.3449C398.478 19.826 398.553 20.6026 398.155 21.4048C398.404 21.6176 398.654 21.8289 398.903 22.0417C398.729 22.2877 398.552 22.5336 398.378 22.7796C398.131 22.5683 397.883 22.357 397.635 22.1472C397.264 22.5626 396.814 22.8747 396.385 23.0367C396.231 22.6995 396.075 22.3637 395.921 22.0264C396.428 21.7983 396.968 21.4203 397.197 21.0979C397.371 20.8549 397.404 20.624 397.241 20.4847C396.65 19.9812 395.53 22.316 394.244 21.222C393.616 20.687 393.623 19.855 394.035 19.0812Z" fill="white"/>
<path d="M24.7587 96.0746L11.9219 84.4033L10.4344 86.0394L23.2711 97.7107L24.7587 96.0746Z" fill="#FAAA00"/>
<path d="M10.8109 89.4833C11.1581 89.8005 11.1179 90.4087 10.7242 90.8422L12.016 92.0154L15.0198 88.7114L11.1789 85.2223L8.17511 88.5263L9.46692 89.6995C9.86188 89.2611 10.4636 89.1662 10.8109 89.4833Z" fill="#FAAA00"/>
<path d="M26.6216 107.525L32.0723 104.209L34.8545 98.4661C35.173 97.8151 34.925 97.0282 34.2959 96.6676L26.225 92.0771C25.6653 91.7563 24.957 91.8707 24.5251 92.3473L22.036 95.0848L19.5469 97.8223C19.1101 98.2975 19.068 99.012 19.4379 99.5433L24.7777 107.137C25.194 107.734 26.0026 107.903 26.6216 107.525ZM27.4009 104.676L32.0925 99.5137L32.2046 99.6131C32.7661 100.126 32.8102 100.997 32.2969 101.559L29.4587 104.683C28.9454 105.245 28.0745 105.289 27.513 104.775L27.4009 104.676Z" fill="#FAAA00"/>
<path d="M11.1787 85.2221L29.7466 102.097L32.0917 99.5182L32.2038 99.6177C32.7653 100.131 32.8094 101.002 32.2961 101.563L30.8745 103.125L32.0728 104.209L34.855 98.4657C35.1735 97.8147 34.9255 97.0278 34.2964 96.6672L26.2255 92.0767C25.6658 91.7559 24.9575 91.8703 24.5256 92.3469L22.7829 94.2705L11.9214 84.4019L11.1787 85.2221Z" fill="#F0A000"/>
<path d="M2.76506 97.6471C2.76506 97.6471 6.31169 95.145 6.3838 95.0949C6.71411 94.8579 7.55214 95.9523 7.97978 95.9495C8.29985 95.9498 8.7403 95.7797 9.0344 95.8372C9.35971 95.8977 9.56479 96.2674 9.88306 96.3741C10.4327 96.5534 11.0577 96.1125 11.6009 96.3755C12.1342 96.6357 12.1624 97.4864 12.7604 97.684C13.3748 97.8806 13.7968 97.0225 14.4979 97.4132C15.0838 97.7356 14.9381 98.2995 15.6993 98.3861C16.1697 98.4428 16.4876 98.2718 16.9224 98.1429C17.3572 98.0139 17.6107 98.1032 18.0687 98.2259C19.1441 98.5141 20.2146 98.8009 21.29 99.089C21.3099 99.0944 21.3298 99.0997 21.3497 99.105L20.4692 102.391L2.76506 97.6471Z" fill="#FFC800"/>
<path d="M32.7302 103.851C33.7427 100.072 31.4976 96.1839 27.7188 95.1713C23.94 94.1588 20.0513 96.4039 19.0388 100.183C18.0263 103.962 20.2714 107.85 24.0502 108.863C27.829 109.875 31.7176 107.63 32.7302 103.851ZM28.8966 102.824C29.1127 102.018 29.9397 101.54 30.7462 101.756C31.5527 101.972 32.0302 102.799 31.8141 103.606C31.598 104.412 30.771 104.89 29.9645 104.674C29.1579 104.458 28.6805 103.631 28.8966 102.824Z" fill="#FFC800"/>
<path d="M29.9639 104.674C29.1573 104.457 28.6799 103.631 28.896 102.824L4.64488 96.3259C3.71743 96.9792 2.76972 97.6484 2.76972 97.6484L18.8011 101.944C18.7667 105.099 20.8533 108.006 24.0446 108.861C27.8235 109.874 31.7121 107.629 32.7246 103.85L31.8135 103.606C31.5974 104.412 30.7704 104.89 29.9639 104.674Z" fill="#FFD200"/>
<path d="M30.582 109.754C30.2128 109.18 29.9077 108.586 29.6763 107.996C29.4026 107.325 29.2251 106.653 29.1322 106.004C29.0805 105.659 29.0537 105.321 29.0517 104.99C29.0558 104.676 29.0698 104.365 29.1159 104.073C29.1424 103.835 29.1889 103.602 29.2502 103.373C29.4077 102.785 29.6603 102.261 30.0091 101.815L30.0168 101.807C30.0297 101.778 30.0527 101.752 30.0706 101.725C30.0756 101.726 30.0769 101.721 30.0819 101.723L30.0869 101.724C30.3014 101.68 30.5239 101.686 30.7479 101.746C30.972 101.806 31.1727 101.914 31.3415 102.06C30.8171 102.464 30.4721 103.055 30.2926 103.764C30.2189 104.059 30.1797 104.385 30.1653 104.717C30.1568 104.928 30.1632 105.144 30.1795 105.361C30.2266 105.982 30.3669 106.634 30.6108 107.297C30.8355 107.912 31.1439 108.533 31.5326 109.134C33.356 111.927 36.3071 113.241 38.1223 112.063C39.9326 110.883 39.9245 107.647 38.106 104.855C36.9239 103.033 34.8825 101.83 33.3748 101.522L33.885 100.474C35.5605 100.912 37.7171 102.184 39.0567 104.234C41.2201 107.551 41.079 111.484 38.7441 113.008C36.4042 114.532 32.7454 113.071 30.582 109.754Z" fill="#C84600"/>
<defs>
<radialGradient id="paint0_radial" cx="0" cy="0" r="1" gradientUnits="userSpaceOnUse" gradientTransform="translate(191.491 583.994) scale(161.098 24.1546)">
<stop stop-color="#C5C5C5"/>
<stop offset="0.2973" stop-color="#C4C4C4" stop-opacity="0.7027"/>
<stop offset="0.4964" stop-color="#CDCDCD" stop-opacity="0.5036"/>
<stop offset="0.6667" stop-color="#DADADA" stop-opacity="0.3333"/>
<stop offset="0.8209" stop-color="#F3F3F3" stop-opacity="0.1791"/>
<stop offset="0.9628" stop-color="white" stop-opacity="0.0372"/>
<stop offset="1" stop-color="#F9FBFC" stop-opacity="0"/>
</radialGradient>
<linearGradient id="paint1_linear" x1="207.45" y1="282.432" x2="202.035" y2="345.103" gradientUnits="userSpaceOnUse">
<stop stop-color="#302624" stop-opacity="0.5"/>
<stop offset="0.9947" stop-color="#302624" stop-opacity="0"/>
</linearGradient>
<linearGradient id="paint2_linear" x1="203.817" y1="241.559" x2="179.642" y2="307.594" gradientUnits="userSpaceOnUse">
<stop stop-color="#CFD4D8"/>
<stop offset="1" stop-color="#CFD4D8" stop-opacity="0"/>
</linearGradient>
<linearGradient id="paint3_linear" x1="212.232" y1="308.076" x2="193.885" y2="308.076" gradientUnits="userSpaceOnUse">
<stop stop-color="#FD8B8B"/>
<stop offset="1" stop-color="#FF9838"/>
</linearGradient>
<radialGradient id="paint4_radial" cx="0" cy="0" r="1" gradientUnits="userSpaceOnUse" gradientTransform="translate(224.7 197.018) rotate(2.60777) scale(6.68937)">
<stop stop-color="#F69D7D" stop-opacity="0.7"/>
<stop offset="1" stop-color="#F69D7D" stop-opacity="0"/>
</radialGradient>
<radialGradient id="paint5_radial" cx="0" cy="0" r="1" gradientUnits="userSpaceOnUse" gradientTransform="translate(194.443 195.641) rotate(2.60777) scale(6.68937)">
<stop stop-color="#F69D7D" stop-opacity="0.7"/>
<stop offset="1" stop-color="#F69D7D" stop-opacity="0"/>
</radialGradient>
<linearGradient id="paint6_linear" x1="241.167" y1="189.061" x2="246.167" y2="186.261" gradientUnits="userSpaceOnUse">
<stop stop-color="#F69D7D"/>
<stop offset="1" stop-color="#F69D7D" stop-opacity="0.6"/>
</linearGradient>
<linearGradient id="paint7_linear" x1="170.08" y1="435.343" x2="167.38" y2="572.139" gradientUnits="userSpaceOnUse">
<stop stop-color="#302624" stop-opacity="0.5"/>
<stop offset="0.9947" stop-color="#302624" stop-opacity="0"/>
</linearGradient>
<linearGradient id="paint8_linear" x1="221.612" y1="436.36" x2="218.912" y2="573.156" gradientUnits="userSpaceOnUse">
<stop stop-color="#302624" stop-opacity="0.5"/>
<stop offset="0.9947" stop-color="#302624" stop-opacity="0"/>
</linearGradient>
<linearGradient id="paint9_linear" x1="215.126" y1="163.332" x2="219.288" y2="142.858" gradientUnits="userSpaceOnUse">
<stop stop-color="#F8E8D8" stop-opacity="0.2"/>
<stop offset="1" stop-color="#F8E8D8" stop-opacity="0"/>
</linearGradient>
<linearGradient id="paint10_linear" x1="424.681" y1="57.6593" x2="469.123" y2="53.7741" gradientUnits="userSpaceOnUse">
<stop stop-color="#0C8F39"/>
<stop offset="0.4895" stop-color="#078531"/>
<stop offset="1" stop-color="#007624"/>
</linearGradient>
<linearGradient id="paint11_linear" x1="373.583" y1="28.2402" x2="415.588" y2="13.1923" gradientUnits="userSpaceOnUse">
<stop stop-color="#0C8F39"/>
<stop offset="0.4895" stop-color="#078531"/>
<stop offset="1" stop-color="#007624"/>
</linearGradient>
</defs>
</svg>
