<svg width="274" height="177" viewBox="0 0 274 177" fill="none" xmlns="http://www.w3.org/2000/svg">
<circle cx="139.002" cy="87" r="87" fill="url(#paint0_linear)" fill-opacity="0.5"/>
<path d="M265.278 168.955H7.7217C5.66609 168.955 4 170.621 4 172.676C4 174.732 5.66609 176.398 7.7217 176.398H265.278C267.334 176.398 269 174.732 269 172.676C269 170.621 267.334 168.955 265.278 168.955Z" fill="#E2E2E2"/>
<g clip-path="url(#clip0)">
<path d="M211.495 100.26H202.56C201.115 100.26 199.943 101.433 199.943 102.88V105.049C199.943 106.496 201.115 107.668 202.56 107.668H211.495C212.94 107.668 214.111 106.496 214.111 105.049V102.88C214.111 101.433 212.94 100.26 211.495 100.26Z" fill="#D6332B"/>
<path d="M135.454 124.377H120.743C112.249 124.377 105.365 136.155 105.365 150.691C105.364 152.536 105.477 154.379 105.703 156.21C107.15 167.792 113.068 176.572 120.218 176.982H135.454C142.841 176.982 149.012 168.073 150.494 156.192C150.721 154.361 150.834 152.518 150.832 150.673C150.846 136.155 143.949 124.377 135.454 124.377Z" fill="#2C2933"/>
<path d="M251.41 124.373H236.726C228.231 124.373 221.348 136.156 221.348 150.691C221.346 152.536 221.459 154.379 221.686 156.21C223.132 167.792 229.05 176.568 236.201 176.982H251.41C258.796 176.982 264.968 168.073 266.45 156.192C266.677 154.362 266.79 152.518 266.788 150.673C266.806 136.156 259.922 124.373 251.41 124.373Z" fill="#3A3842"/>
<path d="M45.3212 96.0863H14.5648L6.58203 93.2354H58.4835L45.3212 96.0863Z" fill="#4B4554"/>
<path d="M87.398 118.426H12.0821C11.0131 118.426 10.1465 119.293 10.1465 120.364V152.535C10.1465 153.605 11.0131 154.473 12.0821 154.473H87.398C88.467 154.473 89.3336 153.605 89.3336 152.535V120.364C89.3336 119.293 88.467 118.426 87.398 118.426Z" fill="#433144"/>
<path d="M88.9942 79.6618C76.9799 79.6618 76.1968 77.6839 69.0372 80.33C57.7972 84.4817 32.3004 103.521 32.3004 103.521L23.9082 116.818L109.307 113.348L88.9942 79.6618Z" fill="#F9543E"/>
<path d="M66.0782 81.8668C84.6424 70.3338 154.151 73.1491 168.702 79.7019C180.458 82.9449 213.666 112.475 213.666 112.475L68.134 106.924C68.1607 105.682 68.2662 104.442 68.4499 103.213C60.8453 99.5651 51.6567 90.8251 66.0782 81.8668Z" fill="#F9543E"/>
<path d="M82.3774 80.2364C85.6079 79.867 88.8574 79.6885 92.1089 79.7019H165.529C175.723 79.7019 212.821 112.475 212.821 112.475L60.0309 109.027C35.6687 108.964 60.2445 84.2456 82.3774 80.2364Z" fill="#7AB1AD"/>
<path opacity="0.4" d="M160.604 79.7021H165.561C175.755 79.7021 212.852 112.475 212.852 112.475L209.795 112.404C206.048 110.301 202.275 108.524 202.275 108.524C199.196 105.183 172.56 79.7021 160.604 79.7021Z" fill="#8C4C57"/>
<g style="mix-blend-mode:multiply" opacity="0.4">
<path d="M82.3774 80.2365C85.6079 79.867 88.8574 79.6885 92.1089 79.7019H161.418C158.163 79.6881 154.911 79.8666 151.677 80.2365C129.544 84.2456 104.955 108.964 129.331 109.027L211.446 111.254L212.852 112.484L60.0309 109.027C35.6687 108.964 60.2445 84.2456 82.3774 80.2365Z" fill="#8C4C57"/>
</g>
<path d="M121.5 85.9204C121.5 85.9204 129.109 103.293 129.109 106.167" stroke="#647F7F" stroke-width="5.88" stroke-miterlimit="10" stroke-linecap="square"/>
<g style="mix-blend-mode:screen">
<path style="mix-blend-mode:screen" d="M205.538 107.343C205.24 107.187 204.924 107.005 204.59 106.804C197.862 102.795 179.312 93.4134 152.4 93.4134C150.927 93.4134 149.427 93.4446 147.95 93.4981L147.274 93.5248C138.112 93.8723 131.495 94.1217 126.316 94.1217C115.636 94.1217 111.867 93.0927 108.801 89.333C107.542 87.7872 107.645 86.5444 107.782 84.8205C107.968 83.4039 107.894 81.9653 107.564 80.5752H165.562C170.737 80.5752 185.577 90.5313 205.538 107.343Z" fill="url(#paint1_linear)"/>
</g>
<g style="mix-blend-mode:multiply" opacity="0.3">
<path d="M82.3789 80.2364C85.6094 79.867 88.8589 79.6885 92.1104 79.7019H101.143C102.46 80.482 103.457 81.7034 103.96 83.1498C105.958 88.2503 108.89 106.608 111.525 109.432V110.185L90.1525 109.708L57.1312 107.552C57.1312 107.552 53.3623 107.227 50.4077 105.686C46.7233 98.7855 65.2831 83.3279 82.3789 80.2364Z" fill="#2C2933"/>
</g>
<path opacity="0.7" d="M67 85.9204H110.26C120.178 85.9204 112.788 91.1501 112.788 91.1501L104.569 99.3912C104.569 99.3912 102.193 101.463 97.2625 101.463H52C52.5607 96.4912 57.7757 91.0031 67 85.9204Z" fill="#7AB1AD"/>
<g style="mix-blend-mode:screen" opacity="0.8">
<path style="mix-blend-mode:screen" opacity="0.8" d="M105.731 98.4201C103.173 96.4334 97.784 95.0524 91.8614 95.0524H91.5544C90.5176 95.0524 89.4586 95.0524 88.3862 95.0524C85.6585 95.0524 82.7973 95.0524 80.0341 95.0079C77.342 95.0079 74.552 94.9633 71.9623 94.9633C62.9027 94.9633 58.0747 95.2351 55.7253 95.9612C55.7104 95.7754 55.6653 95.5934 55.5918 95.4222C61.1361 89.7603 71.6597 83.0472 82.5348 81.0783C85.473 80.7401 88.4278 80.5676 91.3853 80.5615C98.2824 80.615 101.588 83.3991 103.582 90.8428C104.076 92.6826 104.645 94.6515 105.246 96.7363C105.402 97.2887 105.562 97.8455 105.731 98.4201Z" fill="url(#paint2_linear)"/>
</g>
<path d="M166.785 81.3325C168.4 81.3325 172.925 82.6288 185.029 91.3109C192.148 96.4026 198.756 100.75 204.287 105.339C202.209 105.561 160.537 105.637 146.846 105.196C138.164 104.92 127.205 104.697 127.205 104.697L119.462 104.416C115.72 104.416 114.096 98.9551 112.138 93.2531C111.835 92.3622 111.551 91.5515 111.248 90.7407C110.58 88.8742 109.339 85.3952 110.398 83.4218C110.46 83.3059 111.132 82.2814 115.649 81.7201C118.276 81.4399 120.918 81.312 123.56 81.337H166.754L166.785 81.3325ZM165.561 79.7021H122.216C119.102 79.7289 108.614 79.5641 106.958 82.6511C105.588 85.1947 106.82 88.8119 107.706 91.2886C110.149 98.1087 112.699 107.682 118.256 107.682H118.278L128.068 109.187C136.393 109.187 169.557 109.04 190.195 109.04C201.039 109.04 208.439 108.631 206.935 107.379C195.632 97.8904 172.943 79.7021 165.552 79.7021H165.561Z" fill="#4E4C59"/>
<path d="M128.059 107.552C137.434 108.701 154.499 107.107 176.841 107.886C211.691 109.111 191.498 107.28 215.487 107.28C239.475 107.28 262.756 114.777 267.731 123.504L270.645 130.533C271.593 133.166 270.974 137.304 270.974 140.276L265.439 152.989C265.439 155.96 266.133 157.809 263.971 157.809C263.971 157.809 265.083 158.727 262.311 158.727C259.539 158.727 258.858 158.455 258.858 152.936C258.858 152.784 258.858 152.633 258.858 152.49C258.858 152.415 258.858 152.339 258.858 152.268C258.858 135.937 250.982 122.653 241.304 122.653C231.626 122.653 223.754 135.919 223.754 152.241C223.754 152.312 223.754 152.388 223.754 152.459C223.754 152.611 223.754 152.762 223.754 152.905C223.754 157.466 223.309 158.696 220.639 158.696H139.788C135.196 158.696 135.53 157.226 135.53 154.651C135.53 153.853 135.561 153.105 135.561 152.481C135.561 142.405 132.593 133.482 128.059 128.048V107.552Z" fill="#D6332B"/>
<path d="M240.164 122.391H42.5171C41.539 122.391 40.7461 123.184 40.7461 124.164V163.177C40.7461 164.156 41.539 164.95 42.5171 164.95H240.164C241.143 164.95 241.935 164.156 241.935 163.177V124.164C241.935 123.184 241.143 122.391 240.164 122.391Z" fill="#433144"/>
<path d="M29.4186 177H44.6544C52.0409 177 58.2127 168.091 59.6944 156.21C59.9213 154.379 60.0342 152.536 60.0326 150.691C60.0326 136.156 53.1489 124.373 44.6544 124.373H29.9436L28.582 151.422L29.4186 177V177Z" fill="#2C2933"/>
<path d="M144.643 177H159.879C167.27 177 173.437 168.091 174.919 156.21C175.147 154.379 175.262 152.536 175.262 150.691C175.262 136.156 168.373 124.373 159.879 124.373H145.168L143.807 151.422L144.643 177V177Z" fill="#2C2933"/>
<path d="M229.757 157.809C229.631 156.8 229.568 155.784 229.57 154.767C229.57 146.748 233.361 140.276 238.025 140.276L229.757 157.809Z" fill="#2C2933"/>
<path d="M238.061 140.276C242.742 140.276 246.515 146.766 246.515 154.771C246.515 155.787 246.452 156.801 246.328 157.809L238.061 140.276Z" fill="#2C2933"/>
<path d="M168.881 122.15H170.661V159.618H260.856C262.289 159.618 266.984 157.19 266.984 154.219L271.878 141.919C271.878 138.948 271.589 134.396 270.641 131.763L267.197 122.854C266.792 121.731 259.223 120.702 258.672 119.842H168.881V122.15Z" fill="#EF553C"/>
<path d="M143.451 108.149C167.898 112.742 182.012 121.513 182.012 121.513C186.017 122.292 199.971 130.079 199.971 130.079L247.405 129.469L254.409 127.241C229.807 108.167 205.017 108.167 187.486 108.167L143.451 108.149Z" fill="#EF553C"/>
<path d="M246.515 118.818C245.941 119.317 242.092 119.166 242.092 119.166C242.092 119.166 243.694 119.994 245.145 120.898C248.046 122.68 250.538 127.224 241.941 127.224C233.344 127.224 248.322 130.988 248.322 130.988L252.567 131.077C252.567 131.077 263.763 121.722 262.846 121.197C261.929 120.671 254.116 117.09 254.418 116.818C257.76 113.816 246.515 118.818 246.515 118.818Z" fill="#D6332B"/>
<path d="M200.061 130.079C200.061 130.079 177.1 107.552 128.06 107.552L50.5234 108.559L131.953 116.003L186.983 130.079H200.061Z" fill="#F9543E"/>
<path d="M26.2088 103.115C14.6751 103.115 9.96289 104.541 9.96289 121.522V142.156H13.8831C16.3883 130.729 22.9071 122.555 30.5384 122.555C40.3277 122.555 48.2927 135.99 48.2927 152.508C48.2927 153.132 48.2571 153.88 48.2571 154.678C48.2571 157.252 47.9278 158.722 52.5155 158.722H125.237C127.867 158.722 128.33 157.475 128.33 152.931C128.33 152.78 128.33 152.628 128.33 152.486C128.33 152.415 128.33 152.339 128.33 152.268C128.33 135.937 136.206 122.653 145.884 122.653C155.562 122.653 165.084 135.919 165.084 152.241C165.084 152.312 167.527 152.388 167.523 152.464C167.523 152.611 165.084 152.762 165.084 152.909C165.084 158.451 171.879 154.642 174.651 154.642C177.423 154.642 169.387 158.722 169.387 158.722C171.545 158.722 176.062 155.956 176.062 152.985L174.429 140.69C174.429 137.719 171.599 126.841 167.078 126.435L180.467 127.977C175.492 119.25 144.064 111.343 120.075 111.343C96.0871 111.343 99.9717 110.724 65.1215 109.499C30.2714 108.274 32.7054 103.115 32.7054 103.115H26.2088Z" fill="#D6332B"/>
<g style="mix-blend-mode:multiply" opacity="0.2">
<path d="M23.5437 103.151C17.719 103.334 13.9634 104.318 11.9121 108.55C13.8566 104.67 28.1269 105.463 29.8356 105.997L27.1657 104.496L23.5437 103.151Z" fill="#2C2933"/>
</g>
<path d="M31.127 118.422H39.9374L43.4794 120.654L42.0199 122.48L33.3874 121.692L31.127 118.422Z" fill="#2C2933"/>
<path d="M30.5386 122.555C37.8762 122.555 44.1859 130.102 46.8869 140.819C48.2529 138.761 52.2265 138.525 52.9296 140.615C53.9841 143.813 54.3446 138.24 54.3446 138.24C54.3446 138.24 55.19 124.012 36.8661 119.059C18.5422 114.105 12.4238 135.318 12.4238 142.156H13.8833C16.3885 130.73 22.9074 122.555 30.5386 122.555Z" fill="url(#paint3_linear)"/>
<g style="mix-blend-mode:multiply" opacity="0.3">
<path d="M131.935 129.402C112.801 127.487 44.6718 122.72 44.0488 122.72C44.0488 122.72 48.592 120.15 53.2686 130.939C57.9453 141.728 54.0651 149.818 62.7332 154.281C71.4012 158.745 122.84 157.845 122.84 157.845L126.226 155.618L128.059 140.307L129.79 135.006L133.848 130.315C133.848 130.315 136.007 129.808 131.935 129.402Z" fill="#8C4C57"/>
</g>
<path d="M129.447 128.912C133.643 121.829 139.481 117.932 145.88 117.932C152.185 117.932 158.423 121.856 162.998 128.698C167.354 135.211 169.752 143.573 169.752 152.241H165.085C165.085 135.911 155.58 122.627 145.898 122.627C136.215 122.627 128.33 135.919 128.33 152.241H123.645C123.645 143.492 125.705 135.229 129.447 128.912Z" fill="#F9543E"/>
<path d="M114.714 119.94H110.865C109.887 119.94 109.094 120.734 109.094 121.713V123.549C109.094 124.528 109.887 125.322 110.865 125.322H114.714C115.692 125.322 116.485 124.528 116.485 123.549V121.713C116.485 120.734 115.692 119.94 114.714 119.94Z" fill="#F97830"/>
<path d="M65.8575 115.571C65.5194 116.827 63.6816 117.731 61.7682 117.589L58.075 117.303C56.1616 117.156 54.8712 116.012 55.2049 114.755C55.5386 113.499 57.3853 112.595 59.2987 112.737L62.9919 113.023C64.8919 113.17 66.1824 114.314 65.8575 115.571Z" fill="#2C2933"/>
<path d="M145.169 124.373C153.664 124.373 160.547 136.156 160.547 150.691C160.549 152.536 160.436 154.379 160.209 156.21C158.728 168.091 152.556 177 145.169 177C137.783 177 131.615 168.091 130.134 156.21C129.905 154.379 129.791 152.536 129.791 150.691C129.791 136.156 136.679 124.373 145.169 124.373V124.373Z" fill="#4B4554"/>
<path d="M144.99 131.621C151.144 131.621 156.114 140.156 156.114 150.691C156.115 152.031 156.034 153.37 155.869 154.7C154.815 163.297 150.343 169.775 144.99 169.775C139.637 169.775 135.165 163.32 134.092 154.709C133.928 153.379 133.846 152.04 133.848 150.7C133.848 140.169 138.836 131.634 144.972 131.634L144.99 131.621Z" fill="#8C98A4" stroke="#DFE7E8" stroke-width="4.9" stroke-miterlimit="10"/>
<path d="M29.9427 124.373C38.4372 124.373 45.3209 136.156 45.3209 150.691C45.3225 152.536 45.2096 154.379 44.9827 156.21C43.501 168.091 37.3292 177 29.9427 177C22.5562 177 16.3844 168.091 14.9026 156.21C14.6758 154.379 14.5628 152.536 14.5645 150.691C14.5645 136.156 21.4482 124.373 29.9427 124.373V124.373Z" fill="#4B4554"/>
<path d="M165.062 168.853V152.241L271.851 141.92L268.185 168.853H165.062Z" fill="#EF553C"/>
<path d="M269.284 168.866H261.768L233.887 174.113L226.322 168.866H186.729V165.293H269.284V168.866Z" fill="#3A3842"/>
<path d="M264.362 141.478C264.954 139.313 263.601 137.541 261.363 137.541H188.388C186.163 137.541 184.828 139.322 185.433 141.465L189.522 155.747C189.89 156.85 190.584 157.815 191.512 158.515C192.44 159.215 193.559 159.617 194.719 159.667H255.325C256.482 159.618 257.597 159.214 258.518 158.51C259.439 157.805 260.122 156.834 260.473 155.729L264.362 141.478Z" fill="#2C2933" stroke="#C82E27" stroke-width="1.96" stroke-miterlimit="10"/>
<path d="M197.051 131.064C190.27 127.83 170.424 115.874 164.448 119.437C158.472 123.001 165.814 129.46 173.401 130.707C180.988 131.955 197.051 131.064 197.051 131.064Z" fill="#EADCDA"/>
<path opacity="0.2" d="M108.8 107.797C108.8 107.797 106.575 109.187 105.6 111.098C104.626 113.009 102.606 120.774 101.996 127.01V155.48" stroke="#37333F" stroke-width="1.96" stroke-miterlimit="10" stroke-linecap="square"/>
<path d="M39.7178 118.426C51.4829 118.426 61.1031 134.235 61.5214 153.934C55.5232 152.784 54.8735 150.005 54.0237 146.775C53.8056 145.229 53.2049 142.258 53.2049 142.254C52.8044 139.848 52.4173 138.329 51.7988 137.193C48.684 127.919 43.282 121.125 36.8789 119.072C38.1871 118.649 38.3251 118.426 39.7178 118.426Z" fill="#2C2933"/>
<path d="M274.001 165.115C273.999 164.536 273.768 163.981 273.358 163.572C272.949 163.164 272.395 162.933 271.816 162.932H174.674C174.097 162.934 173.544 163.165 173.135 163.574C172.727 163.983 172.496 164.537 172.494 165.115V166.656C172.495 167.235 172.725 167.79 173.134 168.2C173.542 168.61 174.096 168.841 174.674 168.843H199.433C200.832 168.773 202.187 168.325 203.353 167.547L203.713 167.28C204.885 166.499 206.246 166.051 207.651 165.984H256.749C257.951 165.984 259.357 166.629 259.864 167.413C260.372 168.197 261.791 168.843 262.979 168.843H271.79C272.368 168.841 272.923 168.61 273.332 168.2C273.741 167.791 273.972 167.236 273.974 166.656L274.001 165.115Z" fill="#EF553C"/>
<path d="M100.368 107.913C91.6863 107.788 45.3203 109.441 51.323 99.4491C55.3277 92.7671 45.3203 105.004 45.3203 105.004L50.522 108.461L56.0041 109.067L96.7189 110.822L98.9171 109.071L100.368 107.913Z" fill="#F9543E"/>
<path d="M91.1708 77.234C92.4524 77.136 93.8006 76.9934 95.1266 76.842C95.4292 75.6526 96.7241 74.6726 98.1079 75.47C98.6019 75.7551 99.0913 76.0491 99.5719 76.3609C102.055 76.1292 104.022 76.0847 104.636 76.6282C104.952 76.9044 105.107 77.5458 105.17 78.3521C107.933 75.7862 112.182 75.2339 115.849 75.2027C118.479 75.176 124.864 79.6885 122.234 79.7108C119.119 79.7375 108.632 79.5727 106.976 82.6597C105.606 85.2033 106.838 88.8205 107.724 91.2973C110.171 98.1262 112.725 107.713 118.296 107.69C120.931 107.69 110.047 111.031 109.397 108.506C107.466 100.888 105.717 95.4356 104.431 90.638C102.206 82.241 98.1079 79.7108 91.1797 79.7108C80.8431 79.7019 85.6666 77.6394 91.1708 77.234Z" fill="#F9543E"/>
<path d="M31.6742 105.997C26.3969 103.124 22.6502 100.656 20.4698 97.4535L14.2402 96.0859L20.3897 103.739C21.6676 103.787 22.9404 103.925 24.1987 104.153C26.1121 104.434 29.8365 105.997 29.8365 105.997H31.6742Z" fill="#EF553C"/>
<path d="M55.0396 149.889C60.5973 156.758 78.1247 155.382 86.2766 155.382H118.684C122.355 155.382 123.579 155.181 123.645 152.241L128.349 151.114C128.349 151.488 128.349 151.863 128.349 152.241C128.349 152.312 128.349 152.388 128.349 152.46C128.349 152.611 128.349 152.762 128.349 152.905C128.349 157.467 127.904 158.696 125.256 158.696H52.5077C47.9201 158.696 48.2493 157.226 48.2493 154.651C48.2493 153.854 48.2849 153.105 48.2849 152.482C51.6178 148.802 55.0396 149.889 55.0396 149.889Z" fill="#F9543E"/>
<path d="M248.469 131.064H201.129L193.119 124.774H247.793L248.469 131.064Z" fill="#2C2933"/>
<path d="M29.8356 105.997C24.5626 103.124 20.816 100.652 18.6178 97.4535L12.4238 96.0859L18.5555 103.739C19.8334 103.787 21.1062 103.925 22.3645 104.153C24.9003 104.566 27.3988 105.183 29.8356 105.997V105.997Z" fill="#D6332B"/>
<path d="M3.25832 95.5247C3.59516 96.6312 4.26733 97.6054 5.18176 98.3126C6.09618 99.0197 7.20762 99.4247 8.36214 99.4715H15.9267C18.5755 99.3583 21.1632 98.639 23.4912 97.3689L26.2544 95.6806C28.1723 94.5268 27.932 93.3018 25.716 92.9588L5.64781 89.8896C5.33462 89.8376 5.01596 89.8271 4.70003 89.8584H2.39062V92.0456L5.34078 93.235L3.25832 95.5247Z" fill="#EF553C"/>
<path d="M22.8589 92.9185C25.2262 93.2793 25.4887 94.589 23.4329 95.8273L21.1191 97.2216C18.6266 98.5736 15.8576 99.3356 13.0251 99.449H6.05235C4.81991 99.4006 3.63283 98.9706 2.6549 98.2182C1.67696 97.4657 0.956371 96.428 0.592552 95.2482L0.14758 93.4976C-0.444232 91.1722 0.979677 89.5909 3.35137 89.9294L22.8589 92.9185Z" fill="#F9543E"/>
<path d="M63.5599 88.8696C63.5599 88.8696 57.4727 102.777 57.4727 105.067" stroke="#45424F" stroke-width="4.9" stroke-miterlimit="10"/>
<path d="M91.3758 81.448C96.9513 81.4925 100.6 83.0873 102.736 91.0789C103.234 92.932 103.804 94.901 104.409 96.9902C105.183 99.663 106.047 102.643 106.959 106.082L100.369 106.167H99.1228C98.2328 106.167 97.1026 106.167 95.8255 106.167C94.0857 106.167 92.1145 106.167 89.9208 106.167C80.1092 106.167 72.4512 105.873 66.5019 105.276C54.9816 104.122 52.9526 102.064 52.6233 101.445C52.5521 101.316 52.3963 101.044 52.8191 100.34L53.0149 100.01C55.1507 96.5537 59.4447 92.6291 64.8021 89.2436C70.5868 85.5908 76.9276 83.0071 82.6455 81.9603C85.5437 81.6262 88.4584 81.4552 91.3758 81.448V81.448ZM91.3758 79.7018C88.3691 79.71 85.3651 79.8884 82.3785 80.2363C69.6256 82.5394 56.0674 91.7248 51.5198 99.1106L51.324 99.4403C46.6607 107.209 73.5725 107.949 89.9208 107.949C93.7564 107.949 97.0047 107.904 99.1228 107.904H100.369L109.21 107.788C107.35 100.536 105.651 95.2707 104.422 90.6201C102.198 82.3077 98.1928 79.7463 91.3803 79.6929L91.3758 79.7018Z" fill="#45424F"/>
<path d="M256.397 155.729L260.286 141.475C260.878 139.31 259.525 137.537 257.282 137.537H261.363C263.588 137.537 264.954 139.318 264.362 141.475L260.473 155.729C260.122 156.835 259.439 157.806 258.518 158.51C257.597 159.215 256.482 159.619 255.325 159.667H251.244C252.403 159.619 253.519 159.216 254.441 158.511C255.362 157.807 256.045 156.836 256.397 155.729V155.729Z" fill="#C82E27"/>
<path d="M132.215 106.167C135.227 106.889 133.501 107.396 139.526 107.98C145.551 108.564 163.897 109.063 175.853 109.063C187.81 109.063 208.741 108.893 206.81 107.281H191.899L148.136 106.167H132.215Z" fill="#4E4C59"/>
<path d="M197.053 131.064C190.934 128.146 174.194 118.145 166.59 118.822C175.262 121.611 174.719 127.66 184.62 129.482C188.726 130.276 192.879 130.804 197.053 131.064V131.064Z" fill="#F2E1DD"/>
<path opacity="0.7" d="M168.881 121.513C166.732 119.865 166.594 119.834 164.539 119.397C164.508 119.408 164.478 119.421 164.45 119.437C159.702 122.257 163.377 126.934 168.899 129.358C177.545 132.284 171.404 123.446 168.881 121.513Z" fill="#F4EEED"/>
<path d="M270.85 131.233C270.795 130.996 270.727 130.763 270.646 130.533L267.731 123.504C266.972 122.241 266.01 121.112 264.883 120.163C259.392 122.894 254.934 128.908 252.518 131.064C252.518 131.064 263.259 131.629 270.85 131.233Z" fill="#F2E1DD"/>
<path opacity="0.7" d="M192.399 131.34C189.444 127.919 179.659 122.671 171.779 119.477C170.705 119.183 169.61 118.973 168.504 118.849C167.449 118.747 179.659 121.308 184.144 131.286C187.081 131.393 189.631 131.389 192.399 131.34Z" fill="white"/>
<path d="M167.467 137.915C170.826 148.855 170.065 157.867 169.901 167.538L176.513 168.527C176.513 168.527 179.254 149.742 172.161 131.955L167.467 137.915Z" fill="#D6332B"/>
<path d="M164.912 168.852H179.77C180.31 168.85 180.828 168.634 181.21 168.251C181.592 167.868 181.807 167.349 181.808 166.808V164.972C181.807 164.432 181.591 163.913 181.21 163.531C180.828 163.149 180.31 162.933 179.77 162.932H164.912V168.852Z" fill="#D6332B"/>
<path d="M234.082 143.154H205.894C205.218 143.154 204.67 143.702 204.67 144.379V151.836C204.67 152.512 205.218 153.061 205.894 153.061H234.082C234.758 153.061 235.306 152.512 235.306 151.836V144.379C235.306 143.702 234.758 143.154 234.082 143.154Z" fill="#FFFDF4"/>
<path d="M205.893 153.065H209.515V143.154H205.893C205.572 143.16 205.265 143.292 205.039 143.522C204.814 143.752 204.687 144.061 204.688 144.383V151.836C204.687 152.158 204.814 152.468 205.039 152.697C205.265 152.927 205.572 153.06 205.893 153.065V153.065Z" fill="#8CBFB1"/>
<path opacity="0.3" d="M195.486 144.566H249.497L251.152 138.935H195.486V144.566Z" fill="#2C2933"/>
<path opacity="0.2" d="M51.6179 100.634C50.2518 103.824 46.3583 113.856 46.3672 123.023" stroke="#37333F" stroke-width="1.96" stroke-miterlimit="10" stroke-linecap="square"/>
<path d="M66.4841 113.954L54.7324 113.125L66.4841 113.954Z" fill="#F9543E" stroke="#D6332B" stroke-width="8.82" stroke-linejoin="round"/>
<g style="mix-blend-mode:lighten">
<path d="M148.237 132.445C152.807 134.828 156.131 142.094 156.131 150.709C156.132 152.049 156.051 153.388 155.886 154.718C155.041 161.516 152.073 166.964 148.228 168.973C144.388 166.973 141.425 161.52 140.575 154.718C140.411 153.388 140.329 152.049 140.33 150.709C140.33 142.085 143.663 134.819 148.237 132.445Z" fill="#CAD5D7"/>
</g>
<g style="mix-blend-mode:darken">
<g style="mix-blend-mode:darken">
<path d="M122.653 152.549H117.189C115.204 152.549 113.58 150.161 113.58 147.243V143.679C113.585 142.274 114.145 140.928 115.138 139.935C116.131 138.941 117.476 138.382 118.88 138.378H124.469C124.469 138.378 122.653 142.147 122.653 148.179V152.549Z" fill="#2C2933"/>
</g>
</g>
<path d="M150.685 136.627C151.13 136.85 154.89 140.957 154.89 150.241C154.89 159.524 151.134 164.91 150.676 165.15C147.561 165.15 144.54 159.324 143.877 154.014C143.749 152.979 143.686 151.938 143.686 150.896C143.686 144.16 146.698 136.627 150.685 136.627Z" fill="#3A3842"/>
<g style="mix-blend-mode:lighten">
<path d="M140.33 150.687H156.131" stroke="#CAD5D7" stroke-width="3.92" stroke-miterlimit="10"/>
</g>
<g style="mix-blend-mode:lighten">
<path d="M150.957 165.248L151.771 150.691L150.957 136.124" stroke="#CAD5D7" stroke-width="3.92" stroke-miterlimit="10"/>
</g>
<path d="M145.066 141.163L151.772 150.691L145.066 160.616" stroke="#CAD5D7" stroke-width="3.92" stroke-miterlimit="10"/>
<g style="mix-blend-mode:lighten">
<path d="M155.336 157.792L151.771 150.691L154.891 141.92" stroke="#CAD5D7" stroke-width="3.92" stroke-miterlimit="10"/>
</g>
<g style="mix-blend-mode:lighten">
<g style="mix-blend-mode:lighten">
<g style="mix-blend-mode:lighten">
<path d="M151.104 145.461C152.795 145.461 154.161 147.804 154.161 150.691C154.161 151.058 154.139 151.426 154.094 151.791C153.8 154.152 152.572 155.92 151.104 155.92C149.635 155.92 148.412 154.139 148.114 151.791C148.071 151.426 148.048 151.058 148.047 150.691C148.047 147.804 149.417 145.461 151.104 145.461Z" fill="#CAD5D7"/>
</g>
</g>
</g>
<path d="M29.6448 131.465C35.7988 131.465 40.7691 140.004 40.7691 150.535C40.771 151.875 40.6877 153.215 40.5199 154.544C39.4475 163.151 34.9756 169.61 29.6226 169.61C24.2696 169.61 19.8021 163.151 18.7252 154.54C18.5608 153.21 18.4791 151.871 18.4805 150.531C18.4805 140 23.4686 131.465 29.6048 131.465H29.6448Z" fill="#8C98A4" stroke="#DFE7E8" stroke-width="4.9" stroke-miterlimit="10"/>
<g style="mix-blend-mode:lighten">
<path d="M32.898 132.271C37.4634 134.65 40.7917 141.915 40.7917 150.513C40.7936 151.853 40.7104 153.192 40.5426 154.522C39.6971 161.315 36.7336 166.768 32.8891 168.777C29.0445 166.781 26.081 161.324 25.2355 154.522C25.0675 153.192 24.9843 151.853 24.9864 150.513C24.9864 141.906 28.3192 134.641 32.898 132.271Z" fill="#CAD5D7"/>
</g>
<path d="M35.3412 136.449C35.7862 136.676 39.5506 140.779 39.5506 150.063C39.5506 159.346 35.7906 164.736 35.3323 164.972C32.2175 164.972 29.2006 159.15 28.5376 153.836C28.4064 152.801 28.341 151.76 28.3418 150.717C28.3418 143.982 31.3543 136.449 35.3412 136.449Z" fill="#3A3842"/>
<g style="mix-blend-mode:lighten">
<path d="M24.9863 150.508H40.7917" stroke="#CAD5D7" stroke-width="3.92" stroke-miterlimit="10"/>
</g>
<g style="mix-blend-mode:lighten">
<path d="M35.6113 165.07L36.4301 150.512L35.6113 135.946" stroke="#CAD5D7" stroke-width="3.92" stroke-miterlimit="10"/>
</g>
<path d="M29.7246 140.984L36.4303 150.513L29.7246 160.438" stroke="#CAD5D7" stroke-width="3.92" stroke-miterlimit="10"/>
<g style="mix-blend-mode:lighten">
<path d="M39.9895 157.618L36.4297 150.513L39.5489 141.742" stroke="#CAD5D7" stroke-width="3.92" stroke-miterlimit="10"/>
</g>
<g style="mix-blend-mode:lighten">
<g style="mix-blend-mode:lighten">
<g style="mix-blend-mode:lighten">
<path d="M35.7595 145.274C37.4504 145.274 38.821 147.617 38.821 150.508C38.82 150.875 38.7962 151.241 38.7498 151.604C38.4561 153.965 37.2324 155.738 35.764 155.738C34.2956 155.738 33.0675 153.956 32.7738 151.604C32.7287 151.239 32.7064 150.871 32.707 150.504C32.707 147.617 34.0731 145.274 35.7595 145.274Z" fill="#CAD5D7"/>
</g>
</g>
</g>
<path d="M148.715 154.183C148.493 154.183 147.687 153.399 147.46 151.582C147.423 151.286 147.403 150.989 147.402 150.691C147.402 148.464 148.39 147.208 148.715 147.208C149.04 147.208 150.05 148.446 150.05 150.691C150.051 150.989 150.033 151.286 149.997 151.582C149.747 153.395 148.942 154.183 148.715 154.183Z" fill="#DFEBED"/>
<path d="M33.3732 154.001C33.1463 154.001 32.3409 153.217 32.114 151.395C32.0776 151.099 32.0598 150.802 32.0606 150.504C32.0606 148.277 33.044 147.021 33.3688 147.021C33.6936 147.021 34.7037 148.259 34.7037 150.508C34.7054 150.806 34.6861 151.104 34.6459 151.399C34.4011 153.217 33.5957 154.001 33.3732 154.001Z" fill="#DFEBED"/>
<path d="M104.685 109.062C104.28 109.953 102.611 111.058 98.7401 111.828C94.8688 112.599 87.0195 110.813 87.0195 110.813C87.0195 110.813 90.9442 108.514 101.592 108.514L104.685 109.062Z" fill="#933838"/>
<path d="M103.91 106.167L97.8097 104.385L96.6973 105.632C96.6973 105.632 100.613 109.018 101.441 109.873C103.069 111.575 107.488 107.432 103.91 106.167Z" fill="#D6332B"/>
<path d="M98.3982 105.949C98.3982 105.949 99.8265 107.223 100.988 107.615C102.149 108.007 103.836 106.679 103.15 105.949L103.911 106.167C107.471 107.432 103.07 111.575 101.442 109.891C100.761 109.192 98.0111 106.773 97.041 105.949H98.3982Z" fill="#C12F2F"/>
<path d="M98.2641 99.0352H85.2531C83.8081 99.0352 82.6367 100.208 82.6367 101.654V103.824C82.6367 105.27 83.8081 106.443 85.2531 106.443H98.2641C99.7091 106.443 100.881 105.27 100.881 103.824V101.654C100.881 100.208 99.7091 99.0352 98.2641 99.0352Z" fill="#C12F2F"/>
<path d="M87.834 100.902C87.872 101.213 88.0301 101.497 88.2745 101.694C88.5189 101.89 88.8303 101.983 89.1422 101.953H98.758C99.07 101.983 99.3814 101.89 99.6258 101.694C99.8702 101.497 100.028 101.213 100.066 100.902C100.031 100.588 99.8748 100.3 99.63 100.101C99.3852 99.9018 99.072 99.807 98.758 99.837H89.1422C88.8282 99.807 88.515 99.9018 88.2702 100.101C88.0255 100.3 87.8688 100.588 87.834 100.902V100.902Z" fill="#F9543E"/>
<path d="M268.856 131.313L262.453 121.62C260.896 122.721 259.436 123.952 258.088 125.3L263.708 131.371C265.425 131.38 267.183 131.362 268.856 131.313Z" fill="white"/>
</g>
<defs>
<linearGradient id="paint0_linear" x1="52.002" y1="174" x2="226.002" y2="174" gradientUnits="userSpaceOnUse">
<stop stop-color="#FFE9E9"/>
<stop offset="1" stop-color="#FFE6CE"/>
</linearGradient>
<linearGradient id="paint1_linear" x1="160.574" y1="56.636" x2="154.79" y2="110.157" gradientUnits="userSpaceOnUse">
<stop offset="0.21" stop-color="white"/>
<stop offset="1" stop-color="#231F20"/>
</linearGradient>
<linearGradient id="paint2_linear" x1="89.1426" y1="59.8653" x2="80.4163" y2="97.9081" gradientUnits="userSpaceOnUse">
<stop stop-color="white"/>
<stop offset="1" stop-color="#231F20"/>
</linearGradient>
<linearGradient id="paint3_linear" x1="25.6973" y1="129.469" x2="48.2746" y2="149.303" gradientUnits="userSpaceOnUse">
<stop stop-color="#F9543E"/>
<stop offset="0.27" stop-color="#F14D3A"/>
<stop offset="0.68" stop-color="#DD392F"/>
<stop offset="0.79" stop-color="#D6332B"/>
</linearGradient>
<clipPath id="clip0">
<rect width="274" height="103" fill="white" transform="translate(0 74)"/>
</clipPath>
</defs>
</svg>
