<svg width="47" height="47" viewBox="0 0 47 47" fill="none" xmlns="http://www.w3.org/2000/svg">
<path fill-rule="evenodd" clip-rule="evenodd" d="M23.5 0C36.4787 0 47 10.5213 47 23.5C47 36.4787 36.4787 47 23.5 47C10.5213 47 0 36.4787 0 23.5C0 10.5213 10.5213 0 23.5 0Z" fill="#4A4A4A"/>
<path fill-rule="evenodd" clip-rule="evenodd" d="M29.3114 21.3939C29.2157 20.6162 28.9767 20.0056 28.5522 19.4647C28.001 18.7683 27.2967 18.3513 26.2538 18.1039C25.5742 17.939 25.2996 17.9579 25.0538 18.1824C24.8249 18.3928 24.7802 18.8145 24.9551 19.0876C25.0782 19.2858 25.2201 19.3568 25.6149 19.4343C26.1407 19.531 26.504 19.6565 26.8345 19.8455C27.536 20.2506 27.8627 20.8844 27.8977 21.9106C27.914 22.3924 27.9556 22.5405 28.1239 22.7114C28.4358 23.0238 28.9909 22.963 29.2264 22.5892C29.3128 22.4483 29.326 22.387 29.3351 22.0598C29.3411 21.8573 29.3324 21.5558 29.3114 21.3939Z" fill="#C7C7C7"/>
<path fill-rule="evenodd" clip-rule="evenodd" d="M32.0604 22.2707C31.9218 19.8882 30.9899 17.9713 29.3221 16.6227C28.3825 15.8648 27.2466 15.3438 26.0016 15.0903C25.5455 14.9997 24.7058 14.9262 24.5617 14.9683C24.4258 15.0072 24.2335 15.1544 24.1478 15.2875C24.0572 15.4318 24.0368 15.7541 24.1141 15.9405C24.2389 16.2522 24.471 16.3623 25.1211 16.4191C26.1233 16.5068 27.1569 16.8589 27.938 17.3802C28.8296 17.9737 29.5384 18.7854 29.997 19.7393C30.3932 20.5589 30.6368 21.74 30.6301 22.7977C30.6278 23.1802 30.6869 23.3963 30.8407 23.5542C31.0729 23.7971 31.4114 23.8502 31.7101 23.6889C32.0412 23.5148 32.1186 23.2091 32.0604 22.2707Z" fill="#C7C7C7"/>
<path fill-rule="evenodd" clip-rule="evenodd" d="M34.8901 31.3598C34.8448 31.2268 34.7392 31.0216 34.6637 30.9037C34.1882 30.1817 31.6335 28.1712 30.3579 27.5137C29.6296 27.1375 29.09 27.0121 28.69 27.1298C28.2598 27.2515 28.0333 27.4529 27.3126 28.3536C27.022 28.7147 26.7239 29.0529 26.6446 29.1061C26.4484 29.2429 26.0635 29.3532 25.7918 29.3532C25.1616 29.3493 24.0181 28.9389 23.1389 28.3992C22.4558 27.9812 21.5804 27.2325 20.9086 26.4914C20.1161 25.6211 19.5766 24.8534 19.1501 23.9869C18.5991 22.8733 18.4595 22.193 18.6897 21.6951C18.7463 21.5697 18.8218 21.4367 18.8557 21.3949C18.8897 21.3569 19.2444 21.0642 19.6369 20.745C20.4067 20.1293 20.5312 19.9887 20.6746 19.5669C20.8558 19.031 20.8067 18.4837 20.5275 17.9326C20.3124 17.5146 19.7501 16.6025 19.3426 16.0134C18.8029 15.2381 17.4595 13.5811 17.1915 13.3568C16.7085 12.9616 16.0897 12.8931 15.4066 13.1592C14.6858 13.4405 13.3348 14.535 12.7574 15.2989C12.2367 15.9906 12.0367 16.4808 12.0065 17.1269C11.9801 17.659 12.0254 17.8794 12.3046 18.5597C14.4896 23.8956 17.75 28.156 22.2294 31.5385C24.5691 33.3057 26.9956 34.6511 29.5126 35.5708C30.9806 36.1067 31.6183 36.1333 32.3693 35.6925C32.6863 35.5024 33.4712 34.6929 33.9089 34.1038C34.6335 33.1233 34.9014 32.671 34.9769 32.31C35.0297 32.0629 34.9882 31.6335 34.8901 31.3598Z" fill="#C7C7C7"/>
<path fill-rule="evenodd" clip-rule="evenodd" d="M34.8572 22.818C34.8074 21.4703 34.5805 20.3649 34.1074 19.1324C33.6402 17.9201 33.1675 17.129 32.2746 16.0589C31.4305 15.0557 30.7749 14.4828 29.735 13.8452C28.2843 12.9567 26.5187 12.3688 24.5401 12.1216C23.8653 12.0351 23.7127 12.0413 23.5057 12.1794C23.1045 12.4411 23.1099 13.0938 23.5123 13.3515C23.6455 13.4335 23.7637 13.4634 24.3034 13.534C25.132 13.6456 25.6648 13.7507 26.297 13.9232C28.776 14.6008 30.6823 15.986 31.9568 18.0423C33.0234 19.7561 33.4661 21.4702 33.4033 23.6592C33.3814 24.3993 33.3973 24.5296 33.5104 24.7074C33.7271 25.0388 34.2984 25.1043 34.5915 24.8293C34.7739 24.6617 34.8083 24.5359 34.8442 23.9025C34.8614 23.5721 34.8651 23.0843 34.8572 22.818Z" fill="#C7C7C7"/>
</svg>
