<svg width="24" height="25" viewBox="0 0 24 25" fill="none" xmlns="http://www.w3.org/2000/svg">
<path fill-rule="evenodd" clip-rule="evenodd" d="M4 3.00537H7.5C8.05 3.00537 8.5 3.45537 8.5 4.00537C8.5 5.25537 8.7 6.45537 9.07 7.57537C9.18 7.92537 9.1 8.31537 8.82 8.59537L6.62 10.7954C8.06 13.6254 10.38 15.9354 13.21 17.3854L15.41 15.1854C15.61 14.9954 15.86 14.8954 16.12 14.8954C16.22 14.8954 16.33 14.9054 16.43 14.9454C17.55 15.3154 18.76 15.5154 20 15.5154C20.55 15.5154 21 15.9654 21 16.5154V20.0054C21 20.5554 20.55 21.0054 20 21.0054C10.61 21.0054 3 13.3954 3 4.00537C3 3.45537 3.45 3.00537 4 3.00537ZM6.54 5.00537C6.6 5.89537 6.75 6.76537 6.99 7.59537L5.79 8.79537C5.38 7.59537 5.12 6.32537 5.03 5.00537H6.54ZM16.4 17.0254C17.25 17.2654 18.12 17.4154 19 17.4754V18.9654C17.68 18.8754 16.41 18.6154 15.2 18.2154L16.4 17.0254Z" fill="#4A4A4A"/>
</svg>
