<svg width="70" height="141" viewBox="0 0 70 141" fill="none" xmlns="http://www.w3.org/2000/svg">
<path d="M0 0H70V141L35 107.175L0 141V0Z" fill="url(#paint0_linear)"/>
<path d="M28.754 32H30.842C32.486 32.0611 34.76 32.9411 34.346 35.0372C33.53 38.1111 30.284 39.4922 27.83 40.9894C30.188 41.9428 32.168 43.8617 32.312 46.5689C34.274 44.8822 36.932 44.0206 39.482 44.5339C39.98 45.2183 40.208 46.3 39.596 46.9844C38.258 48.6283 36.554 49.9117 34.952 51.2806C36.266 51.2378 37.58 51.2256 38.888 51.2378C40.106 46.6056 42.584 42.4867 44.372 38.0806C43.466 37.4878 42.572 36.8706 41.702 36.2228C44.456 32.715 49.322 32.5989 53.336 32H55.448C56.822 32.0856 58.118 32.6356 59 33.7417V35.2694C57.776 38.105 54.938 39.5656 52.418 40.9894C53.906 41.8328 55.646 42.6272 56.36 44.3261C57.29 46.0433 56.594 48.2617 55.07 49.3556C51.668 52.0506 47.192 52.2156 43.196 53.3767C41.414 53.8778 38.918 54.6356 38.198 52.2156C35.882 52.845 33.596 53.615 31.226 54H30.89C30.686 53.67 30.278 53.0161 30.074 52.6861C32.504 50.3822 35.27 48.4267 37.412 45.8233C36.5 46.4039 35.618 47.0272 34.754 47.675C33.83 47.7239 32.912 47.7483 31.988 47.7544C29.702 50.7672 25.934 51.7878 22.43 52.4722C19.628 52.9244 16.892 54.2872 14 53.6944V52.185C15.212 47.1983 17.846 42.7861 19.778 38.0867C18.872 37.4878 17.978 36.8644 17.108 36.2167C19.874 32.715 24.734 32.5928 28.754 32ZM25.76 35.5322C24.776 36.51 24.56 38.0622 23.918 39.2906C26.12 37.9461 28.532 36.8767 30.374 35.0006C28.832 35.1167 27.266 35.135 25.76 35.5322ZM50.018 35.5689C49.55 36.8217 49.052 38.0622 48.512 39.2906C50.714 37.94 53.132 36.8767 54.968 34.9944C53.312 35.0861 51.656 35.2633 50.018 35.5689ZM18.11 50.0033C21.56 48.6833 25.7 48.3228 28.34 45.4567C26.582 44.0511 24.332 43.7578 22.214 43.3422C20.792 45.53 19.322 47.6872 18.11 50.0033ZM42.698 50.0094C46.154 48.6894 50.288 48.3167 52.928 45.4567C51.17 44.0511 48.92 43.7578 46.802 43.3483C45.38 45.5361 43.904 47.6872 42.698 50.0094Z" fill="white"/>
<defs>
<linearGradient id="paint0_linear" x1="0" y1="141" x2="70" y2="141" gradientUnits="userSpaceOnUse">
<stop stop-color="#FD8B8B"/>
<stop offset="1" stop-color="#FF9838"/>
</linearGradient>
</defs>
</svg>
