<svg width="24" height="31" viewBox="0 0 24 31" fill="none" xmlns="http://www.w3.org/2000/svg">
<path d="M10.7668 30.3745C1.68563 17.621 0 16.3121 0 11.625C0 5.20467 5.37256 0 12 0C18.6274 0 24 5.20467 24 11.625C24 16.3121 22.3144 17.621 13.2332 30.3745C12.6373 31.2085 11.3626 31.2085 10.7668 30.3745ZM12 16.4687C14.7614 16.4687 17 14.3001 17 11.625C17 8.94985 14.7614 6.78125 12 6.78125C9.23856 6.78125 7 8.94985 7 11.625C7 14.3001 9.23856 16.4687 12 16.4687Z" fill="url(#paint0_linear)"/>
<defs>
<linearGradient id="paint0_linear" x1="0" y1="31" x2="24" y2="31" gradientUnits="userSpaceOnUse">
<stop stop-color="#8DE186"/>
<stop offset="1" stop-color="#5FFF52"/>
</linearGradient>
</defs>
</svg>
