<svg width="301" height="508" viewBox="0 0 301 508" fill="none" xmlns="http://www.w3.org/2000/svg">
<path opacity="0.5" d="M150.5 508C233.619 508 301 493.673 301 476C301 458.327 233.619 444 150.5 444C67.3811 444 0 458.327 0 476C0 493.673 67.3811 508 150.5 508Z" fill="url(#paint0_radial)"/>
<path d="M171.135 183.002C165.648 127.264 165.393 126.805 164.449 124.406C163.198 121.241 155.899 116.801 149.621 113.84L151.178 199.029C157.609 193.491 164.729 188.591 171.135 183.002Z" fill="url(#paint1_linear)"/>
<path d="M79.5665 64.1C79.5665 64.1 83.2415 63.8958 84.8238 61.9562C86.4061 60.0166 81.2254 44.1681 81.2254 44.1681C81.2254 44.1681 86.1509 39.9316 86.2019 33.9597C86.2785 28.0134 82.3228 24.9253 76.1977 25.3081C70.0472 25.691 61.1914 33.8577 61.1914 33.8577L65.6831 36.1801C65.6831 36.1801 67.1378 49.7062 69.0519 53.177C71.017 56.6479 79.5665 64.1 79.5665 64.1Z" fill="#3E3533"/>
<path d="M67.75 37.7369C69.562 46.1843 75.5084 67.0094 75.5084 67.0094L80.8167 60.961L78.1625 34.9041L67.75 37.7369Z" fill="#3E3533"/>
<path d="M89.9518 460.977L92.3252 448.318L106.745 450.411L105.979 462.304C105.979 462.304 103.274 467.637 95.694 467.765C88.1143 467.867 89.9518 460.977 89.9518 460.977Z" fill="#302624"/>
<path d="M154.368 452.912L153.883 463.222L156.665 469.909L168.557 466.132L171.16 458.501L172.028 446.634L154.368 452.912Z" fill="#302624"/>
<path d="M198.697 470.393C194.997 468.556 183.257 465.008 175.065 458.5C174.146 457.786 172.998 457.505 171.849 457.735L171.211 457.862C171.211 457.862 170.139 463.375 164.091 465.34C160.007 466.641 153.908 463.222 153.908 463.222L152.811 477.82H199.795C200.764 477.335 201.045 476.314 201.045 476.314C201.045 476.314 203.393 472.766 198.697 470.393Z" fill="#302624"/>
<path d="M156.666 220.926C156.666 220.926 163.914 313.491 164.629 321.913C165.344 330.335 174.225 455.642 174.225 455.642C163.098 459.981 151.103 456.638 151.103 456.638L131.656 330.309L118.844 262.934L114.531 261.734C114.531 261.734 113.077 343.759 113.026 343.325C113 342.916 111.188 453.448 111.188 453.448C100.418 458.884 85.4374 453.014 85.4374 453.014C85.4374 453.014 80.7671 345.775 79.4655 339.497C78.1639 333.218 77.8066 212.938 77.8066 212.938L156.666 220.926Z" fill="#3E3533"/>
<path d="M158.86 246.039C142.986 251.526 107.078 259.744 77.8305 247.749C77.7795 240.246 77.9071 230.267 77.8816 225.01L157.532 231.926C157.915 236.545 158.349 239.633 158.86 246.039Z" fill="#302624"/>
<path d="M154.063 212.555C153.451 210.284 152.94 208.855 152.94 208.855L82.6048 211.739C82.6048 211.739 82.3496 213.168 81.9668 215.618C82.3241 216.103 82.6048 216.46 82.6048 216.46C113.996 229.297 136.735 229.297 154.063 212.555Z" fill="#330E00"/>
<path d="M67.1387 152.734L79.4653 198.034L73.1871 240.348C73.1871 240.348 128.874 261.504 163.812 238.714L156.641 144.159L67.1387 152.734Z" fill="#3E3533"/>
<path d="M147.886 112.973C155.338 116.112 165.827 122.415 156.614 144.134L153.399 211.024C153.399 211.024 156.972 221.335 154.726 223.53C137.397 240.348 114.632 240.348 83.2162 227.511C83.2162 227.511 81.5573 225.393 81.3531 224.55C80.2047 220.008 84.0328 207.324 84.0328 207.324L66.4744 152.734C66.4744 152.734 49.1712 129.179 60.6301 120.629C78.6734 107.179 118.359 100.544 147.886 112.973Z" fill="#3E3533"/>
<path d="M163.811 238.714L159.651 183.844C151.561 193.363 145.104 204.261 140.74 215.975C122.186 206.354 105.955 192.291 93.7815 175.295C98.3498 187.545 102.944 199.769 107.512 212.019C95.6445 198.085 76.9122 160.467 65.0449 146.532L79.4643 198.059L73.1861 240.373C73.1861 240.347 128.873 261.504 163.811 238.714Z" fill="url(#paint2_linear)"/>
<path d="M127.393 104.882C127.393 104.882 134.334 104.576 135.585 105.367C136.835 106.133 140 115.244 140.638 116.673C141.276 118.102 132.216 126.575 132.216 126.575C132.216 126.575 139.694 138.851 139.387 139.82C139.081 140.816 125.81 194.435 125.81 194.435C125.81 194.435 93.6795 146.532 93.0159 144.133C92.3524 141.76 96.1039 129.433 96.1039 129.433C96.1039 129.433 86.5846 122.415 86.0232 120.884C85.4362 119.353 84.2367 109.578 86.0232 108.328C87.1206 107.562 93.5263 106.133 93.5263 106.133L127.393 104.882Z" fill="#302624"/>
<path d="M93.5 108.455C93.5 108.455 103.351 133.874 112.028 156.256C118.842 173.865 126.397 155.439 126.397 155.439L128.515 104.984C128.055 104.959 127.06 104.831 126.601 104.806L93.5 108.455Z" fill="#F8E8D8"/>
<path d="M126.04 121.088C128.005 120.629 128.107 114.453 128.107 114.453L128.49 105.112C128.464 105.061 128.439 105.01 128.439 104.959C127.954 104.908 127.035 104.806 126.576 104.781L96.1036 108.149C96.2057 108.507 94.9807 111.059 95.2104 111.773C96.9713 116.98 102.663 124.457 103.811 124.636C105.164 124.84 108.558 120.935 109.017 119.659C109.706 120.297 110.906 122.186 111.62 122.824C112.003 131.909 111.671 143.853 111.518 154.904C116.801 168.532 121.727 181.241 123.845 186.728C124.228 187.239 124.611 187.724 124.993 188.183L126.142 161.182C122.696 148.192 119.277 135.176 115.831 122.186C116.929 120.68 118.332 119.583 119.43 118.077C121.242 119.863 123.488 121.088 126.04 121.088Z" fill="url(#paint3_linear)"/>
<path d="M118.997 109.936C116.036 111.646 109.937 112.539 106.619 112.615C101.693 112.743 103.658 109.859 102.025 109.425L86.0234 72.4709L114.964 85.5121L115.041 86.7372L118.997 109.936Z" fill="#FBC0A4"/>
<path d="M111.034 98.4513C107.869 98.0685 105.037 97.1752 102.153 95.8481C99.4219 94.5976 96.7677 93.1684 94.2667 91.5351L86.0234 72.4709L114.964 85.5122L115.041 86.7372L117.133 98.9872C115.092 98.8086 113.05 98.681 111.034 98.4513Z" fill="#F69D7D"/>
<path d="M126.372 155.439L116.061 120.654L120.579 115.601L112.922 110.905L107.078 116.316L112.54 121.139C112.54 121.139 111.238 137.268 112.029 156.256C118.843 173.865 124.943 189.586 124.943 189.586L126.372 155.439Z" fill="url(#paint4_linear)"/>
<path d="M97.9406 100.059C97.9406 100.059 109.578 111.212 112.564 110.727C115.55 110.242 117.107 99.0127 117.107 99.0127C117.107 99.0127 127.749 102.075 129.025 103.555C130.327 105.036 127.137 119.583 125.758 120.297C122.823 121.777 113.942 111.875 112.334 113.151C110.727 114.402 106.158 122.875 104.653 122.696C103.147 122.518 91.152 110.701 91.8411 106.363C92.5046 101.999 97.9406 100.059 97.9406 100.059Z" fill="#F8E8D8"/>
<path d="M75.5865 52.7942C75.5865 52.7942 65.5823 50.5228 66.9604 62.4411C68.3386 74.3849 76.9902 74.6146 79.5423 75.125C79.5423 75.125 84.2891 96.384 110.525 94.3423C136.76 92.3006 132.447 72.0115 132.269 58.5364C132.064 45.0613 133.57 21.6842 116.42 19.9743C99.0913 18.2644 74.0552 19.3873 75.5865 52.7942Z" fill="#FBC0A4"/>
<path d="M118.002 75.4822C118.104 75.6863 117.44 76.2988 116.113 76.8348C115.449 77.1155 114.633 77.3197 113.688 77.4728C112.744 77.6004 111.698 77.6259 110.6 77.4728C109.503 77.3197 108.508 77.0389 107.614 76.7072C106.747 76.3499 105.981 75.916 105.42 75.4822C104.246 74.6144 103.812 73.8743 103.939 73.6957C104.093 73.4915 104.884 73.8999 106.058 74.3848C106.645 74.64 107.359 74.8952 108.176 75.1504C108.993 75.3801 109.886 75.5842 110.83 75.7118C111.774 75.8139 112.693 75.8395 113.535 75.8395C114.378 75.8139 115.118 75.7374 115.756 75.6353C117.083 75.4311 117.899 75.2525 118.002 75.4822Z" fill="#F6876E"/>
<path d="M113.586 71.6286C113.56 71.3734 114.428 71.1437 114.888 70.0208C115.117 69.4593 115.219 68.8213 115.041 68.0302C114.888 67.239 114.505 66.3713 114.045 65.376C112.208 61.3947 111.085 58.0004 111.544 57.7963C112.004 57.5921 113.841 60.6546 115.679 64.6359C116.138 65.6312 116.572 66.7031 116.674 67.8005C116.725 68.3619 116.699 68.8724 116.572 69.3828C116.444 69.8932 116.215 70.3015 115.959 70.6588C115.449 71.3479 114.785 71.7052 114.326 71.7817C113.841 71.8583 113.611 71.7307 113.586 71.6286Z" fill="#F69D7D"/>
<path d="M105.956 50.3188C105.803 50.5229 105.063 50.2422 103.889 49.936C102.715 49.6297 101.133 49.3235 99.3205 49.5021C97.5851 49.6807 96.0283 50.2677 94.9565 50.8037C94.4205 51.0844 93.9611 51.2886 93.6549 51.4672C93.3231 51.6203 93.0934 51.6969 93.0169 51.5948C92.9403 51.5182 92.9914 51.2886 93.17 50.9568C93.3742 50.625 93.7315 50.1912 94.2419 49.7573C95.2882 48.8641 96.9981 47.9453 99.1674 47.7412C101.26 47.537 103.2 48.124 104.348 48.7875C105.573 49.4255 106.109 50.1146 105.956 50.3188Z" fill="#3E3533"/>
<path d="M116.087 49.8595C115.909 49.7063 116.291 48.9152 117.338 48.022C118.359 47.1287 120.145 46.21 122.238 46.0058C124.407 45.8016 126.295 46.3886 127.469 47.0522C128.056 47.3839 128.49 47.7412 128.771 48.022C129.026 48.3027 129.128 48.5069 129.052 48.6089C128.975 48.711 128.745 48.6855 128.388 48.6089C128.056 48.5069 127.572 48.3793 126.985 48.2261C125.836 47.9199 124.177 47.6136 122.442 47.7923C120.63 47.9709 119.124 48.5579 118.027 49.0938C116.955 49.6043 116.291 50.0381 116.087 49.8595Z" fill="#3E3533"/>
<path d="M101.005 72.4964C101.184 76.3756 98.1723 79.6678 94.2931 79.8465C90.4139 80.0251 87.1217 77.0136 86.9431 73.1344C86.7645 69.2553 89.7759 65.9631 93.6551 65.7844C97.5343 65.6058 100.826 68.6172 101.005 72.4964Z" fill="url(#paint5_radial)"/>
<path d="M132.829 71.0414C133.008 74.9206 129.997 78.2128 126.117 78.3914C122.238 78.5701 118.946 75.5586 118.767 71.6794C118.589 67.8002 121.6 64.508 125.479 64.3293C129.359 64.1507 132.651 67.1622 132.829 71.0414Z" fill="url(#paint6_radial)"/>
<path d="M103.48 58.8424C103.557 60.782 102.077 62.4409 100.111 62.5174C98.1719 62.594 96.513 61.1138 96.4364 59.1487C96.3599 57.2091 97.8401 55.5502 99.8052 55.4736C101.745 55.3716 103.378 56.8773 103.48 58.8424Z" fill="#3E3533"/>
<path d="M123.541 57.9238C123.617 59.8634 122.137 61.5223 120.172 61.5988C118.232 61.6754 116.574 60.1952 116.497 58.2301C116.42 56.2905 117.901 54.6316 119.866 54.555C121.805 54.4785 123.439 55.9842 123.541 57.9238Z" fill="#3E3533"/>
<path d="M70.3793 58.1282C69.4606 61.2928 70.7621 64.6105 72.0382 67.6475C72.421 68.5408 72.8293 69.5106 73.646 70.0465C74.4627 70.5824 75.7642 70.5059 76.1981 69.6382C76.6064 68.796 75.9939 67.8262 75.5346 67.0095C75.0497 66.1928 74.7945 64.9678 75.5856 64.4574C75.9429 64.2277 76.4278 64.2277 76.8361 64.0236C77.6783 63.5642 77.6783 62.3647 77.4486 61.446C77.1424 60.1444 76.6575 58.9194 76.0195 57.7454C75.3814 56.597 74.4116 55.4485 73.1101 55.4741C71.7319 55.4996 70.7621 56.8267 70.3793 58.1282Z" fill="url(#paint7_linear)"/>
<path d="M102.843 463.018C97.1514 457.659 92.1238 462.176 92.1238 462.176L89.9545 460.951C86.8154 465.647 80.818 471.261 80.0524 474.018C78.6232 479.249 81.1753 485.323 89.5717 485.323C97.7639 485.323 105.675 480.321 106.569 476.238C107.105 473.788 106.237 467.203 105.956 462.303L102.843 463.018Z" fill="#302624"/>
<path d="M131.682 330.309L131.299 328.293C135.535 343.121 141.456 363.155 142.528 363.206C144.212 363.282 161.031 360.602 161.771 358.382C162.103 357.387 163.506 342.304 164.961 325.868C166.696 349.041 174.251 455.642 174.251 455.642C163.123 459.981 151.129 456.638 151.129 456.638L131.682 330.309Z" fill="url(#paint8_linear)"/>
<path d="M85.488 453.039C85.488 453.039 85.488 452.937 85.488 452.81C85.488 452.784 85.488 452.733 85.488 452.708C85.488 452.606 85.488 452.452 85.4625 452.299C85.437 451.84 85.4115 451.151 85.386 450.283C85.386 450.079 85.3604 449.875 85.3604 449.645C85.3349 449.237 85.3349 448.828 85.3094 448.369C85.3094 448.19 85.2839 448.012 85.2839 447.833C85.2328 446.812 85.1818 445.664 85.1307 444.388C85.1307 444.184 85.1052 443.979 85.1052 443.75C85.0797 443.035 85.0287 442.27 85.0031 441.478C85.0031 441.453 85.0031 441.453 85.0031 441.427C84.9776 440.585 84.9266 439.717 84.8755 438.799C84.8755 438.646 84.85 438.518 84.85 438.365C84.7479 436.119 84.6458 433.695 84.5182 431.091C84.5182 430.836 84.4927 430.581 84.4927 430.326C84.2886 425.885 84.0589 420.985 83.8292 415.855C83.8292 415.779 83.8292 415.677 83.8292 415.6C83.7271 413.686 83.6505 411.721 83.5485 409.73C83.5485 409.654 83.5485 409.603 83.5485 409.526C82.7828 393.116 81.8896 375.124 81.124 361.47C81.124 361.445 81.124 361.445 81.124 361.419C80.9198 357.999 80.7411 354.86 80.5625 352.079C83.9823 354.554 89.8011 358.484 92.149 358.408C95.5943 358.306 107.206 348.837 107.895 344.626C108.431 341.258 112.387 309.688 113.969 297.157C113.561 319.284 113.127 343.58 113.102 343.35C113.102 343.325 113.102 343.478 113.102 343.784C113.102 343.835 113.102 343.912 113.102 343.988C113.076 345.239 113.025 348.276 112.949 352.563C112.949 352.819 112.949 353.074 112.923 353.329C112.898 354.886 112.872 356.621 112.846 358.459C112.846 359.071 112.821 359.709 112.821 360.347C112.77 362.925 112.719 365.707 112.693 368.667C112.693 369.024 112.693 369.407 112.668 369.79C112.132 402.38 111.29 453.448 111.29 453.448C109.274 454.469 107.104 455.081 104.909 455.438C104.169 455.54 103.455 455.643 102.715 455.694C101.975 455.745 101.26 455.77 100.545 455.77C99.8308 455.77 99.1162 455.745 98.4016 455.719C97.7126 455.668 96.998 455.617 96.3344 455.54C95.6709 455.464 95.0074 455.387 94.3693 455.285C93.4251 455.132 92.5063 454.953 91.6641 454.775C91.1026 454.647 90.5667 454.52 90.0563 454.392C87.249 453.728 85.488 453.039 85.488 453.039Z" fill="url(#paint9_linear)"/>
<path d="M75.5845 52.7942C75.5845 52.7942 79.6934 55.8312 80.8163 62.5177H83.8278V50.9567C83.8278 50.9567 92.9643 48.4301 89.519 35.0061C86.0481 21.5566 72.4199 34.904 72.4199 34.904L75.5845 52.7942Z" fill="#3E3533"/>
<path d="M101.692 31.5863C101.692 31.5863 91.9431 38.63 79.693 33.092C67.443 27.5539 67.5195 19.3617 67.5195 19.3617C67.5195 19.3617 78.2383 18.9279 85.4863 10.8632C92.7342 2.79863 113.942 -5.39359 129.918 5.70802C145.894 16.7841 140.867 33.0409 131.296 35.7972C121.726 38.5535 116.316 31.8925 113.891 33.3727C111.467 34.8274 107.638 36.4097 101.692 31.5863Z" fill="#3E3533"/>
<path d="M135.815 11.1185C134.845 9.91897 133.671 8.71949 132.293 7.57104C113.79 19.5659 91.5362 25.742 69.4861 25.0019C69.8944 25.6399 70.3793 26.2779 70.9663 26.967C69.1033 27.8857 67.2658 29.0852 65.709 30.2337C74.7689 32.4285 84.2372 32.9899 93.4758 31.7394C109.324 29.5956 124.382 22.2201 135.815 11.1185Z" fill="url(#paint10_linear)"/>
<path d="M123.845 183.64C123.845 183.64 118.409 162.024 120.731 161.182C123.054 160.34 128.72 186.422 128.72 186.422L123.845 183.64Z" fill="#3F3E3C"/>
<path d="M123.593 177.234C119.662 173.814 113.027 177.056 99.2457 177.719C97.8675 177.796 96.3363 177.898 94.7029 178.051C94.6519 182.058 94.4988 186.09 94.7795 190.071C98.3014 188.361 101.364 187.596 103.457 188.642C111.47 192.598 118.208 192.496 118.208 192.496C118.208 192.496 118.744 196.962 121.449 197.651C124.154 198.34 127.906 194.665 129.641 193.925C131.402 193.185 127.548 180.629 123.593 177.234Z" fill="#F7BEAA"/>
<path d="M97.2285 176.162L105.957 175.703V191.602L97.2285 193.848V176.162Z" fill="#F8E8D8"/>
<path d="M135.61 136.018L182.594 143.189L166.491 227.868L119.736 221.845L135.61 136.018Z" fill="#F8E8D8"/>
<path d="M178.563 161.896C171.8 161.692 166.262 179.174 170.141 179.327C174.225 179.506 167.181 186.473 171.034 187.009C175.96 187.723 167.921 192.496 170.141 193.925C173.842 196.299 181.626 185.171 178.563 181.93C175.501 178.715 181.83 176.137 179.278 172.972C176.726 169.808 183.131 162.024 178.563 161.896Z" fill="#F7BEAA"/>
<path d="M58.6148 122.696C53.2044 127.264 36.7944 190.786 38.0705 196.732C39.321 202.679 45.9564 212.555 54.4804 212.351C63.0044 212.147 101.031 197.217 101.031 197.217L100.801 173.84L67.4961 181.216L73.7232 150.259L58.6148 122.696Z" fill="#3E3533"/>
<defs>
<radialGradient id="paint0_radial" cx="0" cy="0" r="1" gradientUnits="userSpaceOnUse" gradientTransform="translate(150.491 475.994) scale(161.098 24.1546)">
<stop stop-color="#C5C5C5"/>
<stop offset="0.2973" stop-color="#C4C4C4" stop-opacity="0.7027"/>
<stop offset="0.4964" stop-color="#CDCDCD" stop-opacity="0.5036"/>
<stop offset="0.6667" stop-color="#DADADA" stop-opacity="0.3333"/>
<stop offset="0.8209" stop-color="#F3F3F3" stop-opacity="0.1791"/>
<stop offset="0.9628" stop-color="white" stop-opacity="0.0372"/>
<stop offset="1" stop-color="#F9FBFC" stop-opacity="0"/>
</radialGradient>
<linearGradient id="paint1_linear" x1="141.529" y1="166.556" x2="174.548" y2="134.807" gradientUnits="userSpaceOnUse">
<stop stop-color="#302624" stop-opacity="0.5"/>
<stop offset="0.9947" stop-color="#302624" stop-opacity="0"/>
</linearGradient>
<linearGradient id="paint2_linear" x1="114.096" y1="185.499" x2="119.791" y2="251.401" gradientUnits="userSpaceOnUse">
<stop stop-color="#302624" stop-opacity="0.5"/>
<stop offset="0.9947" stop-color="#302624" stop-opacity="0"/>
</linearGradient>
<linearGradient id="paint3_linear" x1="115.941" y1="119.647" x2="141.363" y2="189.087" gradientUnits="userSpaceOnUse">
<stop stop-color="#CFD4D8"/>
<stop offset="1" stop-color="#CFD4D8" stop-opacity="0"/>
</linearGradient>
<linearGradient id="paint4_linear" x1="107.078" y1="189.586" x2="126.372" y2="189.586" gradientUnits="userSpaceOnUse">
<stop stop-color="#FD8B8B"/>
<stop offset="1" stop-color="#FF9838"/>
</linearGradient>
<radialGradient id="paint5_radial" cx="0" cy="0" r="1" gradientUnits="userSpaceOnUse" gradientTransform="translate(93.9824 72.8099) rotate(177.392) scale(7.03432)">
<stop stop-color="#F69D7D" stop-opacity="0.7"/>
<stop offset="1" stop-color="#F69D7D" stop-opacity="0"/>
</radialGradient>
<radialGradient id="paint6_radial" cx="0" cy="0" r="1" gradientUnits="userSpaceOnUse" gradientTransform="translate(125.799 71.3612) rotate(177.392) scale(7.03408)">
<stop stop-color="#F69D7D" stop-opacity="0.7"/>
<stop offset="1" stop-color="#F69D7D" stop-opacity="0"/>
</radialGradient>
<linearGradient id="paint7_linear" x1="76.6644" y1="64.4424" x2="71.4068" y2="61.498" gradientUnits="userSpaceOnUse">
<stop stop-color="#F69D7D"/>
<stop offset="1" stop-color="#F69D7D" stop-opacity="0.6"/>
</linearGradient>
<linearGradient id="paint8_linear" x1="151.418" y1="323.424" x2="154.256" y2="467.274" gradientUnits="userSpaceOnUse">
<stop stop-color="#302624" stop-opacity="0.5"/>
<stop offset="0.9947" stop-color="#302624" stop-opacity="0"/>
</linearGradient>
<linearGradient id="paint9_linear" x1="97.2292" y1="324.493" x2="100.069" y2="468.344" gradientUnits="userSpaceOnUse">
<stop stop-color="#302624" stop-opacity="0.5"/>
<stop offset="0.9947" stop-color="#302624" stop-opacity="0"/>
</linearGradient>
<linearGradient id="paint10_linear" x1="104.05" y1="36.755" x2="99.6733" y2="15.2248" gradientUnits="userSpaceOnUse">
<stop stop-color="#F8E8D8" stop-opacity="0.2"/>
<stop offset="1" stop-color="#F8E8D8" stop-opacity="0"/>
</linearGradient>
</defs>
</svg>
