<svg width="908" height="875" viewBox="0 0 908 875" fill="none" xmlns="http://www.w3.org/2000/svg">
<path d="M518.191 126.726C895 236.309 929.242 51.6087 966 0.309082V803.331C905.732 813.408 819 924.309 632.941 847.302C491.687 788.84 363.136 729.68 220.397 723.084C77.6574 716.488 -101 636.309 72.6197 455.96C170.023 354.781 -7.38989 335.905 119.64 200.378C197.5 117.309 342.973 75.7695 518.191 126.726Z" fill="url(#paint0_linear)" fill-opacity="0.5"/>
<path d="M911.501 707.809V259.309H761.5C693.5 259.309 581.501 314.309 508.001 345.809C434.501 377.309 453.001 471.309 518.001 495.809C583.001 520.309 650.501 562.309 681.001 641.309C705.401 704.509 844.834 711.976 911.501 707.809Z" fill="#FFFEFE"/>
<defs>
<linearGradient id="paint0_linear" x1="0.970703" y1="874.344" x2="966" y2="874.344" gradientUnits="userSpaceOnUse">
<stop stop-color="#FFE9E9"/>
<stop offset="1" stop-color="#FFE6CE"/>
</linearGradient>
</defs>
</svg>
